<svg xmlns="http://www.w3.org/2000/svg" style="display: none;">
<symbol id="icon-logo" viewBox="0 0 127 32">
<path fill="#333" style="fill: var(--color1, #333)" d="M31.045 24.668h2.567v-19h6.557v-2.111h-9.124v21.111zM44.439 23.558c0.373-0.637 0.719-1.362 0.887-2.091 0.238-1.012 0.277-2.828 0.337-3.061 0.040-0.156 0.060-4.402 0.060-12.738l5.004 0.009v19.093h2.533v-21.214h-9.917v14.849c-0.019 0.802-0.219 1.829-0.397 2.608-0.124 0.546-0.12 0.74-0.397 1.218-0.204 0.355-0.814 0.742-1.163 0.932-0.334 0.166-0.7 0.25-1.069 0.244v1.361c0.154 0.068 0.314 0.119 0.478 0.152 0.395 0.108 0.802 0.159 1.21 0.151 0.458-0.002 0.908-0.127 1.308-0.363 0.459-0.28 0.846-0.675 1.126-1.152zM60.081 13.071c-0.601-0.665-0.901-1.792-0.902-3.384s0.301-2.718 0.902-3.383c0.601-0.665 1.561-0.997 2.88-0.997h2.035v8.76h-2.035c-1.318-0-2.278-0.333-2.879-0.997zM59.178 16.603c-0.43 0.702-0.726 1.481-0.873 2.296l-0.581 2.567c-0.119 0.534-0.37 1.028-0.727 1.435-0.44 0.392-1.018 0.583-1.6 0.528v1.362c0.181 0.062 0.366 0.112 0.553 0.151 0.389 0.106 0.79 0.157 1.193 0.151 1.648 0 2.763-1.208 3.344-3.625l0.582-2.567c0.252-1.047 0.63-1.762 1.134-2.144 0.466-0.369 1.039-0.571 1.628-0.574h1.163v8.608h2.618v-20.841c-0.727-0.219-1.472-0.376-2.224-0.468-0.806-0.094-1.617-0.139-2.428-0.136-1-0.020-1.997 0.097-2.967 0.348-0.743 0.191-1.424 0.576-1.977 1.118-0.527 0.553-0.907 1.233-1.107 1.978-0.25 0.945-0.367 1.921-0.349 2.9-0.015 0.81 0.103 1.616 0.349 2.386 0.202 0.627 0.507 1.214 0.902 1.737 0.343 0.452 0.774 0.827 1.265 1.102 0.439 0.249 0.916 0.423 1.41 0.514v0.122c-0.539 0.188-1.001 0.561-1.308 1.054zM80.357 3.557v9.35h-6.195v-9.35h-2.655v21.111h2.655v-9.651h6.195v9.651h2.655v-21.111h-2.655zM89.604 14.716h6.416v-2.111h-6.416v-6.937h7.292v-2.111h-9.917v21.111h9.916v-2.111h-7.291v-7.841zM111.542 29.134h1.618v-6.62h-1.912v-18.957h-2.648v18.957h-5.883v-18.957h-2.648v21.064h10.589c0.085 1.539 0.382 3.058 0.884 4.514zM120.539 14.068c1.319 0 2.278 0.337 2.879 1.012s0.901 1.847 0.902 3.519c0 1.672-0.3 2.845-0.902 3.519s-1.561 1.012-2.879 1.012h-2.035v-9.061h2.035zM118.569 12.193v-8.636h-2.631v20.909c0.731 0.22 1.479 0.378 2.236 0.47 0.81 0.094 1.625 0.14 2.44 0.136 1.005 0.021 2.008-0.102 2.981-0.364 0.746-0.201 1.43-0.592 1.987-1.136 0.534-0.563 0.916-1.257 1.11-2.015 0.252-0.979 0.371-1.988 0.351-3 0-2.424-0.453-4.142-1.359-5.152s-2.304-1.515-4.194-1.515c-0.507 0.004-1.013 0.034-1.517 0.091-0.472 0.046-0.94 0.117-1.404 0.212z"></path>
<path fill="#ffe30b" style="fill: var(--color2, #ffe30b)" d="M15.136 3.343c-6.919 2.319-12.756 7.046-15.136 14.090 2.353 6.963 8.135 11.743 15.136 14.090 6.226-4.77 9.621-8.6 12.118-14.090-3.585-2.392-5.091-3.623-7.997-7.323-3.894 1.797-7.284 3.891-10.286 7.247 1.078 1.525 2.867 2.949 4.313 4.118 2.108-1.539 3.716-3.039 4.757-4.326 0.653 0.793 1.389 1.32 2.090 1.761-1.811 3.062-3.844 4.743-6.354 6.349-3.77-1.983-6.801-5.416-8.274-8.319 2.761-4.523 7.091-7.577 12.011-9.279-0.797-1.387-1.842-2.679-2.378-4.318z"></path>
<path fill="#333" style="fill: var(--color1, #333)" d="M32.361 30.636c0.728 0 1.232-0.562 1.232-1.456 0-0.9-0.504-1.45-1.232-1.45-0.39 0-0.734 0.201-0.934 0.481v-0.413h-0.43v3.823h0.43v-1.473c0.224 0.309 0.556 0.487 0.934 0.487zM32.252 30.252c-0.338 0-0.676-0.206-0.825-0.447v-1.249c0.149-0.241 0.487-0.441 0.825-0.441 0.556 0 0.888 0.453 0.888 1.066s-0.332 1.072-0.888 1.072z"></path>
<path fill="#333" style="fill: var(--color1, #333)" d="M35.486 30.636c0.843 0 1.37-0.653 1.37-1.456s-0.527-1.45-1.37-1.45c-0.843 0-1.37 0.648-1.37 1.45s0.527 1.456 1.37 1.456zM35.486 30.252c-0.59 0-0.923-0.504-0.923-1.072 0-0.562 0.332-1.066 0.923-1.066s0.917 0.504 0.917 1.066c0 0.567-0.327 1.072-0.917 1.072z"></path>
<path fill="#333" style="fill: var(--color1, #333)" d="M38.537 30.636c0.797 0 1.267-0.344 1.267-0.808 0-0.459-0.481-0.653-0.802-0.676 0.327-0.040 0.745-0.264 0.745-0.676 0-0.47-0.527-0.745-1.272-0.739-0.504 0-0.877 0.178-1.135 0.441l0.224 0.264c0.235-0.241 0.539-0.355 0.928-0.355 0.459 0 0.808 0.178 0.808 0.441 0 0.315-0.361 0.464-0.82 0.464h-0.619v0.35h0.619c0.487 0 0.871 0.115 0.871 0.459 0 0.292-0.321 0.481-0.814 0.481-0.413 0-0.779-0.126-1.037-0.373l-0.212 0.275c0.275 0.275 0.694 0.453 1.249 0.453z"></path>
<path fill="#333" style="fill: var(--color1, #333)" d="M41.865 30.636c0.728 0 1.232-0.562 1.232-1.456 0-0.9-0.504-1.45-1.232-1.45-0.39 0-0.734 0.201-0.934 0.481v-0.413h-0.43v3.823h0.43v-1.473c0.224 0.309 0.556 0.487 0.934 0.487zM41.756 30.252c-0.338 0-0.676-0.206-0.825-0.447v-1.249c0.149-0.241 0.487-0.441 0.825-0.441 0.556 0 0.888 0.453 0.888 1.066s-0.332 1.072-0.888 1.072z"></path>
<path fill="#333" style="fill: var(--color1, #333)" d="M44.99 30.636c0.843 0 1.37-0.653 1.37-1.456s-0.527-1.45-1.37-1.45c-0.843 0-1.37 0.648-1.37 1.45s0.527 1.456 1.37 1.456zM44.99 30.252c-0.59 0-0.923-0.504-0.923-1.072 0-0.562 0.332-1.066 0.923-1.066s0.917 0.504 0.917 1.066c0 0.567-0.327 1.072-0.917 1.072z"></path>
<path fill="#333" style="fill: var(--color1, #333)" d="M48.27 30.252c-0.59 0-0.923-0.504-0.923-1.078 0-0.556 0.332-1.060 0.923-1.060s0.917 0.504 0.917 1.060c0 0.573-0.327 1.078-0.917 1.078zM48.27 30.636c0.854 0 1.364-0.665 1.364-1.462 0-0.785-0.51-1.444-1.295-1.444-0.493 0-0.843 0.275-1.043 0.59 0.097-0.47 0.344-0.825 1.164-0.94 0.47-0.063 1.089-0.183 1.089-0.636h-0.418c0 0.115-0.172 0.189-0.779 0.281-0.963 0.126-1.45 0.682-1.45 2.029 0 0.917 0.522 1.582 1.37 1.582z"></path>
<path fill="#333" style="fill: var(--color1, #333)" d="M52.804 30.567l-1.232-1.513 1.227-1.255h-0.544l-1.456 1.473v-1.473h-0.43v2.768h0.43v-0.791l0.459-0.453 0.997 1.244h0.55z"></path>
<path fill="#333" style="fill: var(--color1, #333)" d="M55.473 30.567v-1.903c0-0.671-0.487-0.934-1.072-0.934-0.453 0-0.808 0.149-1.106 0.459l0.201 0.298c0.246-0.264 0.516-0.384 0.848-0.384 0.401 0 0.699 0.212 0.699 0.585v0.499c-0.224-0.258-0.539-0.378-0.917-0.378-0.47 0-0.969 0.292-0.969 0.911 0 0.602 0.499 0.917 0.969 0.917 0.373 0 0.688-0.132 0.917-0.384v0.315h0.43zM54.281 30.326c-0.401 0-0.682-0.252-0.682-0.602 0-0.355 0.281-0.608 0.682-0.608 0.304 0 0.596 0.115 0.762 0.344v0.522c-0.166 0.229-0.459 0.344-0.762 0.344z"></path>
<path fill="#333" style="fill: var(--color1, #333)" d="M58.747 30.567v-2.39h0.808v-0.378h-2.040v0.378h0.802v2.39h0.43z"></path>
<path fill="#333" style="fill: var(--color1, #333)" d="M62.279 30.567v-1.903c0-0.671-0.487-0.934-1.072-0.934-0.453 0-0.808 0.149-1.106 0.459l0.201 0.298c0.246-0.264 0.516-0.384 0.848-0.384 0.401 0 0.699 0.212 0.699 0.585v0.499c-0.224-0.258-0.539-0.378-0.917-0.378-0.47 0-0.969 0.292-0.969 0.911 0 0.602 0.499 0.917 0.969 0.917 0.373 0 0.688-0.132 0.917-0.384v0.315h0.43zM61.087 30.326c-0.401 0-0.682-0.252-0.682-0.602 0-0.355 0.281-0.608 0.682-0.608 0.304 0 0.596 0.115 0.762 0.344v0.522c-0.166 0.229-0.459 0.344-0.762 0.344z"></path>
<path fill="#333" style="fill: var(--color1, #333)" d="M66.922 30.567v-2.768h-2.304v2.768h0.43v-2.39h1.444v2.39h0.43z"></path>
<path fill="#333" style="fill: var(--color1, #333)" d="M67.993 27.404c0.16 0 0.292-0.126 0.292-0.287s-0.132-0.292-0.292-0.292c-0.155 0-0.287 0.132-0.287 0.292s0.132 0.287 0.287 0.287zM68.211 30.567v-2.768h-0.43v2.768h0.43z"></path>
<path fill="#333" style="fill: var(--color1, #333)" d="M68.741 31.272h0.43v-0.705h2.092v0.705h0.43v-1.083h-0.321v-2.39h-1.926l-0.178 1.364c-0.109 0.82-0.269 1.003-0.527 1.049v1.060zM69.824 28.177h1.118v2.012h-1.645c0.201-0.16 0.332-0.453 0.401-0.974l0.126-1.037z"></path>
<path fill="#333" style="fill: var(--color1, #333)" d="M73.215 30.567v-2.39h0.808v-0.378h-2.040v0.378h0.802v2.39h0.43z"></path>
<path fill="#333" style="fill: var(--color1, #333)" d="M75.951 30.636c0.728 0 1.232-0.562 1.232-1.456 0-0.9-0.504-1.45-1.232-1.45-0.39 0-0.734 0.201-0.934 0.481v-0.413h-0.43v3.823h0.43v-1.473c0.224 0.309 0.556 0.487 0.934 0.487zM75.842 30.252c-0.338 0-0.676-0.206-0.825-0.447v-1.249c0.149-0.241 0.487-0.441 0.825-0.441 0.556 0 0.888 0.453 0.888 1.066s-0.332 1.072-0.888 1.072z"></path>
<path fill="#333" style="fill: var(--color1, #333)" d="M78.279 30.567l1.462-2.155v2.155h0.43v-2.768h-0.424l-1.45 2.115v-2.115h-0.43v2.768h0.413z"></path>
<path fill="#333" style="fill: var(--color1, #333)" d="M83.854 30.567v-2.768h-0.573l-0.837 2.052-0.848-2.052h-0.567v2.768h0.43v-2.172l0.906 2.172h0.16l0.9-2.172v2.172h0.43z"></path>
<path fill="#333" style="fill: var(--color1, #333)" d="M87.147 30.567l-1.232-1.513 1.227-1.255h-0.544l-1.456 1.473v-1.473h-0.43v2.768h0.43v-0.791l0.459-0.453 0.997 1.244h0.55z"></path>
<path fill="#333" style="fill: var(--color1, #333)" d="M89.816 30.567v-1.903c0-0.671-0.487-0.934-1.072-0.934-0.453 0-0.808 0.149-1.106 0.459l0.201 0.298c0.246-0.264 0.516-0.384 0.848-0.384 0.401 0 0.699 0.212 0.699 0.585v0.499c-0.224-0.258-0.539-0.378-0.917-0.378-0.47 0-0.969 0.292-0.969 0.911 0 0.602 0.499 0.917 0.969 0.917 0.373 0 0.688-0.132 0.917-0.384v0.315h0.43zM88.624 30.326c-0.401 0-0.682-0.252-0.682-0.602 0-0.355 0.281-0.608 0.682-0.608 0.304 0 0.596 0.115 0.762 0.344v0.522c-0.166 0.229-0.459 0.344-0.762 0.344z"></path>
<path fill="#333" style="fill: var(--color1, #333)" d="M93.376 30.636c0.504 0 0.802-0.206 1.014-0.481l-0.287-0.264c-0.183 0.246-0.418 0.361-0.705 0.361-0.59 0-0.957-0.459-0.957-1.072s0.367-1.066 0.957-1.066c0.287 0 0.522 0.109 0.705 0.361l0.287-0.264c-0.212-0.275-0.51-0.481-1.014-0.481-0.825 0-1.381 0.63-1.381 1.45 0 0.825 0.556 1.456 1.381 1.456z"></path>
<path fill="#333" style="fill: var(--color1, #333)" d="M97.154 30.567v-1.903c0-0.671-0.487-0.934-1.072-0.934-0.453 0-0.808 0.149-1.106 0.459l0.201 0.298c0.246-0.264 0.516-0.384 0.848-0.384 0.401 0 0.699 0.212 0.699 0.585v0.499c-0.224-0.258-0.539-0.378-0.917-0.378-0.47 0-0.969 0.292-0.969 0.911 0 0.602 0.499 0.917 0.969 0.917 0.373 0 0.688-0.132 0.917-0.384v0.315h0.43zM95.962 30.326c-0.401 0-0.682-0.252-0.682-0.602 0-0.355 0.281-0.608 0.682-0.608 0.304 0 0.596 0.115 0.762 0.344v0.522c-0.166 0.229-0.459 0.344-0.762 0.344z"></path>
<path fill="#333" style="fill: var(--color1, #333)" d="M98.428 30.567l1.462-2.155v2.155h0.43v-2.768h-0.424l-1.45 2.115v-2.115h-0.43v2.768h0.413zM100.171 26.979l-0.212-0.183c-0.178 0.258-0.459 0.413-0.791 0.413-0.338 0-0.613-0.16-0.797-0.413l-0.212 0.183c0.235 0.309 0.602 0.504 1.009 0.504 0.413 0 0.774-0.195 1.003-0.504z"></path>
<path fill="#333" style="fill: var(--color1, #333)" d="M102.112 30.567v-2.39h0.808v-0.378h-2.040v0.378h0.802v2.39h0.43z"></path>
<path fill="#333" style="fill: var(--color1, #333)" d="M103.696 27.404c0.16 0 0.292-0.126 0.292-0.287s-0.132-0.292-0.292-0.292c-0.155 0-0.287 0.132-0.287 0.292s0.132 0.287 0.287 0.287zM103.914 30.567v-2.768h-0.43v2.768h0.43z"></path>
<path fill="#333" style="fill: var(--color1, #333)" d="M106.325 30.567c0.51 0 0.808-0.304 0.808-0.751 0-0.315-0.224-0.608-0.504-0.676 0.235-0.075 0.447-0.298 0.447-0.63 0-0.418-0.292-0.711-0.779-0.711h-1.525v2.768h1.553zM106.239 30.189h-1.037v-0.854h1.037c0.292 0 0.447 0.206 0.447 0.43 0 0.264-0.172 0.424-0.447 0.424zM106.221 28.957h-1.020v-0.779h1.020c0.264 0 0.413 0.155 0.413 0.395 0 0.218-0.143 0.384-0.413 0.384z"></path>
<path fill="#333" style="fill: var(--color1, #333)" d="M121.245 2.866v-2.39h0.808v-0.378h-2.040v0.378h0.802v2.39h0.43z"></path>
<path fill="#333" style="fill: var(--color1, #333)" d="M125.442 2.866v-2.768h-0.573l-0.837 2.052-0.848-2.052h-0.567v2.768h0.43v-2.172l0.906 2.172h0.16l0.9-2.172v2.172h0.43z"></path>
</symbol>
<symbol id="icon-facebook" viewBox="0 0 32 32">
<path fill="#3b5998" style="fill: var(--color1, #3b5998)" d="M0 16c0-8.837 7.163-16 16-16s16 7.163 16 16c0 8.837-7.163 16-16 16s-16-7.163-16-16z"></path>
<path fill="#3b5998" style="fill: var(--color1, #3b5998)" d="M4.571 0h22.857c2.525 0 4.571 2.047 4.571 4.571v22.857c0 2.525-2.047 4.571-4.571 4.571h-22.857c-2.525 0-4.571-2.047-4.571-4.571v-22.857c0-2.525 2.047-4.571 4.571-4.571z"></path>
<path fill="#fff" style="fill: var(--color2, #fff)" d="M17.668 25.408v-8.705h2.403l0.318-3h-2.721l0.004-1.501c0-0.782 0.074-1.202 1.198-1.202h1.502v-3h-2.403c-2.887 0-3.903 1.455-3.903 3.902v1.801h-1.799v3h1.799v8.704h3.602z"></path>
</symbol>
<symbol id="icon-instIcon" viewBox="0 0 32 32">
<path fill="#000" style="fill: var(--color1, #000)" d="M0 16c0-8.837 7.163-16 16-16s16 7.163 16 16c0 8.837-7.163 16-16 16s-16-7.163-16-16z"></path>
<path fill="#000" style="fill: var(--color1, #000)" d="M4.571 0h22.857c2.525 0 4.571 2.047 4.571 4.571v22.857c0 2.525-2.047 4.571-4.571 4.571h-22.857c-2.525 0-4.571-2.047-4.571-4.571v-22.857c0-2.525 2.047-4.571 4.571-4.571z"></path>
<path fill="#fff" style="fill: var(--color2, #fff)" d="M11.619 16c0-2.42 1.962-4.382 4.382-4.382s4.382 1.962 4.382 4.382-1.961 4.381-4.382 4.381c-2.42 0-4.382-1.961-4.382-4.381zM18.845 16c0-1.571-1.274-2.844-2.844-2.844s-2.845 1.273-2.845 2.844c0 1.571 1.273 2.844 2.845 2.844s2.844-1.274 2.844-2.844z"></path>
<path fill="#fff" style="fill: var(--color2, #fff)" d="M19.532 11.445c0-0.566 0.459-1.024 1.024-1.024s1.024 0.458 1.024 1.024c0 0.565-0.459 1.024-1.024 1.024s-1.024-0.459-1.024-1.024z"></path>
<path fill="#fff" style="fill: var(--color2, #fff)" d="M12.482 7.518c0.91-0.041 1.201-0.052 3.519-0.052h-0.003c2.318 0 2.608 0.010 3.518 0.052 0.908 0.042 1.529 0.185 2.073 0.396 0.562 0.218 1.036 0.509 1.511 0.984s0.766 0.95 0.985 1.512c0.21 0.543 0.354 1.163 0.397 2.071 0.041 0.91 0.052 1.201 0.052 3.519s-0.011 2.608-0.052 3.518c-0.043 0.908-0.187 1.528-0.397 2.071-0.219 0.561-0.51 1.037-0.985 1.512s-0.95 0.767-1.511 0.985c-0.543 0.211-1.164 0.355-2.072 0.396-0.91 0.041-1.2 0.052-3.518 0.052s-2.608-0.010-3.518-0.052c-0.908-0.042-1.528-0.185-2.072-0.396-0.561-0.218-1.037-0.51-1.511-0.985s-0.766-0.95-0.984-1.512c-0.211-0.543-0.355-1.163-0.396-2.071-0.041-0.91-0.052-1.2-0.052-3.518s0.011-2.609 0.051-3.519c0.041-0.908 0.185-1.528 0.396-2.071 0.219-0.561 0.51-1.037 0.985-1.511s0.95-0.766 1.512-0.984c0.543-0.211 1.163-0.355 2.071-0.396zM15.716 9.004c-0.173-0-0.333-0-0.481 0v-0.002c-1.59 0.002-1.895 0.012-2.683 0.048-0.832 0.038-1.284 0.177-1.585 0.294-0.398 0.155-0.683 0.34-0.981 0.639s-0.484 0.583-0.639 0.981c-0.117 0.301-0.256 0.752-0.294 1.584-0.041 0.9-0.049 1.168-0.049 3.447s0.008 2.549 0.049 3.449c0.038 0.832 0.177 1.284 0.294 1.584 0.155 0.398 0.34 0.682 0.639 0.981s0.583 0.484 0.981 0.638c0.301 0.117 0.752 0.256 1.585 0.294 0.9 0.041 1.17 0.050 3.448 0.050s2.549-0.009 3.448-0.050c0.832-0.038 1.284-0.177 1.584-0.294 0.398-0.155 0.682-0.34 0.981-0.638s0.484-0.582 0.639-0.98c0.117-0.3 0.256-0.752 0.294-1.584 0.041-0.9 0.050-1.17 0.050-3.447s-0.009-2.548-0.050-3.447c-0.038-0.832-0.177-1.284-0.294-1.584-0.155-0.398-0.34-0.683-0.639-0.981s-0.582-0.484-0.981-0.638c-0.301-0.117-0.752-0.256-1.584-0.294-0.9-0.041-1.17-0.049-3.448-0.049l-0.284-0z"></path>
</symbol>
<symbol id="icon-viberIcon" viewBox="0 0 32 32">
<path fill="#675da9" style="fill: var(--color3, #675da9)" d="M16 32c8.837 0 16-7.163 16-16s-7.163-16-16-16c-8.837 0-16 7.163-16 16s7.163 16 16 16z"></path>
<path fill="#675da9" style="fill: var(--color3, #675da9)" d="M4.571 0h22.857c2.525 0 4.571 2.047 4.571 4.571v22.857c0 2.525-2.047 4.571-4.571 4.571h-22.857c-2.525 0-4.571-2.047-4.571-4.571v-22.857c0-2.525 2.047-4.571 4.571-4.571z"></path>
<path fill="#fff" style="fill: var(--color2, #fff)" d="M24.985 11.977l-0.006-0.023c-0.454-1.85-2.5-3.835-4.379-4.248l-0.021-0.004c-3.039-0.585-6.12-0.585-9.159 0l-0.022 0.004c-1.878 0.413-3.924 2.398-4.379 4.248l-0.005 0.023c-0.561 2.584-0.561 5.204 0 7.787l0.005 0.023c0.435 1.771 2.329 3.665 4.137 4.186v2.065c0 0.747 0.903 1.114 1.417 0.575l2.075-2.175c0.45 0.025 0.9 0.040 1.351 0.040 1.53 0 3.060-0.146 4.579-0.438l0.021-0.004c1.879-0.413 3.925-2.398 4.379-4.248l0.006-0.023c0.561-2.584 0.561-5.204 0-7.787zM23.343 19.39c-0.303 1.207-1.856 2.707-3.091 2.985-1.616 0.31-3.245 0.442-4.872 0.397-0.032-0.001-0.064 0.012-0.086 0.035-0.231 0.239-1.515 1.568-1.515 1.568l-1.611 1.668c-0.118 0.124-0.325 0.040-0.325-0.131v-3.421c0-0.056-0.040-0.105-0.095-0.115l-0.001-0c-1.234-0.277-2.787-1.778-3.091-2.985-0.505-2.335-0.505-4.703 0-7.038 0.304-1.207 1.856-2.707 3.091-2.985 2.822-0.541 5.683-0.541 8.505 0 1.235 0.277 2.788 1.778 3.091 2.985 0.506 2.335 0.506 4.703 0 7.038z"></path>
<path fill="#fff" style="fill: var(--color2, #fff)" d="M18.685 20.969c-0.19-0.058-0.371-0.097-0.538-0.167-1.74-0.728-3.342-1.667-4.61-3.107-0.721-0.819-1.286-1.743-1.763-2.721-0.226-0.464-0.417-0.946-0.612-1.425-0.177-0.437 0.084-0.888 0.359-1.217 0.258-0.309 0.59-0.545 0.95-0.719 0.281-0.136 0.557-0.058 0.762 0.182 0.443 0.519 0.85 1.064 1.18 1.665 0.203 0.37 0.147 0.822-0.22 1.073-0.089 0.061-0.171 0.133-0.254 0.202-0.073 0.061-0.142 0.122-0.192 0.204-0.091 0.15-0.096 0.327-0.037 0.49 0.453 1.255 1.216 2.231 2.469 2.757 0.201 0.084 0.402 0.182 0.633 0.155 0.387-0.046 0.512-0.473 0.783-0.697 0.265-0.218 0.604-0.221 0.889-0.039s0.562 0.378 0.837 0.575c0.27 0.194 0.539 0.384 0.788 0.605 0.239 0.213 0.322 0.492 0.187 0.78-0.247 0.528-0.606 0.968-1.124 1.249-0.146 0.079-0.321 0.105-0.486 0.156 0.165-0.051-0.19-0.058 0 0zM16.005 11.007c2.276 0.064 4.146 1.588 4.547 3.857 0.068 0.387 0.093 0.782 0.123 1.174 0.013 0.165-0.080 0.322-0.257 0.324-0.183 0.002-0.265-0.152-0.276-0.317-0.023-0.327-0.040-0.655-0.084-0.979-0.236-1.71-1.588-3.124-3.276-3.428-0.254-0.046-0.514-0.058-0.771-0.085-0.163-0.017-0.376-0.027-0.412-0.231-0.030-0.171 0.113-0.307 0.274-0.316 0.044-0.002 0.088-0 0.132-0 2.276 0.064-0.044-0 0 0z"></path>
<path fill="#fff" style="fill: var(--color2, #fff)" d="M19.464 15.529c-0.004 0.029-0.006 0.096-0.022 0.16-0.060 0.23-0.407 0.259-0.487 0.027-0.024-0.069-0.027-0.148-0.027-0.222-0.001-0.486-0.106-0.972-0.349-1.395-0.25-0.435-0.632-0.8-1.080-1.021-0.271-0.134-0.564-0.217-0.86-0.266-0.13-0.022-0.261-0.035-0.391-0.053-0.158-0.022-0.242-0.124-0.235-0.281 0.007-0.147 0.114-0.253 0.273-0.244 0.522 0.030 1.027 0.144 1.491 0.392 0.944 0.504 1.484 1.3 1.641 2.363 0.007 0.048 0.019 0.096 0.022 0.144 0.009 0.119 0.015 0.239 0.024 0.396-0.004 0.029-0.009-0.157 0 0z"></path>
<path fill="#fff" style="fill: var(--color2, #fff)" d="M18.048 15.474c-0.19 0.003-0.292-0.103-0.312-0.279-0.014-0.123-0.024-0.247-0.053-0.367-0.057-0.235-0.181-0.453-0.377-0.597-0.093-0.068-0.198-0.118-0.308-0.15-0.14-0.041-0.285-0.029-0.424-0.064-0.151-0.037-0.235-0.161-0.211-0.304 0.022-0.13 0.147-0.232 0.289-0.222 0.883 0.064 1.513 0.524 1.603 1.572 0.006 0.074 0.014 0.152-0.002 0.223-0.028 0.121-0.117 0.182-0.203 0.188 0.087-0.006-0.19 0.003 0 0z"></path>
</symbol>
<symbol id="icon-Arrow" viewBox="0 0 22 32">
<path stroke='#333333' stroke-linejoin="bevel" stroke-linecap="square" stroke-miterlimit="4" stroke-width="1.1034" d="M11.096 0.551v30.897M11.096 31.448l9.931-9.931M11.096 31.448l-9.931-9.931"></path>
</symbol>
<symbol id="icon-logo_footer" viewBox="0 0 120 32">
<path d="M29.296 24.631h2.422v-17.93h6.188v-1.992h-8.61v19.922zM41.935 23.583c0.352-0.601 0.679-1.285 0.837-1.973 0.225-0.955 0.262-2.669 0.318-2.889 0.038-0.147 0.056-4.154 0.056-12.020l4.722 0.009v18.017h2.39v-20.018h-9.358v14.013c-0.018 0.757-0.207 1.726-0.374 2.461-0.117 0.515-0.113 0.698-0.374 1.149-0.192 0.335-0.769 0.7-1.097 0.88-0.316 0.157-0.66 0.236-1.009 0.231v1.285c0.145 0.064 0.297 0.112 0.451 0.143 0.373 0.102 0.757 0.15 1.141 0.143 0.432-0.002 0.857-0.12 1.235-0.343 0.433-0.264 0.798-0.637 1.062-1.087zM56.696 13.687c-0.567-0.627-0.85-1.691-0.851-3.193s0.284-2.565 0.851-3.192c0.567-0.627 1.473-0.941 2.717-0.941h1.92v8.267h-1.92c-1.244-0-2.15-0.314-2.717-0.941zM55.844 17.020c-0.406 0.662-0.686 1.397-0.823 2.166l-0.548 2.423c-0.113 0.504-0.349 0.97-0.686 1.354-0.416 0.37-0.961 0.55-1.509 0.498v1.285c0.171 0.059 0.345 0.106 0.521 0.142 0.367 0.1 0.745 0.148 1.125 0.142 1.555 0 2.607-1.14 3.156-3.421l0.549-2.423c0.238-0.988 0.594-1.662 1.070-2.024 0.44-0.348 0.98-0.539 1.536-0.541h1.098v8.123h2.47v-19.667c-0.686-0.207-1.389-0.355-2.099-0.442-0.761-0.089-1.526-0.132-2.291-0.128-0.943-0.019-1.885 0.092-2.8 0.328-0.701 0.18-1.344 0.543-1.866 1.055-0.497 0.521-0.856 1.164-1.044 1.867-0.236 0.892-0.347 1.813-0.329 2.736-0.014 0.764 0.097 1.525 0.329 2.252 0.191 0.592 0.479 1.146 0.851 1.639 0.324 0.427 0.731 0.781 1.193 1.040 0.415 0.235 0.864 0.399 1.331 0.485v0.115c-0.509 0.178-0.945 0.529-1.234 0.995zM75.83 4.709v8.823h-5.846v-8.823h-2.505v19.922h2.505v-9.107h5.846v9.107h2.505v-19.922h-2.505zM84.556 15.239h6.055v-1.992h-6.055v-6.546h6.881v-1.992h-9.358v19.922h9.358v-1.992h-6.88v-7.4zM105.258 28.845h1.527v-6.247h-1.804v-17.889h-2.499v17.889h-5.551v-17.889h-2.499v19.877h9.993c0.080 1.452 0.36 2.886 0.834 4.26zM113.748 14.628c1.244 0 2.15 0.318 2.717 0.955s0.85 1.743 0.851 3.32c0 1.577-0.284 2.684-0.851 3.32s-1.473 0.955-2.717 0.955h-1.92v-8.551h1.92zM111.889 12.858v-8.15h-2.483v19.731c0.69 0.208 1.395 0.356 2.11 0.443 0.764 0.089 1.533 0.132 2.303 0.129 0.949 0.020 1.895-0.096 2.813-0.343 0.704-0.189 1.349-0.558 1.875-1.072 0.503-0.531 0.864-1.186 1.048-1.901 0.238-0.923 0.35-1.876 0.331-2.831 0-2.288-0.428-3.908-1.283-4.861s-2.174-1.43-3.958-1.43c-0.478 0.003-0.956 0.032-1.432 0.086-0.445 0.043-0.887 0.11-1.325 0.2z"></path>
<path d="M14.283 4.507c-6.53 2.188-12.037 6.649-14.283 13.296 2.22 6.571 7.676 11.082 14.283 13.296 5.875-4.501 9.079-8.115 11.436-13.296-3.383-2.257-4.804-3.419-7.547-6.911-3.675 1.696-6.873 3.672-9.707 6.839 1.017 1.439 2.705 2.783 4.070 3.886 1.989-1.453 3.506-2.868 4.489-4.082 0.616 0.748 1.311 1.246 1.973 1.662-1.709 2.889-3.627 4.476-5.996 5.991-3.558-1.872-6.418-5.111-7.808-7.85 2.605-4.268 6.691-7.15 11.335-8.756-0.752-1.309-1.738-2.528-2.244-4.074z"></path>
<path d="M30.538 30.262c0.687 0 1.163-0.53 1.163-1.374 0-0.849-0.476-1.368-1.163-1.368-0.368 0-0.692 0.189-0.882 0.454v-0.389h-0.406v3.607h0.406v-1.39c0.211 0.292 0.525 0.46 0.882 0.46zM30.435 29.9c-0.319 0-0.638-0.195-0.779-0.422v-1.179c0.141-0.227 0.46-0.416 0.779-0.416 0.525 0 0.838 0.427 0.838 1.006s-0.314 1.011-0.838 1.011z"></path>
<path d="M33.487 30.262c0.795 0 1.293-0.617 1.293-1.374s-0.498-1.368-1.293-1.368-1.293 0.611-1.293 1.368c0 0.757 0.498 1.374 1.293 1.374zM33.487 29.9c-0.557 0-0.871-0.476-0.871-1.011 0-0.53 0.314-1.006 0.871-1.006s0.865 0.476 0.865 1.006c0 0.535-0.308 1.011-0.865 1.011z"></path>
<path d="M36.366 30.262c0.752 0 1.195-0.325 1.195-0.763 0-0.433-0.454-0.617-0.757-0.638 0.308-0.038 0.703-0.249 0.703-0.638 0-0.444-0.498-0.703-1.201-0.698-0.476 0-0.828 0.168-1.071 0.416l0.211 0.249c0.222-0.227 0.508-0.335 0.876-0.335 0.433 0 0.763 0.168 0.763 0.416 0 0.297-0.341 0.438-0.773 0.438h-0.584v0.33h0.584c0.46 0 0.822 0.108 0.822 0.433 0 0.276-0.303 0.454-0.768 0.454-0.389 0-0.736-0.119-0.979-0.352l-0.2 0.26c0.26 0.26 0.654 0.427 1.179 0.427z"></path>
<path d="M39.506 30.262c0.687 0 1.163-0.53 1.163-1.374 0-0.849-0.476-1.368-1.163-1.368-0.368 0-0.692 0.189-0.882 0.454v-0.389h-0.406v3.607h0.406v-1.39c0.211 0.292 0.525 0.46 0.882 0.46zM39.404 29.9c-0.319 0-0.638-0.195-0.779-0.422v-1.179c0.141-0.227 0.46-0.416 0.779-0.416 0.525 0 0.838 0.427 0.838 1.006s-0.314 1.011-0.838 1.011z"></path>
<path d="M42.455 30.262c0.795 0 1.293-0.617 1.293-1.374s-0.498-1.368-1.293-1.368-1.293 0.611-1.293 1.368c0 0.757 0.498 1.374 1.293 1.374zM42.455 29.9c-0.557 0-0.871-0.476-0.871-1.011 0-0.53 0.314-1.006 0.871-1.006s0.865 0.476 0.865 1.006c0 0.535-0.308 1.011-0.865 1.011z"></path>
<path d="M45.55 29.9c-0.557 0-0.871-0.476-0.871-1.017 0-0.525 0.314-1.001 0.871-1.001s0.865 0.476 0.865 1.001c0 0.541-0.308 1.017-0.865 1.017zM45.55 30.262c0.806 0 1.287-0.627 1.287-1.379 0-0.741-0.481-1.363-1.222-1.363-0.465 0-0.795 0.26-0.984 0.557 0.092-0.444 0.325-0.779 1.098-0.887 0.444-0.059 1.028-0.173 1.028-0.6h-0.395c0 0.108-0.162 0.179-0.736 0.265-0.909 0.119-1.368 0.644-1.368 1.915 0 0.865 0.492 1.493 1.293 1.493z"></path>
<path d="M49.829 30.197l-1.163-1.428 1.157-1.184h-0.514l-1.374 1.39v-1.39h-0.406v2.612h0.406v-0.746l0.433-0.427 0.941 1.174h0.519z"></path>
<path d="M52.348 30.197v-1.796c0-0.633-0.46-0.882-1.011-0.882-0.427 0-0.763 0.141-1.044 0.433l0.189 0.281c0.233-0.249 0.487-0.362 0.8-0.362 0.379 0 0.66 0.2 0.66 0.552v0.471c-0.211-0.243-0.508-0.357-0.865-0.357-0.444 0-0.914 0.276-0.914 0.86 0 0.568 0.471 0.865 0.914 0.865 0.352 0 0.649-0.124 0.865-0.362v0.297h0.406zM51.223 29.97c-0.379 0-0.644-0.238-0.644-0.568 0-0.335 0.265-0.573 0.644-0.573 0.287 0 0.562 0.108 0.719 0.325v0.492c-0.157 0.216-0.433 0.325-0.719 0.325z"></path>
<path d="M55.437 30.197v-2.255h0.763v-0.357h-1.925v0.357h0.757v2.255h0.406z"></path>
<path d="M58.77 30.197v-1.796c0-0.633-0.46-0.882-1.011-0.882-0.427 0-0.763 0.141-1.044 0.433l0.189 0.281c0.233-0.249 0.487-0.362 0.8-0.362 0.379 0 0.66 0.2 0.66 0.552v0.471c-0.211-0.243-0.508-0.357-0.865-0.357-0.444 0-0.914 0.276-0.914 0.86 0 0.568 0.471 0.865 0.914 0.865 0.352 0 0.649-0.124 0.865-0.362v0.297h0.406zM57.646 29.97c-0.379 0-0.644-0.238-0.644-0.568 0-0.335 0.265-0.573 0.644-0.573 0.287 0 0.562 0.108 0.719 0.325v0.492c-0.157 0.216-0.433 0.325-0.719 0.325z"></path>
<path d="M63.152 30.197v-2.612h-2.174v2.612h0.406v-2.255h1.363v2.255h0.406z"></path>
<path d="M64.162 27.212c0.151 0 0.276-0.119 0.276-0.27s-0.124-0.276-0.276-0.276c-0.146 0-0.27 0.124-0.27 0.276s0.124 0.27 0.27 0.27zM64.368 30.197v-2.612h-0.406v2.612h0.406z"></path>
<path d="M64.868 30.862h0.406v-0.665h1.974v0.665h0.406v-1.022h-0.303v-2.255h-1.817l-0.168 1.287c-0.103 0.773-0.254 0.946-0.498 0.99v1.001zM65.891 27.942h1.055v1.898h-1.552c0.189-0.151 0.314-0.427 0.379-0.919l0.119-0.979z"></path>
<path d="M69.090 30.197v-2.255h0.763v-0.357h-1.925v0.357h0.757v2.255h0.406z"></path>
<path d="M71.672 30.262c0.687 0 1.163-0.53 1.163-1.374 0-0.849-0.476-1.368-1.163-1.368-0.368 0-0.692 0.189-0.882 0.454v-0.389h-0.406v3.607h0.406v-1.39c0.211 0.292 0.525 0.46 0.882 0.46zM71.569 29.9c-0.319 0-0.638-0.195-0.779-0.422v-1.179c0.141-0.227 0.46-0.416 0.779-0.416 0.525 0 0.838 0.427 0.838 1.006s-0.314 1.011-0.838 1.011z"></path>
<path d="M73.869 30.197l1.379-2.034v2.034h0.406v-2.612h-0.4l-1.368 1.996v-1.996h-0.406v2.612h0.389z"></path>
<path d="M79.13 30.197v-2.612h-0.541l-0.79 1.936-0.8-1.936h-0.535v2.612h0.406v-2.050l0.855 2.050h0.151l0.849-2.050v2.050h0.406z"></path>
<path d="M82.238 30.197l-1.163-1.428 1.157-1.184h-0.514l-1.374 1.39v-1.39h-0.406v2.612h0.406v-0.746l0.433-0.427 0.941 1.174h0.519z"></path>
<path d="M84.756 30.197v-1.796c0-0.633-0.46-0.882-1.011-0.882-0.427 0-0.763 0.141-1.044 0.433l0.189 0.281c0.233-0.249 0.487-0.362 0.8-0.362 0.379 0 0.66 0.2 0.66 0.552v0.471c-0.211-0.243-0.508-0.357-0.865-0.357-0.444 0-0.914 0.276-0.914 0.86 0 0.568 0.471 0.865 0.914 0.865 0.352 0 0.649-0.124 0.865-0.362v0.297h0.406zM83.631 29.97c-0.379 0-0.644-0.238-0.644-0.568 0-0.335 0.265-0.573 0.644-0.573 0.287 0 0.562 0.108 0.719 0.325v0.492c-0.157 0.216-0.433 0.325-0.719 0.325z"></path>
<path d="M88.116 30.262c0.476 0 0.757-0.195 0.957-0.454l-0.27-0.249c-0.173 0.233-0.395 0.341-0.665 0.341-0.557 0-0.903-0.433-0.903-1.011s0.346-1.006 0.903-1.006c0.27 0 0.492 0.103 0.665 0.341l0.27-0.249c-0.2-0.26-0.481-0.454-0.957-0.454-0.779 0-1.303 0.595-1.303 1.368 0 0.779 0.525 1.374 1.303 1.374z"></path>
<path d="M91.68 30.197v-1.796c0-0.633-0.46-0.882-1.011-0.882-0.427 0-0.763 0.141-1.044 0.433l0.189 0.281c0.233-0.249 0.487-0.362 0.8-0.362 0.379 0 0.66 0.2 0.66 0.552v0.471c-0.211-0.243-0.508-0.357-0.865-0.357-0.444 0-0.914 0.276-0.914 0.86 0 0.568 0.471 0.865 0.914 0.865 0.352 0 0.649-0.124 0.865-0.362v0.297h0.406zM90.555 29.97c-0.379 0-0.644-0.238-0.644-0.568 0-0.335 0.265-0.573 0.644-0.573 0.287 0 0.562 0.108 0.719 0.325v0.492c-0.157 0.216-0.433 0.325-0.719 0.325z"></path>
<path d="M92.883 30.197l1.379-2.034v2.034h0.406v-2.612h-0.4l-1.368 1.996v-1.996h-0.406v2.612h0.389zM94.527 26.811l-0.2-0.173c-0.168 0.243-0.433 0.389-0.746 0.389-0.319 0-0.579-0.151-0.752-0.389l-0.2 0.173c0.222 0.292 0.568 0.476 0.952 0.476 0.389 0 0.73-0.184 0.946-0.476z"></path>
<path d="M96.359 30.197v-2.255h0.763v-0.357h-1.925v0.357h0.757v2.255h0.406z"></path>
<path d="M97.854 27.212c0.151 0 0.276-0.119 0.276-0.27s-0.124-0.276-0.276-0.276c-0.146 0-0.27 0.124-0.27 0.276s0.124 0.27 0.27 0.27zM98.060 30.197v-2.612h-0.406v2.612h0.406z"></path>
<path d="M100.334 30.197c0.481 0 0.763-0.287 0.763-0.709 0-0.297-0.211-0.573-0.476-0.638 0.222-0.070 0.422-0.281 0.422-0.595 0-0.395-0.276-0.671-0.736-0.671h-1.439v2.612h1.466zM100.253 29.84h-0.979v-0.806h0.979c0.276 0 0.422 0.195 0.422 0.406 0 0.249-0.162 0.4-0.422 0.4zM100.237 28.677h-0.963v-0.736h0.963c0.249 0 0.389 0.146 0.389 0.373 0 0.206-0.135 0.362-0.389 0.362z"></path>
<path d="M114.414 4.056v-2.255h0.763v-0.357h-1.925v0.357h0.757v2.255h0.406z"></path>
<path d="M118.375 4.056v-2.612h-0.541l-0.79 1.936-0.8-1.936h-0.535v2.612h0.406v-2.050l0.855 2.050h0.151l0.849-2.050v2.050h0.406z"></path>
<symbol id="trident" viewBox="0 0 32 32">
<path fill="#50ab09" style="fill: var(--color1, #50ab09)" d="M17.83 23.994l-4.027-0.032c-0.087 0-0.169 0.043-0.223 0.114-0.049 0.071-0.066 0.164-0.033 0.251 0.529 1.46 1.515 2.659 2.060 3.242 0.026 0.027 0.057 0.049 0.092 0.065s0.072 0.023 0.11 0.023 0.075-0.008 0.11-0.023c0.035-0.015 0.066-0.038 0.092-0.065 0.539-0.584 1.521-1.771 2.076-3.204 0.016-0.041 0.022-0.085 0.017-0.128s-0.020-0.085-0.044-0.122c-0.028-0.035-0.062-0.064-0.102-0.085s-0.083-0.032-0.127-0.036zM15.802 26.98c-0.474-0.545-1.15-1.422-1.597-2.468l3.215 0.027c-0.469 1.030-1.144 1.902-1.618 2.441zM22.434 18.817l-0.894-0.016c-0.109 0-0.234 0.076-0.267 0.196-0.25 0.856-0.931 1.488-1.782 1.662-0.071 0.016-0.136 0.055-0.174 0.12-0.038 0.060-0.055 0.136-0.038 0.207 0.093 0.425 0.125 1.525 0.115 1.689-0.011 0.071 0 0.142 0.038 0.201 0.049 0.076 0.137 0.12 0.229 0.12h2.746c0.147 0 0.272-0.12 0.272-0.273l0.022-3.635c0-0.147-0.12-0.267-0.267-0.273zM22.134 22.452h-2.196c0-0.382-0.043-0.959-0.087-1.324 0.866-0.256 1.559-0.915 1.88-1.782l0.425 0.006-0.022 3.101zM17.999 20.751h-0.164c-0.779 0-1.438 0.578-1.525 1.363v0.092c0 0.125 0 0.36-0.006 0.447-0.011 0.040-0.013 0.083-0.005 0.124s0.025 0.079 0.051 0.113 0.058 0.060 0.095 0.079c0.037 0.019 0.078 0.028 0.12 0.028h1.586c0.141 0 0.262-0.109 0.272-0.251 0.011-0.131 0.016-0.267 0.016-0.398 0-0.42-0.055-0.883-0.169-1.384-0.016-0.060-0.052-0.113-0.101-0.152-0.049-0.037-0.109-0.059-0.171-0.060zM17.884 22.452h-1.035v-0.3c0.055-0.463 0.452-0.828 0.926-0.856 0.076 0.382 0.115 0.731 0.115 1.052-0 0.039-0 0.071-0.006 0.104zM15.301 22.73v-0.61c-0.087-0.774-0.747-1.357-1.493-1.357h-0.006l-0.142-0.016c-0.065-0.007-0.13 0.009-0.184 0.046s-0.093 0.092-0.11 0.155c-0.127 0.46-0.193 0.934-0.196 1.412v0.104c0 0.087 0 0.169-0.006 0.245s0.017 0.152 0.066 0.213c0.049 0.060 0.125 0.092 0.201 0.092h1.586c0.158-0.016 0.278-0.136 0.284-0.283zM14.756 22.452h-1.035v-0.104c0-0.337 0.043-0.686 0.12-1.052 0.474 0.033 0.861 0.398 0.915 0.834v0.322zM12.146 20.686c-0.872-0.196-1.559-0.839-1.782-1.667-0.016-0.056-0.050-0.106-0.096-0.142s-0.102-0.057-0.16-0.060l-0.894-0.022c-0.076 0.006-0.142 0.027-0.196 0.076s-0.082 0.12-0.082 0.196l-0.022 3.662c0 0.071 0.027 0.141 0.082 0.196s0.12 0.082 0.191 0.082h2.746c0.147 0 0.267-0.12 0.272-0.267 0.011-0.441 0.055-1.363 0.147-1.711 0.022-0.071 0.011-0.147-0.027-0.212-0.041-0.065-0.105-0.112-0.18-0.131zM11.661 22.452h-2.207l0.022-3.106 0.42 0.011c0.3 0.85 0.992 1.51 1.869 1.793-0.060 0.403-0.087 0.97-0.104 1.302zM14.152 19.787c0.556 0.082 1.068 0.349 1.455 0.752 0.049 0.054 0.12 0.081 0.196 0.081s0.147-0.033 0.196-0.081c0.387-0.403 0.91-0.665 1.428-0.719 0.092-0.011 0.169-0.060 0.213-0.141s0.043-0.174 0-0.256c-0.502-0.964-1.128-1.733-1.613-2.299-0.025-0.029-0.056-0.053-0.090-0.069s-0.073-0.025-0.111-0.024c-0.082 0.011-0.152 0.032-0.207 0.087-0.371 0.397-1.084 1.226-1.668 2.266-0.043 0.076-0.043 0.174-0.006 0.251s0.119 0.141 0.207 0.152zM15.814 17.717c0.371 0.441 0.79 0.992 1.161 1.635-0.425 0.109-0.828 0.322-1.172 0.627-0.344-0.299-0.749-0.518-1.188-0.643 0.42-0.681 0.872-1.248 1.199-1.619zM22.56 7.527c-0.047-0.023-0.099-0.031-0.15-0.024s-0.1 0.028-0.139 0.062c-0.376 0.311-0.714 0.67-0.998 1.068-0.534 0.757-0.872 1.646-0.975 2.577l-0.61 4.572c-0.016 0.12 0.055 0.24 0.169 0.289 0.676 0.278 1.21 0.872 1.39 1.547 0.033 0.12 0.142 0.202 0.262 0.202h0.894c0.153 0 0.272-0.12 0.272-0.273l0.039-9.776c0.001-0.051-0.013-0.102-0.040-0.145s-0.066-0.078-0.113-0.1zM22.134 17.275h-0.425c-0.245-0.698-0.774-1.286-1.455-1.624l0.583-4.376c0.092-0.845 0.398-1.646 0.877-2.327 0.137-0.191 0.289-0.376 0.453-0.545l-0.033 8.871zM9.182 17.82h0.899c0.12 0 0.229-0.082 0.262-0.196 0.207-0.692 0.736-1.28 1.39-1.531 0.115-0.043 0.19-0.164 0.174-0.289l-0.594-4.593c-0.104-0.932-0.441-1.826-0.975-2.583-0.245-0.343-0.54-0.681-0.937-1.068-0.038-0.037-0.087-0.062-0.139-0.072s-0.107-0.004-0.156 0.018c-0.104 0.043-0.169 0.141-0.169 0.25l-0.022 9.792c0 0.071 0.027 0.141 0.082 0.191 0.044 0.055 0.109 0.082 0.186 0.082zM9.476 8.431c0.158 0.18 0.294 0.349 0.414 0.518 0.487 0.689 0.789 1.493 0.877 2.332l0.567 4.392c-0.671 0.328-1.19 0.902-1.449 1.602h-0.43l0.022-8.844z"></path>
<path fill="#50ab09" style="fill: var(--color1, #50ab09)" d="M23.7 5.514c-0.21-0.157-0.486-0.177-0.819-0.077-1.235 0.364-2.114 1.448-2.663 2.227-0.67 0.946-1.088 2.048-1.211 3.201v0l-0.67 5.28-0.001 0.001c-0.046 0.433 0.268 0.787 0.732 0.849h0.002c0.563 0.063 0.984 0.531 1 1.117 0.008 0.415-0.156 0.683-0.363 0.858-0.197 0.166-0.433 0.249-0.601 0.289-0.279-0.522-1.031-1.904-1.526-2.524-0.61-0.766-0.951-1.749-0.951-2.782v-0.986c0-1.794 0.321-3.686 0.985-5.786 0.126-0.396 0.188-0.787 0.188-1.161 0-0.846-0.31-1.623-0.685-2.252s-0.815-1.114-1.081-1.377c-0.027-0.031-0.061-0.055-0.098-0.072-0.039-0.017-0.080-0.026-0.121-0.026h-0.004l-0.004 0c-0.072 0.011-0.154 0.028-0.218 0.093h-0c-0.263 0.268-0.701 0.757-1.074 1.387s-0.681 1.404-0.681 2.242c0 0.387 0.059 0.774 0.178 1.151 0.001 0.004 0.002 0.008 0.004 0.011 0.651 2.078 1.029 4.001 1.029 5.786v0.986c0 1.035-0.343 2.027-0.964 2.807-0.49 0.621-1.248 2.005-1.52 2.523-0.283-0.092-0.708-0.294-0.883-0.605-0.19-0.338-0.202-0.747-0.027-1.117 0.152-0.327 0.485-0.545 0.954-0.616 0.403-0.065 0.686-0.436 0.643-0.85l-0.62-5.236c-0.126-1.151-0.542-2.252-1.211-3.2h-0c-0.672-0.948-1.576-1.708-2.625-2.209-0.063-0.030-0.181-0.060-0.318-0.062s-0.297 0.023-0.443 0.106c0 0-0 0-0 0s0.019 0.034 0.019 0.034-0.020-0.034-0.019-0.034c0 0 0 0-0 0-0.158 0.088-0.35 0.279-0.395 0.678h-0v17.109c0 0.447 0.361 0.808 0.808 0.808h3.731c0.84 2.674 3.004 4.687 3.109 4.775l0.026-0.030-0.025 0.030c-0 0-0.001 0-0.001-0 0.149 0.131 0.337 0.206 0.533 0.206s0.39-0.074 0.533-0.201v0c0.093-0.083 2.231-1.984 3.074-4.65l0.040-0.13h3.725c0.447 0 0.808-0.361 0.808-0.808v-17.099c0-0.281-0.1-0.524-0.294-0.664zM23.369 23.422c0 0.098-0.086 0.184-0.184 0.184h-3.956c-0.137 0-0.255 0.087-0.299 0.218v0.001l-0.109 0.349c-0.787 2.501-2.807 4.299-2.887 4.368l-0.001 0.001c-0.056 0.051-0.169 0.058-0.241-0.006-0.087-0.075-2.095-1.846-2.882-4.363l-0.109-0.349v-0c-0.021-0.064-0.060-0.119-0.114-0.158s-0.119-0.060-0.185-0.060h-3.962c-0.098 0-0.184-0.086-0.184-0.184v-17.070c0.010-0.097 0.040-0.147 0.074-0.171 0.035-0.022 0.092-0.032 0.137-0.032 0.018 0 0.034 0.001 0.047 0.002 0.006 0 0.011 0.001 0.015 0.002h0.002c0.001 0 0.001 0 0.002 0 0.939 0.449 1.76 1.146 2.376 2.006 0.607 0.86 0.985 1.861 1.099 2.908v0l0.66 5.231c0.008 0.1-0.059 0.188-0.157 0.201h-0c-0.659 0.1-1.157 0.433-1.392 0.944-0.256 0.545-0.234 1.147 0.051 1.655 0.202 0.356 0.559 0.59 0.868 0.734 0.303 0.142 0.565 0.201 0.599 0.206 0.136 0.024 0.272-0.038 0.34-0.162l0.001-0.001 0.001-0.002 0.003-0.005 0.009-0.018c0.008-0.015 0.019-0.037 0.034-0.065 0.029-0.055 0.071-0.134 0.123-0.23 0.104-0.191 0.246-0.453 0.406-0.735 0.32-0.567 0.708-1.216 0.989-1.57 0.703-0.879 1.094-2.005 1.094-3.169v-0.986c0-1.863-0.333-3.818-1.015-5.973-0.103-0.324-0.156-0.652-0.156-0.974 0-1.242 0.821-2.364 1.355-2.955 0.242 0.267 0.574 0.679 0.849 1.179 0.287 0.52 0.512 1.133 0.512 1.776 0 0.311-0.054 0.64-0.161 0.974h-0.001c-0.682 2.155-1.009 4.11-1.009 5.973v0.986c0 1.169 0.384 2.295 1.087 3.169 0.284 0.354 0.674 1.004 0.995 1.57 0.16 0.282 0.303 0.544 0.406 0.735 0.052 0.096 0.094 0.175 0.123 0.23 0.015 0.028 0.026 0.049 0.035 0.065l0.009 0.018 0.003 0.006v0.001c0.057 0.113 0.177 0.175 0.305 0.169l0.002-0c0.303-0.028 0.74-0.154 1.098-0.437 0.36-0.284 0.641-0.726 0.627-1.38-0.023-0.902-0.674-1.627-1.55-1.722h-0.001c-0.024-0.002-0.078-0.012-0.122-0.038-0.042-0.025-0.072-0.061-0.066-0.119 0-0 0-0.001 0-0.001l0.67-5.28c0.113-1.056 0.493-2.063 1.099-2.913h0.001c0.502-0.709 1.285-1.684 2.327-1.99 0.082-0.024 0.146-0.032 0.192-0.032 0.049 0 0.071 0.009 0.076 0.014 0.008 0.007 0.020 0.024 0.030 0.055 0.009 0.030 0.015 0.068 0.015 0.111v17.111z"></path>
</symbol>
<symbol id="broom" viewBox="0 0 32 32">
<path fill="#50ab09" style="fill: var(--color1, #50ab09)" d="M29.44 2.432c-0.725-0.555-1.749-0.427-2.347 0.299l-11.904 15.147-1.067-0.853c-0.725-0.555-1.792-0.469-2.389 0.299l-0.768 0.981c-2.261 2.901-4.736 2.347-8.533 1.707-0.256-0.043-0.469 0.128-0.512 0.384-0.384 4.523 8.917 10.411 10.667 9.429 2.517-1.451 3.2-2.304 4.992-4.608 0.683-0.853 0.555-0.725 1.664-2.091 0.555-0.725 0.427-1.792-0.299-2.389l-1.067-0.853 11.904-15.189c0.512-0.683 0.384-1.707-0.341-2.261zM4.736 24.448c0.725 0.085 1.408 0.043 1.963-0.085-0.469 0.469-0.896 0.811-1.152 0.939-0.256-0.256-0.555-0.555-0.811-0.853zM9.685 28.245c-0.512-0.213-0.981-0.512-1.451-0.811 1.109-0.256 2.347-0.811 3.243-1.28-0.512 0.811-1.195 1.707-1.792 2.091zM16.896 24.704c-1.707 2.219-2.304 2.987-4.608 4.309-0.555-0.043-1.109-0.213-1.664-0.427 1.195-1.067 2.261-3.072 2.389-3.371 0.171-0.384-0.213-0.768-0.597-0.555-0.043 0-3.285 1.963-5.163 2.048-0.341-0.256-0.683-0.555-1.024-0.811 0.853-0.555 1.877-1.749 2.261-2.176 0.299-0.341-0.128-0.853-0.512-0.64 0 0-1.92 0.981-4.011 0.341-0.64-0.896-1.024-1.749-1.109-2.475 3.413 0.597 6.144 1.024 8.576-1.749l6.059 4.736c-0.213 0.299-0.427 0.555-0.597 0.768zM18.517 22.613l-0.512 0.64-6.101-4.779 0.512-0.64c0.299-0.384 0.811-0.427 1.152-0.128l4.779 3.755c0.384 0.256 0.469 0.768 0.171 1.152zM29.056 4.224l-11.904 15.147-1.28-0.981 11.904-15.147c0.256-0.341 0.768-0.427 1.152-0.128 0.341 0.256 0.384 0.768 0.128 1.109z"></path>
</symbol>
<symbol id="cable" viewBox="0 0 32 32">
<path fill="#50ab09" style="fill: var(--color1, #50ab09)" d="M27.229 21.811l-0.932 0.932-1.051-1.051 0.932-0.932c0.076-0.076 0.119-0.179 0.119-0.287s-0.043-0.211-0.119-0.287c-0.076-0.076-0.179-0.119-0.287-0.119s-0.211 0.043-0.287 0.119l-0.932 0.932-0.525-0.525c-0.038-0.038-0.082-0.068-0.132-0.088s-0.102-0.031-0.155-0.031c-0.053 0-0.106 0.011-0.155 0.031s-0.094 0.050-0.132 0.088l-1.863 1.863c-0.228 0.229-0.356 0.539-0.356 0.862s0.128 0.633 0.356 0.862l0.077 0.077c-1.797 1.287-3.9 1.974-6.121 1.974-5.824 0-10.563-4.738-10.563-10.562 0-0.672-0.547-1.219-1.219-1.219s-1.219 0.547-1.219 1.219c0 7.168 5.832 13 13 13 2.844-0.004 5.609-0.938 7.872-2.66l0.273 0.273c0.229 0.23 0.535 0.356 0.862 0.356s0.633-0.127 0.862-0.356l1.863-1.863c0.038-0.038 0.068-0.082 0.088-0.132s0.031-0.102 0.031-0.155-0.011-0.106-0.031-0.155c-0.020-0.049-0.050-0.094-0.088-0.132l-0.525-0.525 0.932-0.932c0.038-0.038 0.068-0.082 0.088-0.132s0.031-0.102 0.031-0.155c0-0.053-0.011-0.106-0.031-0.155s-0.050-0.094-0.088-0.132c-0.038-0.038-0.083-0.068-0.132-0.088s-0.102-0.031-0.155-0.031c-0.053 0-0.106 0.010-0.155 0.031s-0.094 0.050-0.132 0.088zM15.667 27.854c-6.72 0-12.188-5.467-12.188-12.187 0.005-0.105 0.050-0.203 0.125-0.276s0.176-0.113 0.281-0.113 0.205 0.040 0.281 0.113c0.076 0.072 0.121 0.171 0.125 0.276 0 6.272 5.102 11.375 11.375 11.375 2.437 0 4.743-0.766 6.702-2.204l0.584 0.584c-2.117 1.587-4.623 2.433-7.286 2.433zM24.96 25.705c-0.078 0.073-0.18 0.114-0.287 0.114s-0.21-0.041-0.287-0.114l-2.101-2.101c-0.076-0.076-0.119-0.18-0.119-0.287s0.043-0.211 0.119-0.287l1.576-1.576 2.676 2.676-1.576 1.576z"></path>
<path fill="#50ab09" style="fill: var(--color1, #50ab09)" d="M16.597 8.778c-0.083-0.025-0.173-0.023-0.255 0.006s-0.153 0.084-0.201 0.157l-4.875 7.313c-0.041 0.061-0.064 0.132-0.068 0.206s0.013 0.147 0.048 0.211c0.035 0.065 0.086 0.119 0.149 0.157s0.135 0.058 0.209 0.058h2.844v5.281c-0 0.087 0.028 0.172 0.080 0.242s0.125 0.121 0.208 0.147c0.083 0.025 0.173 0.023 0.255-0.006s0.153-0.085 0.201-0.157l4.875-7.313c0.041-0.061 0.064-0.132 0.068-0.206s-0.013-0.147-0.048-0.211c-0.035-0.065-0.086-0.119-0.149-0.157s-0.135-0.058-0.209-0.058h-2.844v-5.281c0-0.087-0.028-0.172-0.080-0.242s-0.125-0.121-0.208-0.147zM18.97 15.26l-3.71 5.564v-4.346c0-0.108-0.043-0.211-0.119-0.287s-0.18-0.119-0.287-0.119h-2.491l3.71-5.564v4.346c0 0.108 0.043 0.211 0.119 0.287s0.18 0.119 0.287 0.119h2.491z"></path>
<path fill="#50ab09" style="fill: var(--color1, #50ab09)" d="M15.667 2.667c-2.844 0.004-5.609 0.938-7.872 2.66l-0.273-0.273c-0.459-0.459-1.265-0.459-1.723 0l-1.863 1.863c-0.038 0.038-0.068 0.082-0.088 0.132s-0.031 0.102-0.031 0.155 0.011 0.106 0.031 0.155c0.020 0.049 0.050 0.094 0.088 0.132l0.525 0.525-0.932 0.932c-0.038 0.038-0.068 0.082-0.088 0.132s-0.031 0.102-0.031 0.155c0 0.053 0.010 0.106 0.031 0.155s0.050 0.094 0.088 0.132 0.083 0.068 0.132 0.088c0.049 0.020 0.102 0.031 0.155 0.031s0.106-0.010 0.155-0.031c0.049-0.020 0.094-0.050 0.132-0.088l0.932-0.932 1.051 1.051-0.932 0.932c-0.038 0.038-0.068 0.082-0.088 0.132s-0.031 0.102-0.031 0.155c0 0.053 0.011 0.106 0.031 0.155s0.050 0.094 0.088 0.132 0.083 0.068 0.132 0.088c0.049 0.020 0.102 0.031 0.155 0.031s0.106-0.010 0.155-0.031c0.049-0.020 0.094-0.050 0.132-0.088l0.932-0.932 0.525 0.525c0.038 0.038 0.082 0.068 0.132 0.088s0.102 0.031 0.156 0.031c0.053 0 0.106-0.011 0.156-0.031s0.094-0.051 0.132-0.088l1.863-1.863c0.228-0.229 0.356-0.539 0.356-0.862s-0.128-0.633-0.356-0.862l-0.077-0.077c1.797-1.288 3.9-1.974 6.121-1.974 5.824 0 10.562 4.739 10.562 10.563 0 0.672 0.547 1.219 1.219 1.219s1.219-0.547 1.219-1.219c0-7.168-5.832-13-13-13zM9.049 8.304l-1.576 1.576-2.676-2.676 1.576-1.576c0.078-0.073 0.18-0.114 0.287-0.114s0.21 0.041 0.287 0.114l2.101 2.101c0.076 0.076 0.119 0.18 0.119 0.287s-0.043 0.211-0.119 0.287zM27.448 16.073c-0.224 0-0.406-0.182-0.406-0.406 0-6.273-5.103-11.375-11.375-11.375-2.437 0-4.743 0.766-6.702 2.204l-0.583-0.583c2.097-1.567 4.662-2.434 7.286-2.434 6.72 0 12.187 5.467 12.187 12.188 0 0.224-0.182 0.406-0.406 0.406z"></path>
</symbol>
<symbol id="computer" viewBox="0 0 32 32">
<path fill="#50ab09" style="fill: var(--color1, #50ab09)" d="M20.333 23.695c0 0.221-0.179 0.4-0.4 0.4h-0.010c-0.221 0-0.4-0.179-0.4-0.4v-0.010c0-0.221 0.179-0.4 0.4-0.4h0.010c0.221 0 0.4 0.179 0.4 0.4v0.010zM18.714 23.695c0 0.221-0.179 0.4-0.4 0.4h-0.010c-0.221 0-0.4-0.179-0.4-0.4v-0.010c0-0.221 0.179-0.4 0.4-0.4h0.010c0.221 0 0.4 0.179 0.4 0.4v0.010zM17.095 23.695c0 0.221-0.179 0.4-0.4 0.4h-0.010c-0.221 0-0.4-0.179-0.4-0.4v-0.010c0-0.221 0.179-0.4 0.4-0.4h0.010c0.221 0 0.4 0.179 0.4 0.4v0.010zM15.476 23.695c0 0.221-0.179 0.4-0.4 0.4h-0.010c-0.221 0-0.4-0.179-0.4-0.4v-0.010c0-0.221 0.179-0.4 0.4-0.4h0.010c0.221 0 0.4 0.179 0.4 0.4v0.010zM13.857 23.695c0 0.221-0.179 0.4-0.4 0.4h-0.010c-0.221 0-0.4-0.179-0.4-0.4v-0.010c0-0.221 0.179-0.4 0.4-0.4h0.010c0.221 0 0.4 0.179 0.4 0.4v0.010zM12.238 23.695c0 0.221-0.179 0.4-0.4 0.4h-0.010c-0.221 0-0.4-0.179-0.4-0.4v-0.010c0-0.221 0.179-0.4 0.4-0.4h0.010c0.221 0 0.4 0.179 0.4 0.4v0.010zM10.619 23.695c0 0.221-0.179 0.4-0.4 0.4h-0.010c-0.221 0-0.4-0.179-0.4-0.4v-0.010c0-0.221 0.179-0.4 0.4-0.4h0.010c0.221 0 0.4 0.179 0.4 0.4v0.010zM9 23.695c0 0.221-0.179 0.4-0.4 0.4h-0.010c-0.221 0-0.4-0.179-0.4-0.4v-0.010c0-0.221 0.179-0.4 0.4-0.4h0.010c0.221 0 0.4 0.179 0.4 0.4v0.010zM7.381 23.695c0 0.221-0.179 0.4-0.4 0.4h-0.010c-0.221 0-0.4-0.179-0.4-0.4v-0.010c0-0.221 0.179-0.4 0.4-0.4h0.010c0.221 0 0.4 0.179 0.4 0.4v0.010zM5.762 23.695c0 0.221-0.179 0.4-0.4 0.4h-0.010c-0.221 0-0.4-0.179-0.4-0.4v-0.010c0-0.221 0.179-0.4 0.4-0.4h0.010c0.221 0 0.4 0.179 0.4 0.4v0.010zM20.333 25.314c0 0.221-0.179 0.4-0.4 0.4h-0.010c-0.221 0-0.4-0.179-0.4-0.4v-0.010c0-0.221 0.179-0.4 0.4-0.4h0.010c0.221 0 0.4 0.179 0.4 0.4v0.010zM18.714 25.314c0 0.221-0.179 0.4-0.4 0.4h-0.010c-0.221 0-0.4-0.179-0.4-0.4v-0.010c0-0.221 0.179-0.4 0.4-0.4h0.010c0.221 0 0.4 0.179 0.4 0.4v0.010zM17.095 25.314c0 0.221-0.179 0.4-0.4 0.4h-0.010c-0.221 0-0.4-0.179-0.4-0.4v-0.010c0-0.221 0.179-0.4 0.4-0.4h0.010c0.221 0 0.4 0.179 0.4 0.4v0.010zM15.476 25.314c0 0.221-0.179 0.4-0.4 0.4h-0.010c-0.221 0-0.4-0.179-0.4-0.4v-0.010c0-0.221 0.179-0.4 0.4-0.4h0.010c0.221 0 0.4 0.179 0.4 0.4v0.010zM13.857 25.314c0 0.221-0.179 0.4-0.4 0.4h-0.010c-0.221 0-0.4-0.179-0.4-0.4v-0.010c0-0.221 0.179-0.4 0.4-0.4h0.010c0.221 0 0.4 0.179 0.4 0.4v0.010zM12.238 25.314c0 0.221-0.179 0.4-0.4 0.4h-0.010c-0.221 0-0.4-0.179-0.4-0.4v-0.010c0-0.221 0.179-0.4 0.4-0.4h0.010c0.221 0 0.4 0.179 0.4 0.4v0.010zM10.619 25.314c0 0.221-0.179 0.4-0.4 0.4h-0.010c-0.221 0-0.4-0.179-0.4-0.4v-0.010c0-0.221 0.179-0.4 0.4-0.4h0.010c0.221 0 0.4 0.179 0.4 0.4v0.010zM9 25.314c0 0.221-0.179 0.4-0.4 0.4h-0.010c-0.221 0-0.4-0.179-0.4-0.4v-0.010c0-0.221 0.179-0.4 0.4-0.4h0.010c0.221 0 0.4 0.179 0.4 0.4v0.010zM7.381 25.314c0 0.221-0.179 0.4-0.4 0.4h-0.010c-0.221 0-0.4-0.179-0.4-0.4v-0.010c0-0.221 0.179-0.4 0.4-0.4h0.010c0.221 0 0.4 0.179 0.4 0.4v0.010zM5.762 25.314c0 0.221-0.179 0.4-0.4 0.4h-0.010c-0.221 0-0.4-0.179-0.4-0.4v-0.010c0-0.221 0.179-0.4 0.4-0.4h0.010c0.221 0 0.4 0.179 0.4 0.4v0.010zM24.381 6.686c0-0.221 0.179-0.4 0.4-0.4h2.438c0.221 0 0.4 0.179 0.4 0.4v0.010c0 0.221-0.179 0.4-0.4 0.4h-2.438c-0.221 0-0.4-0.179-0.4-0.4v-0.010zM24.381 8.305c0-0.221 0.179-0.4 0.4-0.4h2.438c0.221 0 0.4 0.179 0.4 0.4v0.010c0 0.221-0.179 0.4-0.4 0.4h-2.438c-0.221 0-0.4-0.179-0.4-0.4v-0.010zM24.381 9.924c0-0.221 0.179-0.4 0.4-0.4h2.438c0.221 0 0.4 0.179 0.4 0.4v0.010c0 0.221-0.179 0.4-0.4 0.4h-2.438c-0.221 0-0.4-0.179-0.4-0.4v-0.010z"></path>
<path fill="#50ab09" style="fill: var(--color1, #50ab09)" d="M28.024 4.667h-4.048c-0.671 0-1.214 0.544-1.214 1.214v14.167h6.476v-14.167c0-0.671-0.544-1.214-1.214-1.214zM28.429 19.238h-4.857v-13.357c0-0.107 0.043-0.21 0.119-0.286s0.179-0.119 0.286-0.119h4.048c0.107 0 0.21 0.043 0.286 0.119s0.119 0.179 0.119 0.286v13.357zM20.738 21.667h-16.19c-0.671 0-1.214 0.544-1.214 1.214v3.238c0 0.671 0.544 1.214 1.214 1.214h16.19c0.671 0 1.214-0.544 1.214-1.214v-3.238c0-0.671-0.544-1.214-1.214-1.214zM21.143 26.119c0 0.107-0.043 0.21-0.119 0.286s-0.179 0.119-0.286 0.119h-16.19c-0.107 0-0.21-0.043-0.286-0.119s-0.119-0.179-0.119-0.286v-3.238c0-0.107 0.043-0.21 0.119-0.286s0.179-0.119 0.286-0.119h16.19c0.107 0 0.21 0.043 0.286 0.119s0.119 0.179 0.119 0.286v3.238zM25.595 21.667c-1.117 0.001-2.022 0.907-2.024 2.024v1.619c0 1.118 0.906 2.024 2.024 2.024s2.024-0.906 2.024-2.024v-1.619c-0.001-1.117-0.907-2.022-2.024-2.024zM26.81 25.31c0 0.671-0.544 1.214-1.214 1.214s-1.214-0.544-1.214-1.214v-1.619c0.001-0.25 0.079-0.494 0.224-0.698s0.349-0.358 0.585-0.442v1.145c0 0.221 0.179 0.4 0.4 0.4h0.010c0.221 0 0.4-0.179 0.4-0.4v-1.145c0.236 0.083 0.44 0.238 0.585 0.442s0.223 0.448 0.224 0.698v1.619zM20.738 4.667h-16.19c-0.671 0-1.214 0.544-1.214 1.214v9.714c0 0.671 0.544 1.214 1.214 1.214h5.667v1.687c-0 0.41-0.332 0.742-0.742 0.742h-0.882c-0.221 0-0.4 0.179-0.4 0.4v0.010c0 0.221 0.179 0.4 0.4 0.4h7.295c0.221 0 0.4-0.179 0.4-0.4v-0.010c0-0.221-0.179-0.4-0.4-0.4h-0.882c-0.41-0-0.742-0.332-0.742-0.742v-1.687h6.476c0.671 0 1.214-0.544 1.214-1.214v-9.714c0-0.671-0.544-1.214-1.214-1.214zM10.834 19.238c0.125-0.227 0.19-0.483 0.189-0.742v-1.687h0.81v1.72h0.81v-1.72h0.81v1.687c-0 0.259 0.065 0.515 0.189 0.742h-2.807zM21.143 15.595c0 0.107-0.043 0.21-0.119 0.286s-0.179 0.119-0.286 0.119h-16.19c-0.107 0-0.21-0.043-0.286-0.119s-0.119-0.179-0.119-0.286v-2.024h17v2.024zM21.143 12.762h-17v-6.881c0-0.107 0.043-0.21 0.119-0.286s0.179-0.119 0.286-0.119h16.19c0.107 0 0.21 0.043 0.286 0.119s0.119 0.179 0.119 0.286v6.881z"></path>
<path fill="#50ab09" style="fill: var(--color1, #50ab09)" d="M26.405 15.248v-0.467c0-0.221-0.179-0.4-0.4-0.4h-0.010c-0.221 0-0.4 0.179-0.4 0.4v0.467c-0.789 0.204-1.304 0.963-1.201 1.772s0.791 1.415 1.606 1.415c0.815 0 1.503-0.606 1.606-1.415s-0.412-1.568-1.201-1.772zM26 17.619c-0.366 0.001-0.687-0.244-0.781-0.598s0.060-0.726 0.377-0.909v0.697h0.81v-0.697c0.317 0.183 0.472 0.556 0.377 0.909s-0.416 0.599-0.781 0.598zM11.833 14.781c0-0.221 0.179-0.4 0.4-0.4h0.010c0.221 0 0.4 0.179 0.4 0.4v0.010c0 0.221-0.179 0.4-0.4 0.4h-0.010c-0.221 0-0.4-0.179-0.4-0.4v-0.010z"></path>
</symbol>
<symbol id="learning" viewBox="0 0 32 32">
<path fill="#50ab09" style="fill: var(--color1, #50ab09)" d="M30.286 9.619h-1.075v-0.94c-0-0.322-0.128-0.63-0.356-0.858s-0.536-0.356-0.858-0.356h-7.329c-0.561-0.698-1.272-1.262-2.080-1.649s-1.693-0.588-2.589-0.588-1.781 0.201-2.589 0.588c-0.808 0.387-1.519 0.951-2.080 1.649h-7.329c-0.322 0-0.63 0.128-0.858 0.356s-0.356 0.536-0.356 0.858v0.94h-1.073c-0.322 0-0.63 0.128-0.858 0.356s-0.356 0.536-0.356 0.858v18.241c0 0.322 0.128 0.63 0.356 0.858s0.536 0.356 0.858 0.356h12.371l0.427 0.636c0.046 0.068 0.108 0.124 0.18 0.162s0.153 0.059 0.235 0.059h2.146c0.082 0 0.163-0.020 0.235-0.059s0.134-0.095 0.18-0.163l0.426-0.636h12.372c0.322-0 0.63-0.128 0.858-0.356s0.356-0.536 0.356-0.858v-18.241c-0-0.322-0.128-0.63-0.356-0.858s-0.536-0.356-0.858-0.356zM3.788 26.105h10.057c0.34 0 0.672 0.106 0.951 0.301s0.49 0.472 0.606 0.792c-0.144-0.043-0.293-0.065-0.444-0.065h-10.956c-0.057-0.001-0.111-0.024-0.151-0.063s-0.063-0.094-0.063-0.151l0-0.814zM15.999 6.227c1.325 0.002 2.595 0.529 3.532 1.465s1.464 2.207 1.465 3.532c0 1.575-0.707 2.663-1.455 3.816-0.517 0.796-1.048 1.616-1.367 2.62h-0.625v-3.304c-0-0.037-0.004-0.074-0.012-0.111 0.396-0.090 0.744-0.324 0.979-0.655s0.339-0.737 0.294-1.141c-0.046-0.403-0.238-0.776-0.541-1.046s-0.695-0.42-1.101-0.42c-0.133 0-0.26 0.053-0.354 0.146s-0.146 0.221-0.146 0.354c0 0.133 0.053 0.26 0.146 0.354s0.221 0.146 0.354 0.146c0.086-0.001 0.172 0.015 0.251 0.048s0.152 0.080 0.214 0.141c0.061 0.061 0.11 0.133 0.143 0.212s0.050 0.165 0.050 0.251c0 0.086-0.017 0.171-0.050 0.251s-0.082 0.152-0.143 0.212c-0.061 0.061-0.134 0.108-0.214 0.141s-0.165 0.049-0.251 0.048h-2.337c-0.086 0.001-0.172-0.015-0.251-0.048s-0.152-0.080-0.214-0.141c-0.061-0.061-0.11-0.133-0.143-0.212s-0.050-0.165-0.050-0.251 0.017-0.171 0.050-0.251c0.033-0.079 0.082-0.152 0.143-0.212s0.134-0.108 0.214-0.141 0.165-0.049 0.251-0.048c0.133 0 0.26-0.053 0.354-0.146s0.146-0.221 0.146-0.354c0-0.133-0.053-0.26-0.146-0.354s-0.221-0.146-0.354-0.146c-0.406-0-0.798 0.149-1.101 0.42s-0.495 0.643-0.541 1.046c-0.046 0.403 0.059 0.809 0.294 1.141s0.583 0.564 0.979 0.655c-0.008 0.036-0.012 0.073-0.013 0.111v3.304h-0.627c-0.318-1.005-0.85-1.826-1.367-2.622-0.748-1.152-1.455-2.241-1.455-3.814 0.002-1.325 0.529-2.595 1.465-3.532s2.207-1.464 3.532-1.465zM18.052 19.629c0 0.014-0.001 0.028-0.001 0.042h-4.104c0-0.014-0.001-0.028-0.001-0.042v-0.969h4.106l-0 0.969zM17.767 20.671c-0.181 0.308-0.44 0.563-0.75 0.74s-0.661 0.271-1.018 0.271-0.708-0.093-1.018-0.271c-0.31-0.177-0.568-0.433-0.75-0.74h3.536zM15.445 14.288h1.11c-0.003 0.023-0.005 0.046-0.005 0.069v3.304h-1.099v-3.304c-0-0.023-0.002-0.046-0.005-0.069zM4.001 8.465h6.674c-0.444 0.852-0.675 1.799-0.674 2.76 0 1.87 0.822 3.135 1.616 4.359 0.55 0.846 1.069 1.647 1.328 2.64v1.406c0 0.81 0.322 1.586 0.894 2.159s1.349 0.894 2.159 0.894c0.81 0 1.586-0.322 2.159-0.894s0.894-1.349 0.894-2.159v-1.406c0.259-0.993 0.779-1.792 1.328-2.638 0.795-1.224 1.616-2.49 1.616-4.36 0.001-0.961-0.23-1.908-0.674-2.76h6.674c0.057 0 0.111 0.023 0.151 0.063s0.063 0.095 0.063 0.151v16.427h-10.057c-0.602-0-1.185 0.205-1.654 0.581v-1.628c0-0.133-0.053-0.26-0.146-0.354s-0.221-0.146-0.354-0.146c-0.133 0-0.26 0.053-0.354 0.146s-0.146 0.221-0.146 0.354v1.628c-0.469-0.376-1.053-0.581-1.654-0.581h-10.057v-16.427c0.001-0.056 0.023-0.11 0.063-0.15s0.094-0.063 0.15-0.064zM28.211 26.105v0.815c-0 0.057-0.023 0.111-0.063 0.151s-0.094 0.063-0.151 0.063h-10.956c-0.15-0-0.3 0.022-0.444 0.065 0.116-0.32 0.327-0.597 0.606-0.792s0.61-0.301 0.951-0.301l10.058-0zM30.5 29.074c-0.001 0.057-0.024 0.111-0.064 0.15s-0.094 0.063-0.15 0.063h-12.639c-0.082 0-0.163 0.020-0.236 0.059s-0.134 0.095-0.18 0.163l-0.426 0.636h-1.612l-0.427-0.636c-0.046-0.068-0.108-0.124-0.18-0.163s-0.153-0.059-0.235-0.059h-12.637c-0.057-0-0.111-0.023-0.151-0.063s-0.063-0.095-0.063-0.151v-18.241c0-0.057 0.023-0.111 0.063-0.151s0.095-0.063 0.151-0.063h1.074v16.301c0 0.322 0.128 0.63 0.356 0.858s0.536 0.356 0.858 0.356h10.956c0.144 0 0.281 0.057 0.383 0.159s0.159 0.239 0.159 0.383c0 0.133 0.053 0.26 0.146 0.354s0.221 0.146 0.354 0.146 0.26-0.053 0.354-0.146c0.094-0.094 0.146-0.221 0.146-0.354 0.002-0.143 0.060-0.28 0.161-0.381s0.238-0.159 0.381-0.161h10.956c0.322-0 0.63-0.128 0.858-0.356s0.356-0.536 0.356-0.858v-16.301h1.075c0.057 0.001 0.11 0.024 0.15 0.064s0.063 0.094 0.063 0.15v18.241zM5.351 13.545c0-0.133 0.053-0.26 0.146-0.354s0.221-0.146 0.354-0.146h3.154c0.133 0 0.26 0.053 0.354 0.146s0.146 0.221 0.146 0.354c0 0.133-0.053 0.26-0.146 0.354s-0.221 0.146-0.354 0.146h-3.154c-0.133 0-0.26-0.053-0.354-0.146s-0.146-0.221-0.146-0.354zM5.351 15.705c0-0.133 0.053-0.26 0.146-0.354s0.221-0.146 0.354-0.146h4.213c0.133 0 0.26 0.053 0.354 0.146s0.146 0.221 0.146 0.354c0 0.133-0.053 0.26-0.146 0.354s-0.221 0.146-0.354 0.146h-4.213c-0.133 0-0.26-0.053-0.354-0.146s-0.146-0.221-0.146-0.354zM5.351 17.865c0-0.133 0.053-0.26 0.146-0.354s0.221-0.146 0.354-0.146h5.51c0.133 0 0.26 0.053 0.354 0.146s0.146 0.221 0.146 0.354c0 0.133-0.053 0.26-0.146 0.354s-0.221 0.146-0.354 0.146h-5.51c-0.133 0-0.26-0.053-0.354-0.146s-0.146-0.221-0.146-0.354zM5.351 20.023c0-0.133 0.053-0.26 0.146-0.354s0.221-0.146 0.354-0.146h5.738c0.133 0 0.26 0.053 0.354 0.146s0.146 0.221 0.146 0.354c0 0.133-0.053 0.26-0.146 0.354s-0.221 0.146-0.354 0.146h-5.738c-0.133 0-0.26-0.053-0.354-0.146s-0.146-0.221-0.146-0.354zM5.351 22.182c0-0.133 0.053-0.26 0.146-0.354s0.221-0.146 0.354-0.146h6.534c0.133 0 0.26 0.053 0.354 0.146s0.146 0.221 0.146 0.354-0.053 0.26-0.146 0.354c-0.094 0.094-0.221 0.146-0.354 0.146h-6.534c-0.133 0-0.26-0.053-0.354-0.146s-0.146-0.221-0.146-0.354zM22.496 13.545c0-0.133 0.053-0.26 0.146-0.354s0.221-0.146 0.354-0.146h3.152c0.133 0 0.26 0.053 0.354 0.146s0.146 0.221 0.146 0.354c0 0.133-0.053 0.26-0.146 0.354s-0.221 0.146-0.354 0.146h-3.152c-0.133 0-0.26-0.053-0.354-0.146s-0.146-0.221-0.146-0.354zM21.436 15.705c0-0.133 0.053-0.26 0.146-0.354s0.221-0.146 0.354-0.146h4.211c0.133 0 0.26 0.053 0.354 0.146s0.146 0.221 0.146 0.354c0 0.133-0.053 0.26-0.146 0.354s-0.221 0.146-0.354 0.146h-4.211c-0.133 0-0.26-0.053-0.354-0.146s-0.146-0.221-0.146-0.354zM20.139 17.865c0-0.133 0.053-0.26 0.146-0.354s0.221-0.146 0.354-0.146h5.508c0.133 0 0.26 0.053 0.354 0.146s0.146 0.221 0.146 0.354c0 0.133-0.053 0.26-0.146 0.354s-0.221 0.146-0.354 0.146h-5.508c-0.133 0-0.26-0.053-0.354-0.146s-0.146-0.221-0.146-0.354zM19.911 20.023c0-0.133 0.053-0.26 0.146-0.354s0.221-0.146 0.354-0.146h5.737c0.133 0 0.26 0.053 0.354 0.146s0.146 0.221 0.146 0.354-0.053 0.26-0.146 0.354c-0.094 0.094-0.221 0.146-0.354 0.146h-5.737c-0.133 0-0.26-0.053-0.354-0.146s-0.146-0.221-0.146-0.354zM19.113 22.182c0-0.133 0.053-0.26 0.146-0.354s0.221-0.146 0.354-0.146h6.534c0.133 0 0.26 0.053 0.354 0.146s0.146 0.221 0.146 0.354-0.053 0.26-0.146 0.354c-0.094 0.094-0.221 0.146-0.354 0.146h-6.534c-0.133 0-0.26-0.053-0.354-0.146s-0.146-0.221-0.146-0.354zM6.38 10.475c0-0.133 0.053-0.26 0.146-0.354s0.221-0.146 0.354-0.146h1.27c0.133 0 0.26 0.053 0.354 0.146s0.146 0.221 0.146 0.354c0 0.133-0.053 0.26-0.146 0.354s-0.221 0.146-0.354 0.146h-1.27c-0.133 0-0.26-0.053-0.354-0.146s-0.146-0.221-0.146-0.354zM21.188 5.788c-0.099 0-0.195-0.029-0.278-0.084s-0.146-0.133-0.184-0.224c-0.038-0.091-0.048-0.192-0.029-0.289s0.067-0.186 0.137-0.256l1.26-1.261c0.094-0.093 0.221-0.145 0.353-0.145s0.259 0.053 0.352 0.146c0.093 0.093 0.146 0.22 0.147 0.352s-0.051 0.259-0.144 0.353l-1.26 1.262c-0.046 0.047-0.102 0.083-0.162 0.109s-0.126 0.038-0.192 0.038zM15.999 3.839c-0.133 0-0.26-0.053-0.354-0.146s-0.146-0.221-0.146-0.354v-1.984c0-0.133 0.053-0.26 0.146-0.354s0.221-0.146 0.354-0.146 0.26 0.053 0.354 0.146c0.094 0.094 0.146 0.221 0.146 0.354v1.984c0 0.133-0.053 0.26-0.146 0.354s-0.221 0.146-0.354 0.146zM10.458 5.641l-1.261-1.261c-0.092-0.094-0.143-0.221-0.143-0.352s0.053-0.258 0.146-0.351c0.093-0.093 0.219-0.146 0.351-0.146s0.258 0.050 0.352 0.143l1.262 1.261c0.094 0.094 0.146 0.221 0.146 0.354s-0.053 0.26-0.146 0.354c-0.094 0.094-0.221 0.146-0.354 0.146s-0.26-0.053-0.354-0.146zM23.349 10.475c0-0.133 0.053-0.26 0.146-0.354s0.221-0.146 0.354-0.146h1.27c0.133 0 0.26 0.053 0.354 0.146s0.146 0.221 0.146 0.354c0 0.133-0.053 0.26-0.146 0.354s-0.221 0.146-0.354 0.146h-1.27c-0.133 0-0.26-0.053-0.354-0.146s-0.146-0.221-0.146-0.354z"></path>
</symbol>
<symbol id="paw" viewBox="0 0 32 32">
<path fill="#50ab09" style="fill: var(--color1, #50ab09)" d="M23.056 30.273c-0.74 0-1.5-0.19-2.213-0.571-3.090-1.646-6.197-1.646-9.286 0-1.436 0.766-3.059 0.759-4.342-0.018-1.438-0.825-2.428-2.368-2.637-4.122-0.211-1.765 0.369-3.442 1.592-4.602 0.715-0.717 1.612-1.225 2.594-1.469 0.787-0.177 1.441-0.727 1.803-1.509 0.102-0.184 0.171-0.365 0.234-0.605 0.58-2.209 3.103-4.146 5.399-4.146s4.819 1.937 5.398 4.146c0.064 0.24 0.132 0.421 0.217 0.571 0.38 0.817 1.034 1.366 1.81 1.541 0.991 0.245 1.896 0.757 2.615 1.482 1.213 1.149 1.793 2.826 1.582 4.591-0.21 1.754-1.199 3.297-2.648 4.128-0.639 0.385-1.372 0.587-2.118 0.583zM16.2 27.461c1.701 0 3.422 0.457 5.114 1.359 1.121 0.598 2.375 0.602 3.352 0.009 1.186-0.681 1.991-1.944 2.163-3.385 0.173-1.449-0.296-2.818-1.287-3.758-0.59-0.597-1.332-1.020-2.147-1.224-1.072-0.241-1.975-0.993-2.47-2.059-0.109-0.191-0.208-0.447-0.293-0.771-0.468-1.781-2.58-3.401-4.432-3.401s-3.964 1.621-4.431 3.4c-0.086 0.325-0.184 0.581-0.311 0.807-0.477 1.031-1.381 1.782-2.463 2.026-0.806 0.202-1.541 0.621-2.126 1.211-1.002 0.95-1.471 2.32-1.298 3.768 0.172 1.441 0.977 2.704 2.153 3.379 0.987 0.598 2.241 0.596 3.363-0.003 1.691-0.901 3.412-1.358 5.114-1.358l-0.001 0zM11.939 10.867c-0.94 0-1.729-0.197-2.35-0.589-0.877-0.554-1.367-1.452-1.457-2.669-0.089-1.205 0.233-2.6 0.863-3.732 0.723-1.297 1.721-2.057 2.812-2.138 1.119-0.085 3.031 0.437 3.357 4.839 0.1 1.344-0.011 2.244-0.36 2.917-0.42 0.813-1.202 1.267-2.323 1.35-0.186 0.014-0.367 0.021-0.542 0.021zM12.010 2.732c-0.043 0-0.086 0.002-0.13 0.005-0.733 0.054-1.466 0.647-2.011 1.627-0.538 0.967-0.815 2.153-0.74 3.171 0.067 0.896 0.392 1.516 0.994 1.897 0.544 0.343 1.336 0.486 2.283 0.417 1.004-0.075 1.334-0.473 1.51-0.813 0.255-0.493 0.335-1.25 0.251-2.384-0.134-1.803-0.618-3.921-2.157-3.921v0.001zM4.986 18.323c-0.462 0-0.888-0.071-1.276-0.213-0.974-0.358-1.641-1.133-1.984-2.304-0.34-1.16-0.317-2.592 0.062-3.829 0.434-1.421 1.252-2.372 2.301-2.68 0.741-0.217 1.834-0.222 2.842 0.987 0.578 0.694 1.068 1.717 1.456 3.041 0.531 1.813 0.814 3.989-1.73 4.735-0.598 0.175-1.157 0.263-1.671 0.263zM4.841 10.185c-0.159 0.001-0.318 0.025-0.47 0.072-0.705 0.207-1.298 0.94-1.627 2.012-0.324 1.059-0.345 2.276-0.058 3.256 0.252 0.862 0.7 1.401 1.369 1.646 0.604 0.222 1.407 0.198 2.321-0.071 1.24-0.363 1.774-1.027 1.051-3.494-0.344-1.175-0.781-2.103-1.264-2.682-0.414-0.497-0.842-0.739-1.322-0.739h-0zM27.414 18.323c-0.514 0-1.073-0.088-1.671-0.263-2.544-0.746-2.261-2.922-1.73-4.735 0.388-1.324 0.878-2.347 1.456-3.041 1.007-1.209 2.101-1.204 2.842-0.987 1.050 0.308 1.867 1.259 2.301 2.68 0.379 1.238 0.402 2.669 0.062 3.829-0.343 1.171-1.010 1.946-1.984 2.304-0.387 0.142-0.814 0.213-1.276 0.213zM27.559 10.185c-0.479 0-0.907 0.242-1.322 0.739-0.483 0.58-0.92 1.507-1.264 2.682-0.722 2.467-0.188 3.131 1.051 3.494 0.914 0.268 1.717 0.293 2.321 0.071 0.669-0.245 1.117-0.784 1.369-1.646 0.288-0.98 0.266-2.197-0.058-3.256-0.328-1.072-0.921-1.805-1.626-2.012-0.152-0.046-0.311-0.070-0.471-0.072zM20.461 10.867c-0.175 0-0.356-0.007-0.542-0.021-1.121-0.083-1.903-0.537-2.323-1.35-0.348-0.673-0.459-1.573-0.36-2.917 0.325-4.402 2.248-4.925 3.357-4.839 1.091 0.081 2.090 0.84 2.812 2.138 0.63 1.131 0.952 2.526 0.863 3.731-0.090 1.217-0.58 2.115-1.457 2.669-0.621 0.392-1.41 0.589-2.35 0.589zM20.39 2.732c-1.539 0-2.024 2.117-2.157 3.921-0.084 1.134-0.004 1.891 0.251 2.384 0.176 0.339 0.506 0.738 1.51 0.813 0.949 0.068 1.739-0.074 2.283-0.417 0.602-0.381 0.927-1.001 0.994-1.897 0.075-1.018-0.201-2.204-0.74-3.171-0.545-0.98-1.279-1.573-2.012-1.627-0.043-0.003-0.086-0.004-0.129-0.005v-0.001z"></path>
</symbol>
<symbol id="impactIcon1" viewBox="0 0 157 32">
<path fill="#fff" style="fill: var(--color6, #fff)" d="M19.412 1.504l0.119-0.549 10.545 15.865-0.768 0.461-9.895-15.777z"></path>
<path fill="#ffc700" style="fill: var(--color7, #ffc700)" d="M14.148 15.086c7.116-1.75 9.322-5.203 9.637-6.818l4.868 7.286c-3.003 4.225-5.093 5.076-7.029 5.275-6.74 0.693-11.972 5.395-13.692 7.595l-3.607-6.751c0.315-1.468 2.706-4.837 9.823-6.587z"></path>
<path fill="#0678be" style="fill: var(--color8, #0678be)" d="M10.159 8.419c6.849-1.763 9.163-5.435 9.463-7.051l4.506 7.491c-2.884 4.23-4.989 4.682-6.759 5.288-6.407 2.193-9.538 2.43-13.014 7.576l-3.659-6.695c0.3-1.469 2.614-4.847 9.463-6.61z"></path>
<path fill="#0478be" style="fill: var(--color9, #0478be)" d="M57.86 11.492c0 0.453 0.092 0.875 0.277 1.267s0.434 0.734 0.748 1.028c0.314 0.288 0.677 0.517 1.090 0.688 0.413 0.165 0.844 0.248 1.293 0.248s0.871-0.083 1.266-0.248c0.394-0.171 0.736-0.401 1.025-0.688 0.289-0.294 0.517-0.636 0.684-1.028 0.172-0.392 0.259-0.814 0.259-1.267v-5.654c0-0.141 0.025-0.269 0.074-0.386 0.055-0.122 0.129-0.226 0.222-0.312 0.092-0.092 0.197-0.162 0.314-0.211 0.123-0.049 0.256-0.073 0.397-0.073 0.135 0 0.265 0.024 0.388 0.073s0.228 0.119 0.314 0.211c0.092 0.086 0.163 0.19 0.213 0.312 0.055 0.116 0.083 0.245 0.083 0.386v5.654c0 0.716-0.139 1.392-0.416 2.029-0.271 0.636-0.644 1.19-1.118 1.661s-1.032 0.844-1.672 1.12c-0.634 0.275-1.315 0.413-2.041 0.413s-1.416-0.138-2.069-0.413c-0.653-0.275-1.229-0.649-1.727-1.12-0.493-0.471-0.884-1.025-1.173-1.661s-0.434-1.313-0.434-2.029v-5.636c0-0.135 0.025-0.263 0.074-0.386 0.055-0.122 0.126-0.226 0.212-0.312 0.092-0.092 0.197-0.162 0.314-0.211 0.123-0.055 0.256-0.083 0.397-0.083 0.136 0 0.265 0.028 0.388 0.083 0.123 0.049 0.231 0.119 0.323 0.211 0.092 0.086 0.163 0.19 0.212 0.312 0.055 0.122 0.083 0.251 0.083 0.386v5.636z"></path>
<path fill="#0478be" style="fill: var(--color9, #0478be)" d="M70.495 10.656l5.847-5.526c0.105-0.098 0.218-0.168 0.342-0.211s0.246-0.061 0.37-0.055c0.129 0 0.255 0.028 0.378 0.083s0.234 0.132 0.333 0.229c0.093 0.098 0.16 0.208 0.203 0.33 0.043 0.116 0.058 0.239 0.047 0.367-0.006 0.128-0.038 0.254-0.093 0.376s-0.136 0.233-0.241 0.33l-4.212 3.956 4.305 4.36c0.099 0.104 0.173 0.22 0.222 0.349 0.049 0.122 0.074 0.248 0.074 0.376s-0.028 0.254-0.083 0.376c-0.049 0.116-0.123 0.223-0.222 0.321-0.197 0.196-0.425 0.291-0.684 0.285-0.253 0-0.477-0.101-0.674-0.303l-4.378-4.415-1.533 1.45v2.286c0 0.141-0.028 0.272-0.083 0.395-0.049 0.116-0.12 0.217-0.212 0.303s-0.2 0.156-0.323 0.211c-0.123 0.049-0.253 0.073-0.388 0.073-0.142 0-0.274-0.024-0.397-0.073-0.117-0.055-0.222-0.125-0.314-0.211-0.086-0.086-0.157-0.187-0.212-0.303-0.049-0.122-0.074-0.254-0.074-0.395v-9.785c0-0.135 0.025-0.263 0.074-0.386 0.055-0.122 0.126-0.226 0.212-0.312 0.092-0.086 0.197-0.153 0.314-0.202 0.123-0.055 0.256-0.083 0.397-0.083 0.135 0 0.265 0.028 0.388 0.083 0.123 0.049 0.231 0.116 0.323 0.202s0.163 0.19 0.212 0.312c0.056 0.122 0.083 0.251 0.083 0.386v4.819z"></path>
<path fill="#0478be" style="fill: var(--color9, #0478be)" d="M79.622 5.856c0-0.141 0.024-0.272 0.074-0.395 0.056-0.122 0.127-0.226 0.213-0.312 0.092-0.092 0.197-0.162 0.314-0.211 0.123-0.055 0.256-0.083 0.397-0.083h3.39c0.61 0 1.183 0.11 1.718 0.33 0.536 0.214 1.004 0.514 1.405 0.9 0.406 0.379 0.723 0.832 0.951 1.359 0.234 0.52 0.351 1.083 0.351 1.689 0 0.416-0.056 0.811-0.166 1.184s-0.268 0.719-0.471 1.037c-0.204 0.312-0.447 0.597-0.73 0.854s-0.595 0.471-0.934 0.643l1.709 2.047c0.104 0.104 0.182 0.217 0.231 0.34s0.071 0.248 0.065 0.376c0 0.129-0.025 0.254-0.074 0.376s-0.123 0.23-0.222 0.321c-0.099 0.098-0.207 0.171-0.323 0.22-0.111 0.049-0.225 0.073-0.342 0.073s-0.234-0.024-0.351-0.073c-0.111-0.049-0.215-0.122-0.314-0.22l-2.568-2.965h-2.319v2.276c0 0.141-0.027 0.272-0.083 0.395-0.049 0.116-0.12 0.217-0.212 0.303s-0.2 0.156-0.323 0.211c-0.123 0.049-0.253 0.073-0.388 0.073-0.141 0-0.274-0.024-0.397-0.073-0.117-0.055-0.222-0.125-0.314-0.211-0.086-0.086-0.157-0.187-0.213-0.303-0.049-0.122-0.074-0.254-0.074-0.395v-9.767zM81.626 6.847v4.498h2.402c0.333 0 0.643-0.058 0.933-0.174 0.296-0.116 0.551-0.272 0.767-0.468 0.216-0.202 0.385-0.438 0.509-0.707 0.129-0.269 0.193-0.557 0.193-0.863 0-0.312-0.065-0.606-0.193-0.881-0.124-0.281-0.296-0.526-0.518-0.734-0.216-0.208-0.468-0.37-0.758-0.486-0.289-0.122-0.598-0.184-0.924-0.184h-2.411z"></path>
<path fill="#0478be" style="fill: var(--color9, #0478be)" d="M96.968 14.355h-5.283l-0.693 1.652c-0.056 0.129-0.132 0.239-0.231 0.331s-0.209 0.159-0.333 0.202c-0.117 0.043-0.246 0.064-0.388 0.064-0.136-0.006-0.268-0.037-0.397-0.092-0.136-0.055-0.246-0.129-0.333-0.22-0.086-0.098-0.151-0.205-0.194-0.321-0.037-0.116-0.052-0.242-0.046-0.376 0.013-0.135 0.046-0.266 0.102-0.395l4.221-9.739c0.086-0.196 0.209-0.346 0.369-0.45s0.345-0.156 0.554-0.156c0.197 0 0.376 0.052 0.536 0.156s0.284 0.251 0.369 0.441l4.25 9.748c0.111 0.257 0.126 0.511 0.046 0.762-0.074 0.251-0.24 0.434-0.499 0.551-0.129 0.055-0.262 0.086-0.397 0.092-0.136 0-0.265-0.021-0.388-0.064-0.117-0.049-0.225-0.116-0.323-0.202-0.099-0.092-0.179-0.202-0.241-0.331l-0.702-1.652zM92.488 12.364h3.649l-1.811-4.323-1.838 4.323z"></path>
<path fill="#0478be" style="fill: var(--color9, #0478be)" d="M102.771 15.622c0 0.141-0.028 0.272-0.083 0.395-0.049 0.116-0.12 0.217-0.213 0.303s-0.2 0.156-0.323 0.211c-0.123 0.049-0.253 0.073-0.387 0.073-0.142 0-0.274-0.024-0.397-0.073-0.118-0.055-0.222-0.125-0.314-0.211-0.086-0.086-0.157-0.187-0.212-0.303-0.049-0.122-0.074-0.254-0.074-0.395v-9.785c0-0.141 0.024-0.269 0.074-0.386 0.055-0.122 0.126-0.226 0.212-0.312 0.093-0.092 0.197-0.162 0.314-0.211 0.123-0.049 0.255-0.073 0.397-0.073 0.135 0 0.264 0.024 0.387 0.073s0.231 0.119 0.323 0.211c0.093 0.086 0.163 0.19 0.213 0.312 0.055 0.116 0.083 0.245 0.083 0.386v9.785z"></path>
<path fill="#0478be" style="fill: var(--color9, #0478be)" d="M106.993 8.518v7.105c0 0.141-0.028 0.272-0.083 0.395-0.049 0.116-0.12 0.217-0.212 0.303s-0.2 0.156-0.323 0.211c-0.123 0.049-0.253 0.073-0.388 0.073-0.141 0-0.274-0.024-0.397-0.073-0.117-0.055-0.221-0.125-0.314-0.211-0.086-0.086-0.157-0.187-0.212-0.303-0.049-0.122-0.074-0.254-0.074-0.395v-9.757c0-0.263 0.086-0.487 0.259-0.67 0.080-0.104 0.182-0.187 0.305-0.248s0.268-0.092 0.434-0.092c0.148 0 0.289 0.034 0.425 0.101 0.142 0.061 0.265 0.153 0.369 0.275l6.392 7.628v-7.022c0-0.135 0.028-0.263 0.083-0.386s0.129-0.226 0.221-0.312c0.093-0.086 0.2-0.153 0.323-0.202 0.123-0.055 0.255-0.083 0.397-0.083 0.136 0 0.262 0.028 0.378 0.083 0.124 0.049 0.228 0.116 0.314 0.202 0.093 0.086 0.163 0.19 0.212 0.312s0.074 0.251 0.074 0.386v9.785c0 0.159-0.034 0.306-0.102 0.441s-0.161 0.245-0.278 0.33c-0.074 0.067-0.16 0.119-0.259 0.156-0.092 0.037-0.2 0.055-0.323 0.055h-0.056c-0.147-0.006-0.277-0.040-0.388-0.101-0.111-0.067-0.216-0.162-0.314-0.285l-6.466-7.701z"></path>
<path fill="#0478be" style="fill: var(--color9, #0478be)" d="M118.379 16.604c-0.265-0.024-0.486-0.125-0.665-0.303-0.173-0.184-0.259-0.413-0.259-0.688v-9.757c0-0.141 0.025-0.272 0.074-0.395 0.056-0.122 0.127-0.226 0.213-0.312 0.093-0.092 0.2-0.162 0.323-0.211 0.123-0.055 0.255-0.083 0.397-0.083h6.466c0.135 0 0.264 0.028 0.387 0.083 0.123 0.049 0.228 0.119 0.314 0.211 0.086 0.086 0.154 0.19 0.203 0.312 0.056 0.122 0.083 0.254 0.083 0.395s-0.027 0.272-0.083 0.395c-0.049 0.116-0.117 0.22-0.203 0.312-0.086 0.086-0.191 0.156-0.314 0.211-0.123 0.049-0.253 0.073-0.387 0.073h-5.469v2.735h4.277c0.135-0.006 0.264 0.018 0.387 0.073s0.228 0.129 0.314 0.22c0.093 0.092 0.163 0.202 0.212 0.33 0.056 0.122 0.083 0.251 0.083 0.386 0 0.141-0.028 0.269-0.083 0.386-0.049 0.116-0.12 0.22-0.212 0.312-0.086 0.086-0.191 0.153-0.314 0.202s-0.253 0.073-0.387 0.073h-4.277v3.047h5.469c0.135 0 0.264 0.028 0.387 0.083s0.228 0.129 0.314 0.22c0.086 0.092 0.154 0.199 0.203 0.321 0.056 0.122 0.083 0.251 0.083 0.385 0 0.141-0.027 0.272-0.083 0.395-0.049 0.116-0.117 0.22-0.203 0.312-0.086 0.086-0.191 0.156-0.314 0.211-0.123 0.049-0.253 0.070-0.387 0.064h-6.55z"></path>
<path fill="#0478be" style="fill: var(--color9, #0478be)" d="M66.109 21.537c0.197 0.196 0.296 0.428 0.296 0.698 0 0.263-0.099 0.493-0.296 0.688-0.092 0.098-0.203 0.171-0.333 0.22-0.123 0.049-0.249 0.073-0.379 0.073s-0.255-0.021-0.379-0.064c-0.123-0.049-0.231-0.119-0.323-0.211-0.4-0.398-0.847-0.691-1.339-0.881-0.487-0.196-0.992-0.294-1.515-0.294-0.542 0-1.056 0.104-1.543 0.312-0.48 0.202-0.902 0.483-1.266 0.844-0.357 0.355-0.644 0.774-0.859 1.258-0.209 0.483-0.314 1.004-0.314 1.561 0 0.532 0.099 1.040 0.296 1.524 0.203 0.477 0.48 0.9 0.831 1.267 0.357 0.361 0.776 0.652 1.256 0.872 0.48 0.214 1.004 0.324 1.57 0.331 0.53 0.006 1.032-0.083 1.506-0.266 0.48-0.19 0.933-0.49 1.358-0.9 0.092-0.092 0.2-0.159 0.323-0.202 0.123-0.049 0.249-0.073 0.379-0.073s0.256 0.021 0.379 0.064c0.123 0.043 0.231 0.11 0.323 0.202 0.099 0.098 0.172 0.208 0.222 0.33s0.074 0.248 0.074 0.376-0.025 0.254-0.074 0.376c-0.049 0.122-0.12 0.23-0.212 0.321-0.597 0.594-1.265 1.037-2.004 1.331-0.733 0.288-1.493 0.431-2.282 0.431-0.542 0-1.068-0.070-1.58-0.211-0.505-0.147-0.979-0.349-1.423-0.606-0.437-0.257-0.837-0.566-1.201-0.927-0.363-0.367-0.674-0.771-0.933-1.212-0.259-0.447-0.459-0.921-0.6-1.423-0.142-0.508-0.213-1.037-0.213-1.588 0-0.52 0.068-1.031 0.203-1.533s0.326-0.973 0.573-1.414c0.252-0.441 0.557-0.848 0.914-1.221s0.758-0.695 1.201-0.964c0.443-0.269 0.927-0.477 1.45-0.624 0.523-0.153 1.075-0.229 1.654-0.229 0.776 0 1.53 0.147 2.263 0.441s1.398 0.734 1.995 1.322z"></path>
<path fill="#0478be" style="fill: var(--color9, #0478be)" d="M73.59 19.774c0.554 0 1.087 0.073 1.598 0.22 0.518 0.141 0.998 0.34 1.441 0.597s0.85 0.569 1.219 0.936c0.369 0.361 0.684 0.765 0.943 1.212 0.258 0.441 0.458 0.915 0.6 1.423 0.147 0.508 0.221 1.037 0.221 1.588 0 0.826-0.16 1.6-0.48 2.322-0.314 0.722-0.745 1.355-1.293 1.9-0.542 0.538-1.179 0.964-1.912 1.276-0.726 0.312-1.505 0.468-2.337 0.468s-1.614-0.156-2.346-0.468c-0.727-0.312-1.361-0.737-1.903-1.276-0.536-0.545-0.961-1.178-1.275-1.9-0.308-0.722-0.462-1.496-0.462-2.322 0-0.551 0.071-1.080 0.212-1.588s0.342-0.982 0.6-1.423c0.259-0.447 0.57-0.851 0.933-1.212 0.363-0.367 0.767-0.679 1.21-0.936s0.921-0.456 1.432-0.597c0.511-0.147 1.043-0.22 1.598-0.22zM73.599 21.766c-0.554 0-1.075 0.104-1.561 0.312s-0.911 0.493-1.274 0.854c-0.358 0.361-0.641 0.783-0.85 1.267-0.203 0.483-0.305 1.001-0.305 1.551 0 0.557 0.102 1.077 0.305 1.56 0.209 0.483 0.493 0.906 0.85 1.267 0.363 0.355 0.788 0.636 1.274 0.844 0.486 0.202 1.007 0.303 1.561 0.303s1.075-0.101 1.561-0.303c0.493-0.208 0.918-0.49 1.275-0.844 0.363-0.361 0.65-0.783 0.859-1.267s0.314-1.004 0.314-1.56c0-0.551-0.105-1.068-0.314-1.551s-0.496-0.906-0.859-1.267c-0.358-0.361-0.783-0.646-1.275-0.854-0.486-0.208-1.007-0.312-1.561-0.312z"></path>
<path fill="#0478be" style="fill: var(--color9, #0478be)" d="M86.389 27.062l-0.083-0.101-2.957-3.47v7.132c0 0.141-0.027 0.272-0.083 0.395-0.049 0.116-0.12 0.217-0.212 0.303s-0.2 0.156-0.323 0.211c-0.123 0.049-0.253 0.073-0.388 0.073-0.141 0-0.274-0.024-0.397-0.073-0.117-0.055-0.222-0.125-0.314-0.211-0.086-0.086-0.157-0.187-0.213-0.303-0.049-0.122-0.074-0.254-0.074-0.395v-9.785c0-0.245 0.077-0.456 0.231-0.633 0.16-0.184 0.357-0.294 0.591-0.33 0.16-0.031 0.317-0.021 0.471 0.028 0.154 0.043 0.296 0.122 0.425 0.239l3.999 4.718 3.982-4.718c0.080-0.073 0.166-0.132 0.258-0.174s0.188-0.073 0.287-0.092c0.062-0.012 0.108-0.018 0.138-0.018h0.074c0.136 0.006 0.262 0.037 0.379 0.092s0.218 0.125 0.305 0.211c0.086 0.086 0.154 0.187 0.203 0.303 0.056 0.116 0.083 0.242 0.083 0.376v9.785c0 0.141-0.028 0.272-0.083 0.395-0.049 0.116-0.12 0.217-0.212 0.303s-0.2 0.156-0.323 0.211c-0.123 0.049-0.253 0.073-0.388 0.073s-0.264-0.024-0.387-0.073c-0.118-0.055-0.222-0.125-0.314-0.211s-0.166-0.187-0.222-0.303c-0.049-0.122-0.074-0.254-0.074-0.395v-7.141l-3.048 3.598c-0.117 0.116-0.243 0.199-0.378 0.248-0.339 0.122-0.647 0.043-0.924-0.239h-0.009v-0.009l-0.019-0.018z"></path>
<path fill="#0478be" style="fill: var(--color9, #0478be)" d="M100.047 27.062l-0.083-0.101-2.956-3.47v7.132c0 0.141-0.028 0.272-0.083 0.395-0.049 0.116-0.12 0.217-0.213 0.303s-0.2 0.156-0.323 0.211c-0.123 0.049-0.253 0.073-0.387 0.073-0.142 0-0.274-0.024-0.397-0.073-0.117-0.055-0.222-0.125-0.314-0.211-0.086-0.086-0.157-0.187-0.212-0.303-0.049-0.122-0.074-0.254-0.074-0.395v-9.785c0-0.245 0.077-0.456 0.231-0.633 0.16-0.184 0.357-0.294 0.591-0.33 0.161-0.031 0.317-0.021 0.472 0.028 0.154 0.043 0.296 0.122 0.424 0.239l4 4.718 3.981-4.718c0.080-0.073 0.166-0.132 0.259-0.174s0.188-0.073 0.287-0.092c0.061-0.012 0.108-0.018 0.138-0.018h0.074c0.136 0.006 0.262 0.037 0.378 0.092s0.219 0.125 0.305 0.211c0.086 0.086 0.154 0.187 0.203 0.303 0.055 0.116 0.083 0.242 0.083 0.376v9.785c0 0.141-0.028 0.272-0.083 0.395-0.049 0.116-0.12 0.217-0.213 0.303s-0.2 0.156-0.323 0.211c-0.123 0.049-0.253 0.073-0.388 0.073s-0.265-0.024-0.388-0.073c-0.117-0.055-0.221-0.125-0.314-0.211s-0.166-0.187-0.222-0.303c-0.049-0.122-0.074-0.254-0.074-0.395v-7.141l-3.048 3.598c-0.117 0.116-0.243 0.199-0.379 0.248-0.338 0.122-0.646 0.043-0.923-0.239h-0.010v-0.009l-0.018-0.018z"></path>
<path fill="#0478be" style="fill: var(--color9, #0478be)" d="M110.406 26.493c0 0.453 0.093 0.875 0.277 1.267s0.434 0.734 0.749 1.028c0.314 0.288 0.678 0.517 1.090 0.688 0.413 0.165 0.843 0.248 1.293 0.248s0.871-0.083 1.265-0.248c0.394-0.171 0.736-0.401 1.025-0.688 0.289-0.294 0.517-0.636 0.683-1.028 0.173-0.392 0.259-0.814 0.259-1.267v-5.654c0-0.141 0.025-0.269 0.074-0.386 0.056-0.122 0.129-0.226 0.222-0.312 0.093-0.092 0.197-0.162 0.314-0.211 0.123-0.049 0.255-0.073 0.397-0.073 0.135 0 0.264 0.024 0.387 0.073s0.228 0.119 0.314 0.211c0.093 0.086 0.163 0.19 0.212 0.312 0.056 0.116 0.083 0.245 0.083 0.386v5.654c0 0.716-0.139 1.392-0.416 2.029-0.271 0.636-0.643 1.19-1.118 1.661s-1.031 0.844-1.672 1.12c-0.634 0.275-1.315 0.413-2.042 0.413s-1.416-0.138-2.069-0.413c-0.653-0.275-1.229-0.649-1.727-1.12-0.493-0.471-0.883-1.025-1.173-1.661s-0.435-1.313-0.435-2.029v-5.636c0-0.135 0.025-0.263 0.074-0.386 0.055-0.122 0.126-0.226 0.212-0.312 0.093-0.092 0.197-0.162 0.314-0.211 0.123-0.055 0.255-0.083 0.397-0.083 0.135 0 0.264 0.028 0.387 0.083 0.123 0.049 0.231 0.119 0.323 0.211 0.093 0.086 0.163 0.19 0.212 0.312 0.056 0.122 0.083 0.251 0.083 0.386v5.636z"></path>
<path fill="#0478be" style="fill: var(--color9, #0478be)" d="M123.041 23.519v7.105c0 0.141-0.028 0.272-0.083 0.395-0.049 0.116-0.12 0.217-0.212 0.303s-0.2 0.156-0.323 0.211c-0.123 0.049-0.253 0.073-0.387 0.073-0.142 0-0.274-0.024-0.397-0.073-0.118-0.055-0.222-0.125-0.314-0.211-0.086-0.086-0.157-0.187-0.212-0.303-0.049-0.122-0.074-0.254-0.074-0.395v-9.757c0-0.263 0.086-0.487 0.258-0.67 0.080-0.104 0.182-0.187 0.305-0.248s0.269-0.092 0.435-0.092c0.147 0 0.289 0.034 0.424 0.101 0.142 0.061 0.265 0.153 0.37 0.275l6.392 7.628v-7.022c0-0.135 0.028-0.263 0.083-0.386s0.129-0.226 0.222-0.312c0.092-0.086 0.2-0.153 0.323-0.202 0.123-0.055 0.256-0.083 0.397-0.083 0.136 0 0.262 0.028 0.379 0.083 0.123 0.049 0.227 0.116 0.314 0.202 0.093 0.086 0.163 0.19 0.213 0.312s0.074 0.251 0.074 0.386v9.785c0 0.159-0.034 0.306-0.102 0.441s-0.16 0.245-0.278 0.33c-0.074 0.067-0.16 0.119-0.258 0.156-0.093 0.037-0.2 0.055-0.323 0.055h-0.056c-0.147-0.006-0.277-0.040-0.388-0.101-0.111-0.067-0.215-0.162-0.314-0.285l-6.466-7.701z"></path>
<path fill="#0478be" style="fill: var(--color9, #0478be)" d="M135.508 30.624c0 0.141-0.028 0.272-0.083 0.395-0.049 0.116-0.12 0.217-0.212 0.303s-0.2 0.156-0.323 0.211c-0.123 0.049-0.253 0.073-0.387 0.073-0.142 0-0.274-0.024-0.397-0.073-0.118-0.055-0.222-0.125-0.314-0.211-0.086-0.086-0.157-0.187-0.212-0.303-0.049-0.122-0.074-0.254-0.074-0.395v-9.785c0-0.141 0.025-0.269 0.074-0.386 0.055-0.122 0.126-0.226 0.212-0.312 0.093-0.092 0.197-0.162 0.314-0.211 0.123-0.049 0.255-0.073 0.397-0.073 0.135 0 0.264 0.024 0.387 0.073s0.231 0.119 0.323 0.211c0.093 0.086 0.163 0.19 0.212 0.312 0.056 0.116 0.083 0.245 0.083 0.386v9.785z"></path>
<path fill="#0478be" style="fill: var(--color9, #0478be)" d="M142.566 21.849v8.775c0 0.141-0.028 0.272-0.083 0.395-0.049 0.116-0.12 0.217-0.213 0.303s-0.2 0.156-0.323 0.211c-0.123 0.049-0.255 0.073-0.397 0.073-0.136 0-0.265-0.024-0.388-0.073-0.117-0.055-0.222-0.125-0.314-0.211-0.086-0.086-0.157-0.187-0.212-0.303-0.049-0.122-0.074-0.254-0.074-0.395v-8.775h-2.762c-0.141 0-0.274-0.024-0.397-0.073-0.117-0.055-0.221-0.128-0.314-0.22-0.086-0.092-0.157-0.196-0.212-0.312-0.049-0.122-0.074-0.254-0.074-0.395 0-0.135 0.025-0.263 0.074-0.386 0.055-0.122 0.126-0.226 0.212-0.312 0.093-0.092 0.197-0.162 0.314-0.211 0.123-0.055 0.256-0.083 0.397-0.083h7.528c0.136 0 0.265 0.028 0.388 0.083 0.123 0.049 0.228 0.119 0.314 0.211 0.092 0.092 0.163 0.199 0.212 0.321 0.056 0.122 0.083 0.251 0.083 0.386 0 0.141-0.028 0.272-0.083 0.395-0.049 0.116-0.12 0.22-0.212 0.312-0.086 0.086-0.191 0.156-0.314 0.211-0.123 0.049-0.253 0.073-0.388 0.073h-2.762z"></path>
<path fill="#0478be" style="fill: var(--color9, #0478be)" d="M151.85 25.089l3.612-4.892c0.093-0.104 0.197-0.184 0.314-0.239s0.237-0.086 0.36-0.092c0.129-0.012 0.255 0.003 0.378 0.046 0.124 0.037 0.237 0.098 0.342 0.184 0.203 0.171 0.32 0.389 0.351 0.652 0.038 0.257-0.040 0.514-0.231 0.771l-4.12 5.306v3.8c0 0.141-0.028 0.272-0.083 0.395-0.049 0.116-0.12 0.217-0.213 0.303-0.086 0.086-0.191 0.156-0.314 0.211-0.123 0.049-0.253 0.073-0.388 0.073-0.142 0-0.274-0.024-0.397-0.073-0.117-0.055-0.222-0.125-0.314-0.211s-0.166-0.187-0.222-0.303c-0.049-0.122-0.074-0.254-0.074-0.395v-3.791l-4.147-5.296c-0.093-0.104-0.157-0.217-0.194-0.34-0.043-0.129-0.058-0.257-0.047-0.386 0.006-0.128 0.040-0.254 0.102-0.376 0.056-0.122 0.139-0.23 0.25-0.321 0.099-0.092 0.212-0.159 0.342-0.202s0.259-0.058 0.388-0.046c0.129 0.006 0.253 0.040 0.369 0.101 0.117 0.055 0.218 0.138 0.305 0.248l3.631 4.874z"></path>
<path fill="#fff" style="fill: var(--color6, #fff)" d="M45.409 9.682c-1.403-0.872-2.726-1.215-4.049-2.087-0.82-0.555-1.958-1.875-2.911-3.011-0.185 1.822-0.741 2.562-1.376 3.090-1.35 1.056-2.197 1.373-3.361 2.007-0.979 0.502-6.299 3.671-6.299 10.485s5.743 11.832 12.122 11.832 11.91-4.622 11.91-11.621c0-6.999-5.187-10.168-6.034-10.697z"></path>
<path fill="#0678be" style="fill: var(--color8, #0678be)" d="M32.38 27.084c2.011-0.026 2.382-0.37 4.155-1.162 9.581-4.279 11.354-8.188 11.698-9.086s0.847-2.351 0.318-3.962c-0.102-0.311-0.177-0.561-0.23-0.762-1.273-1.421-2.537-2.196-2.919-2.434-1.376-0.872-2.726-1.215-4.049-2.087-0.82-0.528-1.958-1.875-2.911-3.011-0.185 1.822-0.715 2.588-1.376 3.090-1.35 1.056-2.197 1.373-3.361 2.007-0.979 0.528-6.299 3.671-6.299 10.485 0 2.176 0.586 4.168 1.59 5.873l0.262-0.009c0.556 0.502 1.429 1.083 3.123 1.056z"></path>
<path fill="#0678be" style="fill: var(--color8, #0678be)" d="M45.401 9.678c-1.376-0.872-2.726-1.215-4.049-2.087-0.82-0.528-1.958-1.875-2.911-3.011-0.185 1.822-0.715 2.588-1.376 3.090-1.35 1.056-2.197 1.373-3.361 2.007-0.979 0.528-6.299 3.671-6.299 10.485 0 2.176 0.586 4.168 1.59 5.873 2.142 3.634 6.19 5.96 10.531 5.96 6.378-0 11.91-4.622 11.91-11.621 0-3.844-1.564-6.532-3.115-8.263-1.273-1.421-2.537-2.196-2.919-2.434zM48.618 12.77c1.738 2.168 2.619 4.727 2.619 7.605 0 1.67-0.319 3.248-0.947 4.69-0.596 1.367-1.455 2.579-2.553 3.601-2.169 2.020-5.085 3.133-8.211 3.133-1.547 0-3.064-0.295-4.511-0.876-1.421-0.571-2.701-1.389-3.806-2.431-2.326-2.194-3.607-5.151-3.607-8.328 0-2.829 0.92-5.343 2.735-7.472 1.386-1.626 2.881-2.528 3.46-2.84 0.281-0.153 0.544-0.288 0.799-0.418 0.799-0.409 1.553-0.795 2.59-1.607 0.553-0.42 1.143-1.084 1.394-2.772 0.874 1.038 1.889 2.204 2.664 2.703 0.688 0.453 1.394 0.771 2.077 1.078 0.646 0.29 1.313 0.591 1.974 1.009l0.025 0.015c1.931 1.203 2.96 2.487 3.299 2.909z"></path>
<path fill="#fff" style="fill: var(--color6, #fff)" d="M38.574 5.109c0.37 1.083 0.318 1.638 0.318 1.875s-0.132 0.872-0.556 1.189c-0.185 0.132-0.238 0.238-0.238 0.264 0 0.106 0.238 0.185 0.238 0.423 0 0.291-0.132 0.872-1.535 2.271s-3.414 2.641-4.976 3.407c-1.561 0.766-2.303 0.713-2.514 0.343s0.079-1.189 1.059-2.271c0.979-1.083 4.076-2.641 4.076-2.641l3.864-2.694 0.212-1.030z"></path>
<path fill="#fff" style="fill: var(--color6, #fff)" d="M38.574 5.083c-0.238 1.743-0.767 2.271-1.482 2.826-1.191 0.898-2.355 1.453-2.62 1.585-0.688 0.343-3.176 1.717-4.473 3.698-0.397 0.607 0 0.845 0.079 0.898s0.979 0.158 2.911-1.004c1.932-1.162 2.779-1.849 3.864-2.985 0.582-0.607 0.662-0.951 0.662-1.109 0-0.185-0.132-0.264-0.344-0.317-0.106-0.026-0.132-0.079 0-0.158s0.688-0.343 0.82-0.449c0.132-0.106 0.767-0.528 0.794-1.215s-0.026-1.162-0.212-1.77z"></path>
<path fill="#0678be" style="fill: var(--color8, #0678be)" d="M48.552 12.874c0.529 1.611 0.026 3.064-0.318 3.962s-2.117 4.807-11.698 9.086c-1.773 0.792-2.144 1.136-4.155 1.162-1.694 0.026-2.567-0.555-3.123-1.056l-0.262 0.009c2.142 3.634 6.189 5.96 10.531 5.96 6.378 0 11.91-4.622 11.91-11.621 0-3.844-1.564-6.532-3.115-8.263 0.054 0.201 0.128 0.451 0.23 0.762z"></path>
<path fill="#fff" style="fill: var(--color6, #fff)" d="M32.618 24.284c0.026-2.060 1.958-3.988 4.393-4.015 3.097-0.026 5.24 3.064 6.802 3.037 1.323-0.026 3.864-2.615 5.108-2.615 1.323 0 1.694 1.373 1.694 2.192s-0.265 2.298-0.9 3.222c-0.635 0.924-1.032 1.268-1.773 1.215-0.953-0.079-2.858-3.037-4.076-3.090-1.535-0.053-4.87 3.196-7.49 3.196-1.588 0-2.064-0.238-2.594-0.581-0.794-0.555-1.191-1.4-1.165-2.562z"></path>
<path fill="#fff" style="fill: var(--color6, #fff)" d="M38.864 29.091c0.529 0.423 1.323 0.766 3.017 0.766s2.885-0.475 3.414-0.872c0.238-0.185 0.344-0.026 0.371 0.079s0.079 0.264-0.106 0.449c-0.132 0.132-1.35 0.977-2.779 1.109s-3.361 0.211-4.526-0.845c-0.185-0.185-0.132-0.449 0-0.555s0.238-0.185 0.397-0.185c0.159 0 0.132 0 0.212 0.053z"></path>
<path fill="#fff" style="fill: var(--color6, #fff)" d="M43.258 26.080c0.423 0 0.873 0.026 1.191 0.238s0.503 0.687 0.609 0.951c0.106 0.264 0 0.423-0.212 0.528-0.185 0.106-0.212 0.053-0.397-0.291s-0.344-0.687-1.27-0.687-1.217 0.317-1.667 0.687c-0.45 0.37-0.609 0.502-0.768 0.291s-0.106-0.423 0.185-0.687c0.291-0.264 0.767-0.687 1.217-0.872s0.688-0.158 1.112-0.158z"></path>
</symbol>
<symbol id="impactIcon2" viewBox="0 0 64 32">
<path fill="#40aa54" style="fill: var(--color1, #40aa54); stroke: var(--color2, #20552a)" stroke="#20552a" stroke-linejoin="round" stroke-linecap="butt" stroke-miterlimit="4" stroke-width="0.7179" d="M32.001 1.661c-4.917 0-8.901 3.986-8.901 8.902 0 3.816 2.402 7.070 5.776 8.336l2.050-5.47c-0.67-0.253-1.23-0.733-1.583-1.356s-0.476-1.35-0.348-2.055c0.128-0.705 0.499-1.342 1.048-1.801s1.242-0.712 1.958-0.713c0.716 0.001 1.409 0.254 1.959 0.713s0.92 1.097 1.048 1.802c0.128 0.705 0.004 1.432-0.349 2.055s-0.913 1.103-1.584 1.356l2.052 5.47c3.374-1.266 5.776-4.52 5.776-8.336 0-4.916-3.986-8.901-8.902-8.901l0.001-0.002z"></path>
<path fill="#000" style="fill: var(--color3, #000)" d="M8.449 25.236c0 0.685-0.559 1.257-1.258 1.257-0.713 0-1.258-0.573-1.258-1.257v-1.817c0-0.684 0.559-1.258 1.258-1.258s1.258 0.574 1.258 1.258v1.817zM9.706 25.236v-1.817c0-1.411-0.992-2.375-2.515-2.375s-2.515 0.949-2.515 2.373v1.816c0 1.425 0.992 2.375 2.515 2.375s2.515-0.949 2.515-2.373zM14.177 25.095c0 0.685-0.544 1.258-1.257 1.258-0.693 0-1.258-0.573-1.258-1.258v-1.536c0-0.685 0.559-1.259 1.258-1.259 0.713 0 1.258 0.573 1.258 1.259l-0.001 1.536zM15.435 25.095v-1.536c0-1.411-1.006-2.375-2.418-2.375-0.825 0-1.216 0.461-1.397 0.461-0.056 0-0.098-0.056-0.098-0.155v-0.168c0-0.098-0.043-0.14-0.14-0.14h-0.833c-0.098 0-0.14 0.043-0.14 0.14v9.152c0 0.098 0.043 0.14 0.14 0.14h0.978c0.098 0 0.14-0.043 0.14-0.14v-3.312c0-0.098 0.043-0.154 0.107-0.154 0.125 0 0.544 0.461 1.355 0.461 1.3 0 2.306-1.005 2.306-2.375l0.001 0.001zM19.571 23.559h-2.235c-0.126 0-0.14-0.056-0.14-0.21 0-0.614 0.587-1.188 1.259-1.188 0.656 0 1.257 0.559 1.257 1.16-0.001 0.168-0.014 0.238-0.14 0.238h-0.001zM20.968 24.396v-0.978c0-1.271-1.117-2.375-2.515-2.375s-2.515 1.104-2.515 2.375v1.817c0 1.425 0.992 2.375 2.515 2.375 0.741 0 1.328-0.196 1.747-0.587s0.587-0.755 0.587-0.853c0-0.042-0.028-0.069-0.084-0.098l-0.88-0.448c-0.028-0.014-0.056-0.028-0.084-0.028-0.084 0-0.21 0.224-0.517 0.587-0.154 0.181-0.433 0.307-0.768 0.307-0.712 0-1.258-0.573-1.258-1.257v-0.557c0-0.098 0.042-0.14 0.14-0.14h3.493c0.019 0.004 0.039 0.003 0.058-0.002s0.036-0.016 0.050-0.029c0.014-0.014 0.024-0.031 0.030-0.050s0.006-0.039 0.002-0.058l-0.001-0.002zM26.46 27.47h-0.978c-0.019 0.004-0.039 0.004-0.058-0.002s-0.036-0.016-0.050-0.030c-0.014-0.014-0.024-0.031-0.030-0.050s-0.006-0.039-0.002-0.058v-3.772c0-0.685-0.545-1.259-1.258-1.259-0.693 0-1.258 0.573-1.258 1.259v3.772c0.004 0.019 0.004 0.039-0.002 0.058s-0.016 0.036-0.030 0.050c-0.014 0.014-0.031 0.024-0.050 0.030s-0.039 0.006-0.058 0.002h-0.978c-0.098 0-0.14-0.042-0.14-0.14v-6.008c0-0.098 0.043-0.14 0.14-0.14h0.838c0.098 0 0.14 0.043 0.14 0.14v0.167c0 0.098 0.042 0.154 0.098 0.154 0.181 0 0.573-0.461 1.397-0.461 1.411 0 2.417 0.965 2.417 2.375v3.772c0.004 0.019 0.004 0.039-0.002 0.058s-0.015 0.036-0.029 0.050c-0.014 0.014-0.031 0.024-0.050 0.030s-0.039 0.007-0.058 0.002l-0.001-0.001zM30.093 22.817c0 0.573 0.433 0.838 1.397 1.048 1.607 0.349 2.501 0.559 2.501 1.733 0 1.188-0.867 2.012-2.222 2.012h-0.433c-1.3 0-2.152-0.782-2.152-1.216 0-0.042 0.028-0.069 0.098-0.098l0.545-0.265c0.028-0.014 0.055-0.014 0.069-0.014 0.043 0 0.069 0.028 0.107 0.069 0.363 0.405 0.643 0.782 1.327 0.782h0.433c0.782 0 1.28-0.447 1.28-1.020 0-0.517-0.433-0.825-1.37-1.020-1.621-0.336-2.501-0.503-2.501-1.733 0-1.147 0.852-1.941 2.152-1.941h0.433c1.271 0 2.138 0.768 2.138 1.188 0 0.043-0.042 0.069-0.098 0.098l-0.531 0.265c-0.028 0.014-0.042 0.014-0.056 0.014-0.043 0-0.069-0.028-0.107-0.070-0.391-0.419-0.712-0.754-1.341-0.754h-0.433c-0.809-0.002-1.242 0.348-1.242 0.92l0.004 0.002zM38.503 25.318c0 0.811-0.657 1.495-1.495 1.495s-1.481-0.685-1.481-1.495v-1.886c0-0.825 0.629-1.481 1.481-1.481 0.837 0 1.495 0.685 1.495 1.481v1.886zM39.453 25.318v-1.886c0-1.356-0.964-2.277-2.445-2.277s-2.418 0.894-2.418 2.277v1.886c0 1.383 0.936 2.292 2.418 2.292s2.446-0.923 2.446-2.292l-0.001 0.001zM44.903 27.47h-0.517c-0.098 0-0.14-0.042-0.14-0.14v-0.6c0-0.098-0.055-0.154-0.112-0.154-0.125 0-0.265 0.224-0.517 0.475-0.28 0.265-0.693 0.419-1.16 0.419-1.271 0-2.277-0.936-2.277-2.292v-3.749c0-0.098 0.043-0.14 0.14-0.14h0.656c0.019-0.004 0.039-0.003 0.058 0.002s0.036 0.016 0.050 0.030 0.024 0.031 0.030 0.050c0.005 0.019 0.006 0.039 0.002 0.058v3.744c0 0.811 0.657 1.495 1.482 1.495 0.866 0 1.509-0.671 1.509-1.495v-3.744c-0.004-0.019-0.003-0.039 0.002-0.058s0.016-0.036 0.030-0.050 0.031-0.024 0.050-0.030c0.019-0.006 0.039-0.006 0.058-0.002h0.657c0.019-0.004 0.039-0.003 0.058 0.002s0.036 0.016 0.050 0.030 0.024 0.031 0.030 0.050c0.006 0.019 0.006 0.039 0.002 0.058v5.897c0.004 0.019 0.004 0.039-0.002 0.058s-0.015 0.036-0.029 0.050c-0.014 0.014-0.031 0.024-0.050 0.030s-0.039 0.006-0.058 0.002l-0.001 0.004zM49.277 22.286c-0.112 0-0.293-0.042-0.531-0.042-0.852 0-1.481 0.642-1.481 1.467v3.619c0.004 0.019 0.003 0.039-0.002 0.058s-0.016 0.036-0.030 0.050-0.031 0.024-0.050 0.030c-0.019 0.006-0.039 0.006-0.058 0.002h-0.671c-0.019 0.004-0.039 0.003-0.058-0.002s-0.036-0.016-0.050-0.030-0.024-0.031-0.030-0.050c-0.006-0.019-0.006-0.039-0.002-0.058v-5.901c-0.004-0.019-0.003-0.039 0.002-0.058s0.016-0.036 0.029-0.050 0.031-0.024 0.050-0.030c0.019-0.006 0.039-0.006 0.058-0.002h0.517c0.019-0.004 0.039-0.003 0.058 0.002s0.036 0.016 0.050 0.030 0.024 0.031 0.030 0.050c0.006 0.019 0.006 0.039 0.002 0.058v0.693c0 0.098 0.056 0.154 0.107 0.154 0.154 0 0.377-0.349 0.88-0.755 0.187-0.14 0.41-0.222 0.643-0.237h0.517c0.019-0.004 0.039-0.004 0.058 0.002s0.036 0.016 0.050 0.030 0.024 0.031 0.030 0.050c0.006 0.019 0.006 0.039 0.002 0.058v0.713c-0.002 0.114-0.029 0.141-0.126 0.141l0.006 0.009zM53.957 26.379c0 0.447-0.852 1.229-2.165 1.229-1.481 0-2.418-0.908-2.418-2.292v-1.886c0-1.384 0.937-2.277 2.418-2.277 1.3 0 2.18 0.741 2.18 1.202 0 0.042-0.043 0.084-0.098 0.107l-0.587 0.293c-0.028 0.014-0.043 0.014-0.056 0.014-0.042 0-0.069-0.014-0.112-0.055-0.419-0.392-0.693-0.769-1.328-0.769-0.852 0-1.481 0.657-1.481 1.481v1.886c0 0.811 0.643 1.495 1.481 1.495 0.336 0 0.671-0.14 0.923-0.378 0.293-0.279 0.419-0.48 0.502-0.48 0.014 0 0.043 0 0.069 0.014l0.587 0.293c0.066 0.029 0.081 0.056 0.081 0.107l0.004 0.015zM58.371 23.627c0.004 0.019 0.004 0.039-0.002 0.058s-0.016 0.036-0.030 0.050-0.031 0.024-0.050 0.030c-0.019 0.006-0.039 0.006-0.058 0.002h-2.697c-0.098 0-0.14-0.043-0.14-0.14v-0.195c0-0.825 0.629-1.481 1.481-1.481 0.838 0 1.495 0.685 1.495 1.481v0.195zM59.323 24.284v-0.852c0-1.202-1.090-2.277-2.445-2.277-0.713 0-1.3 0.252-1.76 0.741-0.419 0.447-0.656 1.020-0.656 1.537v1.886c0 1.383 0.936 2.292 2.417 2.292 1.314 0 2.165-0.782 2.165-1.229 0-0.056-0.014-0.084-0.084-0.107l-0.587-0.293c-0.028-0.014-0.056-0.014-0.069-0.014-0.084 0-0.21 0.196-0.503 0.48-0.251 0.238-0.587 0.378-0.923 0.378-0.838 0-1.481-0.685-1.481-1.495v-0.755c-0.004-0.019-0.004-0.039 0.002-0.058s0.016-0.036 0.030-0.050 0.031-0.024 0.050-0.030c0.019-0.006 0.039-0.006 0.058-0.002h3.647c0.1-0.004 0.141-0.045 0.141-0.143l-0.002-0.009z"></path>
</symbol>
<symbol  id="impactIcon3" viewBox="0 0 106 32">
<path fill="#333" style="fill: var(--color4, #333)" d="M42.783 16.421h2.346l-2.845-8.331h-2.634l-2.839 8.331h2.135l0.546-1.83h2.763l0.528 1.83zM40.83 9.967h0.112l0.909 3.1h-1.948l0.927-3.1z"></path>
<path fill="#333" style="fill: var(--color4, #333)" d="M46.425 16.421h2.071v-8.833h-2.071v8.833z"></path>
<path fill="#333" style="fill: var(--color4, #333)" d="M50.696 8.524v1.559h-1.003v1.518h1.003v3.060c0 1.258 0.675 1.772 2.393 1.772 0.393 0 0.774-0.035 0.991-0.081v-1.455c-0.153 0.017-0.282 0.029-0.522 0.029-0.54 0-0.792-0.237-0.792-0.722v-2.604h1.314v-1.518h-1.314v-1.559h-2.071z"></path>
<path fill="#333" style="fill: var(--color4, #333)" d="M58.362 11.295c0.692 0 1.126 0.445 1.161 1.195h-2.369c0.053-0.727 0.528-1.195 1.208-1.195zM59.599 14.528c-0.141 0.375-0.557 0.595-1.161 0.595-0.792 0-1.279-0.52-1.297-1.357v-0.104h4.393v-0.566c0-2.049-1.173-3.25-3.185-3.25-2.024 0-3.249 1.287-3.249 3.406 0 2.107 1.196 3.32 3.279 3.32 1.689 0 2.886-0.791 3.115-2.044h-1.895z"></path>
<path fill="#333" style="fill: var(--color4, #333)" d="M62.826 16.421h2.070v-3.4c0-0.895 0.61-1.403 1.525-1.403 0.317 0 0.733 0.052 0.891 0.115v-1.738c-0.153-0.063-0.475-0.098-0.751-0.098-0.815 0-1.449 0.508-1.607 1.155h-0.112v-1.056h-2.018v6.425z"></path>
<path fill="#333" style="fill: var(--color4, #333)" d="M68.433 16.421h2.070v-3.672c0-0.739 0.405-1.235 1.079-1.235 0.705 0 1.027 0.433 1.027 1.212v3.695h2.077v-4.151c0-1.541-0.757-2.425-2.211-2.425-0.944 0-1.625 0.468-1.912 1.195h-0.111v-1.045h-2.018v6.425z"></path>
<path fill="#333" style="fill: var(--color4, #333)" d="M78.781 15.093c-0.522 0-0.869-0.254-0.869-0.664 0-0.387 0.323-0.623 0.939-0.67l1.096-0.069v0.421c0 0.554-0.51 0.981-1.167 0.981zM78.024 16.519c0.827 0 1.542-0.346 1.836-0.895h0.111v0.797h2.018v-4.382c0-1.386-1.027-2.194-2.827-2.194-1.766 0-2.921 0.774-3.016 2.021h1.866c0.135-0.341 0.487-0.52 1.032-0.52 0.575 0 0.903 0.26 0.903 0.693v0.502l-1.425 0.081c-1.684 0.098-2.611 0.779-2.611 1.951 0 1.178 0.856 1.946 2.112 1.946z"></path>
<path fill="#333" style="fill: var(--color4, #333)" d="M84.083 8.524v1.559h-1.003v1.518h1.003v3.060c0 1.258 0.675 1.772 2.393 1.772 0.393 0 0.774-0.035 0.991-0.081v-1.455c-0.152 0.017-0.282 0.029-0.522 0.029-0.54 0-0.792-0.237-0.792-0.722v-2.604h1.313v-1.518h-1.313v-1.559h-2.071z"></path>
<path fill="#333" style="fill: var(--color4, #333)" d="M88.835 16.421h2.077v-6.425h-2.077v6.425zM89.873 9.136c0.604 0 1.103-0.468 1.103-1.062s-0.499-1.068-1.103-1.068c-0.605 0-1.103 0.473-1.103 1.068s0.499 1.062 1.103 1.062z"></path>
<path fill="#333" style="fill: var(--color4, #333)" d="M98.747 9.996h-2.182l-1.109 4.595h-0.111l-1.132-4.595h-2.235l2.2 6.425h2.393l2.176-6.425z"></path>
<path fill="#333" style="fill: var(--color4, #333)" d="M102.461 11.295c0.692 0 1.126 0.445 1.162 1.195h-2.37c0.053-0.727 0.528-1.195 1.208-1.195zM103.699 14.528c-0.141 0.375-0.558 0.595-1.162 0.595-0.792 0-1.279-0.52-1.297-1.357v-0.104h4.394v-0.566c0-2.049-1.173-3.25-3.185-3.25-2.024 0-3.249 1.287-3.249 3.406 0 2.107 1.197 3.32 3.279 3.32 1.689 0 2.886-0.791 3.114-2.044h-1.894z"></path>
<path fill="#333" style="fill: var(--color4, #333)" d="M63.353 24.404c0.944 0 1.64-0.548 1.757-1.371h-0.654c-0.117 0.471-0.542 0.768-1.103 0.768-0.762 0-1.238-0.609-1.238-1.579 0-0.973 0.475-1.582 1.235-1.582 0.557 0 0.982 0.329 1.106 0.84h0.654c-0.106-0.849-0.827-1.443-1.76-1.443-1.176 0-1.906 0.834-1.906 2.185 0 1.348 0.733 2.182 1.909 2.182z"></path>
<path fill="#333" style="fill: var(--color4, #333)" d="M69.159 20.037c-1.214 0-1.977 0.837-1.977 2.182 0 1.342 0.745 2.185 1.977 2.185 1.223 0 1.974-0.846 1.974-2.185 0-1.342-0.756-2.182-1.974-2.182zM69.159 20.64c0.801 0 1.302 0.612 1.302 1.579 0 0.961-0.499 1.582-1.302 1.582-0.815 0-1.305-0.621-1.305-1.582 0-0.967 0.504-1.579 1.305-1.579z"></path>
<path fill="#333" style="fill: var(--color4, #333)" d="M77.689 24.303v-4.165h-0.769l-1.349 3.187h-0.050l-1.346-3.187h-0.769v4.165h0.61v-3.008h0.041l1.241 2.91h0.498l1.241-2.91h0.041v3.008h0.61z"></path>
<path fill="#333" style="fill: var(--color4, #333)" d="M84.415 24.303v-4.165h-0.769l-1.349 3.187h-0.050l-1.346-3.187h-0.769v4.165h0.61v-3.008h0.041l1.241 2.91h0.498l1.241-2.91h0.041v3.008h0.61z"></path>
<path fill="#333" style="fill: var(--color4, #333)" d="M89.545 23.715h-2.030v-1.25h1.921v-0.56h-1.921v-1.178h2.030v-0.589h-2.687v4.165h2.687v-0.589z"></path>
<path fill="#333" style="fill: var(--color4, #333)" d="M92.533 20.707h0.927c0.507 0 0.818 0.274 0.818 0.727 0 0.465-0.293 0.73-0.801 0.73h-0.944v-1.458zM92.533 22.716h0.927l0.862 1.588h0.76l-0.95-1.694c0.516-0.173 0.822-0.629 0.822-1.189 0-0.782-0.549-1.282-1.402-1.282h-1.675v4.165h0.657v-1.588z"></path>
<path fill="#333" style="fill: var(--color4, #333)" d="M99.006 24.404c0.944 0 1.639-0.548 1.757-1.371h-0.654c-0.118 0.471-0.543 0.768-1.103 0.768-0.762 0-1.238-0.609-1.238-1.579 0-0.973 0.476-1.582 1.235-1.582 0.557 0 0.982 0.329 1.105 0.84h0.654c-0.106-0.849-0.827-1.443-1.759-1.443-1.176 0-1.907 0.834-1.907 2.185 0 1.348 0.733 2.182 1.91 2.182z"></path>
<path fill="#333" style="fill: var(--color4, #333)" d="M105.695 23.715h-2.029v-1.25h1.921v-0.56h-1.921v-1.178h2.029v-0.589h-2.686v4.165h2.686v-0.589z"></path>
<path fill="#333" style="fill: var(--color4, #333)" d="M8.555 14.044l-8.555 7.642 3.468 1.109 5.087-8.751z"></path>
<path fill="#333" style="fill: var(--color4, #333)" d="M19.996 28.080l9.963 3.186-0.675-3.186h-9.288z"></path>
<path fill="#333" style="fill: var(--color4, #333)" d="M25.806 11.666l-2.321-10.959-2.665 2.381 4.986 8.578z"></path>
<path fill="#019ad2" style="fill: var(--color5, #019ad2)" d="M17.872 0l15.75 27.095h-31.5l15.75-27.095zM17.872 9.921l-7.12 12.248h14.239l-7.12-12.248z"></path>
</symbol>
</svg>