<svg width="455" height="437" fill="none" xmlns="http://www.w3.org/2000/svg"><circle cx="230" cy="219" r="188" fill="url('#paint0_radial_1058_33')"/><path d="M229.966 337.641c65.386 0 118.393-53.006 118.393-118.393s-53.007-118.393-118.393-118.393c-65.387 0-118.394 53.006-118.394 118.393s53.007 118.393 118.394 118.393Z" fill="url('#paint1_linear_1058_33')"/><path d="M229 2.635c119.19 0 216 96.976 216 216 0 119.023-96.976 216-216 216" stroke="url('#paint2_linear_1058_33')" stroke-width="3.316" stroke-miterlimit="10"/><path d="M229 2.635c-119.19 0-216 96.976-216 216 0 119.023 96.976 216 216 216" stroke="url('#paint3_linear_1058_33')" stroke-width="3.316" stroke-miterlimit="10"/><g opacity=".3"><path d="M352.054 395.778c-3.384-4.319-2.461-10.644 1.846-14.037 4.308-3.394 10.615-2.623 13.999 1.851 3.385 4.319 2.616 10.644-1.846 14.037-1.846 1.389-3.999 2.006-6.153 2.006-2.923 0-6-1.389-7.846-3.857Z" fill="url('#paint4_linear_1058_33')"/><path d="M352.054 395.778c-3.384-4.319-2.461-10.644 1.846-14.037 4.308-3.394 10.615-2.623 13.999 1.851 3.385 4.319 2.616 10.644-1.846 14.037-1.846 1.389-3.999 2.006-6.153 2.006-2.923 0-6-1.389-7.846-3.857Z" fill="url('#paint5_linear_1058_33')"/></g><g opacity=".3"><path d="M418.512 322.556c-4.92-2.464-6.919-8.471-4.459-13.4s8.458-6.931 13.378-4.467c4.921 2.465 6.92 8.472 4.614 13.401-1.692 3.542-5.229 5.545-8.919 5.545-1.692 0-3.23-.463-4.614-1.079Z" fill="url('#paint6_linear_1058_33')"/><path d="M418.512 322.556c-4.92-2.464-6.919-8.471-4.459-13.4s8.458-6.931 13.378-4.467c4.921 2.465 6.92 8.472 4.614 13.401-1.692 3.542-5.229 5.545-8.919 5.545-1.692 0-3.23-.463-4.614-1.079Z" fill="url('#paint7_linear_1058_33')"/></g><g opacity=".3"><path d="M435 217.635a9.98 9.98 0 0 1 10-10 9.98 9.98 0 0 1 10 10 9.98 9.98 0 0 1-10 10 9.98 9.98 0 0 1-10-10Z" fill="url('#paint8_linear_1058_33')"/><path d="M435 217.635a9.98 9.98 0 0 1 10-10 9.98 9.98 0 0 1 10 10 9.98 9.98 0 0 1-10 10 9.98 9.98 0 0 1-10-10Z" fill="url('#paint9_linear_1058_33')"/></g><g opacity=".3"><path d="M413.056 127.09c-2.467-4.929-.463-10.936 4.472-13.401 4.935-2.464 10.949-.462 13.416 4.467 2.467 4.929.463 10.936-4.472 13.4-1.388.77-2.93 1.079-4.472 1.079-3.701 0-7.248-2.003-8.944-5.545Z" fill="url('#paint10_linear_1058_33')"/><path d="M413.056 127.09c-2.467-4.929-.463-10.936 4.472-13.401 4.935-2.464 10.949-.462 13.416 4.467 2.467 4.929.463 10.936-4.472 13.4-1.388.77-2.93 1.079-4.472 1.079-3.701 0-7.248-2.003-8.944-5.545Z" fill="url('#paint11_linear_1058_33')"/></g><g opacity=".3"><path d="M353.909 54.624c-4.317-3.401-5.242-9.74-1.85-14.07 3.392-4.329 9.714-5.256 14.032-1.855 4.317 3.402 5.242 9.74 1.85 14.07-2.005 2.629-4.934 3.866-8.018 3.866-2.159 0-4.318-.619-6.014-2.01Z" fill="url('#paint12_linear_1058_33')"/><path d="M353.909 54.624c-4.317-3.401-5.242-9.74-1.85-14.07 3.392-4.329 9.714-5.256 14.032-1.855 4.317 3.402 5.242 9.74 1.85 14.07-2.005 2.629-4.934 3.866-8.018 3.866-2.159 0-4.318-.619-6.014-2.01Z" fill="url('#paint13_linear_1058_33')"/></g><g opacity=".3"><path d="M104.946 395.778c3.384-4.319 2.461-10.644-1.846-14.037-4.308-3.394-10.615-2.623-14 1.851-3.384 4.319-2.615 10.644 1.847 14.037 1.846 1.389 4 2.006 6.153 2.006 2.923 0 5.846-1.389 7.846-3.857Z" fill="url('#paint14_linear_1058_33')"/><path d="M104.946 395.778c3.384-4.319 2.461-10.644-1.846-14.037-4.308-3.394-10.615-2.623-14 1.851-3.384 4.319-2.615 10.644 1.847 14.037 1.846 1.389 4 2.006 6.153 2.006 2.923 0 5.846-1.389 7.846-3.857Z" fill="url('#paint15_linear_1058_33')"/></g><g opacity=".3"><path d="M38.488 322.556c4.92-2.464 6.92-8.471 4.46-13.4-2.461-4.929-8.459-6.931-13.38-4.467-4.92 2.465-6.92 8.472-4.613 13.401 1.692 3.542 5.229 5.545 8.92 5.545 1.69 0 3.229-.463 4.613-1.079Z" fill="url('#paint16_linear_1058_33')"/><path d="M38.488 322.556c4.92-2.464 6.92-8.471 4.46-13.4-2.461-4.929-8.459-6.931-13.38-4.467-4.92 2.465-6.92 8.472-4.613 13.401 1.692 3.542 5.229 5.545 8.92 5.545 1.69 0 3.229-.463 4.613-1.079Z" fill="url('#paint17_linear_1058_33')"/></g><g opacity=".3"><path d="M20 217.635a9.98 9.98 0 0 0-10-10 9.98 9.98 0 0 0-10 10 9.98 9.98 0 0 0 10 10 9.98 9.98 0 0 0 10-10Z" fill="url('#paint18_linear_1058_33')"/><path d="M20 217.635a9.98 9.98 0 0 0-10-10 9.98 9.98 0 0 0-10 10 9.98 9.98 0 0 0 10 10 9.98 9.98 0 0 0 10-10Z" fill="url('#paint19_linear_1058_33')"/></g><g opacity=".3"><path d="M42.944 127.09c2.467-4.929.463-10.936-4.472-13.401-4.935-2.464-10.949-.462-13.416 4.467-2.467 4.929-.463 10.936 4.472 13.4 1.388.77 2.93 1.079 4.472 1.079 3.701 0 7.248-2.003 8.944-5.545Z" fill="url('#paint20_linear_1058_33')"/><path d="M42.944 127.09c2.467-4.929.463-10.936-4.472-13.401-4.935-2.464-10.949-.462-13.416 4.467-2.467 4.929-.463 10.936 4.472 13.4 1.388.77 2.93 1.079 4.472 1.079 3.701 0 7.248-2.003 8.944-5.545Z" fill="url('#paint21_linear_1058_33')"/></g><g opacity=".3"><path d="M103.091 54.624c4.317-3.401 5.242-9.74 1.85-14.07-3.392-4.329-9.714-5.256-14.032-1.855-4.317 3.402-5.242 9.74-1.85 14.07 2.005 2.629 4.934 3.866 8.018 3.866 2.159 0 4.318-.619 6.014-2.01Z" fill="url('#paint22_linear_1058_33')"/><path d="M103.091 54.624c4.317-3.401 5.242-9.74 1.85-14.07-3.392-4.329-9.714-5.256-14.032-1.855-4.317 3.402-5.242 9.74-1.85 14.07 2.005 2.629 4.934 3.866 8.018 3.866 2.159 0 4.318-.619 6.014-2.01Z" fill="url('#paint23_linear_1058_33')"/></g><path d="M414 218.469c0 102.023-82.902 185.166-185 185.166v-66.746c65.197 0 118.149-52.999 118.149-118.254S294.197 100.381 229 100.381V33.636c102.098-.332 185 82.81 185 184.833Z" fill="#FFCD01"/><path d="M45 218.469c0 102.023 82.902 185.166 185 185.166v-66.746c-65.197 0-118.149-52.999-118.149-118.254S164.803 100.381 230 100.381V33.636c-102.098-.332-185 82.81-185 184.833Z" fill="#FFCD01"/><path d="M235.752 151c-33.258 11.191-61.313 34.005-72.752 68 11.308 33.607 39.1 56.676 72.752 68 29.925-23.019 46.243-41.506 58.248-68-17.231-11.542-24.469-17.484-38.439-35.345-18.718 8.673-35.01 18.78-49.443 34.976 5.18 7.361 13.779 14.231 20.731 19.876 10.132-7.429 17.859-14.667 22.865-20.878 3.138 3.826 6.677 6.372 10.047 8.5-8.706 14.777-18.476 22.89-30.541 30.639-18.122-9.571-32.689-26.139-39.769-40.148 13.27-21.828 34.084-36.567 57.734-44.781-3.832-6.696-8.854-12.931-11.433-20.839Z" fill="#FFE30B"/><defs><linearGradient id="paint1_linear_1058_33" x1="146.132" y1="135.496" x2="313.635" y2="303" gradientUnits="userSpaceOnUse"><stop stop-color="#F5F5F5"/><stop offset="1" stop-color="#fff"/></linearGradient><linearGradient id="paint2_linear_1058_33" x1="229.076" y1="218.634" x2="446.781" y2="218.634" gradientUnits="userSpaceOnUse"><stop stop-color="#fff"/><stop offset="1" stop-color="#F5F5F5"/></linearGradient><linearGradient id="paint3_linear_1058_33" x1="229.075" y1="218.634" x2="11.37" y2="218.634" gradientUnits="userSpaceOnUse"><stop stop-color="#fff"/><stop offset="1" stop-color="#F5F5F5"/></linearGradient><linearGradient id="paint4_linear_1058_33" x1="352.855" y1="382.528" x2="367.963" y2="397.595" gradientUnits="userSpaceOnUse"><stop stop-color="#E991FC"/><stop offset="1" stop-color="#7533D8"/></linearGradient><linearGradient id="paint5_linear_1058_33" x1="347.897" y1="378.957" x2="371.496" y2="401.776" gradientUnits="userSpaceOnUse"><stop stop-color="#FFDF00"/><stop offset="1" stop-color="#FFB800"/></linearGradient><linearGradient id="paint6_linear_1058_33" x1="415.842" y1="306.47" x2="430.932" y2="321.535" gradientUnits="userSpaceOnUse"><stop stop-color="#E991FC"/><stop offset="1" stop-color="#7533D8"/></linearGradient><linearGradient id="paint7_linear_1058_33" x1="410.897" y1="302.957" x2="434.496" y2="325.776" gradientUnits="userSpaceOnUse"><stop stop-color="#FFDF00"/><stop offset="1" stop-color="#FFB800"/></linearGradient><linearGradient id="paint8_linear_1058_33" x1="437.889" y1="210.602" x2="452.955" y2="225.668" gradientUnits="userSpaceOnUse"><stop stop-color="#E991FC"/><stop offset="1" stop-color="#7533D8"/></linearGradient><linearGradient id="paint9_linear_1058_33" x1="432.897" y1="206.957" x2="456.496" y2="229.776" gradientUnits="userSpaceOnUse"><stop stop-color="#FFDF00"/><stop offset="1" stop-color="#FFB800"/></linearGradient><linearGradient id="paint10_linear_1058_33" x1="414.91" y1="115.566" x2="429.995" y2="130.669" gradientUnits="userSpaceOnUse"><stop stop-color="#E991FC"/><stop offset="1" stop-color="#7533D8"/></linearGradient><linearGradient id="paint11_linear_1058_33" x1="409.897" y1="111.957" x2="433.496" y2="134.776" gradientUnits="userSpaceOnUse"><stop stop-color="#FFDF00"/><stop offset="1" stop-color="#FFB800"/></linearGradient><linearGradient id="paint12_linear_1058_33" x1="352.849" y1="39.486" x2="367.999" y2="54.594" gradientUnits="userSpaceOnUse"><stop stop-color="#E991FC"/><stop offset="1" stop-color="#7533D8"/></linearGradient><linearGradient id="paint13_linear_1058_33" x1="347.897" y1="35.957" x2="371.496" y2="58.776" gradientUnits="userSpaceOnUse"><stop stop-color="#FFDF00"/><stop offset="1" stop-color="#FFB800"/></linearGradient><linearGradient id="paint14_linear_1058_33" x1="89.987" y1="382.527" x2="105.1" y2="397.599" gradientUnits="userSpaceOnUse"><stop stop-color="#FFDB65"/><stop offset="1" stop-color="#FF8C33"/></linearGradient><linearGradient id="paint15_linear_1058_33" x1="84.897" y1="378.957" x2="108.496" y2="401.776" gradientUnits="userSpaceOnUse"><stop stop-color="#FFDF00"/><stop offset="1" stop-color="#FFB800"/></linearGradient><linearGradient id="paint16_linear_1058_33" x1="27.003" y1="306.47" x2="42.094" y2="321.536" gradientUnits="userSpaceOnUse"><stop stop-color="#FFDB65"/><stop offset="1" stop-color="#FF8C33"/></linearGradient><linearGradient id="paint17_linear_1058_33" x1="21.897" y1="302.957" x2="45.496" y2="325.776" gradientUnits="userSpaceOnUse"><stop stop-color="#FFDF00"/><stop offset="1" stop-color="#FFB800"/></linearGradient><linearGradient id="paint18_linear_1058_33" x1="2.955" y1="210.602" x2="18.023" y2="225.67" gradientUnits="userSpaceOnUse"><stop stop-color="#FFDB65"/><stop offset="1" stop-color="#FF8C33"/></linearGradient><linearGradient id="paint19_linear_1058_33" x1="-2.103" y1="206.957" x2="21.496" y2="229.776" gradientUnits="userSpaceOnUse"><stop stop-color="#FFDF00"/><stop offset="1" stop-color="#FFB800"/></linearGradient><linearGradient id="paint20_linear_1058_33" x1="26.899" y1="115.565" x2="41.988" y2="130.671" gradientUnits="userSpaceOnUse"><stop stop-color="#FFDB65"/><stop offset="1" stop-color="#FF8C33"/></linearGradient><linearGradient id="paint21_linear_1058_33" x1="21.897" y1="111.957" x2="45.496" y2="134.776" gradientUnits="userSpaceOnUse"><stop stop-color="#FFDF00"/><stop offset="1" stop-color="#FFB800"/></linearGradient><linearGradient id="paint22_linear_1058_33" x1="89.959" y1="39.49" x2="105.102" y2="54.591" gradientUnits="userSpaceOnUse"><stop stop-color="#FFDB65"/><stop offset="1" stop-color="#FF8C33"/></linearGradient><linearGradient id="paint23_linear_1058_33" x1="84.897" y1="35.957" x2="108.496" y2="58.776" gradientUnits="userSpaceOnUse"><stop stop-color="#FFDF00"/><stop offset="1" stop-color="#FFB800"/></linearGradient><radialGradient id="paint0_radial_1058_33" cx="0" cy="0" r="1" gradientUnits="userSpaceOnUse" gradientTransform="matrix(0 188 -188 0 230 219)"><stop stop-color="#FFD201" stop-opacity=".41"/><stop offset="1" stop-color="#FFD201" stop-opacity="0"/></radialGradient></defs></svg>