<svg width="659" height="671" fill="none" xmlns="http://www.w3.org/2000/svg"><g opacity=".05"><path d="M552.485 656.299c-44.881 14.455-92.798 18.357-135.089 10.076-36.064-7.2-67.74-22.724-92.39-44.861-7.002-6.542-12.905-14.146-17.901-23.159-23.152-39.736-34.108-133.344-80.933-159.957-58.04-32.633-179.275-17.113-218.045-113.45-11.399-27.67-9.308-61.458 2.122-93.625 9.239-25.967 27.002-50.768 47.74-72.234 33.543-34.908 74.281-62.927 118.955-85.877 25.349-13.145 52.282-24.45 78.739-34.583 54.397-20.635 137.895 54.019 194.275 44.066C535.246 68.05 595.921-22.624 667.551 6.102c16.003 6.537 31.529 14.245 44.857 24.078 16.78 11.999 30.738 26.014 43.359 41.677 17.371 21.187 31.061 44.869 41.976 69.635 37.986 86.801 39.477 192.018-3.137 291.774-49.339 113-147.048 192.539-242.121 223.033Z" fill="url('#paint0_linear_25_2015')"/><path d="M552.485 656.299c-44.881 14.455-92.798 18.357-135.089 10.076-36.064-7.2-67.74-22.724-92.39-44.861-7.002-6.542-12.905-14.146-17.901-23.159-23.152-39.736-34.108-133.344-80.933-159.957-58.04-32.633-179.275-17.113-218.045-113.45-11.399-27.67-9.308-61.458 2.122-93.625 9.239-25.967 27.002-50.768 47.74-72.234 33.543-34.908 74.281-62.927 118.955-85.877 25.349-13.145 52.282-24.45 78.739-34.583 54.397-20.635 137.895 54.019 194.275 44.066C535.246 68.05 595.921-22.624 667.551 6.102c16.003 6.537 31.529 14.245 44.857 24.078 16.78 11.999 30.738 26.014 43.359 41.677 17.371 21.187 31.061 44.869 41.976 69.635 37.986 86.801 39.477 192.018-3.137 291.774-49.339 113-147.048 192.539-242.121 223.033Z" fill="url('#paint1_linear_25_2015')"/></g><defs><linearGradient id="paint0_linear_25_2015" x1="793.401" y1="377.161" x2="79.484" y2="85.751" gradientUnits="userSpaceOnUse"><stop offset=".007" stop-color="#FF9C37"/><stop offset=".997" stop-color="#FF7300"/></linearGradient><linearGradient id="paint1_linear_25_2015" x1="684.443" y1="-235.525" x2="396.478" y2="941.895" gradientUnits="userSpaceOnUse"><stop stop-color="#FFDF00"/><stop offset="1" stop-color="#FFB800"/></linearGradient></defs></svg>