<svg width="40" height="40" fill="none" xmlns="http://www.w3.org/2000/svg"><g id="time 1" clip-path="url('#clip0_124_426')"><g id="g1431"><g id="g1433"><g id="Clip path group"><mask id="mask0_124_426" style="mask-type:luminance" maskUnits="userSpaceOnUse" x="0" y="0" width="40" height="40"><g id="clipPath1439"><path id="path1437" d="M0 0h40v40H0V0Z" fill="#fff"/></g></mask><g mask="url('#mask0_124_426')"><g id="g1435"><g id="g1441"><path id="path1443" d="M12.817 37.831c6.93 2.788 15.157 1.374 20.773-4.241 6.837-6.838 7.446-17.546 1.825-25.072" stroke="#333" stroke-miterlimit="10" stroke-linecap="round" stroke-linejoin="round"/></g><g id="g1445"><path id="path1447" d="m10 36.417.03.019" stroke="#333" stroke-miterlimit="10" stroke-linecap="round" stroke-linejoin="round"/></g><g id="g1449"><path id="path1451" d="M38.568 8.281h-3.412v3.412" stroke="#333" stroke-miterlimit="10" stroke-linecap="round" stroke-linejoin="round"/></g><g id="g1453"><path id="path1455" d="M27.295 2.214C20.34-.634 12.056.764 6.41 6.41c-6.837 6.838-7.446 17.546-1.825 25.072" stroke="#333" stroke-miterlimit="10" stroke-linecap="round" stroke-linejoin="round"/></g><g id="g1457"><path id="path1459" d="M30.104 3.646a81.054 81.054 0 0 0-.039-.024" stroke="#333" stroke-miterlimit="10" stroke-linecap="round" stroke-linejoin="round"/></g><g id="g1461"><path id="path1463" d="M1.465 31.823h3.483V28.34" stroke="#333" stroke-miterlimit="10" stroke-linecap="round" stroke-linejoin="round"/></g><g id="g1465"><path id="path1467" d="M18.123 20a1.877 1.877 0 1 0 3.754 0 1.877 1.877 0 0 0-3.753 0Z" stroke="#333" stroke-miterlimit="10" stroke-linecap="round" stroke-linejoin="round"/></g><g id="g1469"><path id="path1471" d="M8.523 13.005c-3.159 5.173-2.5 12.021 1.975 16.497 5.248 5.247 13.756 5.247 19.004 0 5.247-5.248 5.247-13.756 0-19.004-4.473-4.473-11.315-5.133-16.487-1.981" stroke="#333" stroke-miterlimit="10" stroke-linecap="round" stroke-linejoin="round"/></g><g id="g1473"><path id="path1475" d="m10.478 10.519-.021.02" stroke="#333" stroke-miterlimit="10" stroke-linecap="round" stroke-linejoin="round"/></g><g id="g1477"><path id="path1479" d="M30.451 20.012h-.473" stroke="#333" stroke-miterlimit="10" stroke-linecap="round" stroke-linejoin="round"/></g><g id="g1481"><path id="path1483" d="M9.549 19.988h.473" stroke="#333" stroke-miterlimit="10" stroke-linecap="round" stroke-linejoin="round"/></g><g id="g1485"><path id="path1487" d="M20.012 9.55v.472" stroke="#333" stroke-miterlimit="10" stroke-linecap="round" stroke-linejoin="round"/></g><g id="g1489"><path id="path1491" d="M19.988 30.45v-.472" stroke="#333" stroke-miterlimit="10" stroke-linecap="round" stroke-linejoin="round"/></g><g id="g1493"><path id="path1495" d="M18.673 18.673 15.61 15.61" stroke="#333" stroke-miterlimit="10" stroke-linecap="round" stroke-linejoin="round"/></g><g id="g1497"><path id="path1499" d="m21.327 18.673 5.71-5.71" stroke="#333" stroke-miterlimit="10" stroke-linecap="round" stroke-linejoin="round"/></g></g></g></g></g></g></g><defs><clipPath id="clip0_124_426"><path fill="#fff" d="M0 0h40v40H0z"/></clipPath></defs></svg>