<svg width="52" height="51" fill="none" xmlns="http://www.w3.org/2000/svg"><path d="M20.134 44.028v3.653a2.534 2.534 0 0 0 2.534 2.538h4.416a2.534 2.534 0 0 0 2.534-2.538v-2.576c0-1.116.73-2.077 1.805-2.423.192-.077.422-.116.614-.193.998-.346 2.074 0 2.726.808l1.498 1.808a2.547 2.547 0 0 0 3.57.346l3.418-2.808a2.51 2.51 0 0 0 .346-3.538l-1.498-1.807a2.57 2.57 0 0 1-.269-2.846c.116-.192.192-.384.308-.577.499-1 1.612-1.538 2.726-1.307l2.534.5c1.383.269 2.688-.654 2.957-2l.845-4.346c.268-1.384-.653-2.692-1.997-2.96l-3.571-.693a2.521 2.521 0 0 1-1.958-1.884 14.537 14.537 0 0 0-.807-2.385c-.422-1.038-.153-2.23.73-2.923l2.227-1.846a2.556 2.556 0 0 0 .345-3.576l-2.803-3.423a2.547 2.547 0 0 0-3.57-.346l-2.957 2.462c-.768.615-1.805.769-2.688.346-.23-.116-.422-.193-.653-.308C32.575 8.801 32 7.878 32 6.879V2.764A2.534 2.534 0 0 0 29.465.226h-4.416a2.534 2.534 0 0 0-2.534 2.538v3.538a2.517 2.517 0 0 1-1.728 2.384h-.039c-.998.346-2.073 0-2.726-.77L15.91 5.34a2.547 2.547 0 0 0-3.57-.346L8.921 7.84a2.556 2.556 0 0 0-.346 3.576l2.112 2.577a2.57 2.57 0 0 1 .269 2.846s0 .038-.039.038a2.472 2.472 0 0 1-2.687 1.23l-3.456-.653c-1.382-.269-2.688.654-2.957 2l-.844 4.345c-.27 1.385.652 2.692 1.996 2.962l4.032.769a2.56 2.56 0 0 1 1.997 1.923c.038.23.115.461.153.692.23.961-.077 1.961-.845 2.576l-2.994 2.462a2.556 2.556 0 0 0-.346 3.576l2.803 3.423a2.547 2.547 0 0 0 3.57.346l2.228-1.846c.845-.73 2.073-.77 3.033-.154.692.462 1.421.885 2.189 1.23.768.424 1.344 1.308 1.344 2.27Zm-1.728-12.076c-3.264-3.96-2.073-11.883 1.882-15.152 3.954-3.268 10.482-1.73 13.746 2.23 3.264 3.962 1.267 10.538-2.688 13.807s-9.638 3.076-12.94-.885Z" fill="#C8C1E1"/></svg>