<svg width="77" height="77" fill="none" xmlns="http://www.w3.org/2000/svg"><path d="M29.706 67.032v5.538c0 2.115 1.69 3.846 3.802 3.846h6.72c2.11 0 3.839-1.692 3.839-3.807v-3.923c0-1.692 1.113-3.192 2.726-3.654.307-.076.614-.192.922-.307 1.497-.5 3.148 0 4.146 1.192l2.266 2.73c1.344 1.616 3.763 1.846 5.376.5l5.183-4.268c1.613-1.346 1.843-3.77.5-5.384l-2.266-2.73c-.998-1.231-1.19-2.923-.384-4.308.154-.269.307-.577.46-.846.769-1.5 2.458-2.307 4.11-2l3.84.731a3.864 3.864 0 0 0 4.492-3.038l1.267-6.615a3.87 3.87 0 0 0-3.034-4.499l-5.414-1.038c-1.459-.27-2.61-1.385-2.995-2.846-.307-1.23-.73-2.423-1.19-3.577-.653-1.576-.23-3.384 1.075-4.46l3.34-2.77c1.613-1.345 1.844-3.768.5-5.383l-4.262-5.192c-1.344-1.615-3.763-1.846-5.376-.5l-4.492 3.73a3.835 3.835 0 0 1-4.07.539c-.308-.154-.653-.308-.96-.462-1.383-.615-2.304-2-2.304-3.5v-6.23c0-2.114-1.69-3.845-3.802-3.845h-6.72c-2.111 0-3.84 1.692-3.84 3.807V9.81a3.811 3.811 0 0 1-2.61 3.615h-.038a3.783 3.783 0 0 1-4.148-1.192L23.18 8.347c-1.344-1.615-3.763-1.846-5.376-.5l-5.184 4.27c-1.612 1.345-1.843 3.768-.499 5.383l3.187 3.884a3.848 3.848 0 0 1 .384 4.307l-.038.039a3.816 3.816 0 0 1-4.032 1.884l-5.26-1a3.864 3.864 0 0 0-4.493 3.038L.6 36.267c-.384 2.077.96 4.076 3.033 4.46l6.144 1.155c1.497.269 2.688 1.422 3.033 2.922.077.346.154.692.269 1.039.384 1.422-.154 2.96-1.267 3.922l-4.531 3.73c-1.613 1.347-1.843 3.77-.5 5.384l4.263 5.192c1.344 1.615 3.763 1.846 5.376.5l3.34-2.769c1.306-1.077 3.149-1.154 4.57-.23a27.814 27.814 0 0 0 3.302 1.845c1.228.77 2.111 2.115 2.073 3.615Zm-2.572-18.344c-4.954-6.037-3.15-17.997 2.84-22.958 6.03-4.961 15.86-2.615 20.812 3.384 4.954 6.038 1.92 15.96-4.108 20.959-5.99 4.96-14.591 4.653-19.544-1.385Z" fill="#FF8548"/></svg>