<svg width="75" height="79" fill="none" xmlns="http://www.w3.org/2000/svg"><path d="m64.865 44.878 5.337-.154c2.035-.038 3.648-1.769 3.57-3.807l-.153-6.46c-.038-2.039-1.766-3.654-3.801-3.577l-3.763.115c-1.613.039-3.072-1-3.61-2.538-.115-.308-.191-.577-.307-.884a3.653 3.653 0 0 1 1.037-4.038l2.573-2.27c1.535-1.345 1.69-3.691.345-5.19l-4.262-4.885a3.654 3.654 0 0 0-5.184-.346l-2.572 2.269c-1.152 1-2.765 1.23-4.109.5-.269-.154-.537-.27-.844-.423-1.46-.692-2.304-2.308-2.035-3.923l.614-3.73c.307-2-1.037-3.923-3.072-4.23L38.255.268c-1.997-.307-3.916 1.039-4.224 3.038l-.844 5.269a3.684 3.684 0 0 1-2.65 2.961c-1.152.346-2.304.77-3.417 1.27-1.498.653-3.226.307-4.3-.924L20.054 8.73c-1.344-1.538-3.687-1.692-5.184-.346L9.994 12.65c-1.535 1.346-1.689 3.692-.345 5.192l3.724 4.23a3.674 3.674 0 0 1 .615 3.923c-.154.308-.269.654-.384.961a3.681 3.681 0 0 1-3.302 2.308l-5.99.154C2.276 29.457.664 31.188.74 33.226l.153 6.499c.039 2.038 1.766 3.653 3.802 3.576l5.145-.153c1.574-.039 2.995.922 3.57 2.422v.039a3.653 3.653 0 0 1-1.036 4.038l-3.648 3.192c-1.536 1.346-1.69 3.692-.345 5.191l4.262 4.884c1.344 1.539 3.686 1.692 5.184.346l3.647-3.191a3.734 3.734 0 0 1 4.147-.5s.039 0 .039.038a3.64 3.64 0 0 1 1.92 3.846l-.807 5.114c-.307 2 1.037 3.923 3.072 4.23l6.412 1.039c1.997.308 3.917-1.038 4.224-3.076l.96-5.961c.23-1.462 1.306-2.615 2.726-3 .346-.077.653-.192.999-.27a3.724 3.724 0 0 1 3.8 1.116l3.725 4.269c1.344 1.538 3.687 1.692 5.184.346l4.877-4.269c1.536-1.346 1.69-3.692.345-5.191l-2.764-3.154c-1.076-1.23-1.19-3-.346-4.384.653-1.038 1.19-2.115 1.69-3.23.46-1.27 1.766-2.115 3.187-2.154Zm-17.548 3c-5.645 4.96-17.202 3.538-22.156-2.115-4.953-5.654-2.956-15.23 2.688-20.19 5.645-4.961 15.283-2.308 20.236 3.346C53 34.61 52.96 42.917 47.317 47.878Z" fill="#FFBA41"/><path d="M37.334 78.028c-.193 0-.423 0-.615-.039l-6.412-1.038a3.608 3.608 0 0 1-2.458-1.538c-.576-.808-.844-1.846-.652-2.846l.806-5.115c.23-1.5-.5-3.038-1.882-3.73l-.038-.038a3.513 3.513 0 0 0-1.651-.423c-.883 0-1.69.307-2.342.884l-3.648 3.192a3.752 3.752 0 0 1-2.496.961c-1.113 0-2.15-.461-2.841-1.307l-4.262-4.884c-.653-.77-.999-1.73-.922-2.77a3.91 3.91 0 0 1 1.306-2.614l3.647-3.192c1.114-.962 1.498-2.538.999-3.923v-.038c-.538-1.423-1.882-2.346-3.34-2.346h-.078l-5.145.154c-2.112.038-3.84-1.577-3.878-3.692l-.154-6.5c-.038-.999.346-1.999 1.037-2.73a3.857 3.857 0 0 1 2.65-1.192l5.99-.154a3.606 3.606 0 0 0 3.225-2.23c.115-.308.269-.654.384-.961.537-1.27.307-2.73-.615-3.808l-3.724-4.23a3.83 3.83 0 0 1 .345-5.384l4.877-4.268c.691-.616 1.574-.923 2.496-.923 1.113 0 2.15.461 2.841 1.307l2.765 3.154c.691.769 1.65 1.23 2.688 1.23.499 0 1.036-.115 1.497-.308 1.114-.5 2.266-.922 3.418-1.269a3.608 3.608 0 0 0 2.572-2.884l.845-5.268c.307-1.846 1.881-3.192 3.724-3.192.192 0 .423 0 .615.038l6.374 1.038a3.607 3.607 0 0 1 2.457 1.539c.576.807.845 1.846.653 2.846l-.614 3.73c-.27 1.577.537 3.076 1.958 3.769.269.153.538.269.845.423.499.269 1.075.423 1.612.423.884 0 1.69-.308 2.381-.885l2.573-2.269c.69-.615 1.574-.923 2.495-.923 1.114 0 2.15.462 2.842 1.308l4.262 4.884c.653.769.998 1.73.922 2.769a3.91 3.91 0 0 1-1.306 2.615L63.79 27.65a3.545 3.545 0 0 0-.999 3.884c.115.307.23.577.307.884.5 1.462 1.843 2.462 3.38 2.462h.115l3.762-.116c2.112-.077 3.84 1.577 3.917 3.692l.154 6.46c.038 2.077-1.613 3.846-3.687 3.885l-5.337.154c-1.382.038-2.61.884-3.187 2.153a32.202 32.202 0 0 1-1.69 3.23 3.593 3.593 0 0 0 .346 4.27l2.765 3.153a3.83 3.83 0 0 1-.346 5.384l-4.876 4.268c-.691.616-1.575.923-2.496.923-1.114 0-2.15-.461-2.841-1.307l-3.725-4.269c-.691-.77-1.69-1.23-2.688-1.23-.346 0-.653.038-.96.153-.345.077-.653.193-.998.27a3.588 3.588 0 0 0-2.65 2.884l-.96 5.96c-.307 1.885-1.881 3.23-3.762 3.23Zm-12.902-14.96c.614 0 1.229.154 1.766.423l.039.039c1.459.769 2.227 2.346 1.996 3.96l-.806 5.116a3.585 3.585 0 0 0 .614 2.653c.538.77 1.383 1.27 2.343 1.423l6.412 1.038c.192.039.384.039.576.039 1.766 0 3.264-1.27 3.532-3l.96-5.96c.23-1.5 1.344-2.731 2.803-3.077.346-.077.653-.192.999-.27a3.23 3.23 0 0 1 1.037-.153c1.075 0 2.15.461 2.88 1.307l3.724 4.269c.691.77 1.651 1.23 2.688 1.23.883 0 1.69-.307 2.342-.884l4.877-4.269c1.497-1.307 1.65-3.576.345-5.038l-2.765-3.153c-1.113-1.269-1.228-3.077-.345-4.538a32.17 32.17 0 0 0 1.69-3.23c.575-1.346 1.92-2.27 3.378-2.308l5.338-.153c1.958-.039 3.532-1.692 3.494-3.692l-.154-6.461c-.038-2-1.69-3.538-3.686-3.5l-3.763.116c-1.69.038-3.187-1-3.686-2.615-.115-.308-.192-.577-.307-.885a3.783 3.783 0 0 1 1.075-4.153l2.572-2.269c.73-.615 1.152-1.5 1.23-2.461a3.463 3.463 0 0 0-.884-2.615l-4.262-4.884c-.691-.77-1.651-1.23-2.688-1.23a3.48 3.48 0 0 0-2.342.884l-2.573 2.269a3.752 3.752 0 0 1-2.496.961c-.614 0-1.19-.154-1.727-.423-.27-.154-.538-.27-.807-.423-1.536-.73-2.342-2.346-2.073-4.038l.614-3.73a3.584 3.584 0 0 0-.614-2.654 3.588 3.588 0 0 0-2.343-1.423l-6.374-1.038a2.902 2.902 0 0 0-.576-.038c-1.766 0-3.225 1.269-3.532 3l-.845 5.268a3.761 3.761 0 0 1-2.726 3.038c-1.152.346-2.304.769-3.418 1.23-.499.231-1.036.347-1.574.347-1.113 0-2.15-.462-2.841-1.308l-2.765-3.153c-.69-.77-1.65-1.231-2.688-1.231a3.48 3.48 0 0 0-2.342.884l-4.876 4.27c-1.498 1.307-1.651 3.576-.346 5.037l3.725 4.23c.96 1.115 1.228 2.692.652 4.038-.153.308-.268.654-.384.962a3.769 3.769 0 0 1-3.417 2.384l-5.99.154c-.96.038-1.843.423-2.496 1.115a3.738 3.738 0 0 0-.998 2.577l.153 6.499a3.55 3.55 0 0 0 3.571 3.5h.116l5.145-.155c1.613-.038 3.11.962 3.648 2.5v.039a3.783 3.783 0 0 1-1.075 4.153L9.534 56.8c-.73.615-1.152 1.5-1.229 2.461-.077.961.23 1.884.883 2.615l4.262 4.884c.691.77 1.651 1.23 2.688 1.23.883 0 1.69-.307 2.342-.884l3.648-3.192c.5-.5 1.383-.846 2.304-.846Z" fill="#66192D"/></svg>