<svg width="129" height="136" fill="none" xmlns="http://www.w3.org/2000/svg"><path d="m110.817 84.04 9.254 1c3.533.384 6.72-2.193 7.104-5.73l1.228-11.307c.384-3.538-2.188-6.73-5.721-7.115l-6.566-.73c-2.841-.308-5.107-2.423-5.644-5.23-.115-.539-.192-1.077-.346-1.616-.576-2.576.538-5.268 2.765-6.73l4.992-3.307c2.995-1.961 3.801-5.999 1.843-8.96l-6.259-9.46a6.473 6.473 0 0 0-8.947-1.846l-4.991 3.307c-2.227 1.461-5.107 1.461-7.257-.116a40.857 40.857 0 0 0-1.344-.922c-2.381-1.577-3.418-4.538-2.611-7.269l1.92-6.307c1.036-3.422-.884-7.037-4.301-8.076L75.069.32a6.457 6.457 0 0 0-8.063 4.307l-2.726 8.922c-.73 2.423-2.803 4.153-5.3 4.538-2.073.308-4.185.77-6.22 1.385-2.726.807-5.682-.231-7.257-2.616l-4.032-6.153c-1.958-3-5.99-3.807-8.946-1.846l-9.446 6.269c-2.957 1.961-3.801 6-1.843 8.96l5.453 8.268a6.514 6.514 0 0 1 .153 6.961c-.307.5-.614 1.038-.921 1.577a6.483 6.483 0 0 1-6.298 3.23L9.18 42.968c-3.532-.385-6.72 2.192-7.103 5.73L.846 60.004c-.383 3.538 2.19 6.73 5.722 7.114l8.985.962c2.765.307 4.992 2.346 5.606 5.038 0 .038 0 .077.039.077a6.447 6.447 0 0 1-2.765 6.768l-7.104 4.692c-2.995 1.96-3.8 5.999-1.843 8.96l6.26 9.499c1.957 2.961 5.99 3.807 8.946 1.846l7.065-4.692c2.227-1.461 5.145-1.423 7.296.115l.076.077a6.47 6.47 0 0 1 2.42 7.153l-2.612 8.653c-1.036 3.423.884 7.038 4.3 8.076l10.867 3.307a6.457 6.457 0 0 0 8.064-4.307l3.072-10.076c.73-2.461 2.88-4.268 5.414-4.538.614-.076 1.19-.153 1.804-.23 2.496-.385 4.954.769 6.336 2.846l5.452 8.268c1.959 2.999 5.99 3.807 8.947 1.846l9.446-6.269c2.956-1.961 3.801-5.999 1.843-8.96l-4.032-6.153c-1.574-2.385-1.382-5.5.461-7.73 1.344-1.654 2.611-3.384 3.686-5.192 1.306-2.153 3.725-3.384 6.22-3.115ZM79.6 85.153c-10.981 7.269-30.718 2.077-37.975-8.921-7.257-10.999-1.574-27.15 9.407-34.42 10.982-7.267 27.11-.384 34.366 10.615 7.257 10.998 5.184 25.458-5.798 32.727Z" fill="#C8C1E1"/><path d="M56.1 135.148c-.652 0-1.305-.116-1.92-.269l-10.866-3.308a6.607 6.607 0 0 1-3.955-3.23c-.845-1.577-.998-3.384-.499-5.076l2.611-8.653c.768-2.577-.153-5.346-2.38-6.922l-.077-.077a6.114 6.114 0 0 0-3.61-1.154 6.18 6.18 0 0 0-3.456 1.038l-7.065 4.692a6.471 6.471 0 0 1-3.647 1.115c-2.227 0-4.3-1.115-5.568-2.999l-6.259-9.499c-.998-1.5-1.305-3.269-.96-5 .346-1.73 1.383-3.23 2.842-4.23l7.103-4.691c2.15-1.423 3.226-4.077 2.65-6.576l-.039-.077a6.205 6.205 0 0 0-5.452-4.884l-8.985-.962c-1.766-.192-3.34-1.076-4.454-2.461a6.592 6.592 0 0 1-1.421-4.884l1.229-11.306c.384-3.384 3.225-5.923 6.604-5.923.23 0 .5 0 .73.039L19.7 51.005c.23.038.46.038.69.038 2.266 0 4.34-1.192 5.415-3.153.307-.539.614-1.077.922-1.577 1.267-2.038 1.19-4.692-.154-6.73l-5.453-8.268a6.652 6.652 0 0 1 1.882-9.23l9.446-6.268a6.474 6.474 0 0 1 3.648-1.116 6.652 6.652 0 0 1 5.567 3l4.032 6.153c1.152 1.77 3.11 2.808 5.222 2.808.614 0 1.229-.077 1.805-.27a43.265 43.265 0 0 1 6.258-1.384 6.267 6.267 0 0 0 5.107-4.384l2.727-8.922c.844-2.846 3.417-4.73 6.374-4.73.652 0 1.305.115 1.92.307l10.866 3.308a6.43 6.43 0 0 1 3.916 3.23c.845 1.577.999 3.384.5 5.076L88.47 25.2c-.807 2.654.192 5.5 2.534 7.038.46.307.921.615 1.344.923a6.18 6.18 0 0 0 7.027.115l4.991-3.307a6.476 6.476 0 0 1 3.648-1.116c2.227 0 4.301 1.116 5.568 3l6.259 9.46c.998 1.5 1.305 3.27.959 5-.345 1.73-1.382 3.23-2.841 4.23l-4.992 3.307c-2.15 1.423-3.225 4.038-2.688 6.538l.346 1.615c.499 2.73 2.726 4.769 5.491 5.076l6.566.731c1.766.192 3.341 1.077 4.454 2.461a6.59 6.59 0 0 1 1.421 4.884l-1.229 11.307c-.384 3.384-3.225 5.922-6.604 5.922-.231 0-.5 0-.73-.038l-9.254-1c-.23-.039-.46-.039-.691-.039-2.15 0-4.224 1.154-5.375 3.038-1.114 1.808-2.343 3.577-3.725 5.23-1.766 2.154-1.958 5.192-.422 7.499l4.031 6.153c.999 1.5 1.306 3.269.96 5-.345 1.73-1.382 3.23-2.841 4.23l-9.446 6.269a6.48 6.48 0 0 1-3.648 1.115 6.65 6.65 0 0 1-5.567-3l-5.453-8.268c-1.19-1.769-3.11-2.846-5.222-2.846-.307 0-.614.039-.921.077-.615.077-1.23.154-1.805.231-2.458.269-4.531 2-5.26 4.422l-3.072 10.076c-.653 2.73-3.226 4.615-6.182 4.615Zm-20.657-29.112c1.382 0 2.726.423 3.84 1.231l.076.077a6.593 6.593 0 0 1 2.496 7.345l-2.61 8.653c-.5 1.615-.308 3.307.46 4.768.806 1.462 2.112 2.577 3.724 3.038l10.867 3.308c.576.192 1.19.269 1.805.269a6.257 6.257 0 0 0 5.99-4.461l3.071-10.076a6.653 6.653 0 0 1 5.606-4.692c.576-.076 1.19-.153 1.805-.23a7.96 7.96 0 0 1 .96-.077c2.227 0 4.3 1.115 5.53 2.999l5.452 8.269c1.152 1.769 3.11 2.807 5.222 2.807a6.18 6.18 0 0 0 3.456-1.038l9.445-6.269a6.357 6.357 0 0 0 2.688-3.961c.346-1.654 0-3.307-.921-4.73l-4.032-6.153c-1.613-2.461-1.42-5.653.461-7.96 1.344-1.616 2.572-3.385 3.686-5.192 1.229-2 3.379-3.23 5.683-3.23.23 0 .46 0 .729.038l9.254 1c.23.038.461.038.691.038 3.187 0 5.875-2.423 6.221-5.576l1.228-11.306c.192-1.654-.307-3.308-1.344-4.615-1.036-1.308-2.534-2.115-4.223-2.308l-6.566-.73a6.606 6.606 0 0 1-5.798-5.384c-.116-.539-.192-1.077-.346-1.577-.576-2.653.538-5.422 2.842-6.96l4.991-3.308a6.36 6.36 0 0 0 2.688-3.96c.346-1.654 0-3.308-.921-4.731l-6.259-9.46c-1.152-1.77-3.111-2.808-5.222-2.808a6.179 6.179 0 0 0-3.456 1.039L99.72 33.43a6.69 6.69 0 0 1-3.686 1.115 6.412 6.412 0 0 1-3.801-1.23 40.644 40.644 0 0 0-1.344-.923c-2.458-1.654-3.533-4.654-2.688-7.461l1.92-6.307c.499-1.615.307-3.307-.461-4.769-.806-1.46-2.112-2.576-3.686-3.038L75.107 7.51a5.704 5.704 0 0 0-1.804-.27 6.256 6.256 0 0 0-5.99 4.462l-2.727 8.922c-.73 2.461-2.88 4.268-5.452 4.653-2.074.308-4.185.77-6.22 1.346a6.439 6.439 0 0 1-1.92.27 6.66 6.66 0 0 1-5.568-2.962l-4.032-6.153c-1.152-1.769-3.11-2.807-5.222-2.807-1.228 0-2.419.346-3.455 1.038l-9.446 6.268c-2.88 1.923-3.687 5.807-1.767 8.692l5.453 8.268c1.42 2.153 1.497 5 .153 7.153-.307.5-.614 1.038-.921 1.577-1.152 2.076-3.38 3.345-5.76 3.345-.23 0-.499 0-.73-.038L9.257 50.12c-.23-.038-.461-.038-.692-.038-3.187 0-5.874 2.422-6.22 5.576L1.115 66.964c-.192 1.654.307 3.307 1.344 4.615 1.037 1.307 2.534 2.115 4.186 2.307l8.985.962a6.614 6.614 0 0 1 5.76 5.191l.038.077a6.739 6.739 0 0 1-2.842 7l-7.103 4.691a6.361 6.361 0 0 0-2.688 3.961c-.346 1.654 0 3.307.921 4.73l6.26 9.499c1.151 1.769 3.11 2.807 5.221 2.807a6.18 6.18 0 0 0 3.456-1.038l7.065-4.692c1.152-.653 2.42-1.038 3.725-1.038Z" fill="#66192D"/></svg>