<svg width="118" height="121" fill="none" xmlns="http://www.w3.org/2000/svg"><path d="M69.976 120.153c-2.88 0-5.376-1.961-6.105-4.73l-2.15-8.306a5.985 5.985 0 0 0-5.338-4.423h-.499a5.923 5.923 0 0 0-5.337 3.423l-3.38 7.306a6.304 6.304 0 0 1-5.72 3.654 6.317 6.317 0 0 1-2.65-.577l-9.753-4.538a6.35 6.35 0 0 1-3.264-3.576 6.253 6.253 0 0 1 .23-4.846l3.418-7.307c1.037-2.23.576-4.884-1.113-6.614l-.077-.077a5.985 5.985 0 0 0-4.262-1.808c-.883 0-1.728.193-2.534.577l-7.757 3.654a5.982 5.982 0 0 1-2.688.615c-2.419 0-4.684-1.423-5.72-3.615l-4.609-9.73c-.73-1.538-.806-3.23-.23-4.845a6.415 6.415 0 0 1 3.225-3.577l9.024-4.268c2.15-1 3.456-3.192 3.379-5.538-.039-.577-.038-1.154-.038-1.73a5.904 5.904 0 0 0-3.456-5.346L4.086 49.97c-3.149-1.461-4.531-5.23-3.034-8.384l4.531-9.73a6.304 6.304 0 0 1 5.722-3.653c.921 0 1.804.193 2.649.577l6.297 2.961c.768.385 1.613.539 2.496.539 1.69 0 3.302-.73 4.454-2 1.344-1.5 2.841-2.923 4.377-4.23 1.767-1.5 2.535-3.884 1.959-6.076l-2.227-8.576c-.883-3.384 1.152-6.845 4.492-7.73L46.208.938c.538-.154 1.075-.193 1.613-.193 2.88 0 5.375 1.962 6.105 4.73l1.574 6.038a5.867 5.867 0 0 0 5.53 4.423c.498 0 1.036.038 1.535.077 2.42.192 4.685-1.193 5.721-3.423l2.42-5.153a6.304 6.304 0 0 1 5.72-3.654c.922 0 1.805.193 2.65.577l9.753 4.538c1.536.73 2.688 1.962 3.264 3.577a6.252 6.252 0 0 1-.23 4.845l-2.381 5.153c-1.037 2.23-.614 4.884 1.075 6.576.346.385.73.77 1.075 1.116 1.114 1.23 2.726 1.961 4.377 1.961.884 0 1.728-.192 2.535-.577l5.644-2.692a5.982 5.982 0 0 1 2.688-.615c2.419 0 4.684 1.423 5.721 3.615l4.608 9.73a6.325 6.325 0 0 1-2.995 8.421l-7.987 3.808c-2.073.961-3.379 3.115-3.379 5.422 0 2.038-.115 4.076-.422 6.076a5.989 5.989 0 0 0 3.34 6.269l6.298 2.96c3.148 1.462 4.531 5.23 3.033 8.384l-4.531 9.768a6.304 6.304 0 0 1-5.721 3.654 6.325 6.325 0 0 1-2.65-.577l-8.485-3.961a5.942 5.942 0 0 0-2.535-.577c-1.382 0-2.726.5-3.763 1.384-.422.385-.883.731-1.344 1.077-1.843 1.462-2.649 3.846-2.073 6.153l2.534 9.653c.883 3.384-1.152 6.845-4.492 7.73l-10.406 2.73c-.576.115-1.114.192-1.651.192Zm-14.13-17.844H56.422a6.316 6.316 0 0 1 5.683 4.692l2.15 8.307a5.914 5.914 0 0 0 5.721 4.422c.5 0 .998-.077 1.497-.192l10.406-2.73c3.149-.846 5.069-4.077 4.224-7.23l-2.534-9.653a6.302 6.302 0 0 1 2.188-6.576c.461-.346.883-.692 1.344-1.077a6.325 6.325 0 0 1 4.032-1.461c.922 0 1.882.192 2.726.615l8.486 3.961a5.775 5.775 0 0 0 2.496.577 5.937 5.937 0 0 0 5.376-3.422l4.53-9.769c1.383-2.96.077-6.499-2.879-7.883l-6.298-2.961c-2.534-1.192-3.954-3.846-3.571-6.653.269-1.962.423-4 .423-6 0-2.46 1.421-4.73 3.609-5.768l7.987-3.807c2.957-1.385 4.224-4.961 2.803-7.884l-4.608-9.73c-.96-2.076-3.072-3.384-5.375-3.384a5.82 5.82 0 0 0-2.535.577l-5.644 2.692a5.981 5.981 0 0 1-2.688.615 6.394 6.394 0 0 1-4.684-2.076c-.346-.385-.692-.77-1.037-1.115-1.766-1.846-2.227-4.654-1.152-7.038l2.38-5.153a5.99 5.99 0 0 0 .193-4.538c-.538-1.5-1.613-2.692-3.072-3.346l-9.753-4.538c-.807-.384-1.613-.538-2.496-.538a5.937 5.937 0 0 0-5.376 3.423l-2.419 5.153c-1.113 2.346-3.532 3.807-6.105 3.615-.5-.039-1.037-.077-1.536-.077-2.803-.116-5.145-2-5.875-4.73L53.465 5.59a5.915 5.915 0 0 0-5.721-4.423c-.5 0-.998.077-1.498.193L35.841 4.09c-3.149.846-5.069 4.077-4.224 7.23l2.227 8.576a6.366 6.366 0 0 1-2.074 6.46 40.589 40.589 0 0 0-4.338 4.192 6.455 6.455 0 0 1-4.762 2.115 6.325 6.325 0 0 1-2.65-.576l-6.296-2.962c-.807-.384-1.652-.538-2.496-.538a5.937 5.937 0 0 0-5.376 3.423l-4.53 9.73c-1.383 2.96-.078 6.498 2.879 7.883l8.486 3.96c2.227 1.04 3.686 3.27 3.686 5.73 0 .578 0 1.155.038 1.731.077 2.5-1.305 4.808-3.609 5.923L3.78 71.237a6.026 6.026 0 0 0-3.034 3.345 5.821 5.821 0 0 0 .23 4.538l4.608 9.73c.96 2.076 3.072 3.384 5.376 3.384.883 0 1.728-.192 2.534-.577l7.757-3.653c.844-.385 1.766-.616 2.687-.616 1.69 0 3.38.692 4.57 1.923l.076.077c1.805 1.846 2.266 4.692 1.19 7.038l-3.417 7.306a5.99 5.99 0 0 0-.192 4.538c.538 1.5 1.613 2.692 3.072 3.346l9.753 4.538c.806.384 1.613.538 2.496.538a5.937 5.937 0 0 0 5.376-3.422l3.379-7.307c.96-2.231 3.187-3.654 5.606-3.654Z" fill="#66192D"/><path d="M56.191 83.927c-3.648 0-7.103-.692-9.945-2-5.375-2.5-9.292-7.499-11.02-14.075-1.65-6.23-1.113-12.998 1.498-18.613 3.225-6.922 11.173-11.268 20.734-11.268 4.416 0 8.755.923 12.518 2.692 5.568 2.616 9.868 7.038 12.057 12.46 2.227 5.538 2.073 11.614-.461 17.075-4.185 8.999-15.935 13.73-25.38 13.73Zm1.306-45.61c-9.408 0-17.24 4.23-20.39 11.038-2.572 5.537-3.11 12.229-1.497 18.343 1.728 6.461 5.568 11.384 10.828 13.845 2.765 1.307 6.144 2 9.753 2 9.33 0 20.927-4.654 25.074-13.537 2.496-5.346 2.65-11.306.46-16.767-2.15-5.346-6.373-9.691-11.864-12.268-3.725-1.73-7.987-2.653-12.364-2.653Z" fill="#66192D"/></svg>