<svg width="1283" height="615" fill="none" xmlns="http://www.w3.org/2000/svg"><path opacity=".15" d="M296 217.972C296 338.378 198.386 436 77.99 436c-27.463 0-53.798-5.076-77.99-14.381V14.381C24.192 5.076 50.527 0 77.99 0 198.386 0 296 97.622 296 217.972Z" fill="url('#paint0_linear_1132_102')"/><path opacity=".15" d="M705 615c60.199 0 109-48.801 109-109s-48.801-109-109-109-109 48.801-109 109 48.801 109 109 109Z" fill="url('#paint1_linear_1132_102')"/><path opacity=".15" d="M1236.5 93c25.68 0 46.5-20.819 46.5-46.5S1262.18 0 1236.5 0 1190 20.819 1190 46.5s20.82 46.5 46.5 46.5Z" fill="url('#paint2_linear_1132_102')"/><path opacity=".15" d="M1109.5 511c8.56 0 15.5-6.94 15.5-15.5 0-8.56-6.94-15.5-15.5-15.5-8.56 0-15.5 6.94-15.5 15.5 0 8.56 6.94 15.5 15.5 15.5Z" fill="url('#paint3_linear_1132_102')"/><defs><linearGradient id="paint0_linear_1132_102" x1="-31.123" y1="-14.78" x2="441.175" y2="295.279" gradientUnits="userSpaceOnUse"><stop stop-color="#FFDF00"/><stop offset="1" stop-color="#FFB800"/></linearGradient><linearGradient id="paint1_linear_1132_102" x1="573.078" y1="389.61" x2="830.305" y2="638.347" gradientUnits="userSpaceOnUse"><stop stop-color="#FFDF00"/><stop offset="1" stop-color="#FFB800"/></linearGradient><linearGradient id="paint2_linear_1132_102" x1="1180.22" y1="-3.153" x2="1289.96" y2="102.96" gradientUnits="userSpaceOnUse"><stop stop-color="#FFDF00"/><stop offset="1" stop-color="#FFB800"/></linearGradient><linearGradient id="paint3_linear_1132_102" x1="1090.74" y1="478.949" x2="1127.32" y2="514.32" gradientUnits="userSpaceOnUse"><stop stop-color="#FFDF00"/><stop offset="1" stop-color="#FFB800"/></linearGradient></defs></svg>