<svg width="40" height="40" fill="none" xmlns="http://www.w3.org/2000/svg"><g id="client 1" clip-path="url('#clip0_124_299')"><g id="g912"><g id="g914"><g id="Clip path group"><mask id="mask0_124_299" style="mask-type:luminance" maskUnits="userSpaceOnUse" x="0" y="0" width="40" height="40"><g id="clipPath920"><path id="path918" d="M0 0h40v40H0V0Z" fill="#fff"/></g></mask><g mask="url('#mask0_124_299')"><g id="g916"><g id="g922"><path id="path924" d="M22.547 10.237c-.183.15-.417.241-.672.241-.143 0-.284-.016-.419-.045v4.034c0 .053-.003.105-.004.158 1.369.077 2.618-.935 2.618-2.165 0-.955-.619-1.925-1.523-2.223Z" stroke="#333" stroke-miterlimit="10" stroke-linecap="round" stroke-linejoin="round"/></g><g id="g926"><path id="path928" d="M19.847 8.45c0-.109-.146-.146-.197-.05a3.926 3.926 0 0 1-3.465 2.078h-6.013v3.989c0 2.906 2.277 5.561 5.723 5.561a5.568 5.568 0 0 0 5.561-5.561v-4.033a2.036 2.036 0 0 1-1.609-1.984Z" stroke="#333" stroke-miterlimit="10" stroke-linecap="round" stroke-linejoin="round"/></g><g id="g930"><path id="path932" d="M10.172 14.466v-3.988h-.695c-.211 0-.413-.041-.598-.113-.75.366-1.32 1.228-1.32 2.095 0 1.228 1.246 2.242 2.617 2.165-.002-.053-.004-.106-.004-.159Z" stroke="#333" stroke-miterlimit="10" stroke-linecap="round" stroke-linejoin="round"/></g><g id="g934"><path id="path936" d="M22.585 37.118c-.56 0-1.034-.474-1.034-1.034v-3.415c0-.56.473-1.035 1.034-1.035-.56 0-1.034-.473-1.034-1.034v-3.415c0-.56.473-1.035 1.034-1.035-.56 0-1.034-.473-1.034-1.034v-2.754l-2.224-.862a.564.564 0 0 1-.36-.524l-.002-1.876a5.529 5.529 0 0 1-3.07.928c-1.22 0-2.291-.334-3.169-.892v1.837c0 .431-.385.535-.549.599l-7.688 2.98c-1.304.537-3.05 2.225-3.05 4.73v9.116c0 .561.455 1.016 1.017 1.016H29.24c.562 0 1.017-.455 1.017-1.016v-1.28h-7.672Z" stroke="#333" stroke-miterlimit="10" stroke-linecap="round" stroke-linejoin="round"/></g><g id="g938"><path id="path940" d="M17.092 24.726a.395.395 0 0 1-.125-.34h-2.225a.395.395 0 0 1-.125.34l-.112.103v3.841c0 .313.253.566.565.566h1.569a.565.565 0 0 0 .565-.566v-3.84l-.112-.104Z" stroke="#333" stroke-miterlimit="10" stroke-linecap="round" stroke-linejoin="round"/></g><g id="g942"><path id="path944" d="m21.55 22.362-2.084-.807-2.398 2.611a.396.396 0 0 0 .024.56l1.404 1.29a.396.396 0 0 0 .56-.024l2.495-2.717v-.913Z" stroke="#333" stroke-miterlimit="10" stroke-linecap="round" stroke-linejoin="round"/></g><g id="g946"><path id="path948" d="m9.535 22.596 3.118 3.396a.396.396 0 0 0 .56.024l1.404-1.29a.396.396 0 0 0 .024-.56l-2.403-2.617-.06.023-2.643 1.024Z" stroke="#333" stroke-miterlimit="10" stroke-linecap="round" stroke-linejoin="round"/></g><g id="g950"><path id="path952" d="M5.695 39.334v-9.347" stroke="#333" stroke-miterlimit="10" stroke-linecap="round" stroke-linejoin="round"/></g><g id="g954"><path id="path956" d="M37.526 31.634h-14.94c-.562 0-1.035.474-1.035 1.035v3.415c0 .56.473 1.034 1.034 1.034h14.941c.561 0 1.035-.474 1.035-1.034v-3.415c0-.56-.474-1.035-1.035-1.035Z" stroke="#333" stroke-miterlimit="10" stroke-linecap="round" stroke-linejoin="round"/></g><g id="g958"><path id="path960" d="M29.083 34.376h-4.999" stroke="#333" stroke-miterlimit="10" stroke-linecap="round" stroke-linejoin="round"/></g><g id="g962"><path id="path964" d="M29.083 28.892h-4.999" stroke="#333" stroke-miterlimit="10" stroke-linecap="round" stroke-linejoin="round"/></g><g id="g966"><path id="path968" d="M36.02 28.892h-1.058" stroke="#333" stroke-miterlimit="10" stroke-linecap="round" stroke-linejoin="round"/></g><g id="g970"><path id="path972" d="M37.526 26.15h-14.94c-.562 0-1.035.474-1.035 1.035V30.6c0 .56.473 1.034 1.034 1.034h14.941c.561 0 1.035-.473 1.035-1.034v-3.415c0-.56-.474-1.034-1.035-1.034Z" stroke="#333" stroke-miterlimit="10" stroke-linecap="round" stroke-linejoin="round"/></g><g id="g974"><path id="path976" d="M29.083 28.892h-4.999" stroke="#333" stroke-miterlimit="10" stroke-linecap="round" stroke-linejoin="round"/></g><g id="g978"><path id="path980" d="M36.02 28.892h-1.058" stroke="#333" stroke-miterlimit="10" stroke-linecap="round" stroke-linejoin="round"/></g><g id="g982"><path id="path984" d="M29.083 23.408h-4.999" stroke="#333" stroke-miterlimit="10" stroke-linecap="round" stroke-linejoin="round"/></g><g id="g986"><path id="path988" d="M36.02 23.408h-1.058" stroke="#333" stroke-miterlimit="10" stroke-linecap="round" stroke-linejoin="round"/></g><g id="g990"><path id="path992" d="M29.083 23.408h-4.999" stroke="#333" stroke-miterlimit="10" stroke-linecap="round" stroke-linejoin="round"/></g><g id="g994"><path id="path996" d="M36.02 23.408h-1.058" stroke="#333" stroke-miterlimit="10" stroke-linecap="round" stroke-linejoin="round"/></g><g id="g998"><path id="path1000" d="M36.02 34.376h-1.058" stroke="#333" stroke-miterlimit="10" stroke-linecap="round" stroke-linejoin="round"/></g><g id="g1002"><path id="path1004" d="M32.9 28.892h-1.057" stroke="#333" stroke-miterlimit="10" stroke-linecap="round" stroke-linejoin="round"/></g><g id="g1006"><path id="path1008" d="M32.9 28.892h-1.057" stroke="#333" stroke-miterlimit="10" stroke-linecap="round" stroke-linejoin="round"/></g><g id="g1010"><path id="path1012" d="M32.9 23.408h-1.057" stroke="#333" stroke-miterlimit="10" stroke-linecap="round" stroke-linejoin="round"/></g><g id="g1014"><path id="path1016" d="M32.9 23.408h-1.057" stroke="#333" stroke-miterlimit="10" stroke-linecap="round" stroke-linejoin="round"/></g><g id="g1018"><path id="path1020" d="M32.9 34.376h-1.057" stroke="#333" stroke-miterlimit="10" stroke-linecap="round" stroke-linejoin="round"/></g><g id="g1022"><path id="path1024" d="M33.897 37.118v1.336c0 .528.432.96.96.96h1.256c.528 0 .96-.432.96-.96v-1.336h-3.176Z" stroke="#333" stroke-miterlimit="10" stroke-linecap="round" stroke-linejoin="round"/></g><g id="g1026"><path id="path1028" d="M23.039 37.118v1.336c0 .528.432.96.96.96h1.256c.528 0 .96-.432.96-.96v-1.336h-3.176Z" stroke="#333" stroke-miterlimit="10" stroke-linecap="round" stroke-linejoin="round"/></g><g id="g1030"><path id="path1032" d="M28.89 20.666h-6.305c-.56 0-1.034.474-1.034 1.035v3.415c0 .56.473 1.034 1.034 1.034h14.941c.561 0 1.035-.473 1.035-1.034V21.7c0-.56-.474-1.035-1.035-1.035h-5.902" stroke="#333" stroke-miterlimit="10" stroke-linecap="round" stroke-linejoin="round"/></g><g id="g1034"><path id="path1036" d="M22.938 5.532v-.615c0-1.06-.924-1.83-1.843-1.76-.532.041-1.02-.293-1.121-.816C19.8 1.46 19.365.586 17.662.586H11.75a3.928 3.928 0 0 0-3.928 3.928v4.31c0 .914.74 1.654 1.654 1.654h6.708c1.5 0 2.804-.842 3.465-2.078.051-.096.197-.059.197.05 0 1.115.913 2.028 2.028 2.028.585 0 1.063-.478 1.063-1.063V8.266" stroke="#333" stroke-miterlimit="10" stroke-linecap="round" stroke-linejoin="round"/></g></g></g></g></g></g></g><defs><clipPath id="clip0_124_299"><path fill="#fff" d="M0 0h40v40H0z"/></clipPath></defs></svg>