<svg width="40" height="40" fill="none" xmlns="http://www.w3.org/2000/svg"><g id="accounts 1"><g id="g1143"><g id="g1145"><g id="Clip path group"><mask id="mask0_145_84" style="mask-type:luminance" maskUnits="userSpaceOnUse" x="0" y="0" width="40" height="40"><g id="clipPath1151"><path id="path1149" d="M0 0h40v40H0V0Z" fill="#fff"/></g></mask><g mask="url('#mask0_145_84')"><g id="g1147"><g id="g1153"><path id="path1155" d="M18.171 35.911h17.463c.96 0 1.74-.779 1.74-1.74V27.43" stroke="#333" stroke-miterlimit="10" stroke-linecap="round" stroke-linejoin="round"/></g><g id="g1157"><path id="path1159" d="M16.321.586H11.58c-.96 0-1.74.779-1.74 1.74V13.84" stroke="#333" stroke-miterlimit="10" stroke-linecap="round" stroke-linejoin="round"/></g><g id="g1161"><path id="path1163" d="M37.373 24.759V2.325c0-.96-.778-1.74-1.739-1.74H18.991" stroke="#333" stroke-miterlimit="10" stroke-linecap="round" stroke-linejoin="round"/></g><path id="path1165" d="M34 10.546H13.214V4.787H34v5.76Z" stroke="#333" stroke-miterlimit="10" stroke-linecap="round" stroke-linejoin="round"/><g id="g1167"><path id="path1169" d="M19.105 14.86c.193-.333.554-.557.968-.557h1.45a1.12 1.12 0 0 1 0 2.238h-.982" stroke="#333" stroke-miterlimit="10" stroke-linecap="round" stroke-linejoin="round"/></g><g id="g1171"><path id="path1173" d="M27.141 16.541h-1.45a1.12 1.12 0 1 1 0-2.238h1.45a1.12 1.12 0 1 1 0 2.238Z" stroke="#333" stroke-miterlimit="10" stroke-linecap="round" stroke-linejoin="round"/></g><g id="g1175"><path id="path1177" d="M32.76 16.541h-1.451a1.12 1.12 0 0 1 0-2.238h1.45a1.12 1.12 0 0 1 0 2.238Z" stroke="#333" stroke-miterlimit="10" stroke-linecap="round" stroke-linejoin="round"/></g><g id="g1179"><path id="path1181" d="M20.385 20h1.138a1.12 1.12 0 0 1 0 2.239h-1.45a1.12 1.12 0 0 1-1.12-1.12" stroke="#333" stroke-miterlimit="10" stroke-linecap="round" stroke-linejoin="round"/></g><g id="g1183"><path id="path1185" d="M27.141 22.239h-1.45a1.12 1.12 0 1 1 0-2.239h1.45a1.12 1.12 0 1 1 0 2.239Z" stroke="#333" stroke-miterlimit="10" stroke-linecap="round" stroke-linejoin="round"/></g><g id="g1187"><path id="path1189" d="M32.76 22.239h-1.451a1.12 1.12 0 0 1 0-2.239h1.45a1.12 1.12 0 0 1 0 2.239Z" stroke="#333" stroke-miterlimit="10" stroke-linecap="round" stroke-linejoin="round"/></g><g id="g1191"><path id="path1193" d="M18.953 25.698c0-.618.501-1.12 1.12-1.12h1.45a1.12 1.12 0 1 1 0 2.239H20.23" stroke="#333" stroke-miterlimit="10" stroke-linecap="round" stroke-linejoin="round"/></g><g id="g1195"><path id="path1197" d="M27.141 26.817h-1.45a1.12 1.12 0 0 1 0-2.239h1.45a1.12 1.12 0 1 1 0 2.239Z" stroke="#333" stroke-miterlimit="10" stroke-linecap="round" stroke-linejoin="round"/></g><g id="g1199"><path id="path1201" d="M32.76 26.817h-1.451a1.12 1.12 0 0 1 0-2.239h1.45a1.12 1.12 0 0 1 0 2.239Z" stroke="#333" stroke-miterlimit="10" stroke-linecap="round" stroke-linejoin="round"/></g><g id="g1203"><path id="path1205" d="M20.541 29.157h.982a1.12 1.12 0 0 1 0 2.238H20.23" stroke="#333" stroke-miterlimit="10" stroke-linecap="round" stroke-linejoin="round"/></g><g id="g1207"><path id="path1209" d="M27.141 31.395h-1.45a1.12 1.12 0 1 1 0-2.238h1.45a1.12 1.12 0 1 1 0 2.238Z" stroke="#333" stroke-miterlimit="10" stroke-linecap="round" stroke-linejoin="round"/></g><g id="g1211"><path id="path1213" d="M32.76 31.395h-1.451a1.12 1.12 0 0 1 0-2.238h1.45a1.12 1.12 0 0 1 0 2.238Z" stroke="#333" stroke-miterlimit="10" stroke-linecap="round" stroke-linejoin="round"/></g><g id="g1215"><path id="path1217" d="M2.627 33.603v3.271c0 1.235 2.697 2.264 6.272 2.493" stroke="#333" stroke-miterlimit="10" stroke-linecap="round" stroke-linejoin="round"/></g><g id="g1219"><path id="path1221" d="M11.57 39.385c3.737-.184 6.601-1.238 6.601-2.51v-3.272" stroke="#333" stroke-miterlimit="10" stroke-linecap="round" stroke-linejoin="round"/></g><g id="g1223"><path id="path1225" d="M17.705 32.734c.302.271.466.564.466.869 0 1.402-3.48 2.54-7.772 2.54-4.293 0-7.772-1.138-7.772-2.54 0-.757 1.011-1.436 2.617-1.9" stroke="#333" stroke-miterlimit="10" stroke-linecap="round" stroke-linejoin="round"/></g><g id="g1227"><path id="path1229" d="M4.835 27.443v3.271c0 1.403 3.48 2.54 7.773 2.54 4.292 0 7.772-1.137 7.772-2.54v-3.271" stroke="#333" stroke-miterlimit="10" stroke-linecap="round" stroke-linejoin="round"/></g><g id="g1231"><path id="path1233" d="M17.733 25.533c1.622.466 2.647 1.149 2.647 1.91 0 1.402-3.48 2.54-7.772 2.54-4.293 0-7.773-1.138-7.773-2.54 0-.31.17-.607.48-.88" stroke="#333" stroke-miterlimit="10" stroke-linecap="round" stroke-linejoin="round"/></g><g id="g1235"><path id="path1237" d="M2.627 21.283v3.271c0 1.403 3.48 2.54 7.772 2.54 4.293 0 7.772-1.137 7.772-2.54v-3.012" stroke="#333" stroke-miterlimit="10" stroke-linecap="round" stroke-linejoin="round"/></g><g id="g1239"><path id="path1241" d="M18.131 21.542c-.398 1.281-3.708 2.28-7.732 2.28-4.293 0-7.772-1.137-7.772-2.54 0-.651.751-1.245 1.986-1.695" stroke="#333" stroke-miterlimit="10" stroke-linecap="round" stroke-linejoin="round"/></g><g id="g1243"><path id="path1245" d="M4.835 16.38v3.272c0 1.403 3.48 2.54 7.773 2.54 4.292 0 7.772-1.137 7.772-2.54V16.38" stroke="#333" stroke-miterlimit="10" stroke-linecap="round" stroke-linejoin="round"/></g><g id="g1247"><path id="path1249" d="M20.38 16.38c0 1.403-3.48 2.54-7.772 2.54-4.293 0-7.773-1.137-7.773-2.54 0-1.402 3.48-2.54 7.773-2.54 4.292 0 7.772 1.138 7.772 2.54Z" stroke="#333" stroke-miterlimit="10" stroke-linecap="round" stroke-linejoin="round"/></g><g id="g1251"><path id="path1253" d="M5.376 12.154h1.981" stroke="#333" stroke-miterlimit="10" stroke-linecap="round" stroke-linejoin="round"/></g><g id="g1255"><path id="path1257" d="M5.376 10.338h1.981" stroke="#333" stroke-miterlimit="10" stroke-linecap="round" stroke-linejoin="round"/></g><g id="g1259"><path id="path1261" d="M7.361 8.324h-.008" stroke="#333" stroke-miterlimit="10" stroke-linecap="round" stroke-linejoin="round"/></g></g></g></g></g></g></g></svg>