<svg width="40" height="40" fill="none" xmlns="http://www.w3.org/2000/svg"><g id="software-developer 1"><g id="g4398"><g id="g4400"><g id="Clip path group"><mask id="mask0_124_643" style="mask-type:luminance" maskUnits="userSpaceOnUse" x="0" y="0" width="40" height="40"><g id="clipPath4406"><path id="path4404" d="M0 0h40v40H0V0Z" fill="#fff"/></g></mask><g mask="url('#mask0_124_643')"><g id="g4402"><g id="g4408"><path id="path4410" d="M10.236 7.18h-8.02C1.423 7.18.78 7.823.78 8.694v20.708c0 .713.642 1.355 1.435 1.355h28.117c.793 0 1.435-.642 1.435-1.355V18.807l-1.303-.08c-.591 0-1.07-.479-1.07-1.07v-.763c0-.808-.927-1.453-1.721-.994l-.661.382a1.07 1.07 0 0 1-1.463-.392l-1.232-2.133a1.071 1.071 0 0 1 .392-1.463l.66-.381c.732-.423.732-1.566 0-1.987l-.66-.381a1.071 1.071 0 0 1-.392-1.463l.52-.902h-7.586" stroke="#333" stroke-miterlimit="10" stroke-linecap="round" stroke-linejoin="round"/></g><g id="g4412"><path id="path4414" d="M31.768 26.781v2.621c0 .713-.642 1.355-1.435 1.355H2.216c-.793 0-1.435-.642-1.435-1.355v-2.62h30.987Z" stroke="#333" stroke-miterlimit="10" stroke-linecap="round" stroke-linejoin="round"/></g><g id="g4424"><path id="path4426" d="m20.285 34.895-.482-4.138h-6.26l-.482 4.138a2.247 2.247 0 0 1-2.235 1.992c-.038.002.038.003 0 .003H22.52c-.038 0 .039-.001 0-.003a2.247 2.247 0 0 1-2.235-1.992Z" stroke="#333" stroke-miterlimit="10" stroke-linecap="round" stroke-linejoin="round"/></g><g id="g4428"><path id="path4430" d="M10.826 36.89H9.9" stroke="#333" stroke-miterlimit="10" stroke-linecap="round" stroke-linejoin="round"/></g><g id="g4432"><path id="path4434" d="M23.445 36.89h-.925" stroke="#333" stroke-miterlimit="10" stroke-linecap="round" stroke-linejoin="round"/></g><g id="g4436"><path id="path4438" d="m7.24 15.306-2.221-2.333 2.22-2.334" stroke="#333" stroke-miterlimit="10" stroke-linecap="round" stroke-linejoin="round"/></g><g id="g4440"><path id="path4442" d="m16.016 15.306 2.22-2.333-2.22-2.334" stroke="#333" stroke-miterlimit="10" stroke-linecap="round" stroke-linejoin="round"/></g><g id="g4444"><path id="path4446" d="m13.111 10.64-2.875 4.666" stroke="#333" stroke-miterlimit="10" stroke-linecap="round" stroke-linejoin="round"/></g><g id="g4448"><path id="path4450" d="M18.383 18.83H5.019" stroke="#333" stroke-miterlimit="10" stroke-linecap="round" stroke-linejoin="round"/></g><g id="g4452"><path id="path4454" d="M14.577 22.794H5.02" stroke="#333" stroke-miterlimit="10" stroke-linecap="round" stroke-linejoin="round"/></g><g id="g4456"><path id="path4458" d="M25.443 22.794h-6.674" stroke="#333" stroke-miterlimit="10" stroke-linecap="round" stroke-linejoin="round"/></g><g id="g4468"><path id="path4470" d="M31.697 8.446a2.473 2.473 0 1 1 0 4.946 2.473 2.473 0 0 1 0-4.946ZM24.71 9.544l.66.382c.731.421.731 1.564 0 1.987l-.661.381a1.07 1.07 0 0 0-.392 1.463l1.232 2.133c.296.512.95.688 1.463.392l.66-.382c.795-.458 1.721.186 1.721.993v.764c0 .591.48 1.07 1.07 1.07h2.465c.591 0 1.07-.479 1.07-1.07v-.764c0-.807.927-1.451 1.72-.993l.662.382a1.07 1.07 0 0 0 1.462-.392l1.232-2.133a1.07 1.07 0 0 0-.392-1.463l-.66-.381c-.73-.422-.733-1.565 0-1.987l.66-.382a1.07 1.07 0 0 0 .392-1.462l-1.232-2.134a1.07 1.07 0 0 0-1.462-.392l-.661.382c-.795.458-1.72-.186-1.72-.993V4.18c0-.591-.48-1.07-1.071-1.07h-2.464c-.591 0-1.07.479-1.07 1.07v.764c0 .807-.927 1.451-1.721.993l-.661-.382a1.07 1.07 0 0 0-1.463.392l-1.232 2.134a1.07 1.07 0 0 0 .392 1.462Z" stroke="#333" stroke-miterlimit="10" stroke-linecap="round" stroke-linejoin="round"/></g></g></g></g></g></g></g></svg>