<svg width="1283" height="615" viewBox="0 0 1283 615" fill="none" xmlns="http://www.w3.org/2000/svg">
<path opacity="0.15" d="M296 217.972C296 338.378 198.386 436 77.9897 436C50.527 436 24.192 430.924 0 421.619V14.3811C24.192 5.07567 50.527 0 77.9897 0C198.386 0 296 97.622 296 217.972Z" fill="url('#paint0_linear_1132_102')"></path>
<path opacity="0.15" d="M705 615C765.199 615 814 566.199 814 506C814 445.801 765.199 397 705 397C644.801 397 596 445.801 596 506C596 566.199 644.801 615 705 615Z" fill="url('#paint1_linear_1132_102')"></path>
<path opacity="0.15" d="M1236.5 93C1262.18 93 1283 72.1812 1283 46.5C1283 20.8188 1262.18 0 1236.5 0C1210.82 0 1190 20.8188 1190 46.5C1190 72.1812 1210.82 93 1236.5 93Z" fill="url('#paint2_linear_1132_102')"></path>
<path opacity="0.15" d="M1109.5 511C1118.06 511 1125 504.06 1125 495.5C1125 486.94 1118.06 480 1109.5 480C1100.94 480 1094 486.94 1094 495.5C1094 504.06 1100.94 511 1109.5 511Z" fill="url('#paint3_linear_1132_102')"></path>
<defs>
<linearGradient id="paint0_linear_1132_102" x1="-31.1233" y1="-14.7797" x2="441.175" y2="295.279" gradientUnits="userSpaceOnUse">
<stop stop-color="#FFDF00"></stop>
<stop offset="1" stop-color="#FFB800"></stop>
</linearGradient>
<linearGradient id="paint1_linear_1132_102" x1="573.078" y1="389.61" x2="830.305" y2="638.347" gradientUnits="userSpaceOnUse">
<stop stop-color="#FFDF00"></stop>
<stop offset="1" stop-color="#FFB800"></stop>
</linearGradient>
<linearGradient id="paint2_linear_1132_102" x1="1180.22" y1="-3.15254" x2="1289.96" y2="102.96" gradientUnits="userSpaceOnUse">
<stop stop-color="#FFDF00"></stop>
<stop offset="1" stop-color="#FFB800"></stop>
</linearGradient>
<linearGradient id="paint3_linear_1132_102" x1="1090.74" y1="478.949" x2="1127.32" y2="514.32" gradientUnits="userSpaceOnUse">
<stop stop-color="#FFDF00"></stop>
<stop offset="1" stop-color="#FFB800"></stop>
</linearGradient>
</defs>
</svg>
