<svg xmlns="http://www.w3.org/2000/svg" style="display: none">
<symbol id="icon-logo" viewBox="0 0 127 32">
<path fill="#333" style="fill: var(--color1, #333)" d="M31.045 24.668h2.567v-19h6.557v-2.111h-9.124v21.111zM44.439 23.558c0.373-0.637 0.719-1.362 0.887-2.091 0.238-1.012 0.277-2.828 0.337-3.061 0.040-0.156 0.060-4.402 0.060-12.738l5.004 0.009v19.093h2.533v-21.214h-9.917v14.849c-0.019 0.802-0.219 1.829-0.397 2.608-0.124 0.546-0.12 0.74-0.397 1.218-0.204 0.355-0.814 0.742-1.163 0.932-0.334 0.166-0.7 0.25-1.069 0.244v1.361c0.154 0.068 0.314 0.119 0.478 0.152 0.395 0.108 0.802 0.159 1.21 0.151 0.458-0.002 0.908-0.127 1.308-0.363 0.459-0.28 0.846-0.675 1.126-1.152zM60.081 13.071c-0.601-0.665-0.901-1.792-0.902-3.384s0.301-2.718 0.902-3.383c0.601-0.665 1.561-0.997 2.88-0.997h2.035v8.76h-2.035c-1.318-0-2.278-0.333-2.879-0.997zM59.178 16.603c-0.43 0.702-0.726 1.481-0.873 2.296l-0.581 2.567c-0.119 0.534-0.37 1.028-0.727 1.435-0.44 0.392-1.018 0.583-1.6 0.528v1.362c0.181 0.062 0.366 0.112 0.553 0.151 0.389 0.106 0.79 0.157 1.193 0.151 1.648 0 2.763-1.208 3.344-3.625l0.582-2.567c0.252-1.047 0.63-1.762 1.134-2.144 0.466-0.369 1.039-0.571 1.628-0.574h1.163v8.608h2.618v-20.841c-0.727-0.219-1.472-0.376-2.224-0.468-0.806-0.094-1.617-0.139-2.428-0.136-1-0.020-1.997 0.097-2.967 0.348-0.743 0.191-1.424 0.576-1.977 1.118-0.527 0.553-0.907 1.233-1.107 1.978-0.25 0.945-0.367 1.921-0.349 2.9-0.015 0.81 0.103 1.616 0.349 2.386 0.202 0.627 0.507 1.214 0.902 1.737 0.343 0.452 0.774 0.827 1.265 1.102 0.439 0.249 0.916 0.423 1.41 0.514v0.122c-0.539 0.188-1.001 0.561-1.308 1.054zM80.357 3.557v9.35h-6.195v-9.35h-2.655v21.111h2.655v-9.651h6.195v9.651h2.655v-21.111h-2.655zM89.604 14.716h6.416v-2.111h-6.416v-6.937h7.292v-2.111h-9.917v21.111h9.916v-2.111h-7.291v-7.841zM111.542 29.134h1.618v-6.62h-1.912v-18.957h-2.648v18.957h-5.883v-18.957h-2.648v21.064h10.589c0.085 1.539 0.382 3.058 0.884 4.514zM120.539 14.068c1.319 0 2.278 0.337 2.879 1.012s0.901 1.847 0.902 3.519c0 1.672-0.3 2.845-0.902 3.519s-1.561 1.012-2.879 1.012h-2.035v-9.061h2.035zM118.569 12.193v-8.636h-2.631v20.909c0.731 0.22 1.479 0.378 2.236 0.47 0.81 0.094 1.625 0.14 2.44 0.136 1.005 0.021 2.008-0.102 2.981-0.364 0.746-0.201 1.43-0.592 1.987-1.136 0.534-0.563 0.916-1.257 1.11-2.015 0.252-0.979 0.371-1.988 0.351-3 0-2.424-0.453-4.142-1.359-5.152s-2.304-1.515-4.194-1.515c-0.507 0.004-1.013 0.034-1.517 0.091-0.472 0.046-0.94 0.117-1.404 0.212z"></path>
<path fill="#ffe30b" style="fill: var(--color2, #ffe30b)" d="M15.136 3.343c-6.919 2.319-12.756 7.046-15.136 14.090 2.353 6.963 8.135 11.743 15.136 14.090 6.226-4.77 9.621-8.6 12.118-14.090-3.585-2.392-5.091-3.623-7.997-7.323-3.894 1.797-7.284 3.891-10.286 7.247 1.078 1.525 2.867 2.949 4.313 4.118 2.108-1.539 3.716-3.039 4.757-4.326 0.653 0.793 1.389 1.32 2.090 1.761-1.811 3.062-3.844 4.743-6.354 6.349-3.77-1.983-6.801-5.416-8.274-8.319 2.761-4.523 7.091-7.577 12.011-9.279-0.797-1.387-1.842-2.679-2.378-4.318z"></path>
<path fill="#333" style="fill: var(--color1, #333)" d="M32.361 30.636c0.728 0 1.232-0.562 1.232-1.456 0-0.9-0.504-1.45-1.232-1.45-0.39 0-0.734 0.201-0.934 0.481v-0.413h-0.43v3.823h0.43v-1.473c0.224 0.309 0.556 0.487 0.934 0.487zM32.252 30.252c-0.338 0-0.676-0.206-0.825-0.447v-1.249c0.149-0.241 0.487-0.441 0.825-0.441 0.556 0 0.888 0.453 0.888 1.066s-0.332 1.072-0.888 1.072z"></path>
<path fill="#333" style="fill: var(--color1, #333)" d="M35.486 30.636c0.843 0 1.37-0.653 1.37-1.456s-0.527-1.45-1.37-1.45c-0.843 0-1.37 0.648-1.37 1.45s0.527 1.456 1.37 1.456zM35.486 30.252c-0.59 0-0.923-0.504-0.923-1.072 0-0.562 0.332-1.066 0.923-1.066s0.917 0.504 0.917 1.066c0 0.567-0.327 1.072-0.917 1.072z"></path>
<path fill="#333" style="fill: var(--color1, #333)" d="M38.537 30.636c0.797 0 1.267-0.344 1.267-0.808 0-0.459-0.481-0.653-0.802-0.676 0.327-0.040 0.745-0.264 0.745-0.676 0-0.47-0.527-0.745-1.272-0.739-0.504 0-0.877 0.178-1.135 0.441l0.224 0.264c0.235-0.241 0.539-0.355 0.928-0.355 0.459 0 0.808 0.178 0.808 0.441 0 0.315-0.361 0.464-0.82 0.464h-0.619v0.35h0.619c0.487 0 0.871 0.115 0.871 0.459 0 0.292-0.321 0.481-0.814 0.481-0.413 0-0.779-0.126-1.037-0.373l-0.212 0.275c0.275 0.275 0.694 0.453 1.249 0.453z"></path>
<path fill="#333" style="fill: var(--color1, #333)" d="M41.865 30.636c0.728 0 1.232-0.562 1.232-1.456 0-0.9-0.504-1.45-1.232-1.45-0.39 0-0.734 0.201-0.934 0.481v-0.413h-0.43v3.823h0.43v-1.473c0.224 0.309 0.556 0.487 0.934 0.487zM41.756 30.252c-0.338 0-0.676-0.206-0.825-0.447v-1.249c0.149-0.241 0.487-0.441 0.825-0.441 0.556 0 0.888 0.453 0.888 1.066s-0.332 1.072-0.888 1.072z"></path>
<path fill="#333" style="fill: var(--color1, #333)" d="M44.99 30.636c0.843 0 1.37-0.653 1.37-1.456s-0.527-1.45-1.37-1.45c-0.843 0-1.37 0.648-1.37 1.45s0.527 1.456 1.37 1.456zM44.99 30.252c-0.59 0-0.923-0.504-0.923-1.072 0-0.562 0.332-1.066 0.923-1.066s0.917 0.504 0.917 1.066c0 0.567-0.327 1.072-0.917 1.072z"></path>
<path fill="#333" style="fill: var(--color1, #333)" d="M48.27 30.252c-0.59 0-0.923-0.504-0.923-1.078 0-0.556 0.332-1.060 0.923-1.060s0.917 0.504 0.917 1.060c0 0.573-0.327 1.078-0.917 1.078zM48.27 30.636c0.854 0 1.364-0.665 1.364-1.462 0-0.785-0.51-1.444-1.295-1.444-0.493 0-0.843 0.275-1.043 0.59 0.097-0.47 0.344-0.825 1.164-0.94 0.47-0.063 1.089-0.183 1.089-0.636h-0.418c0 0.115-0.172 0.189-0.779 0.281-0.963 0.126-1.45 0.682-1.45 2.029 0 0.917 0.522 1.582 1.37 1.582z"></path>
<path fill="#333" style="fill: var(--color1, #333)" d="M52.804 30.567l-1.232-1.513 1.227-1.255h-0.544l-1.456 1.473v-1.473h-0.43v2.768h0.43v-0.791l0.459-0.453 0.997 1.244h0.55z"></path>
<path fill="#333" style="fill: var(--color1, #333)" d="M55.473 30.567v-1.903c0-0.671-0.487-0.934-1.072-0.934-0.453 0-0.808 0.149-1.106 0.459l0.201 0.298c0.246-0.264 0.516-0.384 0.848-0.384 0.401 0 0.699 0.212 0.699 0.585v0.499c-0.224-0.258-0.539-0.378-0.917-0.378-0.47 0-0.969 0.292-0.969 0.911 0 0.602 0.499 0.917 0.969 0.917 0.373 0 0.688-0.132 0.917-0.384v0.315h0.43zM54.281 30.326c-0.401 0-0.682-0.252-0.682-0.602 0-0.355 0.281-0.608 0.682-0.608 0.304 0 0.596 0.115 0.762 0.344v0.522c-0.166 0.229-0.459 0.344-0.762 0.344z"></path>
<path fill="#333" style="fill: var(--color1, #333)" d="M58.747 30.567v-2.39h0.808v-0.378h-2.040v0.378h0.802v2.39h0.43z"></path>
<path fill="#333" style="fill: var(--color1, #333)" d="M62.279 30.567v-1.903c0-0.671-0.487-0.934-1.072-0.934-0.453 0-0.808 0.149-1.106 0.459l0.201 0.298c0.246-0.264 0.516-0.384 0.848-0.384 0.401 0 0.699 0.212 0.699 0.585v0.499c-0.224-0.258-0.539-0.378-0.917-0.378-0.47 0-0.969 0.292-0.969 0.911 0 0.602 0.499 0.917 0.969 0.917 0.373 0 0.688-0.132 0.917-0.384v0.315h0.43zM61.087 30.326c-0.401 0-0.682-0.252-0.682-0.602 0-0.355 0.281-0.608 0.682-0.608 0.304 0 0.596 0.115 0.762 0.344v0.522c-0.166 0.229-0.459 0.344-0.762 0.344z"></path>
<path fill="#333" style="fill: var(--color1, #333)" d="M66.922 30.567v-2.768h-2.304v2.768h0.43v-2.39h1.444v2.39h0.43z"></path>
<path fill="#333" style="fill: var(--color1, #333)" d="M67.993 27.404c0.16 0 0.292-0.126 0.292-0.287s-0.132-0.292-0.292-0.292c-0.155 0-0.287 0.132-0.287 0.292s0.132 0.287 0.287 0.287zM68.211 30.567v-2.768h-0.43v2.768h0.43z"></path>
<path fill="#333" style="fill: var(--color1, #333)" d="M68.741 31.272h0.43v-0.705h2.092v0.705h0.43v-1.083h-0.321v-2.39h-1.926l-0.178 1.364c-0.109 0.82-0.269 1.003-0.527 1.049v1.060zM69.824 28.177h1.118v2.012h-1.645c0.201-0.16 0.332-0.453 0.401-0.974l0.126-1.037z"></path>
<path fill="#333" style="fill: var(--color1, #333)" d="M73.215 30.567v-2.39h0.808v-0.378h-2.040v0.378h0.802v2.39h0.43z"></path>
<path fill="#333" style="fill: var(--color1, #333)" d="M75.951 30.636c0.728 0 1.232-0.562 1.232-1.456 0-0.9-0.504-1.45-1.232-1.45-0.39 0-0.734 0.201-0.934 0.481v-0.413h-0.43v3.823h0.43v-1.473c0.224 0.309 0.556 0.487 0.934 0.487zM75.842 30.252c-0.338 0-0.676-0.206-0.825-0.447v-1.249c0.149-0.241 0.487-0.441 0.825-0.441 0.556 0 0.888 0.453 0.888 1.066s-0.332 1.072-0.888 1.072z"></path>
<path fill="#333" style="fill: var(--color1, #333)" d="M78.279 30.567l1.462-2.155v2.155h0.43v-2.768h-0.424l-1.45 2.115v-2.115h-0.43v2.768h0.413z"></path>
<path fill="#333" style="fill: var(--color1, #333)" d="M83.854 30.567v-2.768h-0.573l-0.837 2.052-0.848-2.052h-0.567v2.768h0.43v-2.172l0.906 2.172h0.16l0.9-2.172v2.172h0.43z"></path>
<path fill="#333" style="fill: var(--color1, #333)" d="M87.147 30.567l-1.232-1.513 1.227-1.255h-0.544l-1.456 1.473v-1.473h-0.43v2.768h0.43v-0.791l0.459-0.453 0.997 1.244h0.55z"></path>
<path fill="#333" style="fill: var(--color1, #333)" d="M89.816 30.567v-1.903c0-0.671-0.487-0.934-1.072-0.934-0.453 0-0.808 0.149-1.106 0.459l0.201 0.298c0.246-0.264 0.516-0.384 0.848-0.384 0.401 0 0.699 0.212 0.699 0.585v0.499c-0.224-0.258-0.539-0.378-0.917-0.378-0.47 0-0.969 0.292-0.969 0.911 0 0.602 0.499 0.917 0.969 0.917 0.373 0 0.688-0.132 0.917-0.384v0.315h0.43zM88.624 30.326c-0.401 0-0.682-0.252-0.682-0.602 0-0.355 0.281-0.608 0.682-0.608 0.304 0 0.596 0.115 0.762 0.344v0.522c-0.166 0.229-0.459 0.344-0.762 0.344z"></path>
<path fill="#333" style="fill: var(--color1, #333)" d="M93.376 30.636c0.504 0 0.802-0.206 1.014-0.481l-0.287-0.264c-0.183 0.246-0.418 0.361-0.705 0.361-0.59 0-0.957-0.459-0.957-1.072s0.367-1.066 0.957-1.066c0.287 0 0.522 0.109 0.705 0.361l0.287-0.264c-0.212-0.275-0.51-0.481-1.014-0.481-0.825 0-1.381 0.63-1.381 1.45 0 0.825 0.556 1.456 1.381 1.456z"></path>
<path fill="#333" style="fill: var(--color1, #333)" d="M97.154 30.567v-1.903c0-0.671-0.487-0.934-1.072-0.934-0.453 0-0.808 0.149-1.106 0.459l0.201 0.298c0.246-0.264 0.516-0.384 0.848-0.384 0.401 0 0.699 0.212 0.699 0.585v0.499c-0.224-0.258-0.539-0.378-0.917-0.378-0.47 0-0.969 0.292-0.969 0.911 0 0.602 0.499 0.917 0.969 0.917 0.373 0 0.688-0.132 0.917-0.384v0.315h0.43zM95.962 30.326c-0.401 0-0.682-0.252-0.682-0.602 0-0.355 0.281-0.608 0.682-0.608 0.304 0 0.596 0.115 0.762 0.344v0.522c-0.166 0.229-0.459 0.344-0.762 0.344z"></path>
<path fill="#333" style="fill: var(--color1, #333)" d="M98.428 30.567l1.462-2.155v2.155h0.43v-2.768h-0.424l-1.45 2.115v-2.115h-0.43v2.768h0.413zM100.171 26.979l-0.212-0.183c-0.178 0.258-0.459 0.413-0.791 0.413-0.338 0-0.613-0.16-0.797-0.413l-0.212 0.183c0.235 0.309 0.602 0.504 1.009 0.504 0.413 0 0.774-0.195 1.003-0.504z"></path>
<path fill="#333" style="fill: var(--color1, #333)" d="M102.112 30.567v-2.39h0.808v-0.378h-2.040v0.378h0.802v2.39h0.43z"></path>
<path fill="#333" style="fill: var(--color1, #333)" d="M103.696 27.404c0.16 0 0.292-0.126 0.292-0.287s-0.132-0.292-0.292-0.292c-0.155 0-0.287 0.132-0.287 0.292s0.132 0.287 0.287 0.287zM103.914 30.567v-2.768h-0.43v2.768h0.43z"></path>
<path fill="#333" style="fill: var(--color1, #333)" d="M106.325 30.567c0.51 0 0.808-0.304 0.808-0.751 0-0.315-0.224-0.608-0.504-0.676 0.235-0.075 0.447-0.298 0.447-0.63 0-0.418-0.292-0.711-0.779-0.711h-1.525v2.768h1.553zM106.239 30.189h-1.037v-0.854h1.037c0.292 0 0.447 0.206 0.447 0.43 0 0.264-0.172 0.424-0.447 0.424zM106.221 28.957h-1.020v-0.779h1.020c0.264 0 0.413 0.155 0.413 0.395 0 0.218-0.143 0.384-0.413 0.384z"></path>
<path fill="#333" style="fill: var(--color1, #333)" d="M121.245 2.866v-2.39h0.808v-0.378h-2.040v0.378h0.802v2.39h0.43z"></path>
<path fill="#333" style="fill: var(--color1, #333)" d="M125.442 2.866v-2.768h-0.573l-0.837 2.052-0.848-2.052h-0.567v2.768h0.43v-2.172l0.906 2.172h0.16l0.9-2.172v2.172h0.43z"></path>
</symbol>
<symbol id="icon-facebook" viewBox="0 0 32 32">
<path fill="#3b5998" style="fill: var(--color1, #3b5998)" d="M0 16c0-8.837 7.163-16 16-16s16 7.163 16 16c0 8.837-7.163 16-16 16s-16-7.163-16-16z"></path>
<path fill="#3b5998" style="fill: var(--color1, #3b5998)" d="M4.571 0h22.857c2.525 0 4.571 2.047 4.571 4.571v22.857c0 2.525-2.047 4.571-4.571 4.571h-22.857c-2.525 0-4.571-2.047-4.571-4.571v-22.857c0-2.525 2.047-4.571 4.571-4.571z"></path>
<path fill="#fff" style="fill: var(--color2, #fff)" d="M17.668 25.408v-8.705h2.403l0.318-3h-2.721l0.004-1.501c0-0.782 0.074-1.202 1.198-1.202h1.502v-3h-2.403c-2.887 0-3.903 1.455-3.903 3.902v1.801h-1.799v3h1.799v8.704h3.602z"></path>
</symbol>
<symbol id="icon-instIcon" viewBox="0 0 32 32">
<path fill="#000" style="fill: var(--color1, #000)" d="M0 16c0-8.837 7.163-16 16-16s16 7.163 16 16c0 8.837-7.163 16-16 16s-16-7.163-16-16z"></path>
<path fill="#000" style="fill: var(--color1, #000)" d="M4.571 0h22.857c2.525 0 4.571 2.047 4.571 4.571v22.857c0 2.525-2.047 4.571-4.571 4.571h-22.857c-2.525 0-4.571-2.047-4.571-4.571v-22.857c0-2.525 2.047-4.571 4.571-4.571z"></path>
<path fill="#fff" style="fill: var(--color2, #fff)" d="M11.619 16c0-2.42 1.962-4.382 4.382-4.382s4.382 1.962 4.382 4.382-1.961 4.381-4.382 4.381c-2.42 0-4.382-1.961-4.382-4.381zM18.845 16c0-1.571-1.274-2.844-2.844-2.844s-2.845 1.273-2.845 2.844c0 1.571 1.273 2.844 2.845 2.844s2.844-1.274 2.844-2.844z"></path>
<path fill="#fff" style="fill: var(--color2, #fff)" d="M19.532 11.445c0-0.566 0.459-1.024 1.024-1.024s1.024 0.458 1.024 1.024c0 0.565-0.459 1.024-1.024 1.024s-1.024-0.459-1.024-1.024z"></path>
<path fill="#fff" style="fill: var(--color2, #fff)" d="M12.482 7.518c0.91-0.041 1.201-0.052 3.519-0.052h-0.003c2.318 0 2.608 0.010 3.518 0.052 0.908 0.042 1.529 0.185 2.073 0.396 0.562 0.218 1.036 0.509 1.511 0.984s0.766 0.95 0.985 1.512c0.21 0.543 0.354 1.163 0.397 2.071 0.041 0.91 0.052 1.201 0.052 3.519s-0.011 2.608-0.052 3.518c-0.043 0.908-0.187 1.528-0.397 2.071-0.219 0.561-0.51 1.037-0.985 1.512s-0.95 0.767-1.511 0.985c-0.543 0.211-1.164 0.355-2.072 0.396-0.91 0.041-1.2 0.052-3.518 0.052s-2.608-0.010-3.518-0.052c-0.908-0.042-1.528-0.185-2.072-0.396-0.561-0.218-1.037-0.51-1.511-0.985s-0.766-0.95-0.984-1.512c-0.211-0.543-0.355-1.163-0.396-2.071-0.041-0.91-0.052-1.2-0.052-3.518s0.011-2.609 0.051-3.519c0.041-0.908 0.185-1.528 0.396-2.071 0.219-0.561 0.51-1.037 0.985-1.511s0.95-0.766 1.512-0.984c0.543-0.211 1.163-0.355 2.071-0.396zM15.716 9.004c-0.173-0-0.333-0-0.481 0v-0.002c-1.59 0.002-1.895 0.012-2.683 0.048-0.832 0.038-1.284 0.177-1.585 0.294-0.398 0.155-0.683 0.34-0.981 0.639s-0.484 0.583-0.639 0.981c-0.117 0.301-0.256 0.752-0.294 1.584-0.041 0.9-0.049 1.168-0.049 3.447s0.008 2.549 0.049 3.449c0.038 0.832 0.177 1.284 0.294 1.584 0.155 0.398 0.34 0.682 0.639 0.981s0.583 0.484 0.981 0.638c0.301 0.117 0.752 0.256 1.585 0.294 0.9 0.041 1.17 0.050 3.448 0.050s2.549-0.009 3.448-0.050c0.832-0.038 1.284-0.177 1.584-0.294 0.398-0.155 0.682-0.34 0.981-0.638s0.484-0.582 0.639-0.98c0.117-0.3 0.256-0.752 0.294-1.584 0.041-0.9 0.050-1.17 0.050-3.447s-0.009-2.548-0.050-3.447c-0.038-0.832-0.177-1.284-0.294-1.584-0.155-0.398-0.34-0.683-0.639-0.981s-0.582-0.484-0.981-0.638c-0.301-0.117-0.752-0.256-1.584-0.294-0.9-0.041-1.17-0.049-3.448-0.049l-0.284-0z"></path>
</symbol>
<symbol id="icon-viberIcon" viewBox="0 0 32 32">
<path fill="#675da9" style="fill: var(--color3, #675da9)" d="M16 32c8.837 0 16-7.163 16-16s-7.163-16-16-16c-8.837 0-16 7.163-16 16s7.163 16 16 16z"></path>
<path fill="#675da9" style="fill: var(--color3, #675da9)" d="M4.571 0h22.857c2.525 0 4.571 2.047 4.571 4.571v22.857c0 2.525-2.047 4.571-4.571 4.571h-22.857c-2.525 0-4.571-2.047-4.571-4.571v-22.857c0-2.525 2.047-4.571 4.571-4.571z"></path>
<path fill="#fff" style="fill: var(--color2, #fff)" d="M24.985 11.977l-0.006-0.023c-0.454-1.85-2.5-3.835-4.379-4.248l-0.021-0.004c-3.039-0.585-6.12-0.585-9.159 0l-0.022 0.004c-1.878 0.413-3.924 2.398-4.379 4.248l-0.005 0.023c-0.561 2.584-0.561 5.204 0 7.787l0.005 0.023c0.435 1.771 2.329 3.665 4.137 4.186v2.065c0 0.747 0.903 1.114 1.417 0.575l2.075-2.175c0.45 0.025 0.9 0.040 1.351 0.040 1.53 0 3.060-0.146 4.579-0.438l0.021-0.004c1.879-0.413 3.925-2.398 4.379-4.248l0.006-0.023c0.561-2.584 0.561-5.204 0-7.787zM23.343 19.39c-0.303 1.207-1.856 2.707-3.091 2.985-1.616 0.31-3.245 0.442-4.872 0.397-0.032-0.001-0.064 0.012-0.086 0.035-0.231 0.239-1.515 1.568-1.515 1.568l-1.611 1.668c-0.118 0.124-0.325 0.040-0.325-0.131v-3.421c0-0.056-0.040-0.105-0.095-0.115l-0.001-0c-1.234-0.277-2.787-1.778-3.091-2.985-0.505-2.335-0.505-4.703 0-7.038 0.304-1.207 1.856-2.707 3.091-2.985 2.822-0.541 5.683-0.541 8.505 0 1.235 0.277 2.788 1.778 3.091 2.985 0.506 2.335 0.506 4.703 0 7.038z"></path>
<path fill="#fff" style="fill: var(--color2, #fff)" d="M18.685 20.969c-0.19-0.058-0.371-0.097-0.538-0.167-1.74-0.728-3.342-1.667-4.61-3.107-0.721-0.819-1.286-1.743-1.763-2.721-0.226-0.464-0.417-0.946-0.612-1.425-0.177-0.437 0.084-0.888 0.359-1.217 0.258-0.309 0.59-0.545 0.95-0.719 0.281-0.136 0.557-0.058 0.762 0.182 0.443 0.519 0.85 1.064 1.18 1.665 0.203 0.37 0.147 0.822-0.22 1.073-0.089 0.061-0.171 0.133-0.254 0.202-0.073 0.061-0.142 0.122-0.192 0.204-0.091 0.15-0.096 0.327-0.037 0.49 0.453 1.255 1.216 2.231 2.469 2.757 0.201 0.084 0.402 0.182 0.633 0.155 0.387-0.046 0.512-0.473 0.783-0.697 0.265-0.218 0.604-0.221 0.889-0.039s0.562 0.378 0.837 0.575c0.27 0.194 0.539 0.384 0.788 0.605 0.239 0.213 0.322 0.492 0.187 0.78-0.247 0.528-0.606 0.968-1.124 1.249-0.146 0.079-0.321 0.105-0.486 0.156 0.165-0.051-0.19-0.058 0 0zM16.005 11.007c2.276 0.064 4.146 1.588 4.547 3.857 0.068 0.387 0.093 0.782 0.123 1.174 0.013 0.165-0.080 0.322-0.257 0.324-0.183 0.002-0.265-0.152-0.276-0.317-0.023-0.327-0.040-0.655-0.084-0.979-0.236-1.71-1.588-3.124-3.276-3.428-0.254-0.046-0.514-0.058-0.771-0.085-0.163-0.017-0.376-0.027-0.412-0.231-0.030-0.171 0.113-0.307 0.274-0.316 0.044-0.002 0.088-0 0.132-0 2.276 0.064-0.044-0 0 0z"></path>
<path fill="#fff" style="fill: var(--color2, #fff)" d="M19.464 15.529c-0.004 0.029-0.006 0.096-0.022 0.16-0.060 0.23-0.407 0.259-0.487 0.027-0.024-0.069-0.027-0.148-0.027-0.222-0.001-0.486-0.106-0.972-0.349-1.395-0.25-0.435-0.632-0.8-1.080-1.021-0.271-0.134-0.564-0.217-0.86-0.266-0.13-0.022-0.261-0.035-0.391-0.053-0.158-0.022-0.242-0.124-0.235-0.281 0.007-0.147 0.114-0.253 0.273-0.244 0.522 0.030 1.027 0.144 1.491 0.392 0.944 0.504 1.484 1.3 1.641 2.363 0.007 0.048 0.019 0.096 0.022 0.144 0.009 0.119 0.015 0.239 0.024 0.396-0.004 0.029-0.009-0.157 0 0z"></path>
<path fill="#fff" style="fill: var(--color2, #fff)" d="M18.048 15.474c-0.19 0.003-0.292-0.103-0.312-0.279-0.014-0.123-0.024-0.247-0.053-0.367-0.057-0.235-0.181-0.453-0.377-0.597-0.093-0.068-0.198-0.118-0.308-0.15-0.14-0.041-0.285-0.029-0.424-0.064-0.151-0.037-0.235-0.161-0.211-0.304 0.022-0.13 0.147-0.232 0.289-0.222 0.883 0.064 1.513 0.524 1.603 1.572 0.006 0.074 0.014 0.152-0.002 0.223-0.028 0.121-0.117 0.182-0.203 0.188 0.087-0.006-0.19 0.003 0 0z"></path>
</symbol>
<symbol id="icon-Arrow" viewBox="0 0 22 32">
<path stroke="#333333" stroke-linejoin="bevel" stroke-linecap="square" stroke-miterlimit="4" stroke-width="1.1034" d="M11.096 0.551v30.897M11.096 31.448l9.931-9.931M11.096 31.448l-9.931-9.931"></path>
</symbol>
</svg>