<svg xmlns="http://www.w3.org/2000/svg" style="display: none">
<symbol id="icon-logo" viewBox="0 0 127 32">
<path fill="#333" style="fill: var(--color1, #333)" d="M31.045 24.668h2.567v-19h6.557v-2.111h-9.124v21.111zM44.439 23.558c0.373-0.637 0.719-1.362 0.887-2.091 0.238-1.012 0.277-2.828 0.337-3.061 0.040-0.156 0.060-4.402 0.060-12.738l5.004 0.009v19.093h2.533v-21.214h-9.917v14.849c-0.019 0.802-0.219 1.829-0.397 2.608-0.124 0.546-0.12 0.74-0.397 1.218-0.204 0.355-0.814 0.742-1.163 0.932-0.334 0.166-0.7 0.25-1.069 0.244v1.361c0.154 0.068 0.314 0.119 0.478 0.152 0.395 0.108 0.802 0.159 1.21 0.151 0.458-0.002 0.908-0.127 1.308-0.363 0.459-0.28 0.846-0.675 1.126-1.152zM60.081 13.071c-0.601-0.665-0.901-1.792-0.902-3.384s0.301-2.718 0.902-3.383c0.601-0.665 1.561-0.997 2.88-0.997h2.035v8.76h-2.035c-1.318-0-2.278-0.333-2.879-0.997zM59.178 16.603c-0.43 0.702-0.726 1.481-0.873 2.296l-0.581 2.567c-0.119 0.534-0.37 1.028-0.727 1.435-0.44 0.392-1.018 0.583-1.6 0.528v1.362c0.181 0.062 0.366 0.112 0.553 0.151 0.389 0.106 0.79 0.157 1.193 0.151 1.648 0 2.763-1.208 3.344-3.625l0.582-2.567c0.252-1.047 0.63-1.762 1.134-2.144 0.466-0.369 1.039-0.571 1.628-0.574h1.163v8.608h2.618v-20.841c-0.727-0.219-1.472-0.376-2.224-0.468-0.806-0.094-1.617-0.139-2.428-0.136-1-0.020-1.997 0.097-2.967 0.348-0.743 0.191-1.424 0.576-1.977 1.118-0.527 0.553-0.907 1.233-1.107 1.978-0.25 0.945-0.367 1.921-0.349 2.9-0.015 0.81 0.103 1.616 0.349 2.386 0.202 0.627 0.507 1.214 0.902 1.737 0.343 0.452 0.774 0.827 1.265 1.102 0.439 0.249 0.916 0.423 1.41 0.514v0.122c-0.539 0.188-1.001 0.561-1.308 1.054zM80.357 3.557v9.35h-6.195v-9.35h-2.655v21.111h2.655v-9.651h6.195v9.651h2.655v-21.111h-2.655zM89.604 14.716h6.416v-2.111h-6.416v-6.937h7.292v-2.111h-9.917v21.111h9.916v-2.111h-7.291v-7.841zM111.542 29.134h1.618v-6.62h-1.912v-18.957h-2.648v18.957h-5.883v-18.957h-2.648v21.064h10.589c0.085 1.539 0.382 3.058 0.884 4.514zM120.539 14.068c1.319 0 2.278 0.337 2.879 1.012s0.901 1.847 0.902 3.519c0 1.672-0.3 2.845-0.902 3.519s-1.561 1.012-2.879 1.012h-2.035v-9.061h2.035zM118.569 12.193v-8.636h-2.631v20.909c0.731 0.22 1.479 0.378 2.236 0.47 0.81 0.094 1.625 0.14 2.44 0.136 1.005 0.021 2.008-0.102 2.981-0.364 0.746-0.201 1.43-0.592 1.987-1.136 0.534-0.563 0.916-1.257 1.11-2.015 0.252-0.979 0.371-1.988 0.351-3 0-2.424-0.453-4.142-1.359-5.152s-2.304-1.515-4.194-1.515c-0.507 0.004-1.013 0.034-1.517 0.091-0.472 0.046-0.94 0.117-1.404 0.212z"></path>
<path fill="#ffe30b" style="fill: var(--color2, #ffe30b)" d="M15.136 3.343c-6.919 2.319-12.756 7.046-15.136 14.090 2.353 6.963 8.135 11.743 15.136 14.090 6.226-4.77 9.621-8.6 12.118-14.090-3.585-2.392-5.091-3.623-7.997-7.323-3.894 1.797-7.284 3.891-10.286 7.247 1.078 1.525 2.867 2.949 4.313 4.118 2.108-1.539 3.716-3.039 4.757-4.326 0.653 0.793 1.389 1.32 2.090 1.761-1.811 3.062-3.844 4.743-6.354 6.349-3.77-1.983-6.801-5.416-8.274-8.319 2.761-4.523 7.091-7.577 12.011-9.279-0.797-1.387-1.842-2.679-2.378-4.318z"></path>
<path fill="#333" style="fill: var(--color1, #333)" d="M32.361 30.636c0.728 0 1.232-0.562 1.232-1.456 0-0.9-0.504-1.45-1.232-1.45-0.39 0-0.734 0.201-0.934 0.481v-0.413h-0.43v3.823h0.43v-1.473c0.224 0.309 0.556 0.487 0.934 0.487zM32.252 30.252c-0.338 0-0.676-0.206-0.825-0.447v-1.249c0.149-0.241 0.487-0.441 0.825-0.441 0.556 0 0.888 0.453 0.888 1.066s-0.332 1.072-0.888 1.072z"></path>
<path fill="#333" style="fill: var(--color1, #333)" d="M35.486 30.636c0.843 0 1.37-0.653 1.37-1.456s-0.527-1.45-1.37-1.45c-0.843 0-1.37 0.648-1.37 1.45s0.527 1.456 1.37 1.456zM35.486 30.252c-0.59 0-0.923-0.504-0.923-1.072 0-0.562 0.332-1.066 0.923-1.066s0.917 0.504 0.917 1.066c0 0.567-0.327 1.072-0.917 1.072z"></path>
<path fill="#333" style="fill: var(--color1, #333)" d="M38.537 30.636c0.797 0 1.267-0.344 1.267-0.808 0-0.459-0.481-0.653-0.802-0.676 0.327-0.040 0.745-0.264 0.745-0.676 0-0.47-0.527-0.745-1.272-0.739-0.504 0-0.877 0.178-1.135 0.441l0.224 0.264c0.235-0.241 0.539-0.355 0.928-0.355 0.459 0 0.808 0.178 0.808 0.441 0 0.315-0.361 0.464-0.82 0.464h-0.619v0.35h0.619c0.487 0 0.871 0.115 0.871 0.459 0 0.292-0.321 0.481-0.814 0.481-0.413 0-0.779-0.126-1.037-0.373l-0.212 0.275c0.275 0.275 0.694 0.453 1.249 0.453z"></path>
<path fill="#333" style="fill: var(--color1, #333)" d="M41.865 30.636c0.728 0 1.232-0.562 1.232-1.456 0-0.9-0.504-1.45-1.232-1.45-0.39 0-0.734 0.201-0.934 0.481v-0.413h-0.43v3.823h0.43v-1.473c0.224 0.309 0.556 0.487 0.934 0.487zM41.756 30.252c-0.338 0-0.676-0.206-0.825-0.447v-1.249c0.149-0.241 0.487-0.441 0.825-0.441 0.556 0 0.888 0.453 0.888 1.066s-0.332 1.072-0.888 1.072z"></path>
<path fill="#333" style="fill: var(--color1, #333)" d="M44.99 30.636c0.843 0 1.37-0.653 1.37-1.456s-0.527-1.45-1.37-1.45c-0.843 0-1.37 0.648-1.37 1.45s0.527 1.456 1.37 1.456zM44.99 30.252c-0.59 0-0.923-0.504-0.923-1.072 0-0.562 0.332-1.066 0.923-1.066s0.917 0.504 0.917 1.066c0 0.567-0.327 1.072-0.917 1.072z"></path>
<path fill="#333" style="fill: var(--color1, #333)" d="M48.27 30.252c-0.59 0-0.923-0.504-0.923-1.078 0-0.556 0.332-1.060 0.923-1.060s0.917 0.504 0.917 1.060c0 0.573-0.327 1.078-0.917 1.078zM48.27 30.636c0.854 0 1.364-0.665 1.364-1.462 0-0.785-0.51-1.444-1.295-1.444-0.493 0-0.843 0.275-1.043 0.59 0.097-0.47 0.344-0.825 1.164-0.94 0.47-0.063 1.089-0.183 1.089-0.636h-0.418c0 0.115-0.172 0.189-0.779 0.281-0.963 0.126-1.45 0.682-1.45 2.029 0 0.917 0.522 1.582 1.37 1.582z"></path>
<path fill="#333" style="fill: var(--color1, #333)" d="M52.804 30.567l-1.232-1.513 1.227-1.255h-0.544l-1.456 1.473v-1.473h-0.43v2.768h0.43v-0.791l0.459-0.453 0.997 1.244h0.55z"></path>
<path fill="#333" style="fill: var(--color1, #333)" d="M55.473 30.567v-1.903c0-0.671-0.487-0.934-1.072-0.934-0.453 0-0.808 0.149-1.106 0.459l0.201 0.298c0.246-0.264 0.516-0.384 0.848-0.384 0.401 0 0.699 0.212 0.699 0.585v0.499c-0.224-0.258-0.539-0.378-0.917-0.378-0.47 0-0.969 0.292-0.969 0.911 0 0.602 0.499 0.917 0.969 0.917 0.373 0 0.688-0.132 0.917-0.384v0.315h0.43zM54.281 30.326c-0.401 0-0.682-0.252-0.682-0.602 0-0.355 0.281-0.608 0.682-0.608 0.304 0 0.596 0.115 0.762 0.344v0.522c-0.166 0.229-0.459 0.344-0.762 0.344z"></path>
<path fill="#333" style="fill: var(--color1, #333)" d="M58.747 30.567v-2.39h0.808v-0.378h-2.040v0.378h0.802v2.39h0.43z"></path>
<path fill="#333" style="fill: var(--color1, #333)" d="M62.279 30.567v-1.903c0-0.671-0.487-0.934-1.072-0.934-0.453 0-0.808 0.149-1.106 0.459l0.201 0.298c0.246-0.264 0.516-0.384 0.848-0.384 0.401 0 0.699 0.212 0.699 0.585v0.499c-0.224-0.258-0.539-0.378-0.917-0.378-0.47 0-0.969 0.292-0.969 0.911 0 0.602 0.499 0.917 0.969 0.917 0.373 0 0.688-0.132 0.917-0.384v0.315h0.43zM61.087 30.326c-0.401 0-0.682-0.252-0.682-0.602 0-0.355 0.281-0.608 0.682-0.608 0.304 0 0.596 0.115 0.762 0.344v0.522c-0.166 0.229-0.459 0.344-0.762 0.344z"></path>
<path fill="#333" style="fill: var(--color1, #333)" d="M66.922 30.567v-2.768h-2.304v2.768h0.43v-2.39h1.444v2.39h0.43z"></path>
<path fill="#333" style="fill: var(--color1, #333)" d="M67.993 27.404c0.16 0 0.292-0.126 0.292-0.287s-0.132-0.292-0.292-0.292c-0.155 0-0.287 0.132-0.287 0.292s0.132 0.287 0.287 0.287zM68.211 30.567v-2.768h-0.43v2.768h0.43z"></path>
<path fill="#333" style="fill: var(--color1, #333)" d="M68.741 31.272h0.43v-0.705h2.092v0.705h0.43v-1.083h-0.321v-2.39h-1.926l-0.178 1.364c-0.109 0.82-0.269 1.003-0.527 1.049v1.060zM69.824 28.177h1.118v2.012h-1.645c0.201-0.16 0.332-0.453 0.401-0.974l0.126-1.037z"></path>
<path fill="#333" style="fill: var(--color1, #333)" d="M73.215 30.567v-2.39h0.808v-0.378h-2.040v0.378h0.802v2.39h0.43z"></path>
<path fill="#333" style="fill: var(--color1, #333)" d="M75.951 30.636c0.728 0 1.232-0.562 1.232-1.456 0-0.9-0.504-1.45-1.232-1.45-0.39 0-0.734 0.201-0.934 0.481v-0.413h-0.43v3.823h0.43v-1.473c0.224 0.309 0.556 0.487 0.934 0.487zM75.842 30.252c-0.338 0-0.676-0.206-0.825-0.447v-1.249c0.149-0.241 0.487-0.441 0.825-0.441 0.556 0 0.888 0.453 0.888 1.066s-0.332 1.072-0.888 1.072z"></path>
<path fill="#333" style="fill: var(--color1, #333)" d="M78.279 30.567l1.462-2.155v2.155h0.43v-2.768h-0.424l-1.45 2.115v-2.115h-0.43v2.768h0.413z"></path>
<path fill="#333" style="fill: var(--color1, #333)" d="M83.854 30.567v-2.768h-0.573l-0.837 2.052-0.848-2.052h-0.567v2.768h0.43v-2.172l0.906 2.172h0.16l0.9-2.172v2.172h0.43z"></path>
<path fill="#333" style="fill: var(--color1, #333)" d="M87.147 30.567l-1.232-1.513 1.227-1.255h-0.544l-1.456 1.473v-1.473h-0.43v2.768h0.43v-0.791l0.459-0.453 0.997 1.244h0.55z"></path>
<path fill="#333" style="fill: var(--color1, #333)" d="M89.816 30.567v-1.903c0-0.671-0.487-0.934-1.072-0.934-0.453 0-0.808 0.149-1.106 0.459l0.201 0.298c0.246-0.264 0.516-0.384 0.848-0.384 0.401 0 0.699 0.212 0.699 0.585v0.499c-0.224-0.258-0.539-0.378-0.917-0.378-0.47 0-0.969 0.292-0.969 0.911 0 0.602 0.499 0.917 0.969 0.917 0.373 0 0.688-0.132 0.917-0.384v0.315h0.43zM88.624 30.326c-0.401 0-0.682-0.252-0.682-0.602 0-0.355 0.281-0.608 0.682-0.608 0.304 0 0.596 0.115 0.762 0.344v0.522c-0.166 0.229-0.459 0.344-0.762 0.344z"></path>
<path fill="#333" style="fill: var(--color1, #333)" d="M93.376 30.636c0.504 0 0.802-0.206 1.014-0.481l-0.287-0.264c-0.183 0.246-0.418 0.361-0.705 0.361-0.59 0-0.957-0.459-0.957-1.072s0.367-1.066 0.957-1.066c0.287 0 0.522 0.109 0.705 0.361l0.287-0.264c-0.212-0.275-0.51-0.481-1.014-0.481-0.825 0-1.381 0.63-1.381 1.45 0 0.825 0.556 1.456 1.381 1.456z"></path>
<path fill="#333" style="fill: var(--color1, #333)" d="M97.154 30.567v-1.903c0-0.671-0.487-0.934-1.072-0.934-0.453 0-0.808 0.149-1.106 0.459l0.201 0.298c0.246-0.264 0.516-0.384 0.848-0.384 0.401 0 0.699 0.212 0.699 0.585v0.499c-0.224-0.258-0.539-0.378-0.917-0.378-0.47 0-0.969 0.292-0.969 0.911 0 0.602 0.499 0.917 0.969 0.917 0.373 0 0.688-0.132 0.917-0.384v0.315h0.43zM95.962 30.326c-0.401 0-0.682-0.252-0.682-0.602 0-0.355 0.281-0.608 0.682-0.608 0.304 0 0.596 0.115 0.762 0.344v0.522c-0.166 0.229-0.459 0.344-0.762 0.344z"></path>
<path fill="#333" style="fill: var(--color1, #333)" d="M98.428 30.567l1.462-2.155v2.155h0.43v-2.768h-0.424l-1.45 2.115v-2.115h-0.43v2.768h0.413zM100.171 26.979l-0.212-0.183c-0.178 0.258-0.459 0.413-0.791 0.413-0.338 0-0.613-0.16-0.797-0.413l-0.212 0.183c0.235 0.309 0.602 0.504 1.009 0.504 0.413 0 0.774-0.195 1.003-0.504z"></path>
<path fill="#333" style="fill: var(--color1, #333)" d="M102.112 30.567v-2.39h0.808v-0.378h-2.040v0.378h0.802v2.39h0.43z"></path>
<path fill="#333" style="fill: var(--color1, #333)" d="M103.696 27.404c0.16 0 0.292-0.126 0.292-0.287s-0.132-0.292-0.292-0.292c-0.155 0-0.287 0.132-0.287 0.292s0.132 0.287 0.287 0.287zM103.914 30.567v-2.768h-0.43v2.768h0.43z"></path>
<path fill="#333" style="fill: var(--color1, #333)" d="M106.325 30.567c0.51 0 0.808-0.304 0.808-0.751 0-0.315-0.224-0.608-0.504-0.676 0.235-0.075 0.447-0.298 0.447-0.63 0-0.418-0.292-0.711-0.779-0.711h-1.525v2.768h1.553zM106.239 30.189h-1.037v-0.854h1.037c0.292 0 0.447 0.206 0.447 0.43 0 0.264-0.172 0.424-0.447 0.424zM106.221 28.957h-1.020v-0.779h1.020c0.264 0 0.413 0.155 0.413 0.395 0 0.218-0.143 0.384-0.413 0.384z"></path>
<path fill="#333" style="fill: var(--color1, #333)" d="M121.245 2.866v-2.39h0.808v-0.378h-2.040v0.378h0.802v2.39h0.43z"></path>
<path fill="#333" style="fill: var(--color1, #333)" d="M125.442 2.866v-2.768h-0.573l-0.837 2.052-0.848-2.052h-0.567v2.768h0.43v-2.172l0.906 2.172h0.16l0.9-2.172v2.172h0.43z"></path>
</symbol>
<symbol id="icon-facebook" viewBox="0 0 32 32">
<path fill="#3b5998" style="fill: var(--color1, #3b5998)" d="M0 16c0-8.837 7.163-16 16-16s16 7.163 16 16c0 8.837-7.163 16-16 16s-16-7.163-16-16z"></path>
<path fill="#3b5998" style="fill: var(--color1, #3b5998)" d="M4.571 0h22.857c2.525 0 4.571 2.047 4.571 4.571v22.857c0 2.525-2.047 4.571-4.571 4.571h-22.857c-2.525 0-4.571-2.047-4.571-4.571v-22.857c0-2.525 2.047-4.571 4.571-4.571z"></path>
<path fill="#fff" style="fill: var(--color2, #fff)" d="M17.668 25.408v-8.705h2.403l0.318-3h-2.721l0.004-1.501c0-0.782 0.074-1.202 1.198-1.202h1.502v-3h-2.403c-2.887 0-3.903 1.455-3.903 3.902v1.801h-1.799v3h1.799v8.704h3.602z"></path>
</symbol>
<symbol id="icon-instIcon" viewBox="0 0 32 32">
<path fill="#000" style="fill: var(--color1, #000)" d="M0 16c0-8.837 7.163-16 16-16s16 7.163 16 16c0 8.837-7.163 16-16 16s-16-7.163-16-16z"></path>
<path fill="#000" style="fill: var(--color1, #000)" d="M4.571 0h22.857c2.525 0 4.571 2.047 4.571 4.571v22.857c0 2.525-2.047 4.571-4.571 4.571h-22.857c-2.525 0-4.571-2.047-4.571-4.571v-22.857c0-2.525 2.047-4.571 4.571-4.571z"></path>
<path fill="#fff" style="fill: var(--color2, #fff)" d="M11.619 16c0-2.42 1.962-4.382 4.382-4.382s4.382 1.962 4.382 4.382-1.961 4.381-4.382 4.381c-2.42 0-4.382-1.961-4.382-4.381zM18.845 16c0-1.571-1.274-2.844-2.844-2.844s-2.845 1.273-2.845 2.844c0 1.571 1.273 2.844 2.845 2.844s2.844-1.274 2.844-2.844z"></path>
<path fill="#fff" style="fill: var(--color2, #fff)" d="M19.532 11.445c0-0.566 0.459-1.024 1.024-1.024s1.024 0.458 1.024 1.024c0 0.565-0.459 1.024-1.024 1.024s-1.024-0.459-1.024-1.024z"></path>
<path fill="#fff" style="fill: var(--color2, #fff)" d="M12.482 7.518c0.91-0.041 1.201-0.052 3.519-0.052h-0.003c2.318 0 2.608 0.010 3.518 0.052 0.908 0.042 1.529 0.185 2.073 0.396 0.562 0.218 1.036 0.509 1.511 0.984s0.766 0.95 0.985 1.512c0.21 0.543 0.354 1.163 0.397 2.071 0.041 0.91 0.052 1.201 0.052 3.519s-0.011 2.608-0.052 3.518c-0.043 0.908-0.187 1.528-0.397 2.071-0.219 0.561-0.51 1.037-0.985 1.512s-0.95 0.767-1.511 0.985c-0.543 0.211-1.164 0.355-2.072 0.396-0.91 0.041-1.2 0.052-3.518 0.052s-2.608-0.010-3.518-0.052c-0.908-0.042-1.528-0.185-2.072-0.396-0.561-0.218-1.037-0.51-1.511-0.985s-0.766-0.95-0.984-1.512c-0.211-0.543-0.355-1.163-0.396-2.071-0.041-0.91-0.052-1.2-0.052-3.518s0.011-2.609 0.051-3.519c0.041-0.908 0.185-1.528 0.396-2.071 0.219-0.561 0.51-1.037 0.985-1.511s0.95-0.766 1.512-0.984c0.543-0.211 1.163-0.355 2.071-0.396zM15.716 9.004c-0.173-0-0.333-0-0.481 0v-0.002c-1.59 0.002-1.895 0.012-2.683 0.048-0.832 0.038-1.284 0.177-1.585 0.294-0.398 0.155-0.683 0.34-0.981 0.639s-0.484 0.583-0.639 0.981c-0.117 0.301-0.256 0.752-0.294 1.584-0.041 0.9-0.049 1.168-0.049 3.447s0.008 2.549 0.049 3.449c0.038 0.832 0.177 1.284 0.294 1.584 0.155 0.398 0.34 0.682 0.639 0.981s0.583 0.484 0.981 0.638c0.301 0.117 0.752 0.256 1.585 0.294 0.9 0.041 1.17 0.050 3.448 0.050s2.549-0.009 3.448-0.050c0.832-0.038 1.284-0.177 1.584-0.294 0.398-0.155 0.682-0.34 0.981-0.638s0.484-0.582 0.639-0.98c0.117-0.3 0.256-0.752 0.294-1.584 0.041-0.9 0.050-1.17 0.050-3.447s-0.009-2.548-0.050-3.447c-0.038-0.832-0.177-1.284-0.294-1.584-0.155-0.398-0.34-0.683-0.639-0.981s-0.582-0.484-0.981-0.638c-0.301-0.117-0.752-0.256-1.584-0.294-0.9-0.041-1.17-0.049-3.448-0.049l-0.284-0z"></path>
</symbol>
<symbol id="icon-viberIcon" viewBox="0 0 32 32">
<path fill="#675da9" style="fill: var(--color3, #675da9)" d="M16 32c8.837 0 16-7.163 16-16s-7.163-16-16-16c-8.837 0-16 7.163-16 16s7.163 16 16 16z"></path>
<path fill="#675da9" style="fill: var(--color3, #675da9)" d="M4.571 0h22.857c2.525 0 4.571 2.047 4.571 4.571v22.857c0 2.525-2.047 4.571-4.571 4.571h-22.857c-2.525 0-4.571-2.047-4.571-4.571v-22.857c0-2.525 2.047-4.571 4.571-4.571z"></path>
<path fill="#fff" style="fill: var(--color2, #fff)" d="M24.985 11.977l-0.006-0.023c-0.454-1.85-2.5-3.835-4.379-4.248l-0.021-0.004c-3.039-0.585-6.12-0.585-9.159 0l-0.022 0.004c-1.878 0.413-3.924 2.398-4.379 4.248l-0.005 0.023c-0.561 2.584-0.561 5.204 0 7.787l0.005 0.023c0.435 1.771 2.329 3.665 4.137 4.186v2.065c0 0.747 0.903 1.114 1.417 0.575l2.075-2.175c0.45 0.025 0.9 0.040 1.351 0.040 1.53 0 3.060-0.146 4.579-0.438l0.021-0.004c1.879-0.413 3.925-2.398 4.379-4.248l0.006-0.023c0.561-2.584 0.561-5.204 0-7.787zM23.343 19.39c-0.303 1.207-1.856 2.707-3.091 2.985-1.616 0.31-3.245 0.442-4.872 0.397-0.032-0.001-0.064 0.012-0.086 0.035-0.231 0.239-1.515 1.568-1.515 1.568l-1.611 1.668c-0.118 0.124-0.325 0.040-0.325-0.131v-3.421c0-0.056-0.040-0.105-0.095-0.115l-0.001-0c-1.234-0.277-2.787-1.778-3.091-2.985-0.505-2.335-0.505-4.703 0-7.038 0.304-1.207 1.856-2.707 3.091-2.985 2.822-0.541 5.683-0.541 8.505 0 1.235 0.277 2.788 1.778 3.091 2.985 0.506 2.335 0.506 4.703 0 7.038z"></path>
<path fill="#fff" style="fill: var(--color2, #fff)" d="M18.685 20.969c-0.19-0.058-0.371-0.097-0.538-0.167-1.74-0.728-3.342-1.667-4.61-3.107-0.721-0.819-1.286-1.743-1.763-2.721-0.226-0.464-0.417-0.946-0.612-1.425-0.177-0.437 0.084-0.888 0.359-1.217 0.258-0.309 0.59-0.545 0.95-0.719 0.281-0.136 0.557-0.058 0.762 0.182 0.443 0.519 0.85 1.064 1.18 1.665 0.203 0.37 0.147 0.822-0.22 1.073-0.089 0.061-0.171 0.133-0.254 0.202-0.073 0.061-0.142 0.122-0.192 0.204-0.091 0.15-0.096 0.327-0.037 0.49 0.453 1.255 1.216 2.231 2.469 2.757 0.201 0.084 0.402 0.182 0.633 0.155 0.387-0.046 0.512-0.473 0.783-0.697 0.265-0.218 0.604-0.221 0.889-0.039s0.562 0.378 0.837 0.575c0.27 0.194 0.539 0.384 0.788 0.605 0.239 0.213 0.322 0.492 0.187 0.78-0.247 0.528-0.606 0.968-1.124 1.249-0.146 0.079-0.321 0.105-0.486 0.156 0.165-0.051-0.19-0.058 0 0zM16.005 11.007c2.276 0.064 4.146 1.588 4.547 3.857 0.068 0.387 0.093 0.782 0.123 1.174 0.013 0.165-0.080 0.322-0.257 0.324-0.183 0.002-0.265-0.152-0.276-0.317-0.023-0.327-0.040-0.655-0.084-0.979-0.236-1.71-1.588-3.124-3.276-3.428-0.254-0.046-0.514-0.058-0.771-0.085-0.163-0.017-0.376-0.027-0.412-0.231-0.030-0.171 0.113-0.307 0.274-0.316 0.044-0.002 0.088-0 0.132-0 2.276 0.064-0.044-0 0 0z"></path>
<path fill="#fff" style="fill: var(--color2, #fff)" d="M19.464 15.529c-0.004 0.029-0.006 0.096-0.022 0.16-0.060 0.23-0.407 0.259-0.487 0.027-0.024-0.069-0.027-0.148-0.027-0.222-0.001-0.486-0.106-0.972-0.349-1.395-0.25-0.435-0.632-0.8-1.080-1.021-0.271-0.134-0.564-0.217-0.86-0.266-0.13-0.022-0.261-0.035-0.391-0.053-0.158-0.022-0.242-0.124-0.235-0.281 0.007-0.147 0.114-0.253 0.273-0.244 0.522 0.030 1.027 0.144 1.491 0.392 0.944 0.504 1.484 1.3 1.641 2.363 0.007 0.048 0.019 0.096 0.022 0.144 0.009 0.119 0.015 0.239 0.024 0.396-0.004 0.029-0.009-0.157 0 0z"></path>
<path fill="#fff" style="fill: var(--color2, #fff)" d="M18.048 15.474c-0.19 0.003-0.292-0.103-0.312-0.279-0.014-0.123-0.024-0.247-0.053-0.367-0.057-0.235-0.181-0.453-0.377-0.597-0.093-0.068-0.198-0.118-0.308-0.15-0.14-0.041-0.285-0.029-0.424-0.064-0.151-0.037-0.235-0.161-0.211-0.304 0.022-0.13 0.147-0.232 0.289-0.222 0.883 0.064 1.513 0.524 1.603 1.572 0.006 0.074 0.014 0.152-0.002 0.223-0.028 0.121-0.117 0.182-0.203 0.188 0.087-0.006-0.19 0.003 0 0z"></path>
</symbol>
<symbol id="icon-Arrow" viewBox="0 0 22 32">
<path stroke="#333333" stroke-linejoin="bevel" stroke-linecap="square" stroke-miterlimit="4" stroke-width="1.1034" d="M11.096 0.551v30.897M11.096 31.448l9.931-9.931M11.096 31.448l-9.931-9.931"></path>
</symbol>
<symbol id="first" viewBox="0 0 32 32">
<path stroke-linejoin="round" stroke-linecap="round" stroke-miterlimit="10" stroke-width="0.8" d="M10.254 30.265c5.544 2.23 12.126 1.099 16.618-3.393 5.47-5.47 5.957-14.037 1.46-20.058"></path>
<path stroke-linejoin="round" stroke-linecap="round" stroke-miterlimit="10" stroke-width="0.8" d="M8 29.134c0.008 0.005 0.016 0.010 0.024 0.015"></path>
<path stroke-linejoin="round" stroke-linecap="round" stroke-miterlimit="10" stroke-width="0.8" d="M30.854 6.625h-2.729v2.729"></path>
<path stroke-linejoin="round" stroke-linecap="round" stroke-miterlimit="10" stroke-width="0.8" d="M21.836 1.771c-5.563-2.279-12.191-1.16-16.708 3.357-5.47 5.47-5.957 14.037-1.46 20.058"></path>
<path stroke-linejoin="round" stroke-linecap="round" stroke-miterlimit="10" stroke-width="0.8" d="M24.083 2.917c-0.010-0.006-0.021-0.013-0.031-0.019"></path>
<path stroke-linejoin="round" stroke-linecap="round" stroke-miterlimit="10" stroke-width="0.8" d="M1.172 25.458h2.786v-2.786"></path>
<path stroke-linejoin="round" stroke-linecap="round" stroke-miterlimit="10" stroke-width="0.8" d="M14.499 16c0 0.829 0.672 1.501 1.501 1.501s1.501-0.672 1.501-1.501c0-0.829-0.672-1.501-1.501-1.501s-1.501 0.672-1.501 1.501z"></path>
<path stroke-linejoin="round" stroke-linecap="round" stroke-miterlimit="10" stroke-width="0.8" d="M6.819 10.404c-2.527 4.139-2.001 9.617 1.58 13.198 4.198 4.198 11.005 4.198 15.203 0s4.198-11.005 0-15.203c-3.578-3.578-9.052-4.107-13.19-1.585"></path>
<path stroke-linejoin="round" stroke-linecap="round" stroke-miterlimit="10" stroke-width="0.8" d="M8.382 8.415c-0.011 0.011-0.005 0.005-0.016 0.017"></path>
<path stroke-linejoin="round" stroke-linecap="round" stroke-miterlimit="10" stroke-width="0.8" d="M24.361 16.010h-0.379"></path>
<path stroke-linejoin="round" stroke-linecap="round" stroke-miterlimit="10" stroke-width="0.8" d="M7.639 15.99h0.379"></path>
<path stroke-linejoin="round" stroke-linecap="round" stroke-miterlimit="10" stroke-width="0.8" d="M16.010 7.639v0.379"></path>
<path stroke-linejoin="round" stroke-linecap="round" stroke-miterlimit="10" stroke-width="0.8" d="M15.99 24.361v-0.379"></path>
<path stroke-linejoin="round" stroke-linecap="round" stroke-miterlimit="10" stroke-width="0.8" d="M14.938 14.938l-2.45-2.45"></path>
<path stroke-linejoin="round" stroke-linecap="round" stroke-miterlimit="10" stroke-width="0.8" d="M17.062 14.938l4.568-4.568"></path>
</symbol>
<symbol id="second" viewBox="0 0 32 32">
<path d="M12.478 29.432c0 0.276-0.219 0.502-0.495 0.502s-0.502-0.226-0.502-0.502v-6.29c0-0.424 0.184-0.807 0.481-1.082 0.29-0.269 0.68-0.432 1.111-0.432h5.851c0.432 0 0.828 0.162 1.11 0.432 0.297 0.276 0.482 0.658 0.482 1.082v6.29c0 0.276-0.22 0.502-0.496 0.502s-0.502-0.226-0.502-0.502v-6.29c0-0.134-0.057-0.262-0.156-0.354-0.113-0.099-0.262-0.163-0.438-0.163h-2.427v6.806c0 0.276-0.219 0.502-0.495 0.502s-0.502-0.226-0.502-0.502v-6.807h-2.427c-0.17 0-0.319 0.064-0.432 0.163-0.099 0.092-0.163 0.219-0.163 0.354l-0 6.29z"></path>
<path d="M11.071 14.921h3.268c0.276 0 0.495 0.22 0.495 0.495v3.043c0 0.276-0.219 0.495-0.495 0.495h-3.268c-0.276 0-0.495-0.219-0.495-0.495v-3.043c-0-0.276 0.219-0.495 0.495-0.495zM11.071 8.872h3.268c0.276 0 0.495 0.22 0.495 0.495v3.042c0 0.276-0.219 0.495-0.495 0.495h-3.268c-0.276 0-0.495-0.22-0.495-0.495v-3.042c-0-0.276 0.219-0.496 0.495-0.496zM13.837 9.87h-2.264v2.037h2.264v-2.037zM19.299 11.907c0.276 0 0.495 0.226 0.495 0.502s-0.219 0.495-0.495 0.495h-1.634c-0.276 0-0.502-0.22-0.502-0.495v-3.042c0-0.276 0.226-0.495 0.502-0.495s0.495 0.22 0.495 0.495v2.54h1.139zM17.664 14.921h3.262c0.276 0 0.502 0.22 0.502 0.495v3.043c0 0.276-0.226 0.495-0.502 0.495h-3.262c-0.276 0-0.502-0.219-0.502-0.495v-3.043c0-0.276 0.226-0.495 0.502-0.495zM20.431 15.919h-2.271v2.037h2.271v-2.037zM13.837 15.919h-2.264v2.037h2.264v-2.037z"></path>
<path d="M24.407 15.324c-0.141 0.234-0.445 0.318-0.679 0.177-0.078-0.050-0.142-0.113-0.184-0.184l-4.288-7.266c-0.22-0.375-0.403-0.856-0.516-1.281-0.114-0.439-0.17-0.891-0.17-1.359 0-1.493 0.602-2.844 1.585-3.828 0.977-0.976 2.328-1.585 3.828-1.585 1.493 0 2.844 0.609 3.828 1.585 0.976 0.984 1.585 2.335 1.585 3.828 0 0.467-0.064 0.92-0.177 1.359-0.114 0.453-0.29 0.877-0.51 1.273l-4.302 7.28zM23.982 14.093l3.863-6.545c0.177-0.318 0.318-0.665 0.41-1.026 0.092-0.354 0.141-0.722 0.141-1.111 0-1.217-0.495-2.321-1.294-3.12s-1.903-1.295-3.12-1.295c-1.224 0-2.328 0.495-3.127 1.295-0.793 0.8-1.288 1.903-1.288 3.12 0 0.389 0.049 0.757 0.134 1.111 0.092 0.354 0.233 0.693 0.403 1.011l3.877 6.559z"></path>
<path d="M23.982 2.526c0.792 0 1.514 0.326 2.037 0.849 0.524 0.516 0.849 1.238 0.849 2.037s-0.326 1.521-0.849 2.045c-0.524 0.516-1.245 0.842-2.037 0.842-0.8 0-1.521-0.325-2.045-0.842-0.524-0.524-0.842-1.245-0.842-2.045s0.318-1.521 0.842-2.038c0.524-0.523 1.245-0.849 2.045-0.849zM25.312 4.075c-0.34-0.34-0.814-0.552-1.33-0.552-0.524 0-0.998 0.212-1.337 0.552-0.34 0.347-0.552 0.814-0.552 1.337s0.212 0.997 0.552 1.337c0.339 0.34 0.814 0.552 1.337 0.552 0.516 0 0.99-0.212 1.33-0.552 0.346-0.34 0.559-0.814 0.559-1.337s-0.212-0.99-0.559-1.337z"></path>
<path d="M26.288 24.303c-0.276 0-0.495-0.226-0.495-0.502s0.219-0.496 0.495-0.496h1.811c0.623 0 1.175 0.361 1.415 0.934l2.342 5.702c0.099 0.24 0.134 0.481 0.106 0.722-0.049 0.488-0.375 0.941-0.807 1.167-0.219 0.113-0.46 0.17-0.714 0.17h-28.88c-0.255 0-0.495-0.057-0.715-0.17-0.439-0.227-0.757-0.679-0.814-1.167-0.021-0.24 0.014-0.481 0.106-0.722l2.349-5.702c0.24-0.573 0.792-0.934 1.415-0.934h1.797c0.276 0 0.495 0.22 0.495 0.496s-0.219 0.502-0.495 0.502h-1.797c-0.219 0-0.41 0.106-0.495 0.318l-2.342 5.702c-0.036 0.078-0.050 0.156-0.042 0.234 0.021 0.163 0.135 0.311 0.276 0.389 0.078 0.036 0.163 0.057 0.262 0.057h28.88c0.099 0 0.184-0.021 0.255-0.057 0.149-0.078 0.262-0.226 0.276-0.389 0.007-0.078 0-0.156-0.035-0.234l-2.342-5.702c-0.085-0.212-0.276-0.318-0.495-0.318h-1.812z"></path>
<path d="M23.48 17.468c0-0.276 0.226-0.502 0.502-0.502s0.495 0.226 0.495 0.502v11.964c0 0.276-0.22 0.502-0.495 0.502h-15.961c-0.276 0-0.495-0.226-0.495-0.502v-21.869c0-0.425 0.184-0.807 0.481-1.082 0.283-0.269 0.679-0.439 1.111-0.439h7.874c0.276 0 0.495 0.226 0.495 0.503s-0.22 0.502-0.495 0.502h-7.874c-0.177 0-0.326 0.057-0.438 0.163-0.099 0.092-0.156 0.219-0.156 0.354v21.373h14.957l-0-11.468z"></path>
</symbol>
<symbol id="third" viewBox="0 0 32 32">
<path stroke-linejoin="round" stroke-linecap="round" stroke-miterlimit="10" stroke-width="0.8" d="M8.189 5.744h-6.417c-0.634 0-1.148 0.514-1.148 1.212v16.566c0 0.57 0.514 1.084 1.148 1.084h22.494c0.634 0 1.148-0.514 1.148-1.084v-8.476l-1.042-0.064c-0.473 0-0.856-0.383-0.856-0.857v-0.611c0-0.646-0.741-1.162-1.377-0.795l-0.529 0.306c-0.41 0.237-0.933 0.096-1.17-0.314l-0.986-1.706c-0.237-0.41-0.096-0.933 0.313-1.17l0.529-0.305c0.585-0.338 0.585-1.252 0-1.59l-0.528-0.305c-0.41-0.237-0.55-0.761-0.314-1.17l0.417-0.722h-6.070"></path>
<path stroke-linejoin="round" stroke-linecap="round" stroke-miterlimit="10" stroke-width="0.8" d="M25.414 21.425v2.097c0 0.57-0.514 1.084-1.148 1.084h-22.494c-0.634 0-1.147-0.514-1.147-1.084v-2.097h24.789z"></path>
<path stroke-linejoin="round" stroke-linecap="round" stroke-miterlimit="10" stroke-width="0.8" d="M16.228 27.916l-0.386-3.31h-5.008l-0.386 3.31c-0.104 0.909-0.873 1.595-1.788 1.594-0.030 0.001 0.031 0.002 0 0.002h9.356c-0.031 0 0.031-0.001 0-0.002-0.915 0.001-1.684-0.685-1.788-1.594z"></path>
<path stroke-linejoin="round" stroke-linecap="round" stroke-miterlimit="10" stroke-width="0.8" d="M8.661 29.512h-0.739"></path>
<path stroke-linejoin="round" stroke-linecap="round" stroke-miterlimit="10" stroke-width="0.8" d="M18.756 29.512h-0.74"></path>
<path stroke-linejoin="round" stroke-linecap="round" stroke-miterlimit="10" stroke-width="0.8" d="M5.792 12.245l-1.777-1.867 1.777-1.867"></path>
<path stroke-linejoin="round" stroke-linecap="round" stroke-miterlimit="10" stroke-width="0.8" d="M12.813 12.245l1.777-1.867-1.777-1.867"></path>
<path stroke-linejoin="round" stroke-linecap="round" stroke-miterlimit="10" stroke-width="0.8" d="M10.489 8.511l-2.3 3.734"></path>
<path stroke-linejoin="round" stroke-linecap="round" stroke-miterlimit="10" stroke-width="0.8" d="M14.706 15.064h-10.691"></path>
<path stroke-linejoin="round" stroke-linecap="round" stroke-miterlimit="10" stroke-width="0.8" d="M11.662 18.235h-7.647"></path>
<path stroke-linejoin="round" stroke-linecap="round" stroke-miterlimit="10" stroke-width="0.8" d="M20.354 18.235h-5.339"></path>
<path stroke-linejoin="round" stroke-linecap="round" stroke-miterlimit="10" stroke-width="0.8" d="M25.357 6.757c1.092-0 1.979 0.886 1.979 1.978s-0.886 1.978-1.979 1.978c-1.093 0-1.978-0.886-1.978-1.978s0.886-1.978 1.978-1.978zM19.768 7.635l0.528 0.305c0.585 0.337 0.585 1.251 0 1.589l-0.529 0.305c-0.409 0.237-0.55 0.76-0.313 1.17l0.986 1.707c0.237 0.41 0.76 0.55 1.17 0.314l0.529-0.306c0.635-0.367 1.376 0.149 1.376 0.794v0.611c0 0.473 0.383 0.856 0.856 0.856h1.971c0.473 0 0.857-0.383 0.857-0.856v-0.611c0-0.646 0.741-1.161 1.376-0.794l0.529 0.306c0.41 0.237 0.933 0.096 1.17-0.314l0.986-1.707c0.236-0.41 0.096-0.933-0.314-1.17l-0.528-0.305c-0.584-0.337-0.586-1.252 0-1.59l0.528-0.305c0.41-0.237 0.55-0.76 0.314-1.17l-0.986-1.707c-0.236-0.41-0.76-0.55-1.17-0.313l-0.529 0.305c-0.636 0.367-1.376-0.149-1.376-0.795v-0.611c0-0.473-0.383-0.857-0.857-0.857h-1.971c-0.473 0-0.856 0.383-0.856 0.857v0.611c0 0.646-0.741 1.161-1.376 0.795l-0.529-0.305c-0.41-0.237-0.933-0.096-1.17 0.313l-0.986 1.707c-0.237 0.409-0.096 0.933 0.314 1.17z"></path>
</symbol>
<symbol id="fourth" viewBox="0 0 32 32">
<path d="M27.136 11.304c-0.603-0.232-1.245-0.442-1.921-0.631 0.174-0.68 0.314-1.342 0.414-1.979 0.523-3.32-0.055-5.648-1.629-6.557-0.458-0.264-0.983-0.398-1.563-0.398-1.83 0-4.143 1.359-6.476 3.655-0.51-0.501-1.022-0.96-1.532-1.373-2.613-2.113-4.919-2.777-6.493-1.868-1.011 0.584-1.627 1.777-1.779 3.449-0.026 0.281 0.181 0.529 0.462 0.555s0.529-0.181 0.555-0.462c0.084-0.926 0.373-2.138 1.272-2.657 1.165-0.673 3.111-0.025 5.34 1.777 0.486 0.393 0.975 0.832 1.461 1.309-0.979 1.041-1.952 2.24-2.888 3.564-1.645 0.15-3.212 0.401-4.65 0.745-0.252-0.979-0.425-1.913-0.51-2.78-0.028-0.281-0.276-0.486-0.558-0.458-0.281 0.028-0.486 0.278-0.458 0.558 0.090 0.917 0.273 1.904 0.539 2.937-0.653 0.184-1.275 0.389-1.859 0.614-3.137 1.206-4.864 2.872-4.864 4.689s1.727 3.483 4.864 4.689c0.603 0.232 1.245 0.442 1.921 0.631-0.175 0.68-0.314 1.342-0.414 1.979-0.524 3.32 0.055 5.648 1.629 6.557 0.457 0.264 0.983 0.398 1.563 0.398 1.809 0 4.090-1.329 6.396-3.577 0.494 0.482 0.99 0.927 1.484 1.326 1.849 1.496 3.544 2.265 4.935 2.265 0.574-0 1.097-0.131 1.558-0.397 1.574-0.909 2.152-3.237 1.629-6.557-0.101-0.638-0.24-1.3-0.414-1.979 1.051-0.29 2.018-0.63 2.874-1.019 0.257-0.116 0.371-0.419 0.254-0.676s-0.419-0.371-0.676-0.254c-0.811 0.368-1.728 0.691-2.726 0.966-0.413-1.38-0.962-2.82-1.632-4.276 0.7-1.506 1.272-2.996 1.698-4.421 3.79 1.061 6.036 2.737 6.036 4.344 0 1.038-0.905 1.895-1.665 2.43-0.23 0.163-0.286 0.481-0.123 0.712s0.481 0.286 0.712 0.123c1.372-0.968 2.097-2.097 2.097-3.265 0-1.817-1.727-3.483-4.864-4.689zM22.437 2.759c0.398 0 0.752 0.088 1.052 0.261 1.165 0.673 1.577 2.682 1.131 5.514-0.096 0.606-0.228 1.236-0.394 1.884-1.444-0.342-3.016-0.591-4.666-0.738-0.926-1.31-1.897-2.508-2.885-3.558 0.181-0.178 0.362-0.351 0.542-0.518 1.992-1.835 3.845-2.846 5.22-2.846zM15.963 6.855c0.77 0.821 1.532 1.737 2.269 2.73-0.733-0.040-1.478-0.061-2.231-0.061-0.778 0-1.548 0.022-2.305 0.064 0.736-0.991 1.498-1.911 2.268-2.734zM15.959 25.214c-0.798-0.846-1.586-1.793-2.348-2.823 0.784 0.046 1.582 0.069 2.389 0.069 0.777 0 1.548-0.023 2.306-0.066-0.761 1.026-1.551 1.975-2.347 2.82zM16 21.439c-1.097 0-2.15-0.042-3.153-0.121-0.564-0.822-1.109-1.687-1.628-2.586-0.511-0.885-0.981-1.778-1.406-2.666 0.442-0.93 0.933-1.866 1.47-2.797 0.52-0.901 1.072-1.775 1.646-2.608 0.979-0.075 2.004-0.115 3.071-0.115 1.040 0 2.040 0.038 2.995 0.11 0.574 0.835 1.13 1.715 1.658 2.63 0.534 0.926 1.024 1.857 1.464 2.783-0.423 0.881-0.891 1.767-1.4 2.648-0.519 0.899-1.070 1.771-1.643 2.604-1.002 0.079-2.031 0.12-3.074 0.12zM11.533 21.191c-1.256-0.145-2.423-0.349-3.486-0.6 0.323-1.075 0.732-2.19 1.221-3.322 0.334 0.66 0.69 1.319 1.068 1.974 0.386 0.668 0.786 1.319 1.198 1.948zM11.614 10.785c-0.416 0.634-0.822 1.293-1.215 1.973-0.404 0.7-0.783 1.403-1.135 2.106-0.514-1.179-0.944-2.34-1.279-3.455 1.103-0.263 2.318-0.475 3.63-0.624zM1.021 15.993c0-1.598 2.222-3.265 5.975-4.327 0.425 1.416 0.994 2.902 1.689 4.402-0.668 1.454-1.216 2.892-1.628 4.269-3.79-1.061-6.036-2.737-6.036-4.344zM9.563 29.226c-0.398 0-0.752-0.088-1.052-0.261-1.165-0.673-1.577-2.682-1.131-5.513 0.096-0.606 0.228-1.236 0.394-1.884 1.397 0.331 2.914 0.575 4.505 0.723 0.95 1.349 1.948 2.579 2.964 3.653-0.153 0.15-0.307 0.296-0.46 0.437-1.992 1.835-3.845 2.846-5.22 2.846zM24.556 23.467c0.447 2.831 0.034 4.841-1.131 5.513s-3.111 0.025-5.34-1.777c-0.469-0.38-0.941-0.801-1.41-1.26 1.005-1.061 2.006-2.288 2.966-3.648 1.595-0.146 3.12-0.388 4.52-0.716 0.166 0.649 0.299 1.28 0.395 1.887zM23.887 20.597c-1.094 0.254-2.268 0.454-3.495 0.595 0.414-0.632 0.819-1.288 1.21-1.966 0.376-0.651 0.729-1.305 1.061-1.958 0.49 1.134 0.901 2.251 1.225 3.328zM22.667 14.868c-0.351-0.698-0.728-1.398-1.129-2.094-0.396-0.686-0.807-1.353-1.231-1.998 1.318 0.146 2.538 0.357 3.647 0.618-0.337 1.123-0.769 2.289-1.287 3.473z"></path>
<path d="M16 13.439c-1.408 0-2.553 1.145-2.553 2.553s1.145 2.553 2.553 2.553c1.408 0 2.553-1.145 2.553-2.553s-1.145-2.553-2.553-2.553zM16 17.525c-0.845 0-1.532-0.687-1.532-1.532s0.687-1.532 1.532-1.532c0.845 0 1.532 0.687 1.532 1.532s-0.687 1.532-1.532 1.532z"></path>
</symbol>
<symbol id="fifth" viewBox="0 0 32 32">
<path d="M1.679 18.036c0.221 0 0.4-0.179 0.4-0.4v-2.62c0-0.762 0.617-1.379 1.379-1.379h0.292c0.221 0 0.4-0.179 0.4-0.4s-0.179-0.4-0.4-0.4h-0.292c-1.204 0-2.179 0.976-2.179 2.179v2.62c0 0.221 0.179 0.4 0.4 0.4z"></path>
<path d="M30.321 17.973c0.221 0 0.4-0.179 0.4-0.4v-2.557c0-1.204-0.976-2.179-2.179-2.179h-0.229c-0.221 0-0.4 0.179-0.4 0.4s0.179 0.4 0.4 0.4h0.229c0.762 0 1.379 0.617 1.379 1.379v2.557c0 0.221 0.179 0.4 0.4 0.4z"></path>
<path d="M3.753 16.512c0.221 0 0.4-0.179 0.4-0.4v-2.99c0-1.118 0.717-2.069 1.718-2.416 0.209-0.072 0.319-0.3 0.247-0.509s-0.3-0.319-0.509-0.247c-1.312 0.456-2.255 1.703-2.255 3.172v2.99c0 0.221 0.179 0.4 0.4 0.4z"></path>
<path d="M11.533 14.21c0.221-0.005 0.396-0.188 0.391-0.409l-0.016-0.684c-0.002-1.457-0.932-2.696-2.23-3.158-0.208-0.074-0.437 0.034-0.511 0.242s0.034 0.437 0.242 0.511c0.99 0.353 1.698 1.299 1.698 2.409v0.009h0l0.016 0.688c0.005 0.221 0.188 0.396 0.409 0.391z"></path>
<path d="M4.835 8.757c0 1.543 1.251 2.793 2.793 2.793h0.005c1.543 0 2.793-1.251 2.793-2.793v-2.035c0-1.543-1.251-2.793-2.793-2.793h-0.005c-1.543 0-2.793 1.25-2.793 2.793v2.035zM7.628 10.75c-1.101 0-1.993-0.892-1.993-1.993v-2.035c0-1.101 0.892-1.993 1.993-1.993h0.005c1.101 0 1.993 0.892 1.993 1.993v2.035c0 1.101-0.892 1.993-1.993 1.993h-0.005z"></path>
<path d="M4.983 8.050c0.094 0.076 0.217 0.106 0.335 0.081l4.792-1.013c0.185-0.039 0.317-0.202 0.317-0.391 0-1.545-1.251-2.798-2.796-2.798s-2.796 1.253-2.796 2.798v1.013c0 0.121 0.054 0.235 0.148 0.311zM5.635 7.246v-0.519c0-1.104 0.894-1.998 1.996-1.998 0.994 0 1.818 0.727 1.971 1.679l-3.966 0.838z"></path>
<path d="M27.653 11.827c0.131 0.178 0.382 0.215 0.559 0.084 0.459-0.339 0.758-0.886 0.758-1.502v-5.28c0-1.031-0.835-1.866-1.866-1.866-0.823 0-1.521 0.533-1.769 1.271-0.070 0.209 0.042 0.436 0.252 0.507s0.436-0.042 0.507-0.252c0.142-0.423 0.542-0.726 1.011-0.726 0.589 0 1.066 0.477 1.066 1.066v5.28c0 0.352-0.17 0.663-0.434 0.858-0.178 0.131-0.215 0.382-0.084 0.559z"></path>
<path d="M28.247 16.512c0.221 0 0.4-0.179 0.4-0.4v-2.99c0-1.459-0.931-2.7-2.23-3.163-0.208-0.074-0.437 0.034-0.511 0.243s0.034 0.437 0.243 0.511c0.991 0.353 1.699 1.299 1.699 2.409v2.99c0 0.221 0.179 0.4 0.4 0.4z"></path>
<path d="M20.492 14.212c0.221 0 0.4-0.179 0.4-0.4v-0.691c0-1.111 0.708-2.057 1.699-2.409 0.208-0.074 0.317-0.303 0.243-0.511s-0.303-0.317-0.511-0.243c-1.299 0.463-2.231 1.704-2.231 3.163v0.691c0 0.221 0.179 0.4 0.4 0.4z"></path>
<path d="M21.573 8.757c0 1.543 1.251 2.793 2.793 2.793h0.005c1.543 0 2.793-1.251 2.793-2.793v-2.035c0-1.543-1.251-2.793-2.793-2.793h-0.005c-1.543 0-2.793 1.25-2.793 2.793v2.035zM24.367 10.75c-1.101 0-1.993-0.892-1.993-1.993v-2.035c0-1.101 0.892-1.993 1.993-1.993h0.005c1.101 0 1.993 0.892 1.993 1.993v2.035c0 1.101-0.892 1.993-1.993 1.993h-0.005z"></path>
<path d="M21.722 8.050c0.094 0.076 0.217 0.106 0.335 0.081l4.792-1.013c0.185-0.039 0.317-0.202 0.317-0.391 0-1.545-1.251-2.798-2.796-2.798s-2.796 1.253-2.796 2.798v1.013c0 0.121 0.054 0.235 0.148 0.311zM22.373 7.246v-0.519c0-1.104 0.894-1.998 1.996-1.998 0.994 0 1.818 0.727 1.971 1.679l-3.966 0.838z"></path>
<path d="M11.495 27.084c1.428 0.185 2.941 0.284 4.505 0.284 1.562 0 3.071-0.099 4.497-0.283 0.219-0.028 0.374-0.229 0.346-0.448s-0.229-0.374-0.448-0.346c-1.391 0.18-2.866 0.276-4.394 0.276-1.531 0-3.009-0.097-4.403-0.277-0.219-0.028-0.42 0.126-0.448 0.345s0.126 0.42 0.345 0.448z"></path>
<path d="M27.593 24.726c0.102 0.196 0.344 0.272 0.54 0.17 2.27-1.182 3.799-2.781 3.799-4.649 0-1.932-1.633-3.576-4.040-4.772-2.438-1.21-5.809-2.037-9.597-2.277-0.22-0.014-0.41 0.153-0.424 0.374s0.153 0.411 0.374 0.425c3.714 0.235 6.974 1.044 9.292 2.195 2.349 1.166 3.596 2.609 3.596 4.055 0 1.398-1.163 2.792-3.368 3.94-0.196 0.102-0.272 0.344-0.17 0.539z"></path>
<path d="M4.44 24.742c0.101-0.196 0.025-0.438-0.172-0.539-2.225-1.15-3.399-2.551-3.399-3.956 0-1.502 1.346-2.999 3.861-4.184 2.48-1.168 5.953-1.957 9.872-2.11 0.221-0.009 0.393-0.195 0.384-0.415s-0.195-0.393-0.415-0.384c-3.996 0.156-7.582 0.961-10.182 2.186-2.565 1.208-4.32 2.904-4.32 4.907 0 1.877 1.543 3.483 3.832 4.666 0.196 0.101 0.438 0.025 0.539-0.172z"></path>
<path d="M3.753 26.387c0.221 0 0.4-0.179 0.4-0.4 0-0.902 0.467-1.696 1.174-2.151 0.186-0.12 0.239-0.367 0.12-0.553s-0.367-0.239-0.553-0.12c-0.926 0.597-1.541 1.638-1.541 2.824 0 0.221 0.179 0.4 0.4 0.4z"></path>
<path d="M11.508 28.148c0.221 0 0.4-0.179 0.4-0.4v-1.761c0-1.199-0.628-2.25-1.572-2.843-0.187-0.118-0.434-0.061-0.552 0.126s-0.061 0.434 0.126 0.552c0.721 0.453 1.198 1.254 1.198 2.166v1.761c0 0.221 0.179 0.4 0.4 0.4z"></path>
<path d="M8.298 26.881c0.095 0.2 0.334 0.284 0.533 0.19 0.942-0.448 1.595-1.409 1.595-2.524v-4.96c0-1.543-1.251-2.793-2.793-2.793h-0.005c-1.543 0-2.793 1.251-2.793 2.793v4.96c0 0.66 0.23 1.268 0.613 1.747 0.138 0.172 0.39 0.2 0.562 0.062s0.2-0.39 0.062-0.562c-0.274-0.341-0.437-0.774-0.437-1.246v-4.96c0-1.101 0.892-1.993 1.993-1.993h0.005c1.101 0 1.993 0.892 1.993 1.993v4.96c0 0.794-0.465 1.481-1.139 1.801-0.2 0.095-0.284 0.333-0.19 0.533z"></path>
<path d="M28.247 26.504c0.221 0 0.4-0.179 0.4-0.4v-0.118c0-1.472-0.947-2.721-2.264-3.175-0.209-0.072-0.437 0.039-0.508 0.248s0.039 0.436 0.248 0.508c1.004 0.346 1.724 1.298 1.724 2.418v0.118c0 0.221 0.179 0.4 0.4 0.4z"></path>
<path d="M20.492 28.171c0.221 0 0.4-0.179 0.4-0.4v-1.784c0-1.125 0.727-2.082 1.738-2.423 0.209-0.071 0.322-0.298 0.251-0.507s-0.298-0.322-0.507-0.251c-1.327 0.448-2.283 1.702-2.283 3.181v1.784c0 0.221 0.179 0.4 0.4 0.4z"></path>
<path d="M21.573 21.622c0 1.543 1.251 2.793 2.793 2.793h0.005c1.543 0 2.793-1.251 2.793-2.793v-2.035c0-1.543-1.251-2.793-2.793-2.793h-0.005c-1.543 0-2.793 1.25-2.793 2.793v2.035zM24.367 23.615c-1.101 0-1.993-0.892-1.993-1.993v-2.035c0-1.101 0.892-1.993 1.993-1.993h0.005c1.101 0 1.993 0.892 1.993 1.993v2.035c0 1.101-0.892 1.993-1.993 1.993h-0.005z"></path>
<path d="M1.279 30.361c0 0.867 0.703 1.57 1.57 1.57h6.169c0.221 0 0.4-0.179 0.4-0.4v-3.65c0-1.204-0.976-2.179-2.179-2.179h-3.78c-1.204 0-2.179 0.976-2.179 2.179v2.48zM2.849 31.131c-0.425 0-0.77-0.345-0.77-0.77v-2.48c0-0.762 0.617-1.379 1.379-1.379h3.78c0.762 0 1.379 0.618 1.379 1.379v3.25h-5.769z"></path>
<path d="M8.661 31.745c0.118 0.187 0.365 0.242 0.552 0.124l3.518-2.226c0.372-0.243 0.596-0.658 0.596-1.102 0-1.045-1.159-1.673-2.034-1.104l-2.506 1.564c-0.187 0.117-0.245 0.364-0.128 0.551s0.364 0.245 0.551 0.128l2.516-1.57c0.344-0.225 0.8 0.022 0.8 0.432 0 0.174-0.087 0.336-0.232 0.431l-3.51 2.221c-0.187 0.118-0.242 0.365-0.124 0.552z"></path>
<path d="M23.175 31.882c0.128-0.070 0.207-0.205 0.207-0.35v-2.191c0-0.138-0.071-0.266-0.188-0.339l-2.506-1.564c-0.875-0.569-2.034 0.059-2.034 1.104 0 0.444 0.224 0.859 0.596 1.102l0.005 0.003 3.513 2.223c0.123 0.078 0.279 0.083 0.407 0.012zM19.686 28.972c-0.145-0.096-0.232-0.258-0.232-0.431 0-0.411 0.456-0.657 0.8-0.432l0.007 0.005 0-0 2.321 1.448v1.243l-2.896-1.832z"></path>
<path d="M22.582 31.531c0 0.221 0.179 0.4 0.4 0.4h6.169c0.836 0 1.517-0.654 1.566-1.476 0.013-0.22-0.155-0.41-0.376-0.423s-0.41 0.155-0.423 0.376c-0.024 0.404-0.358 0.724-0.767 0.724h-5.769v-3.25c0-0.762 0.618-1.379 1.379-1.379h3.78c0.762 0 1.379 0.617 1.379 1.379v0.063c0 0.221 0.179 0.4 0.4 0.4s0.4-0.179 0.4-0.4v-0.063c0-1.204-0.976-2.179-2.179-2.179h-3.78c-1.204 0-2.179 0.976-2.179 2.179v3.65z"></path>
<path d="M19.575 23.671c0.124-0.071 0.201-0.204 0.201-0.347v-1.296c0.617-0.606 1.001-1.45 1.001-2.384 0-1.846-1.496-3.342-3.342-3.342s-3.342 1.496-3.342 3.342c0 1.846 1.496 3.342 3.342 3.342 0.172 0 0.342-0.013 0.507-0.038l1.232 0.722c0.124 0.072 0.277 0.073 0.401 0.002zM18.976 22.626l-0.756-0.443c-0.085-0.050-0.185-0.066-0.281-0.047-0.163 0.033-0.331 0.050-0.504 0.050-1.404 0-2.542-1.138-2.542-2.542s1.138-2.542 2.542-2.542c1.404 0 2.542 1.138 2.542 2.542 0 0.761-0.334 1.443-0.865 1.91-0.086 0.076-0.136 0.185-0.136 0.3v0.772z"></path>
<path d="M16.038 20.156c0.603 0 0.604-0.938 0-0.938s-0.604 0.938 0 0.938z"></path>
<path d="M17.436 20.156c0.603 0 0.604-0.938 0-0.938-0.603 0-0.604 0.938 0 0.938z"></path>
<path d="M18.834 20.156c0.603 0 0.604-0.938 0-0.938s-0.604 0.938 0 0.938z"></path>
<path d="M12.326 11.338c0.124 0.071 0.277 0.070 0.401-0.002l1.232-0.722c0.165 0.025 0.335 0.038 0.507 0.038 1.846 0 3.342-1.496 3.342-3.342 0-0.46-0.093-0.899-0.262-1.299-0.086-0.204-0.321-0.299-0.524-0.213s-0.299 0.321-0.213 0.524c0.128 0.303 0.199 0.637 0.199 0.988 0 1.404-1.138 2.542-2.542 2.542-0.172 0-0.341-0.017-0.504-0.050-0.096-0.019-0.196-0.003-0.281 0.047l-0.756 0.443v-0.772c0-0.115-0.050-0.224-0.136-0.3-0.531-0.467-0.865-1.149-0.865-1.91 0-1.404 1.138-2.542 2.542-2.542 0.352 0 0.686 0.071 0.989 0.2 0.203 0.086 0.438-0.009 0.524-0.213s-0.009-0.438-0.213-0.524c-0.4-0.169-0.84-0.263-1.301-0.263-1.846 0-3.342 1.496-3.342 3.342 0 0.934 0.384 1.778 1.001 2.384v1.296c0 0.143 0.077 0.276 0.201 0.347z"></path>
<path d="M13.068 7.823c0.603 0 0.604-0.938 0-0.938s-0.604 0.938 0 0.938z"></path>
<path d="M14.466 7.823c0.603 0 0.604-0.938 0-0.938s-0.604 0.938 0 0.938z"></path>
<path d="M15.864 7.823c0.603 0 0.604-0.938 0-0.938-0.603 0-0.604 0.938 0 0.938z"></path>
<path d="M20.549 7.438c0.124-0.071 0.201-0.204 0.201-0.347v-1.296c0.617-0.606 1.001-1.45 1.001-2.384 0-1.846-1.496-3.342-3.342-3.342s-3.342 1.496-3.342 3.342c0 1.846 1.496 3.342 3.342 3.342 0.172 0 0.342-0.013 0.507-0.038l1.232 0.722c0.124 0.072 0.277 0.073 0.401 0.002zM19.95 6.393l-0.756-0.443c-0.085-0.050-0.185-0.066-0.281-0.047-0.163 0.033-0.331 0.050-0.504 0.050-1.404 0-2.542-1.138-2.542-2.542s1.138-2.542 2.542-2.542c1.404 0 2.542 1.138 2.542 2.542 0 0.761-0.334 1.443-0.865 1.91-0.086 0.076-0.136 0.185-0.136 0.3v0.772z"></path>
<path d="M19.458 4.476c0.156-0.156 0.156-0.409 0-0.566l-1.532-1.532c-0.156-0.156-0.41-0.156-0.566 0s-0.156 0.409 0 0.566l1.532 1.532c0.156 0.156 0.409 0.156 0.566 0z"></path>
<path d="M17.36 4.476c0.156 0.156 0.41 0.156 0.566 0l1.532-1.532c0.156-0.156 0.156-0.409 0-0.566s-0.41-0.156-0.566 0l-1.532 1.532c-0.156 0.156-0.156 0.409 0 0.566z"></path>
</symbol>
<symbol id="sixth" viewBox="0 0 32 32">
<path stroke-linejoin="round" stroke-linecap="round" stroke-miterlimit="10" stroke-width="0.8" d="M14.537 28.729h13.97c0.768 0 1.392-0.623 1.392-1.392v-5.394"></path>
<path stroke-linejoin="round" stroke-linecap="round" stroke-miterlimit="10" stroke-width="0.8" d="M13.057 0.469h-3.793c-0.768 0-1.391 0.623-1.391 1.391v9.212"></path>
<path stroke-linejoin="round" stroke-linecap="round" stroke-miterlimit="10" stroke-width="0.8" d="M29.899 19.807v-17.947c0-0.768-0.623-1.391-1.391-1.391h-13.314"></path>
<path stroke-linejoin="round" stroke-linecap="round" stroke-miterlimit="10" stroke-width="0.8" d="M27.2 8.437h-16.629v-4.607h16.629v4.607z"></path>
<path stroke-linejoin="round" stroke-linecap="round" stroke-miterlimit="10" stroke-width="0.8" d="M15.284 11.888c0.155-0.267 0.444-0.446 0.774-0.446h1.161c0.494 0 0.895 0.401 0.895 0.895s-0.401 0.895-0.895 0.895h-0.786"></path>
<path stroke-linejoin="round" stroke-linecap="round" stroke-miterlimit="10" stroke-width="0.8" d="M21.713 13.233h-1.161c-0.495 0-0.895-0.401-0.895-0.895s0.401-0.895 0.895-0.895h1.161c0.495 0 0.895 0.401 0.895 0.895s-0.401 0.895-0.895 0.895z"></path>
<path stroke-linejoin="round" stroke-linecap="round" stroke-miterlimit="10" stroke-width="0.8" d="M26.207 13.233h-1.161c-0.494 0-0.895-0.401-0.895-0.895s0.401-0.895 0.895-0.895h1.161c0.494 0 0.895 0.401 0.895 0.895s-0.401 0.895-0.895 0.895z"></path>
<path stroke-linejoin="round" stroke-linecap="round" stroke-miterlimit="10" stroke-width="0.8" d="M16.308 16h0.911c0.494 0 0.895 0.401 0.895 0.895s-0.401 0.895-0.895 0.895h-1.161c-0.494 0-0.895-0.401-0.895-0.895"></path>
<path stroke-linejoin="round" stroke-linecap="round" stroke-miterlimit="10" stroke-width="0.8" d="M21.713 17.791h-1.161c-0.495 0-0.895-0.401-0.895-0.895s0.401-0.895 0.895-0.895h1.161c0.495 0 0.895 0.401 0.895 0.895s-0.401 0.895-0.895 0.895z"></path>
<path stroke-linejoin="round" stroke-linecap="round" stroke-miterlimit="10" stroke-width="0.8" d="M26.207 17.791h-1.161c-0.494 0-0.895-0.401-0.895-0.895s0.401-0.895 0.895-0.895h1.161c0.494 0 0.895 0.401 0.895 0.895s-0.401 0.895-0.895 0.895z"></path>
<path stroke-linejoin="round" stroke-linecap="round" stroke-miterlimit="10" stroke-width="0.8" d="M15.163 20.558c0-0.494 0.401-0.895 0.895-0.895h1.161c0.495 0 0.895 0.401 0.895 0.895s-0.401 0.895-0.895 0.895h-1.036"></path>
<path stroke-linejoin="round" stroke-linecap="round" stroke-miterlimit="10" stroke-width="0.8" d="M21.713 21.454h-1.161c-0.495 0-0.895-0.401-0.895-0.895s0.401-0.895 0.895-0.895h1.161c0.495 0 0.895 0.401 0.895 0.895s-0.401 0.895-0.895 0.895z"></path>
<path stroke-linejoin="round" stroke-linecap="round" stroke-miterlimit="10" stroke-width="0.8" d="M26.207 21.454h-1.161c-0.494 0-0.895-0.401-0.895-0.895s0.401-0.895 0.895-0.895h1.161c0.494 0 0.895 0.401 0.895 0.895s-0.401 0.895-0.895 0.895z"></path>
<path stroke-linejoin="round" stroke-linecap="round" stroke-miterlimit="10" stroke-width="0.8" d="M16.433 23.325h0.786c0.494 0 0.895 0.401 0.895 0.895s-0.401 0.895-0.895 0.895h-1.036"></path>
<path stroke-linejoin="round" stroke-linecap="round" stroke-miterlimit="10" stroke-width="0.8" d="M21.713 25.116h-1.161c-0.495 0-0.895-0.401-0.895-0.895s0.401-0.895 0.895-0.895h1.161c0.495 0 0.895 0.401 0.895 0.895s-0.401 0.895-0.895 0.895z"></path>
<path stroke-linejoin="round" stroke-linecap="round" stroke-miterlimit="10" stroke-width="0.8" d="M26.207 25.116h-1.161c-0.494 0-0.895-0.401-0.895-0.895s0.401-0.895 0.895-0.895h1.161c0.494 0 0.895 0.401 0.895 0.895s-0.401 0.895-0.895 0.895z"></path>
<path stroke-linejoin="round" stroke-linecap="round" stroke-miterlimit="10" stroke-width="0.8" d="M2.101 26.882v2.617c0 0.988 2.158 1.811 5.018 1.994"></path>
<path stroke-linejoin="round" stroke-linecap="round" stroke-miterlimit="10" stroke-width="0.8" d="M9.256 31.508c2.99-0.148 5.282-0.991 5.282-2.009v-2.617"></path>
<path stroke-linejoin="round" stroke-linecap="round" stroke-miterlimit="10" stroke-width="0.8" d="M14.164 26.187c0.242 0.217 0.373 0.451 0.373 0.695 0 1.122-2.784 2.032-6.218 2.032s-6.218-0.91-6.218-2.032c0-0.605 0.809-1.148 2.094-1.52"></path>
<path stroke-linejoin="round" stroke-linecap="round" stroke-miterlimit="10" stroke-width="0.8" d="M3.868 21.954v2.617c0 1.122 2.784 2.032 6.218 2.032s6.218-0.91 6.218-2.032v-2.617"></path>
<path stroke-linejoin="round" stroke-linecap="round" stroke-miterlimit="10" stroke-width="0.8" d="M14.186 20.427c1.298 0.372 2.118 0.919 2.118 1.528 0 1.122-2.784 2.032-6.218 2.032s-6.218-0.91-6.218-2.032c0-0.248 0.136-0.485 0.384-0.704"></path>
<path stroke-linejoin="round" stroke-linecap="round" stroke-miterlimit="10" stroke-width="0.8" d="M2.101 17.026v2.617c0 1.122 2.784 2.032 6.218 2.032s6.218-0.91 6.218-2.032v-2.41"></path>
<path stroke-linejoin="round" stroke-linecap="round" stroke-miterlimit="10" stroke-width="0.8" d="M14.505 17.234c-0.318 1.024-2.966 1.824-6.186 1.824-3.434 0-6.218-0.91-6.218-2.032 0-0.521 0.601-0.997 1.589-1.357"></path>
<path stroke-linejoin="round" stroke-linecap="round" stroke-miterlimit="10" stroke-width="0.8" d="M3.868 13.104v2.617c0 1.122 2.784 2.032 6.218 2.032s6.218-0.91 6.218-2.032v-2.617"></path>
<path stroke-linejoin="round" stroke-linecap="round" stroke-miterlimit="10" stroke-width="0.8" d="M16.304 13.104c0 1.122-2.784 2.032-6.218 2.032s-6.218-0.91-6.218-2.032 2.784-2.032 6.218-2.032c3.434 0 6.218 0.91 6.218 2.032z"></path>
<path stroke-linejoin="round" stroke-linecap="round" stroke-miterlimit="10" stroke-width="0.8" d="M4.301 9.723h1.585"></path>
<path stroke-linejoin="round" stroke-linecap="round" stroke-miterlimit="10" stroke-width="0.8" d="M4.301 8.271h1.585"></path>
<path stroke-linejoin="round" stroke-linecap="round" stroke-miterlimit="10" stroke-width="0.8" d="M5.889 6.659h-0.006"></path>
</symbol>
<symbol id="seventh" viewBox="0 0 32 32">
<path stroke-linejoin="round" stroke-linecap="round" stroke-miterlimit="10" stroke-width="0.8" d="M18.038 8.19c-0.147 0.12-0.334 0.193-0.538 0.193-0.115 0-0.227-0.013-0.335-0.036v3.227c0 0.042-0.002 0.084-0.003 0.127 1.095 0.062 2.094-0.748 2.094-1.732 0-0.764-0.495-1.54-1.218-1.779z"></path>
<path stroke-linejoin="round" stroke-linecap="round" stroke-miterlimit="10" stroke-width="0.8" d="M15.878 6.76c0-0.087-0.116-0.117-0.157-0.040-0.529 0.989-1.572 1.663-2.772 1.663h-4.811v3.191c0 2.325 1.822 4.449 4.578 4.449 2.453 0 4.449-1.996 4.449-4.449v-3.226c-0.733-0.156-1.287-0.81-1.287-1.587z"></path>
<path stroke-linejoin="round" stroke-linecap="round" stroke-miterlimit="10" stroke-width="0.8" d="M8.138 11.573v-3.191h-0.556c-0.169 0-0.33-0.033-0.479-0.091-0.6 0.293-1.056 0.983-1.056 1.676 0 0.982 0.997 1.794 2.094 1.732-0.001-0.042-0.003-0.084-0.003-0.127z"></path>
<path stroke-linejoin="round" stroke-linecap="round" stroke-miterlimit="10" stroke-width="0.8" d="M18.068 29.695c-0.449 0-0.828-0.379-0.828-0.828v-2.732c0-0.449 0.379-0.828 0.828-0.828-0.449 0-0.828-0.379-0.828-0.828v-2.732c0-0.449 0.379-0.828 0.828-0.828-0.449 0-0.828-0.379-0.828-0.828v-2.203c-0.862-0.334-1.564-0.606-1.779-0.689-0.173-0.067-0.288-0.233-0.288-0.42l-0.001-1.5c-0.704 0.468-1.549 0.742-2.457 0.742-0.975 0-1.833-0.267-2.535-0.713v1.469c0 0.345-0.308 0.428-0.439 0.479-0.196 0.076-5.369 2.082-6.151 2.384-1.043 0.429-2.44 1.78-2.44 3.785v7.292c0 0.449 0.364 0.813 0.813 0.813h21.428c0.449 0 0.813-0.364 0.813-0.813v-1.024h-6.137z"></path>
<path stroke-linejoin="round" stroke-linecap="round" stroke-miterlimit="10" stroke-width="0.8" d="M13.674 19.781c-0.078-0.072-0.111-0.174-0.1-0.271h-1.78c0.012 0.098-0.022 0.2-0.1 0.271l-0.090 0.082v3.073c0 0.25 0.202 0.452 0.452 0.452h1.255c0.25 0 0.452-0.202 0.452-0.452v-3.073l-0.090-0.082z"></path>
<path stroke-linejoin="round" stroke-linecap="round" stroke-miterlimit="10" stroke-width="0.8" d="M17.24 17.889c-0.747-0.289-1.374-0.532-1.667-0.646l-1.919 2.089c-0.118 0.129-0.11 0.329 0.019 0.448l1.124 1.032c0.129 0.118 0.329 0.11 0.448-0.019l1.996-2.173v-0.731z"></path>
<path stroke-linejoin="round" stroke-linecap="round" stroke-miterlimit="10" stroke-width="0.8" d="M7.628 18.077l2.494 2.717c0.118 0.129 0.319 0.138 0.448 0.019l1.123-1.032c0.129-0.118 0.138-0.319 0.019-0.448l-1.923-2.094c-0.018 0.007-0.034 0.013-0.049 0.018-0.080 0.031-1.002 0.388-2.114 0.819z"></path>
<path stroke-linejoin="round" stroke-linecap="round" stroke-miterlimit="10" stroke-width="0.8" d="M4.556 31.467v-7.478"></path>
<path stroke-linejoin="round" stroke-linecap="round" stroke-miterlimit="10" stroke-width="0.8" d="M30.021 25.308h-11.953c-0.449 0-0.828 0.379-0.828 0.828v2.732c0 0.449 0.379 0.828 0.828 0.828h11.953c0.449 0 0.828-0.379 0.828-0.828v-2.732c0-0.449-0.379-0.828-0.828-0.828z"></path>
<path stroke-linejoin="round" stroke-linecap="round" stroke-miterlimit="10" stroke-width="0.8" d="M23.266 27.501h-3.999"></path>
<path stroke-linejoin="round" stroke-linecap="round" stroke-miterlimit="10" stroke-width="0.8" d="M30.021 20.92h-11.953c-0.449 0-0.828 0.379-0.828 0.828v2.732c0 0.449 0.379 0.828 0.828 0.828h11.953c0.449 0 0.828-0.379 0.828-0.828v-2.732c0-0.449-0.379-0.828-0.828-0.828z"></path>
<path stroke-linejoin="round" stroke-linecap="round" stroke-miterlimit="10" stroke-width="0.8" d="M23.266 23.114h-3.999"></path>
<path stroke-linejoin="round" stroke-linecap="round" stroke-miterlimit="10" stroke-width="0.8" d="M28.816 23.114h-0.846"></path>
<path stroke-linejoin="round" stroke-linecap="round" stroke-miterlimit="10" stroke-width="0.8" d="M23.266 18.727h-3.999"></path>
<path stroke-linejoin="round" stroke-linecap="round" stroke-miterlimit="10" stroke-width="0.8" d="M28.816 18.727h-0.846"></path>
<path stroke-linejoin="round" stroke-linecap="round" stroke-miterlimit="10" stroke-width="0.8" d="M28.816 27.501h-0.846"></path>
<path stroke-linejoin="round" stroke-linecap="round" stroke-miterlimit="10" stroke-width="0.8" d="M26.321 23.114h-0.846"></path>
<path stroke-linejoin="round" stroke-linecap="round" stroke-miterlimit="10" stroke-width="0.8" d="M26.321 18.727h-0.846"></path>
<path stroke-linejoin="round" stroke-linecap="round" stroke-miterlimit="10" stroke-width="0.8" d="M26.321 27.501h-0.846"></path>
<path stroke-linejoin="round" stroke-linecap="round" stroke-miterlimit="10" stroke-width="0.8" d="M27.117 29.695v1.069c0 0.422 0.346 0.768 0.768 0.768h1.005c0.422 0 0.768-0.346 0.768-0.768v-1.069h-2.541z"></path>
<path stroke-linejoin="round" stroke-linecap="round" stroke-miterlimit="10" stroke-width="0.8" d="M18.431 29.695v1.069c0 0.422 0.346 0.768 0.768 0.768h1.005c0.422 0 0.768-0.346 0.768-0.768v-1.069h-2.541z"></path>
<path stroke-linejoin="round" stroke-linecap="round" stroke-miterlimit="10" stroke-width="0.8" d="M23.112 16.533h-5.043c-0.449 0-0.828 0.379-0.828 0.828v2.732c0 0.449 0.379 0.828 0.828 0.828h11.953c0.449 0 0.828-0.379 0.828-0.828v-2.732c0-0.449-0.379-0.828-0.828-0.828h-4.722"></path>
<path stroke-linejoin="round" stroke-linecap="round" stroke-miterlimit="10" stroke-width="0.8" d="M18.351 4.426v-0.492c0-0.848-0.74-1.464-1.475-1.407-0.425 0.033-0.815-0.235-0.897-0.653-0.138-0.705-0.487-1.404-1.85-1.404h-4.728c-1.735 0-3.142 1.407-3.142 3.142v3.449c0 0.731 0.592 1.323 1.323 1.323h5.367c1.2 0 2.243-0.673 2.772-1.663 0.041-0.077 0.157-0.047 0.157 0.040 0 0.892 0.73 1.623 1.623 1.623 0.468 0 0.851-0.383 0.851-0.85v-0.919"></path>
</symbol>
<symbol id="eighth" viewBox="0 0 32 32">
<path d="M1.596 1.975c-0.402 0-0.728 0.326-0.728 0.728v14.567c0 0.221-0.179 0.4-0.4 0.4s-0.4-0.179-0.4-0.4v-14.567c0-0.844 0.684-1.528 1.528-1.528h28.807c0.844 0 1.528 0.684 1.528 1.528v18.832c0 0.221-0.179 0.4-0.4 0.4h-31.063c-0.221 0-0.4-0.179-0.4-0.4v-1.872c0-0.221 0.179-0.4 0.4-0.4s0.4 0.179 0.4 0.4v1.472h30.263v-18.432c0-0.402-0.326-0.728-0.728-0.728h-28.807z"></path>
<path d="M0.069 21.535c0-0.221 0.179-0.4 0.4-0.4h31.063c0.221 0 0.4 0.179 0.4 0.4v2.203c0 0.844-0.684 1.528-1.528 1.528h-4.391c-0.221 0-0.4-0.179-0.4-0.4s0.179-0.4 0.4-0.4h4.391c0.402 0 0.728-0.326 0.728-0.728v-1.803h-30.263v1.803c0 0.402 0.326 0.728 0.728 0.728h22.235c0.221 0 0.4 0.179 0.4 0.4s-0.179 0.4-0.4 0.4h-22.235c-0.844 0-1.528-0.684-1.528-1.528v-2.203z"></path>
<path d="M11.312 24.866c0-0.221 0.179-0.4 0.4-0.4h8.577c0.221 0 0.4 0.179 0.4 0.4v5.559c0 0.221-0.179 0.4-0.4 0.4h-8.577c-0.221 0-0.4-0.179-0.4-0.4v-5.559zM12.112 25.266v4.759h7.777v-4.759h-7.777z"></path>
<path d="M8.22 30.425c0-0.221 0.179-0.4 0.4-0.4h14.76c0.221 0 0.4 0.179 0.4 0.4s-0.179 0.4-0.4 0.4h-14.76c-0.221 0-0.4-0.179-0.4-0.4z"></path>
<path d="M8.645 7.156c0.109-0.179 0.337-0.244 0.524-0.149l7.013 3.575c0.134 0.068 0.218 0.206 0.218 0.356v8.605c0 0.221-0.179 0.4-0.4 0.4s-0.44-0.052-0.642-0.155c0 0-0 0-0 0s-0-0-0-0l-6.132-3.126c0 0-0 0-0-0-0.495-0.252-0.8-0.768-0.8-1.323v-7.403c0-0.281 0.078-0.551 0.218-0.781zM9.227 7.935c0 0.001 0 0.002 0 0.003v7.403c0 0.266 0.146 0.5 0.363 0.611l0 0 6.010 3.064v-7.831l-6.373-3.249z"></path>
<path d="M22.831 7.008c0.187-0.095 0.415-0.030 0.524 0.149 0.14 0.231 0.218 0.5 0.218 0.782v7.403c0 0.555-0.305 1.072-0.8 1.324l-6.131 3.126c-0.202 0.103-0.421 0.155-0.642 0.155s-0.4-0.179-0.4-0.4v-8.605c0-0.15 0.084-0.288 0.218-0.356l7.013-3.575zM16.4 11.184v7.831l6.010-3.064c0.217-0.11 0.363-0.345 0.363-0.611v-7.403c0-0.001 0-0.002 0-0.003l-6.373 3.249z"></path>
<path d="M16.29 4.039c-0.181-0.098-0.396-0.098-0.577-0.001-0.001 0.001-0.002 0.001-0.004 0.002l-0.001 0c-0.001 0.001-0.003 0.001-0.004 0.002l-2.039 1.095c-0.195 0.105-0.437 0.032-0.542-0.163s-0.031-0.437 0.163-0.542l2.044-1.098c0.002-0.001 0.004-0.002 0.005-0.003l0.001-0c0.002-0.001 0.004-0.002 0.006-0.003 0.416-0.219 0.911-0.217 1.326 0.007l6.131 3.294c0 0 0 0 0 0 0.233 0.125 0.422 0.31 0.555 0.528 0.058 0.095 0.073 0.21 0.043 0.317s-0.104 0.196-0.203 0.247l-7.013 3.575c-0.114 0.058-0.249 0.058-0.363 0l-7.013-3.575c-0.099-0.051-0.173-0.14-0.203-0.247s-0.015-0.222 0.043-0.317c0.132-0.217 0.321-0.402 0.555-0.528 0-0 0-0 0-0l1.973-1.060c0.195-0.105 0.437-0.032 0.542 0.163s0.032 0.437-0.163 0.542l-1.862 1 6.31 3.217 6.31-3.217-6.020-3.234zM15.719 4.034c0.001-0 0.002-0.001 0.002-0.001l-0.001 0z"></path>
<path d="M21.141 3.613c0.072-0.059 0.161-0.091 0.254-0.091h4.101c0.221 0 0.4 0.179 0.4 0.4s-0.179 0.4-0.4 0.4h-3.958l-3.044 2.505c-0.171 0.14-0.423 0.116-0.563-0.055s-0.116-0.423 0.055-0.563l3.155-2.596z"></path>
<path d="M18.41 15.717c0.156-0.156 0.409-0.156 0.566 0l3.271 3.271h3.362c0.221 0 0.4 0.179 0.4 0.4s-0.179 0.4-0.4 0.4h-3.528c-0.106 0-0.208-0.042-0.283-0.117l-3.388-3.388c-0.156-0.156-0.156-0.41 0-0.566z"></path>
<path d="M5.954 14.701c0-0.221 0.179-0.4 0.4-0.4h5.106c0.221 0 0.4 0.179 0.4 0.4s-0.179 0.4-0.4 0.4h-5.106c-0.221 0-0.4-0.179-0.4-0.4z"></path>
<path d="M25.637 4.322c-0.153 0-0.277 0.124-0.277 0.277v3.827c0 0.153 0.124 0.277 0.277 0.277h3.434c0.153 0 0.277-0.124 0.277-0.277v-3.827c0-0.153-0.124-0.277-0.277-0.277h-3.434zM24.56 4.599c0-0.595 0.482-1.077 1.077-1.077h3.434c0.595 0 1.077 0.482 1.077 1.077v3.827c0 0.595-0.482 1.077-1.077 1.077h-3.434c-0.595 0-1.077-0.482-1.077-1.077v-3.827z"></path>
<path d="M26.094 5.656c0-0.221 0.179-0.4 0.4-0.4h1.76c0.221 0 0.4 0.179 0.4 0.4s-0.179 0.4-0.4 0.4h-1.76c-0.221 0-0.4-0.179-0.4-0.4z"></path>
<path d="M26.094 7.368c0-0.221 0.179-0.4 0.4-0.4h1.76c0.221 0 0.4 0.179 0.4 0.4s-0.179 0.4-0.4 0.4h-1.76c-0.221 0-0.4-0.179-0.4-0.4z"></path>
<path d="M25.637 14.608c-0.153 0-0.277 0.124-0.277 0.277v3.827c0 0.153 0.124 0.277 0.277 0.277h3.434c0.153 0 0.277-0.124 0.277-0.277v-3.827c0-0.153-0.124-0.277-0.277-0.277h-3.434zM24.56 14.885c0-0.595 0.482-1.077 1.077-1.077h3.434c0.595 0 1.077 0.482 1.077 1.077v3.827c0 0.595-0.482 1.077-1.077 1.077h-3.434c-0.595 0-1.077-0.482-1.077-1.077v-3.827z"></path>
<path d="M26.094 15.942c0-0.221 0.179-0.4 0.4-0.4h1.76c0.221 0 0.4 0.179 0.4 0.4s-0.179 0.4-0.4 0.4h-1.76c-0.221 0-0.4-0.179-0.4-0.4z"></path>
<path d="M26.094 17.654c0-0.221 0.179-0.4 0.4-0.4h1.76c0.221 0 0.4 0.179 0.4 0.4s-0.179 0.4-0.4 0.4h-1.76c-0.221 0-0.4-0.179-0.4-0.4z"></path>
<path d="M2.92 9.92c-0.153 0-0.277 0.124-0.277 0.277v3.827c0 0.153 0.124 0.277 0.277 0.277h3.434c0.153 0 0.277-0.124 0.277-0.277 0-0 0 0 0 0v-3.827c0-0.153-0.124-0.277-0.277-0.277h-3.434zM1.843 10.197c0-0.595 0.482-1.077 1.077-1.077h3.434c0.595 0 1.077 0.482 1.077 1.077v3.827c-0 0.595-0.482 1.077-1.077 1.077h-3.434c-0.595 0-1.077-0.482-1.077-1.077v-3.827z"></path>
<path d="M3.378 11.254c0-0.221 0.179-0.4 0.4-0.4h1.76c0.221 0 0.4 0.179 0.4 0.4s-0.179 0.4-0.4 0.4h-1.76c-0.221 0-0.4-0.179-0.4-0.4z"></path>
<path d="M3.378 12.967c0-0.221 0.179-0.4 0.4-0.4h1.76c0.221 0 0.4 0.179 0.4 0.4s-0.179 0.4-0.4 0.4h-1.76c-0.221 0-0.4-0.179-0.4-0.4z"></path>
<path d="M1.843 3.901c0-0.221 0.179-0.4 0.4-0.4h3.294c0.221 0 0.4 0.179 0.4 0.4s-0.179 0.4-0.4 0.4h-3.294c-0.221 0-0.4-0.179-0.4-0.4z"></path>
<path d="M1.843 5.632c0-0.221 0.179-0.4 0.4-0.4h2.394c0.221 0 0.4 0.179 0.4 0.4s-0.179 0.4-0.4 0.4h-2.394c-0.221 0-0.4-0.179-0.4-0.4z"></path>
<path d="M1.843 7.364c0-0.221 0.179-0.4 0.4-0.4h4.377c0.221 0 0.4 0.179 0.4 0.4s-0.179 0.4-0.4 0.4h-4.377c-0.221 0-0.4-0.179-0.4-0.4z"></path>
<path d="M28.776 21.135c0.221 0 0.4 0.179 0.4 0.4v1.401c0 0.221-0.179 0.4-0.4 0.4s-0.4-0.179-0.4-0.4v-1.401c0-0.221 0.179-0.4 0.4-0.4z"></path>
</symbol>
<symbol id="tenth" viewBox="0 0 31 32">
<path d="M18.649 22.486c0.261 0 0.472-0.211 0.472-0.472s-0.211-0.472-0.472-0.472c-0.261 0-0.472 0.211-0.472 0.472s0.211 0.472 0.472 0.472z"></path>
<path d="M26.721 20.535c-0.815 0-1.479 0.663-1.479 1.479s0.663 1.479 1.479 1.479 1.479-0.663 1.479-1.479c0-0.815-0.663-1.479-1.479-1.479zM26.721 22.548c-0.295 0-0.535-0.24-0.535-0.535s0.24-0.535 0.535-0.535c0.295 0 0.535 0.24 0.535 0.535s-0.24 0.535-0.535 0.535z"></path>
<path d="M30.126 17.072h-5.308c0.923-1.030 1.308-2.479 0.951-3.871l-1.215-4.739c-0.065-0.252-0.322-0.405-0.574-0.34s-0.405 0.322-0.34 0.574l1.215 4.739c0.351 1.368-0.221 2.807-1.395 3.567l-2.515-3.15c-0.494-0.618-1.231-0.973-2.022-0.973h-6.626c-0.791 0-1.528 0.355-2.022 0.973l-2.515 3.15c-1.174-0.76-1.746-2.199-1.395-3.567l1.542-6.016c0.248-0.969 0.956-1.757 1.893-2.108l1.296-0.485c0.3-0.112 0.641-0.038 0.867 0.188l0 0 1.292 1.292c0.327 0.327 0.761 0.506 1.223 0.506h2.265c0.462 0 0.896-0.18 1.223-0.506l1.292-1.292c0.227-0.227 0.567-0.301 0.868-0.188l1.296 0.485c0.762 0.285 1.369 0.849 1.709 1.588 0.080 0.173 0.25 0.275 0.429 0.275 0.066 0 0.133-0.014 0.197-0.043 0.237-0.109 0.34-0.389 0.232-0.626-0.445-0.967-1.239-1.704-2.236-2.077l-1.296-0.485c-0.58-0.217-1.229-0.11-1.708 0.267h-6.274c-0.48-0.377-1.128-0.484-1.708-0.267l-1.296 0.485c-1.226 0.458-2.152 1.489-2.477 2.757l-1.542 6.016c-0.357 1.392 0.028 2.841 0.951 3.871h-5.308c-0.603 0-1.093 0.491-1.093 1.093v7.697c0 0.603 0.49 1.093 1.093 1.093h1.916v0.314c0 0.261 0.211 0.472 0.472 0.472s0.472-0.211 0.472-0.472v-0.314h23.313v0.314c0 0.261 0.211 0.472 0.472 0.472s0.472-0.211 0.472-0.472v-0.314h1.916c0.603 0 1.093-0.49 1.093-1.093v-7.697c0-0.603-0.49-1.093-1.093-1.093zM17.784 5.154l-0.487 0.487c-0.148 0.148-0.346 0.23-0.555 0.23h-2.265c-0.21 0-0.407-0.082-0.555-0.23l-0.487-0.487h4.348zM30.126 26.011h-29.033c-0.082 0-0.15-0.067-0.15-0.149v-4.226h15.007v0.755h-13.455c-0.261 0-0.472 0.211-0.472 0.472s0.211 0.472 0.472 0.472h13.524c0.482 0 0.875-0.392 0.875-0.875v-0.893c0-0.482-0.392-0.875-0.875-0.875h-15.076v-2.527c0-0.082 0.067-0.15 0.15-0.15h6.705c0.005 0 0.010 0.001 0.014 0.001s0.011-0.001 0.017-0.001h2.176c0.261 0 0.472-0.211 0.472-0.472s-0.211-0.472-0.472-0.472h-1.093l2.1-2.63c0.314-0.393 0.782-0.618 1.285-0.618h6.626c0.503 0 0.971 0.225 1.285 0.618l2.1 2.63h-10.243c-0.261 0-0.472 0.211-0.472 0.472s0.211 0.472 0.472 0.472h11.326c0.006 0 0.011 0.001 0.017 0.001s0.010-0.001 0.014-0.001h6.705c0.082 0 0.15 0.067 0.15 0.15v7.696h0c0 0.082-0.067 0.149-0.15 0.149z"></path>
<path d="M10.7 5.63c-0.88 0-1.596 0.716-1.596 1.596s0.716 1.596 1.596 1.596c0.88 0 1.596-0.716 1.596-1.596s-0.716-1.596-1.596-1.596zM10.7 7.878c-0.36 0-0.652-0.293-0.652-0.652s0.293-0.652 0.652-0.652c0.36 0 0.652 0.293 0.652 0.652s-0.293 0.652-0.652 0.652z"></path>
<path d="M18.461 8.737c-0.88 0-1.596 0.716-1.596 1.596s0.716 1.596 1.596 1.596 1.596-0.716 1.596-1.596c0-0.88-0.716-1.596-1.596-1.596zM18.461 10.985c-0.36 0-0.652-0.293-0.652-0.652s0.293-0.652 0.652-0.652 0.652 0.293 0.652 0.652c0 0.36-0.293 0.652-0.652 0.652z"></path>
<path d="M20.734 6.703c0.261 0 0.472-0.211 0.472-0.472s-0.211-0.472-0.472-0.472c-0.261 0-0.472 0.211-0.472 0.472s0.211 0.472 0.472 0.472z"></path>
<path d="M20.734 9.209c0.261 0 0.472-0.211 0.472-0.472s-0.211-0.472-0.472-0.472c-0.261 0-0.472 0.211-0.472 0.472s0.211 0.472 0.472 0.472z"></path>
<path d="M19.386 7.975c0.261 0 0.472-0.211 0.472-0.472s-0.211-0.472-0.472-0.472c-0.261 0-0.472 0.211-0.472 0.472s0.211 0.472 0.472 0.472z"></path>
<path d="M22.081 7.975c0.261 0 0.472-0.211 0.472-0.472s-0.211-0.472-0.472-0.472c-0.261 0-0.472 0.211-0.472 0.472s0.211 0.472 0.472 0.472z"></path>
<path d="M14.313 9.861h-0.652v-0.652c0-0.261-0.211-0.472-0.472-0.472s-0.472 0.211-0.472 0.472v0.652h-0.652c-0.261 0-0.472 0.211-0.472 0.472s0.211 0.472 0.472 0.472h0.652v0.652c0 0.261 0.211 0.472 0.472 0.472s0.472-0.211 0.472-0.472v-0.652h0.652c0.261 0 0.472-0.211 0.472-0.472s-0.211-0.472-0.472-0.472z"></path>
</symbol>
</svg>