<svg width="118" height="121" viewBox="0 0 118 121" fill="none" xmlns="http://www.w3.org/2000/svg">
<path d="M69.976 120.153C67.0962 120.153 64.6003 118.192 63.8707 115.423L61.7205 107.117C61.0677 104.655 58.9174 102.886 56.3832 102.694H56.3064C56.1528 102.694 55.9993 102.694 55.8841 102.694C53.6186 102.694 51.5067 104.04 50.5468 106.117L47.1678 113.423C46.1311 115.654 43.904 117.077 41.4466 117.077C40.5251 117.077 39.6419 116.885 38.7972 116.5L29.0442 111.962C27.5083 111.231 26.3563 109.962 25.7804 108.386C25.2044 106.809 25.2813 105.078 26.0108 103.54L29.4282 96.2333C30.4649 94.0028 30.0042 91.3493 28.3147 89.6187L28.2378 89.5418C27.1243 88.3881 25.55 87.7344 23.9757 87.7344C23.0926 87.7344 22.2478 87.9267 21.4415 88.3112L13.6852 91.9646C12.8404 92.3876 11.9189 92.5799 10.9973 92.5799C8.5783 92.5799 6.31288 91.157 5.27615 88.965L0.668444 79.2354C-0.0611091 77.6972 -0.137942 76.0051 0.438021 74.3899C1.01398 72.8132 2.16592 71.5441 3.66342 70.8134L12.6868 66.5447C14.8371 65.5449 16.1426 63.3528 16.0658 61.007C16.0274 60.4301 16.0275 59.8533 16.0275 59.2764C16.0275 57.0075 14.6835 54.8924 12.5717 53.9309L4.08579 49.9699C0.937189 48.5086 -0.445084 44.7398 1.05242 41.5864L5.5833 31.8568C6.62003 29.6263 8.8471 28.2034 11.3045 28.2034C12.2261 28.2034 13.1092 28.3957 13.954 28.7803L20.2512 31.7414C21.0191 32.126 21.8639 32.2798 22.747 32.2798C24.4365 32.2798 26.0492 31.5492 27.2011 30.2801C28.545 28.7803 30.0425 27.3574 31.5785 26.0499C33.3447 24.55 34.1127 22.1657 33.5367 19.9737L31.3096 11.3979C30.4265 8.01368 32.4616 4.55256 35.8022 3.66806L46.2079 0.937645C46.7455 0.783818 47.283 0.745361 47.8206 0.745361C50.7004 0.745361 53.1962 2.70665 53.9258 5.47553L55.5001 11.5132C56.1529 14.0514 58.3799 15.8588 61.0293 15.9357C61.5285 15.9357 62.0661 15.9742 62.5652 16.0127C64.9843 16.205 67.2497 14.8205 68.2864 12.59L70.7055 7.43681C71.7422 5.20632 73.9693 3.78342 76.4268 3.78342C77.3483 3.78342 78.2314 3.97571 79.0762 4.36028L88.8291 8.89818C90.365 9.62886 91.5169 10.8595 92.0929 12.4746C92.6689 14.0514 92.5921 15.7819 91.8626 17.3202L89.4819 22.4734C88.4452 24.7039 88.8675 27.3574 90.557 29.0495C90.9026 29.434 91.2866 29.8186 91.6321 30.1647C92.7457 31.3953 94.3584 32.126 96.0095 32.126C96.8927 32.126 97.7374 31.9337 98.5437 31.5492L104.188 28.8572C105.033 28.4342 105.954 28.2419 106.876 28.2419C109.295 28.2419 111.56 29.6648 112.597 31.8568L117.205 41.5864C118.702 44.7398 117.359 48.5085 114.21 50.0084L106.223 53.8156C104.15 54.777 102.844 56.9306 102.844 59.238C102.844 61.2762 102.729 63.3144 102.422 65.3141C102.038 67.9292 103.42 70.4673 105.762 71.5826L112.06 74.5437C115.208 76.0051 116.591 79.7738 115.093 82.9273L110.562 92.6953C109.525 94.9258 107.298 96.3487 104.841 96.3487C103.919 96.3487 103.036 96.1564 102.191 95.7718L93.7057 91.8108C92.8993 91.4262 92.0161 91.2339 91.1714 91.2339C89.7891 91.2339 88.4451 91.7338 87.4084 92.6184C86.986 93.0029 86.5253 93.349 86.0645 93.6952C84.2214 95.1565 83.4151 97.5408 83.9911 99.8482L86.5252 109.501C87.4084 112.885 85.3733 116.346 82.0328 117.231L71.6271 119.961C71.0511 120.076 70.5135 120.153 69.976 120.153ZM55.8457 102.309C55.9993 102.309 56.1528 102.309 56.3064 102.309H56.4216C59.1479 102.502 61.4133 104.386 62.1045 107.001L64.2547 115.308C64.9458 117.923 67.2881 119.73 69.976 119.73C70.4751 119.73 70.9743 119.653 71.4734 119.538L81.8792 116.808C85.0278 115.962 86.9477 112.731 86.1029 109.578L83.5687 99.9251C82.9159 97.4639 83.799 94.8873 85.7573 93.349C86.2181 93.0029 86.6404 92.6568 87.1012 92.2723C88.2147 91.3493 89.6354 90.8109 91.1329 90.8109C92.0545 90.8109 93.0145 91.0032 93.8592 91.4262L102.345 95.3872C103.151 95.7718 103.996 95.9641 104.841 95.9641C107.145 95.9641 109.257 94.6181 110.217 92.5415L114.747 82.7735C116.13 79.8123 114.824 76.2743 111.868 74.8898L105.57 71.9287C103.036 70.7365 101.616 68.083 101.999 65.2757C102.268 63.3144 102.422 61.2762 102.422 59.2764C102.422 56.8152 103.843 54.5463 106.031 53.5079L114.018 49.7007C116.975 48.3163 118.242 44.7398 116.821 41.8171L112.213 32.0876C111.253 30.0109 109.141 28.7034 106.838 28.7034C105.954 28.7034 105.11 28.8957 104.303 29.2802L98.6589 31.9722C97.8142 32.3952 96.8926 32.5875 95.9711 32.5875C94.2048 32.5875 92.4769 31.8183 91.2866 30.5108C90.941 30.1262 90.5955 29.7417 90.2499 29.3956C88.4836 27.5497 88.0228 24.7423 89.098 22.358L91.4786 17.2048C92.1313 15.7819 92.2081 14.1667 91.6706 12.6669C91.133 11.1671 90.0579 9.97496 88.5988 9.3212L78.8457 4.78331C78.0394 4.39875 77.233 4.24491 76.3499 4.24491C74.0461 4.24491 71.9342 5.5909 70.9743 7.66756L68.5553 12.8207C67.4418 15.1666 65.0227 16.628 62.45 16.4357C61.9509 16.3972 61.4133 16.3588 60.9141 16.3588C58.1111 16.2434 55.7688 14.359 55.0393 11.6286L53.465 5.59089C52.7739 2.97584 50.4316 1.16838 47.7438 1.16838C47.2446 1.16838 46.7455 1.24529 46.2463 1.36066L35.8406 4.0911C32.692 4.93714 30.7721 8.1675 31.6168 11.3209L33.8439 19.8968C34.4582 22.2426 33.6519 24.7808 31.7704 26.3575C30.2345 27.6266 28.7754 29.0495 27.4315 30.5493C26.2028 31.8953 24.4749 32.6644 22.6702 32.6644C21.7487 32.6644 20.8655 32.4721 20.0208 32.0876L13.7236 29.1264C12.9173 28.7418 12.0725 28.588 11.2278 28.588C8.92391 28.588 6.81205 29.934 5.85211 32.0106L1.32118 41.7402C-0.0611278 44.7013 1.24439 48.2393 4.201 49.6238L12.6868 53.5848C14.9139 54.6232 16.373 56.8536 16.373 59.3149C16.373 59.8917 16.373 60.4686 16.4114 61.0454C16.4882 63.5451 15.1059 65.8525 12.8021 66.9678L3.77863 71.2365C2.35793 71.9287 1.28279 73.1208 0.74522 74.5822C0.207655 76.082 0.284441 77.6972 0.975596 79.1201L5.5833 88.8496C6.54324 90.9263 8.6551 92.2338 10.959 92.2338C11.8421 92.2338 12.6868 92.0415 13.4932 91.6569L21.2495 88.0035C22.0943 87.619 23.0158 87.3883 23.9373 87.3883C25.6268 87.3883 27.3163 88.0805 28.5066 89.3111L28.5834 89.388C30.3881 91.2339 30.8489 94.0797 29.7737 96.4256L26.3563 103.732C25.7036 105.155 25.6268 106.77 26.1644 108.27C26.7019 109.77 27.7771 110.962 29.2362 111.616L38.9891 116.154C39.7955 116.538 40.6018 116.692 41.485 116.692C43.7888 116.692 45.9007 115.346 46.8606 113.27L50.2396 105.963C51.1996 103.732 53.4266 102.309 55.8457 102.309Z" fill="#66192D"/>
<path d="M56.1912 83.9272C52.5435 83.9272 49.0877 83.2349 46.2463 81.9274C40.8706 79.4277 36.9541 74.4284 35.2262 67.8523C33.5751 61.6223 34.1127 54.8539 36.7237 49.2392C39.9491 42.317 47.8974 37.9714 57.4584 37.9714C61.8741 37.9714 66.213 38.8944 69.976 40.6634C75.5436 43.2785 79.8441 47.701 82.0328 53.1234C84.2598 58.6611 84.1063 64.7373 81.572 70.1981C77.3867 79.197 65.637 83.9272 56.1912 83.9272ZM57.4968 38.3176C48.0894 38.3176 40.2563 42.5478 37.1077 49.3546C34.535 54.8924 33.9975 61.5838 35.6102 67.6984C37.3381 74.1592 41.1778 79.0816 46.4383 81.5428C49.2029 82.8504 52.5819 83.5426 56.1912 83.5426C65.5218 83.5426 77.1179 78.8893 81.2648 70.0058C83.7607 64.6604 83.9142 58.6996 81.7256 53.2387C79.5753 47.8933 75.3516 43.5476 69.8608 40.9711C66.1362 39.2405 61.8741 38.3176 57.4968 38.3176Z" fill="#66192D"/>
</svg>
