<svg width="77" height="77" viewBox="0 0 77 77" fill="none" xmlns="http://www.w3.org/2000/svg">
<path d="M29.7061 67.0322V72.57C29.7061 74.6851 31.3956 76.4157 33.5075 76.4157H40.2271C42.3389 76.4157 44.0668 74.7236 44.0668 72.6085V68.6859C44.0668 66.9938 45.1803 65.494 46.793 65.0325C47.1002 64.9556 47.4074 64.8402 47.7146 64.7248C49.2121 64.2249 50.8631 64.7248 51.8614 65.917L54.1269 68.6474C55.4709 70.2626 57.8899 70.4933 59.5026 69.1474L64.6863 64.8787C66.299 63.5327 66.5294 61.1099 65.1855 59.4947L62.9199 56.7643C61.9216 55.5337 61.7296 53.8416 62.536 52.4572C62.6896 52.188 62.8431 51.8803 62.9967 51.6111C63.7647 50.1113 65.4542 49.3037 67.1053 49.6114L70.9451 50.342C73.0186 50.7266 75.0152 49.3806 75.4376 47.304L76.7047 40.6894C77.0887 38.6128 75.7447 36.613 73.6713 36.19L68.2573 35.1516C66.7982 34.8825 65.6462 33.7672 65.2622 32.3058C64.9551 31.0752 64.5326 29.8831 64.0719 28.7294C63.4191 27.1527 63.8415 25.3452 65.147 24.2684L68.4876 21.4995C70.1003 20.1535 70.3307 17.7308 68.9868 16.1156L64.7246 10.9239C63.3807 9.30876 60.9617 9.07803 59.349 10.424L54.8565 14.1543C53.7045 15.1157 52.1303 15.308 50.7864 14.6927C50.4792 14.5389 50.1336 14.385 49.8264 14.2312C48.4441 13.6159 47.5226 12.2315 47.5226 10.7317V4.50167C47.5226 2.38656 45.833 0.656006 43.7212 0.656006H37.0016C34.8898 0.656006 33.1619 2.34811 33.1619 4.46323V9.80869C33.1619 11.4623 32.0867 12.9237 30.5508 13.4236H30.5125C29.015 13.9236 27.3639 13.4621 26.3655 12.2315L23.1785 8.34734C21.8346 6.73216 19.4155 6.50143 17.8029 7.84741L12.6192 12.1161C11.0065 13.4621 10.7761 15.8848 12.12 17.5L15.307 21.3842C16.3053 22.6148 16.4589 24.3069 15.691 25.6913L15.6526 25.7298C14.8463 27.1527 13.2336 27.9218 11.6209 27.6142L6.36037 26.6143C4.28691 26.2297 2.29025 27.5757 1.86788 29.6524L0.600743 36.2669C0.216767 38.3436 1.56074 40.3433 3.6342 40.7279L9.77781 41.8816C11.2753 42.1508 12.4656 43.3045 12.8112 44.8043C12.888 45.1504 12.9647 45.4965 13.0799 45.8426C13.4639 47.2655 12.9264 48.8038 11.8129 49.7652L7.28197 53.4955C5.66927 54.8415 5.43887 57.2642 6.78278 58.8794L11.0449 64.0711C12.3889 65.6863 14.8079 65.917 16.4206 64.571L19.7612 61.8021C21.0667 60.7253 22.9097 60.6484 24.3304 61.5714C25.4056 62.2636 26.4807 62.8789 27.6327 63.4173C28.8614 64.1864 29.7445 65.5324 29.7061 67.0322ZM27.1335 48.6884C22.1802 42.6507 23.9848 30.6907 29.9748 25.7298C36.0033 20.7689 45.8331 23.1147 50.7864 29.1139C55.7397 35.1516 52.7062 45.0735 46.6778 50.0728C40.6878 55.0337 32.0868 54.7261 27.1335 48.6884Z" fill="#FF8548"/>
</svg>
