<svg width="52" height="51" viewBox="0 0 52 51" fill="none" xmlns="http://www.w3.org/2000/svg">
<path d="M20.1339 44.0277V47.6811C20.1339 49.0656 21.2475 50.2193 22.6682 50.2193H27.0839C28.4662 50.2193 29.6181 49.104 29.6181 47.6811V45.1046C29.6181 43.9893 30.3477 43.0279 31.4228 42.6818C31.6148 42.6049 31.8451 42.5664 32.0371 42.4895C33.0355 42.1434 34.1106 42.4895 34.7634 43.2971L36.2609 45.1046C37.144 46.1813 38.7567 46.3351 39.8318 45.4506L43.2492 42.6433C44.3243 41.7588 44.478 40.1821 43.5948 39.1053L42.0973 37.2978C41.4445 36.4902 41.3293 35.375 41.8285 34.452C41.9437 34.2597 42.0205 34.0675 42.1357 33.8752C42.6349 32.8753 43.7484 32.3369 44.862 32.5676L47.3961 33.0676C48.7785 33.3368 50.0839 32.4139 50.3527 31.0679L51.1976 26.7222C51.4663 25.3378 50.5447 24.0303 49.2008 23.7611L45.6299 23.0689C44.67 22.8766 43.902 22.1459 43.6716 21.1845C43.4796 20.3769 43.2108 19.6078 42.8652 18.8002C42.4428 17.7618 42.7117 16.5697 43.5948 15.8775L45.8219 14.0315C46.897 13.147 47.0506 11.5319 46.1674 10.4551L43.3644 7.03242C42.4813 5.95564 40.8685 5.80182 39.7934 6.68633L36.8368 9.14754C36.0689 9.76285 35.0321 9.91668 34.149 9.49366C33.9186 9.37829 33.7266 9.30138 33.4963 9.18601C32.5747 8.80144 31.9988 7.87848 31.9988 6.87861V2.76374C31.9988 1.3793 30.8852 0.225586 29.4645 0.225586H25.0488C23.6665 0.225586 22.5145 1.34084 22.5145 2.76374V6.30176C22.5145 7.37855 21.8234 8.33994 20.7866 8.68605H20.7483C19.75 9.03216 18.6748 8.68605 18.022 7.91692L15.9102 5.34034C15.027 4.26356 13.4143 4.10972 12.3392 4.99422L8.92184 7.84003C7.84671 8.72453 7.69316 10.3397 8.5763 11.4165L10.6882 13.9931C11.3409 14.8007 11.4561 15.9159 10.9569 16.8389C10.9569 16.8389 10.9569 16.8773 10.9185 16.8773C10.3809 17.8388 9.3058 18.3387 8.23067 18.1079L4.77489 17.4542C3.39258 17.185 2.08708 18.1079 1.8183 19.4539L0.973571 23.7995C0.704788 25.184 1.62631 26.4915 2.97022 26.7607L7.00196 27.5298C8.0003 27.7221 8.76823 28.4912 8.99862 29.4527C9.03701 29.6834 9.11386 29.9142 9.15226 30.1449C9.38265 31.1063 9.07539 32.1062 8.30744 32.7215L5.31251 35.1827C4.23738 36.0672 4.08373 37.6824 4.96688 38.7592L7.76991 42.1818C8.65306 43.2586 10.2658 43.4124 11.3409 42.5279L13.568 40.682C14.4127 39.9514 15.6414 39.9129 16.6013 40.5282C17.2925 40.9897 18.022 41.4127 18.79 41.7588C19.5579 42.1818 20.1339 43.0663 20.1339 44.0277ZM18.406 31.9523C15.1422 27.9913 16.3326 20.0692 20.2875 16.8004C24.2425 13.5316 30.77 15.0699 34.0338 19.0309C37.2976 22.9919 35.3009 29.568 31.346 32.8369C27.391 36.1057 21.7082 35.9134 18.406 31.9523Z" fill="#C8C1E1"/>
</svg>
