<svg width="129" height="136" viewBox="0 0 129 136" fill="none" xmlns="http://www.w3.org/2000/svg">
<path d="M110.817 84.0393L120.071 85.0392C123.604 85.4237 126.791 82.8471 127.175 79.3091L128.403 68.0029C128.787 64.4648 126.215 61.2729 122.682 60.8884L116.116 60.1577C113.275 59.85 111.009 57.7349 110.472 54.9276C110.357 54.3892 110.28 53.8508 110.126 53.3124C109.55 50.7358 110.664 48.0438 112.891 46.5825L117.883 43.2752C120.878 41.3139 121.684 37.276 119.726 34.3148L113.467 24.8545C111.509 21.8933 107.515 21.0472 104.52 23.0085L99.5286 26.3158C97.3015 27.7772 94.4217 27.7772 92.2715 26.2004C91.8491 25.8928 91.3883 25.5851 90.9276 25.2775C88.5469 23.7008 87.5102 20.7396 88.3165 18.0092L90.2364 11.7023C91.2731 8.27962 89.3533 4.6647 85.9359 3.62637L75.0694 0.319101C71.652 -0.71923 68.0426 1.20361 67.0059 4.62625L64.2796 13.5482C63.5501 15.971 61.4767 17.7015 58.9808 18.0861C56.9074 18.3937 54.7954 18.8552 52.7604 19.4705C50.0341 20.2781 47.0776 19.2398 45.5033 16.8555L41.4715 10.7024C39.5133 7.70278 35.4815 6.8952 32.5249 8.85649L23.0791 15.1249C20.1225 17.0862 19.2778 21.1242 21.236 24.0853L26.6885 32.3535C28.0708 34.4302 28.1475 37.1606 26.842 39.3142C26.5349 39.8141 26.2277 40.3525 25.9205 40.8909C24.6534 43.1214 22.1576 44.3905 19.6234 44.1213L9.17917 42.9676C5.6466 42.583 2.4596 45.1596 2.07563 48.6976L0.846925 60.0039C0.46295 63.5419 3.03564 66.7338 6.56821 67.1184L15.5532 68.0798C18.3178 68.3874 20.5449 70.4256 21.1593 73.1176C21.1593 73.156 21.1592 73.1945 21.1976 73.1945C21.7736 75.8096 20.6601 78.5015 18.433 79.9629L11.3295 84.6546C8.33446 86.6159 7.52809 90.6538 9.48637 93.615L15.7452 103.114C17.7035 106.075 21.7352 106.921 24.6918 104.96L31.7569 100.268C33.984 98.8067 36.9022 98.8451 39.0525 100.383C39.0909 100.422 39.0908 100.422 39.1292 100.46C41.3947 102.075 42.3546 104.96 41.5483 107.613L38.9373 116.266C37.9005 119.689 39.8205 123.304 43.2379 124.342L54.1043 127.649C57.5217 128.687 61.131 126.765 62.1678 123.342L65.2396 113.266C65.9691 110.805 68.1194 108.998 70.6536 108.728C71.268 108.652 71.8439 108.575 72.4583 108.498C74.9541 108.113 77.4116 109.267 78.7939 111.344L84.2463 119.612C86.2046 122.611 90.2364 123.419 93.193 121.458L102.639 115.189C105.595 113.228 106.44 109.19 104.482 106.229L100.45 100.076C98.8759 97.6914 99.0678 94.5764 100.911 92.3459C102.255 90.6923 103.522 88.9617 104.597 87.1543C105.903 85.0007 108.322 83.7701 110.817 84.0393ZM79.6003 85.1545C68.6186 92.4228 48.8822 87.2312 41.6251 76.2326C34.3679 65.234 40.0508 49.0822 51.0325 41.8139C62.0142 34.5456 78.1411 41.4293 85.3983 52.4279C92.6554 63.4265 90.582 77.8862 79.6003 85.1545Z" fill="#C8C1E1"/>
<path d="M56.1006 135.148C55.4479 135.148 54.7951 135.032 54.1807 134.879L43.3142 131.571C41.6247 131.071 40.204 129.918 39.3593 128.341C38.5145 126.764 38.3609 124.957 38.8601 123.265L41.4711 114.612C42.2391 112.035 41.3176 109.266 39.0905 107.69L39.0137 107.613C37.9386 106.844 36.7098 106.459 35.4043 106.459C34.1756 106.459 32.9853 106.805 31.9485 107.497L24.8834 112.189C23.8083 112.92 22.5412 113.304 21.2357 113.304C19.0086 113.304 16.9351 112.189 15.668 110.305L9.4092 100.806C8.41086 99.3062 8.10368 97.5372 8.44926 95.8066C8.79484 94.0761 9.83153 92.5763 11.2906 91.5764L18.3942 86.8847C20.5444 85.4618 21.6196 82.8083 21.0437 80.3086L21.0052 80.2317C20.4293 77.5781 18.2406 75.6169 15.5528 75.3477L6.56782 74.3862C4.80153 74.194 3.2272 73.3095 2.11367 71.925C1.00014 70.5406 0.50099 68.81 0.692978 67.041L1.92168 55.7347C2.30565 52.3506 5.14705 49.8124 8.52604 49.8124C8.75642 49.8124 9.02526 49.8124 9.25564 49.8509L19.6998 51.0046C19.9301 51.043 20.1605 51.043 20.3909 51.043C22.6564 51.043 24.7298 49.8509 25.8049 47.8896C26.1121 47.3512 26.4193 46.8128 26.7265 46.3129C27.9936 44.2747 27.9168 41.6211 26.5729 39.5829L21.1204 31.3148C19.0854 28.2382 19.9301 24.1234 23.0019 22.0852L32.4477 15.8167C33.5228 15.086 34.79 14.7015 36.0955 14.7015C38.3225 14.7015 40.4344 15.8167 41.6631 17.7011L45.6949 23.8542C46.8468 25.6232 48.8051 26.6615 50.917 26.6615C51.5313 26.6615 52.1457 26.5846 52.7216 26.3923C54.7567 25.777 56.8686 25.3155 58.9804 25.0079C61.3995 24.6618 63.3961 22.9312 64.0872 20.6238L66.8135 11.7018C67.6582 8.85605 70.2309 6.97168 73.1875 6.97168C73.8403 6.97168 74.493 7.08705 75.1074 7.27933L85.9738 10.5866C87.6633 11.0866 89.0841 12.2402 89.8904 13.817C90.7352 15.3937 90.8887 17.2012 90.3895 18.8933L88.4697 25.2002C87.6633 27.8537 88.6617 30.6995 91.0039 32.2377C91.4647 32.5454 91.9255 32.853 92.3479 33.1607C93.3846 33.8914 94.6133 34.3144 95.9188 34.3144C97.1476 34.3144 98.3379 33.9683 99.3746 33.2761L104.366 29.9688C105.441 29.2381 106.709 28.8535 108.014 28.8535C110.241 28.8535 112.315 29.9688 113.582 31.8532L119.841 41.3135C120.839 42.8133 121.146 44.5823 120.8 46.3129C120.455 48.0434 119.418 49.5432 117.959 50.5431L112.967 53.8504C110.817 55.2733 109.742 57.8883 110.279 60.388C110.395 60.9264 110.51 61.4648 110.625 62.0032C111.124 64.7336 113.351 66.7718 116.116 67.0795L122.682 67.8102C124.448 68.0024 126.023 68.887 127.136 70.2714C128.25 71.6558 128.749 73.3864 128.557 75.1554L127.328 86.4616C126.944 89.8458 124.103 92.384 120.724 92.384C120.493 92.384 120.224 92.384 119.994 92.3455L110.74 91.3456C110.51 91.3072 110.28 91.3072 110.049 91.3072C107.899 91.3072 105.825 92.4609 104.674 94.3453C103.56 96.1527 102.331 97.9217 100.949 99.5754C99.1826 101.729 98.9906 104.767 100.527 107.074L104.558 113.227C105.557 114.727 105.864 116.496 105.518 118.227C105.173 119.957 104.136 121.457 102.677 122.457L93.231 128.726C92.1559 129.456 90.8888 129.841 89.5833 129.841C87.3562 129.841 85.2443 128.726 84.0156 126.841L78.5632 118.573C77.3729 116.804 75.4529 115.727 73.3411 115.727C73.0339 115.727 72.7268 115.766 72.4196 115.804C71.8052 115.881 71.1908 115.958 70.6148 116.035C68.1574 116.304 66.0839 118.035 65.3544 120.457L62.2826 130.533C61.6298 133.263 59.0572 135.148 56.1006 135.148ZM35.4427 106.036C36.8251 106.036 38.169 106.459 39.2825 107.267L39.3593 107.344C41.7015 108.997 42.6999 111.958 41.8551 114.689L39.2441 123.342C38.7449 124.957 38.9369 126.649 39.7048 128.11C40.5112 129.572 41.8167 130.687 43.4294 131.148L54.2959 134.456C54.8718 134.648 55.4863 134.725 56.1006 134.725C58.8652 134.725 61.2842 132.917 62.0906 130.264L65.1624 120.188C65.9303 117.65 68.119 115.804 70.7685 115.496C71.3444 115.42 71.9588 115.343 72.5731 115.266C72.8803 115.227 73.2259 115.189 73.5331 115.189C75.7601 115.189 77.8335 116.304 79.0623 118.188L84.5148 126.457C85.6667 128.226 87.6249 129.264 89.7368 129.264C90.9655 129.264 92.1558 128.918 93.1926 128.226L102.638 121.957C104.021 121.034 104.981 119.611 105.326 117.996C105.672 116.342 105.326 114.689 104.405 113.266L100.373 107.113C98.7602 104.652 98.9523 101.46 100.834 99.1524C102.178 97.5372 103.406 95.7682 104.52 93.9607C105.749 91.961 107.899 90.7303 110.203 90.7303C110.433 90.7303 110.663 90.7303 110.932 90.7688L120.186 91.7687C120.416 91.8071 120.647 91.8071 120.877 91.8071C124.064 91.8071 126.752 89.3844 127.098 86.2309L128.326 74.9246C128.518 73.271 128.019 71.6174 126.982 70.3098C125.946 69.0023 124.448 68.1947 122.759 68.0024L116.193 67.2718C113.275 66.9641 110.932 64.7721 110.395 61.8878C110.279 61.3494 110.203 60.811 110.049 60.3111C109.473 57.6576 110.587 54.8887 112.891 53.3505L117.882 50.0432C119.265 49.1202 120.224 47.6973 120.57 46.0821C120.916 44.4285 120.57 42.7749 119.649 41.352L113.39 31.8916C112.238 30.1226 110.279 29.0843 108.168 29.0843C106.939 29.0843 105.749 29.4304 104.712 30.1226L99.7202 33.4299C98.6066 34.1605 97.3396 34.5451 96.034 34.5451C94.6517 34.5451 93.3462 34.1221 92.2326 33.3145C91.8103 33.0069 91.3495 32.6992 90.8887 32.3916C88.4313 30.7379 87.3562 27.7383 88.2009 24.931L90.1208 18.624C90.6199 17.0089 90.428 15.3168 89.66 13.8554C88.8537 12.3941 87.5481 11.2788 85.9738 10.8173L75.1074 7.51008C74.5314 7.3178 73.917 7.24088 73.3026 7.24088C70.538 7.24088 68.119 9.04834 67.3127 11.7018L64.5864 20.6238C63.8569 23.085 61.7066 24.8925 59.134 25.2771C57.0605 25.5847 54.9487 26.0462 52.9136 26.6231C52.2993 26.8153 51.6465 26.8922 50.9937 26.8922C48.7283 26.8922 46.6548 25.777 45.4261 23.9311L41.3944 17.778C40.2424 16.009 38.2841 14.9707 36.1723 14.9707C34.9435 14.9707 33.7532 15.3168 32.7165 16.009L23.2707 22.2774C20.3909 24.2003 19.5845 28.0844 21.5044 30.9687L26.9569 39.2368C28.3776 41.3904 28.4544 44.2362 27.1105 46.3898C26.8033 46.8897 26.4961 47.4281 26.1889 47.9665C25.037 50.0432 22.8099 51.3122 20.4293 51.3122C20.1989 51.3122 19.9301 51.3122 19.6998 51.2738L9.25564 50.1201C9.02526 50.0816 8.79486 50.0816 8.56447 50.0816C5.37748 50.0816 2.68967 52.5044 2.34409 55.6579L1.11529 66.9641C0.923306 68.6177 1.42247 70.2714 2.45921 71.5789C3.49594 72.8864 4.9935 73.694 6.64459 73.8863L15.6296 74.8477C18.471 75.1554 20.7748 77.232 21.3892 80.0394L21.4276 80.1163C22.0036 82.7698 20.89 85.5771 18.5862 87.1154L11.4826 91.8071C10.1003 92.7301 9.14038 94.153 8.7948 95.7682C8.44922 97.4218 8.79486 99.0754 9.7164 100.498L15.9752 109.997C17.1271 111.766 19.0854 112.804 21.1972 112.804C22.4259 112.804 23.6163 112.458 24.653 111.766L31.7182 107.074C32.8701 106.421 34.1372 106.036 35.4427 106.036Z" fill="#66192D"/>
</svg>
