<svg width="75" height="79" viewBox="0 0 75 79" fill="none" xmlns="http://www.w3.org/2000/svg">
<path d="M64.8645 44.8781L70.2018 44.7243C72.2368 44.6859 73.8495 42.9553 73.7727 40.9171L73.6191 34.4564C73.5807 32.4182 71.8528 30.803 69.8178 30.8799L66.0548 30.9953C64.4421 31.0337 62.983 29.9954 62.4455 28.4571C62.3303 28.1495 62.2535 27.8803 62.1383 27.5726C61.6007 26.1497 62.0231 24.5345 63.175 23.5347L65.7476 21.2657C67.2835 19.9198 67.4371 17.5739 66.0932 16.0741L61.8311 11.1901C60.4872 9.65182 58.1833 9.49798 56.6474 10.844L54.0748 13.1129C52.9229 14.1128 51.3102 14.3435 49.9663 13.6129C49.6975 13.459 49.4287 13.3437 49.1216 13.1898C47.6624 12.4976 46.8177 10.8824 47.0865 9.26725L47.7008 5.53695C48.0079 3.5372 46.664 1.61437 44.629 1.30671L38.255 0.268378C36.2584 -0.0392751 34.3385 1.30672 34.0313 3.30646L33.1866 8.57503C32.9562 9.99793 31.9194 11.1516 30.5371 11.5362C29.3852 11.8823 28.2333 12.3053 27.1198 12.8053C25.6222 13.459 23.8944 13.1129 22.8192 11.8823L20.0546 8.72885C18.7106 7.19058 16.3684 7.03677 14.8709 8.38275L9.99442 12.6514C8.45852 13.9974 8.30496 16.3433 9.64888 17.8431L13.3734 22.0733C14.3334 23.1501 14.5638 24.6884 13.9878 25.9959C13.8342 26.3036 13.719 26.6497 13.6038 26.9573C13.0663 28.3033 11.7607 29.2263 10.3016 29.2647L4.31157 29.4185C2.2765 29.457 0.663875 31.1876 0.74067 33.2258L0.894223 39.7249C0.93262 41.7631 2.66047 43.3783 4.69554 43.3014L9.84086 43.1476C11.4152 43.1091 12.8359 44.0705 13.4119 45.5703V45.6088C13.9494 47.0317 13.527 48.6469 12.375 49.6468L8.72728 52.8387C7.19138 54.1846 7.03783 56.5305 8.38174 58.0303L12.6439 62.9143C13.9878 64.4526 16.3301 64.6064 17.8276 63.2604L21.4753 60.0685C22.6273 59.0686 24.2783 58.8764 25.6222 59.5686C25.6222 59.5686 25.6606 59.5686 25.6606 59.607C27.0813 60.3377 27.8493 61.9144 27.5805 63.4527L26.7741 68.5675C26.4669 70.5672 27.8109 72.49 29.8459 72.7977L36.2584 73.836C38.2551 74.1436 40.1749 72.7977 40.4821 70.7595L41.442 64.7987C41.6724 63.3373 42.7475 62.1837 44.1682 61.7991C44.5138 61.7222 44.821 61.6068 45.1666 61.5299C46.5489 61.1453 48.008 61.5683 48.9679 62.6451L52.6924 66.9138C54.0364 68.4521 56.3786 68.6059 57.8761 67.2599L62.7527 62.9912C64.2886 61.6452 64.4421 59.2994 63.0982 57.7996L60.3336 54.6461C59.2585 53.4155 59.1432 51.6465 59.988 50.2621C60.6407 49.2237 61.1784 48.147 61.6775 47.0317C62.1383 45.7626 63.4438 44.9166 64.8645 44.8781ZM47.3168 47.8777C41.6724 52.8386 30.1147 51.4158 25.1614 45.7626C20.2082 40.1095 22.2048 30.5338 27.8493 25.5729C33.4937 20.612 43.1315 23.2655 48.0847 28.9186C52.9996 34.6102 52.9612 42.9168 47.3168 47.8777Z" fill="#FFBA41"/>
<path d="M37.3335 78.0279C37.1415 78.0279 36.9112 78.0279 36.7192 77.9894L30.3068 76.9511C29.3085 76.7972 28.4253 76.2588 27.8493 75.4128C27.2734 74.6052 27.0046 73.5669 27.1966 72.567L28.003 67.4523C28.2334 65.9525 27.5038 64.4142 26.1214 63.722L26.0831 63.6835C25.5839 63.4143 25.008 63.2605 24.432 63.2605C23.5488 63.2605 22.7425 63.5682 22.0897 64.145L18.4419 67.3369C17.7508 67.9522 16.8676 68.2983 15.9461 68.2983C14.8326 68.2983 13.7959 67.8369 13.1047 66.9908L8.84256 62.1068C8.1898 61.3377 7.84426 60.3763 7.92105 59.3379C7.99785 58.3381 8.45858 57.4151 9.22653 56.7229L12.8743 53.531C13.9878 52.5695 14.3718 50.9928 13.8727 49.6084V49.5699C13.3351 48.147 11.9912 47.2241 10.5321 47.2241H10.4552L5.31 47.3779C3.19814 47.4164 1.47021 45.8012 1.43182 43.6861L1.27826 37.1869C1.23987 36.187 1.62382 35.1871 2.31498 34.4565C3.00613 33.7258 3.96613 33.3027 4.96446 33.2643L10.9544 33.1105C12.3751 33.072 13.6423 32.1875 14.1799 30.88C14.2951 30.5723 14.4487 30.2262 14.5638 29.9186C15.1014 28.6495 14.871 27.1881 13.9494 26.1114L10.2249 21.8811C8.8426 20.3044 8.99615 17.8816 10.5704 16.4972L15.4469 12.2285C16.1381 11.6132 17.0212 11.3055 17.9428 11.3055C19.0563 11.3055 20.0931 11.767 20.7842 12.6131L23.5488 15.7665C24.24 16.5356 25.1999 16.9971 26.2367 16.9971C26.7358 16.9971 27.2733 16.8818 27.7341 16.6895C28.8476 16.1895 29.9996 15.7665 31.1516 15.4204C32.4955 15.0358 33.4938 13.9206 33.7242 12.5362L34.5689 7.26758C34.8761 5.42166 36.4504 4.07568 38.2934 4.07568C38.4854 4.07568 38.7159 4.07567 38.9078 4.11413L45.2819 5.15247C46.2802 5.30629 47.1633 5.84469 47.7393 6.69073C48.3152 7.49832 48.584 8.53666 48.392 9.53654L47.7777 13.2668C47.5089 14.8435 48.3152 16.3434 49.7359 17.0356C50.0047 17.1894 50.2735 17.3048 50.5807 17.4586C51.0798 17.7278 51.6559 17.8816 52.1934 17.8816C53.0766 17.8816 53.8829 17.574 54.5741 16.9971L57.1467 14.7282C57.8378 14.1129 58.721 13.8052 59.6425 13.8052C60.756 13.8052 61.7927 14.2667 62.4839 15.1128L66.746 19.9967C67.3988 20.7659 67.7443 21.7273 67.6675 22.7656C67.5908 23.7655 67.13 24.6884 66.3621 25.3807L63.7895 27.6496C62.6759 28.611 62.2919 30.1878 62.7911 31.5337C62.9063 31.8414 63.0215 32.1106 63.0983 32.4183C63.5975 33.8796 64.9414 34.8795 66.4773 34.8795H66.5925L70.3554 34.7641C72.4672 34.6872 74.1952 36.3408 74.272 38.4559L74.4256 44.9167C74.464 46.9933 72.8128 48.7623 70.7394 48.8008L65.4021 48.9546C64.0198 48.9931 62.7911 49.8391 62.2151 51.1082C61.716 52.2234 61.14 53.3002 60.5257 54.3386C59.6809 55.6846 59.8345 57.4151 60.8712 58.6073L63.6358 61.7607C65.0181 63.3374 64.8646 65.7602 63.2903 67.1446L58.4138 71.4133C57.7226 72.0286 56.8395 72.3363 55.918 72.3363C54.8044 72.3363 53.7676 71.8748 53.0765 71.0288L49.3519 66.76C48.6608 65.9909 47.6625 65.5294 46.6641 65.5294C46.3185 65.5294 46.0114 65.5679 45.7042 65.6833C45.3586 65.7602 45.0515 65.8756 44.7059 65.9525C43.3236 66.2986 42.2868 67.4523 42.0564 68.8367L41.0965 74.7975C40.7893 76.6819 39.215 78.0279 37.3335 78.0279ZM24.432 63.0682C25.0464 63.0682 25.6607 63.222 26.1982 63.4912L26.2367 63.5297C27.6958 64.2989 28.4637 65.8756 28.2333 67.4907L27.427 72.6055C27.2734 73.5669 27.5038 74.4899 28.0413 75.259C28.5789 76.0281 29.4237 76.5281 30.3836 76.6819L36.796 77.7202C36.988 77.7587 37.18 77.7587 37.3719 77.7587C39.1382 77.7587 40.6357 76.4896 40.9045 74.7591L41.8644 68.7983C42.0948 67.2985 43.2084 66.0678 44.6675 65.7217C45.013 65.6448 45.3203 65.5295 45.6658 65.4526C46.0114 65.3372 46.357 65.2987 46.7026 65.2987C47.7777 65.2987 48.8528 65.7602 49.5824 66.6063L53.3069 70.8749C53.9981 71.6441 54.958 72.1055 55.9947 72.1055C56.8779 72.1055 57.6843 71.7979 58.337 71.2211L63.2135 66.9523C64.711 65.6448 64.8646 63.3759 63.559 61.9145L60.7944 58.7611C59.6809 57.492 59.5658 55.6845 60.4489 54.2232C61.0633 53.1848 61.6392 52.1081 62.1383 50.9928C62.7143 49.6468 64.0582 48.7239 65.5173 48.6854L70.8546 48.5316C72.8128 48.4931 74.3872 46.8395 74.3488 44.8398L74.1951 38.379C74.1567 36.3793 72.5057 34.841 70.509 34.8795L66.746 34.9948C65.0566 35.0333 63.559 33.995 63.0598 32.3798C62.9447 32.0721 62.8679 31.8029 62.7527 31.4953C62.2152 30.0339 62.6375 28.3803 63.8278 27.342L66.4005 25.073C67.1301 24.4577 67.5524 23.5732 67.6292 22.6118C67.706 21.6504 67.3988 20.7274 66.746 19.9967L62.4839 15.1128C61.7927 14.3436 60.8328 13.8821 59.7961 13.8821C58.9129 13.8821 58.1066 14.1898 57.4539 14.7666L54.8812 17.0356C54.1901 17.6509 53.307 17.997 52.3854 17.997C51.771 17.997 51.1951 17.8432 50.6575 17.574C50.3887 17.4201 50.1199 17.3048 49.8511 17.151C48.3152 16.4203 47.5089 14.8051 47.7777 13.113L48.392 9.3827C48.5456 8.42128 48.3153 7.49831 47.7777 6.72918C47.2017 5.96005 46.3954 5.46013 45.4354 5.3063L39.0614 4.26797C38.8694 4.22951 38.6774 4.2295 38.4854 4.2295C36.7191 4.2295 35.2601 5.49859 34.9529 7.22914L34.1081 12.4977C33.8778 13.959 32.8026 15.1512 31.3819 15.5358C30.23 15.8819 29.0781 16.3049 27.9645 16.7664C27.4654 16.9971 26.9278 17.1125 26.3902 17.1125C25.2767 17.1125 24.24 16.651 23.5488 15.805L20.7842 12.6515C20.0931 11.8824 19.1331 11.4209 18.0964 11.4209C17.2133 11.4209 16.4069 11.7285 15.7541 12.3054L10.8776 16.5741C9.38014 17.8816 9.22659 20.1506 10.5321 21.6119L14.2566 25.8422C15.2166 26.9574 15.4853 28.5341 14.9094 29.8801C14.7558 30.1878 14.6406 30.5339 14.5254 30.8415C13.9878 32.226 12.644 33.1874 11.1081 33.2258L5.11802 33.3797C4.15808 33.4181 3.27494 33.8027 2.62218 34.4949C1.96942 35.1871 1.6238 36.1101 1.6238 37.0715L1.77745 43.5707C1.81585 45.532 3.39017 47.0702 5.34844 47.0702H5.46356L10.6089 46.9164C12.2216 46.878 13.7191 47.8778 14.2566 49.4161V49.4546C14.7942 50.9159 14.3718 52.5695 13.1815 53.6079L9.53373 56.7998C8.80418 57.4151 8.38182 58.2996 8.30503 59.261C8.22824 60.2224 8.53543 61.1454 9.18819 61.8761L13.4503 66.76C14.1414 67.5292 15.1014 67.9907 16.1381 67.9907C17.0212 67.9907 17.8276 67.683 18.4804 67.1062L22.1281 63.9143C22.6273 63.4144 23.5105 63.0682 24.432 63.0682Z" fill="#66192D"/>
</svg>
