<svg width="646" height="427" viewBox="0 0 646 427" fill="none" xmlns="http://www.w3.org/2000/svg">
<path d="M323 427C501.388 427 646 409.937 646 388.889C646 367.842 501.388 350.779 323 350.779C144.612 350.779 -4.57764e-05 367.842 -4.57764e-05 388.889C-4.57764e-05 409.937 144.612 427 323 427Z" fill="#786AB5"/>
<path d="M417.035 294.248L352.528 285.479C352.489 285.479 352.412 285.441 352.412 285.403C352.374 285.364 352.374 285.326 352.374 285.249C352.374 285.133 354.025 273.212 350.032 257.791C347.69 248.753 343.927 240.293 338.82 232.678C332.446 223.141 323.921 214.873 313.554 208.105C296.122 197.606 283.105 184.646 274.849 169.533C266.056 153.458 263.023 135.498 265.749 116.155C267.938 100.657 273.928 84.6587 283.067 69.8529C292.013 55.3162 304.07 41.8564 317.855 30.9347C332.254 19.5131 348.074 11.0911 364.815 5.86097C382.708 0.28475 400.832 -1.33044 418.687 1.09233C459.964 6.70701 497.593 28.5119 519.365 59.4696C527.313 70.8143 532.842 82.8897 535.799 95.3881C538.871 108.463 539.024 121.731 536.26 134.729C526.507 180.762 506.847 210.027 476.168 224.218C473.595 225.449 460.079 232.217 446.717 244.023C439.152 250.715 432.894 257.868 428.132 265.328C422.258 274.481 418.571 284.133 417.189 294.017C417.228 294.171 417.151 294.248 417.035 294.248ZM352.796 285.133L416.882 293.825C418.303 283.941 422.027 274.289 427.864 265.174C432.663 257.675 438.96 250.484 446.525 243.792C459.926 231.948 473.48 225.179 476.052 223.91C506.578 209.758 526.2 180.608 535.914 134.691C538.679 121.731 538.487 108.54 535.453 95.5035C532.535 83.0435 527.006 71.0066 519.058 59.7003C497.363 28.8196 459.849 7.09157 418.648 1.4769C400.87 -0.945874 382.823 0.669316 364.968 6.24554C348.266 11.4756 332.484 19.8976 318.123 31.2808C304.339 42.2025 292.359 55.6239 283.412 70.0836C274.312 84.851 268.36 100.811 266.133 116.232C263.407 135.498 266.44 153.381 275.195 169.379C283.412 184.415 296.39 197.337 313.746 207.797C324.19 214.604 332.715 222.91 339.127 232.486C344.272 240.139 348.035 248.638 350.377 257.714C354.14 272.135 352.988 283.518 352.796 285.133Z" fill="#66192D"/>
<g opacity="0.4">
<path d="M342.122 69.8914C340.202 69.8914 338.359 69.3914 336.631 68.3916C330.91 65.0074 328.644 57.1622 331.179 49.2786C333.713 41.3565 340.74 33.819 349.993 29.2042C357.097 25.6277 364.316 24.5509 369.269 26.2815C382.516 30.8963 389.62 35.588 390.388 40.2413C390.81 42.664 389.504 45.0484 386.586 47.3558C386.548 47.3942 386.509 47.3942 386.509 47.3942C386.317 47.4327 366.773 50.2785 353.872 63.9306C350.109 67.8532 346 69.8914 342.122 69.8914ZM364.047 25.82C359.9 25.82 355.024 27.0891 350.185 29.5119C341.008 34.0882 334.058 41.5103 331.563 49.3555C329.105 57.0468 331.294 64.7382 336.861 68.007C341.892 71.0066 348.15 69.353 353.603 63.5845C366.274 50.2015 385.281 47.125 386.433 46.9712C389.197 44.7407 390.426 42.5102 390.042 40.2413C389.274 35.7418 382.247 31.127 369.154 26.5891C367.618 26.0892 365.89 25.82 364.047 25.82Z" fill="#66192D"/>
</g>
<path d="M408.895 1.32329C334.98 -8.7139 265.212 52.5861 256.15 116.232C250.467 156.227 270.127 187.646 303.84 207.989C349.456 237.716 342.736 285.287 342.736 285.287L407.206 294.056C413.349 250.83 460.348 226.987 466.338 224.103C494.906 210.874 515.948 183.685 526.315 134.768C539.677 71.8144 482.772 11.3605 408.895 1.32329Z" fill="#553E93"/>
<path d="M411.66 277.827C411.66 277.827 431.588 283.595 423.448 305.669C423.448 305.669 435.62 323.013 420.222 333.973C420.222 333.973 429.553 351.664 416.114 365.777C402.675 379.891 320.504 361.508 315.167 352.087C309.83 342.665 314.514 333.166 321.886 331.743C321.886 331.743 313.093 322.667 317.087 313.399C321.08 304.131 326.456 302.939 326.456 302.939C326.456 302.939 319.583 297.67 320.696 284.787C321.81 271.827 338.589 257.329 411.66 277.827Z" fill="#FFBA41"/>
<g opacity="0.4">
<path d="M376.641 47.1632C376.641 47.1632 356.982 49.8936 343.888 63.738C330.795 77.5824 316.549 64.8533 321.541 49.3168C326.494 33.7418 347.958 22.474 359.362 26.4351C370.766 30.3961 388.161 38.0105 376.641 47.1632Z" fill="white"/>
</g>
<path d="M420.184 335.396C419.954 335.396 419.723 335.358 419.531 335.243C419.455 335.204 412.274 331.512 400.985 328.628C390.58 325.974 374.491 323.513 356.867 326.744C356.099 326.897 355.369 326.359 355.215 325.59C355.062 324.821 355.599 324.09 356.367 323.936C374.568 320.591 391.117 323.129 401.792 325.859C413.388 328.82 420.568 332.551 420.875 332.704C421.566 333.051 421.835 333.935 421.49 334.627C421.182 335.089 420.683 335.396 420.184 335.396Z" fill="#66192D"/>
<path d="M423.448 307.092C423.256 307.092 423.102 307.054 422.91 306.977C422.795 306.938 412.85 303.016 399.564 299.939C387.354 297.132 369.768 294.44 355.292 297.747C354.524 297.939 353.756 297.439 353.603 296.67C353.411 295.901 353.91 295.132 354.678 294.978C369.691 291.556 387.738 294.286 400.256 297.17C413.733 300.285 423.87 304.285 423.985 304.323C424.715 304.631 425.06 305.438 424.792 306.169C424.523 306.746 423.985 307.092 423.448 307.092Z" fill="#66192D"/>
<path d="M257.532 207.182C259.682 205.067 253.308 197.183 253.308 197.183C252.502 196.606 238.871 209.527 223.282 204.567C217.714 202.798 210.034 193.068 209.497 191.607C209.42 191.414 197.21 195.837 197.21 195.837C198.208 198.452 199.36 206.759 205.35 212.258C217.714 223.718 246.09 222.603 257.532 207.182Z" fill="#FDAD9B"/>
<path d="M184.922 364.393C184.922 364.393 185.038 368.623 187.879 369.815C190.72 371.007 199.014 372.084 195.904 374.814C194.138 376.391 185.767 375.353 183.425 375.353C181.083 375.353 178.856 376.391 177.089 374.814C175.169 373.084 177.089 364.393 177.089 364.393C177.089 364.393 179.124 365.469 180.968 365.392C183.617 365.354 184.922 364.393 184.922 364.393Z" fill="#66192D"/>
<path d="M209.574 236.832C209.574 236.832 210.15 255.906 204.083 292.517C199.705 318.937 194.522 345.549 191.988 358.317C191.066 362.893 187.226 366.239 182.695 366.392L180.238 366.508C175.323 366.7 171.33 362.47 171.714 357.47L177.896 271.135L179.432 242.716L209.574 236.832Z" fill="#552748"/>
<path d="M157.891 364.393C157.891 364.393 158.006 368.623 160.847 369.815C163.689 371.007 171.982 372.084 168.872 374.814C167.106 376.391 158.735 375.353 156.393 375.353C154.051 375.353 151.824 376.391 150.058 374.814C148.138 373.084 150.058 364.393 150.058 364.393C150.058 364.393 152.093 365.469 153.936 365.392C156.547 365.354 157.891 364.393 157.891 364.393Z" fill="#66192D"/>
<path d="M182.503 236.832C182.503 236.832 183.079 255.906 177.013 292.517C172.635 318.937 167.452 345.549 164.917 358.317C163.996 362.893 160.156 366.239 155.625 366.392L153.168 366.508C148.253 366.7 144.259 362.47 144.643 357.47L150.825 271.135L152.361 242.716L182.503 236.832Z" fill="#552748"/>
<path d="M149.328 257.714C149.405 260.021 163.266 260.944 180.468 260.406C197.67 259.867 211.378 257.483 211.34 255.176C211.263 252.868 197.44 251.522 180.276 252.061C163.074 252.599 149.251 255.445 149.328 257.714Z" fill="#66192D"/>
<path d="M153.552 192.568C153.552 192.568 156.585 180.493 179.009 180.377C211.34 180.185 208.345 209.951 211.34 255.176C211.34 255.176 179.47 250.676 149.328 257.137C149.328 257.175 146.525 210.989 153.552 192.568Z" fill="#FF8548"/>
<path d="M145.258 190.838L159.887 198.952C159.887 198.952 191.949 201.875 200.473 200.452C208.998 199.029 211.34 192.799 211.34 192.799C211.34 192.799 202.278 183.415 186.881 180.877C185.422 180.647 183.924 180.454 182.388 180.377C179.777 180.224 177.166 180.262 174.593 180.531C155.011 182.762 145.258 190.838 145.258 190.838Z" fill="#FF8548"/>
<path d="M175.899 177.609L177.588 172.148L178.088 170.571L180.967 161.188L181.351 170.494L181.582 176.07L181.659 177.839C181.697 179.031 181.927 180.224 182.811 181.3C183.156 181.723 184.577 184.223 181.927 185.338C179.816 186.261 174.017 183.723 171.675 180.877C171.752 180.916 175.361 179.378 175.899 177.609Z" fill="#FDAD9B"/>
<path d="M208.614 257.06C208.614 257.06 189.991 251.561 151.44 259.098L151.133 264.636L207.654 266.636L208.614 257.06Z" fill="#552748"/>
<path d="M144.951 191.184C143.722 192.953 145.527 196.414 149.021 198.952C152.515 201.49 156.355 202.105 157.583 200.336C158.812 198.567 157.007 195.106 153.513 192.568C150.019 190.03 146.179 189.415 144.951 191.184Z" fill="#66192D"/>
<path d="M260.143 202.029C260.527 202.644 261.333 202.875 261.986 202.49L271.777 196.606C272.392 196.222 272.622 195.414 272.238 194.76C271.854 194.145 271.048 193.914 270.395 194.299L260.604 200.183C259.99 200.567 259.759 201.375 260.143 202.029Z" fill="#FDAD9B"/>
<path d="M258.377 199.067C258.761 199.682 259.567 199.913 260.22 199.529L271.163 192.953C271.778 192.568 272.008 191.76 271.624 191.107C271.24 190.491 270.434 190.261 269.781 190.645L258.838 197.221C258.223 197.606 257.993 198.452 258.377 199.067Z" fill="#FDAD9B"/>
<path d="M252.233 201.721L252.694 201.875C253.539 202.182 254.46 201.759 254.767 200.913L257.801 192.799C258.108 191.953 257.686 191.03 256.841 190.722L256.38 190.568C255.535 190.261 254.614 190.684 254.307 191.53L251.273 199.644C250.966 200.452 251.388 201.413 252.233 201.721Z" fill="#FDAD9B"/>
<path d="M256.611 196.144C256.995 196.76 257.801 196.99 258.454 196.606L267.208 191.337C267.823 190.953 268.053 190.145 267.669 189.491C267.285 188.876 266.479 188.645 265.826 189.03L257.071 194.298C256.457 194.683 256.265 195.491 256.611 196.144Z" fill="#FDAD9B"/>
<path d="M255.766 207.374C255.766 207.374 263.407 207.297 266.709 202.99C267.861 201.49 262.447 192.991 260.335 193.183C258.223 193.376 252.656 197.491 252.656 197.491L255.766 207.374Z" fill="#FDAD9B"/>
<path d="M261.909 204.951C262.293 205.566 263.1 205.797 263.753 205.413L272.507 200.144C273.122 199.759 273.352 198.952 272.968 198.298C272.584 197.683 271.778 197.452 271.125 197.837L262.37 203.105C261.717 203.49 261.525 204.297 261.909 204.951Z" fill="#FDAD9B"/>
<path d="M205.58 199.375C204.659 196.029 201.548 191.799 201.51 191.76L201.817 191.53C201.856 191.568 205.004 195.837 205.964 199.259L205.58 199.375Z" fill="#66192D"/>
<path d="M179.777 199.759C180.085 200.259 180.545 200.644 180.968 201.029C181.928 201.836 182.849 202.682 183.809 203.49C184.923 204.451 186.075 205.528 186.305 206.989C186.459 208.028 186.113 209.143 186.497 210.143C186.919 211.181 188.071 211.72 189.185 211.873C190.298 212.027 193.255 212.181 194.292 213.835C194.599 214.373 195.405 214.681 196.211 214.565C197.632 214.335 198.055 212.835 197.095 211.681C196.519 211.027 196.019 210.335 195.52 209.643C194.676 208.451 194.176 207.028 194.138 205.566C194.061 203.721 194.599 201.721 193.6 200.182C193.024 199.26 192.026 198.721 191.066 198.221C189.223 197.221 187.226 195.991 186.804 193.953C186.651 193.106 186.766 192.145 186.228 191.453C185.806 190.914 185.076 190.684 184.423 190.645C183.809 190.568 183.08 190.684 182.734 191.184C182.427 191.684 182.619 192.299 182.58 192.837C182.465 194.376 180.699 195.145 179.893 196.414C179.201 197.414 179.163 198.76 179.777 199.759ZM182.312 197.529C182.657 196.952 183.387 196.644 184.039 196.837C184.27 196.914 184.462 196.991 184.615 197.183C184.846 197.414 184.961 197.76 185.153 198.067C185.422 198.49 185.806 198.837 186.228 199.067C186.843 199.375 187.534 199.413 188.225 199.452C189.3 199.529 191.412 199.798 191.373 201.336C191.335 202.221 190.452 202.451 189.684 202.49C188.532 202.528 187.649 202.028 186.612 201.605C185.307 201.067 183.694 200.952 182.695 199.836C182.12 199.221 181.851 198.26 182.312 197.529Z" fill="white"/>
<path d="M206.502 217.219C206.502 217.219 203.66 237.139 201.587 237.332C199.513 237.524 191.757 237.947 189.377 237.332C186.996 236.716 185.69 216.911 186.343 216.45C187.034 215.988 207.385 214.95 206.502 217.219Z" fill="#66192D"/>
<path d="M186.996 229.294L187.917 227.487C185.383 226.179 181.62 223.641 181.313 222.103C181.275 221.872 181.313 221.757 181.428 221.565C183.079 219.488 186.881 221.757 186.919 221.795L187.994 220.065C187.956 220.026 186.689 219.257 185.153 218.873C182.273 218.142 180.699 219.257 179.854 220.295C179.355 220.949 179.163 221.718 179.355 222.526C179.969 225.564 185.844 228.679 186.996 229.294Z" fill="#66192D"/>
<path d="M185.921 223.795C185.921 223.795 190.336 218.411 194.407 218.219C198.477 218.065 203.814 220.911 201.318 221.564C198.822 222.218 195.405 222.141 195.405 222.141C195.405 222.141 202.7 222.641 201.856 224.295C201.011 225.948 194.637 225.487 194.637 225.487C194.637 225.487 203.276 226.756 201.971 228.064C200.665 229.371 194.099 228.371 194.099 228.371C194.099 228.371 202.086 229.871 200.55 231.371C198.976 232.871 193.946 230.102 193.101 231.755C192.256 233.409 188.301 239.754 183.386 237.909L185.921 223.795Z" fill="#FDAD9B"/>
<path d="M192.487 222.68L192.295 222.449C193.255 221.526 195.328 221.949 195.405 221.987L195.328 222.295C195.328 222.295 193.37 221.872 192.487 222.68Z" fill="#DD8964"/>
<path d="M191.143 226.103L190.989 225.834C192.602 224.833 194.599 225.295 194.675 225.295L194.599 225.603C194.56 225.603 192.64 225.179 191.143 226.103Z" fill="#DD8964"/>
<path d="M190.836 228.91L190.605 228.718C191.565 227.64 193.984 228.179 194.099 228.179L194.023 228.487C194.023 228.487 191.68 227.987 190.836 228.91Z" fill="#DD8964"/>
<path d="M184.73 238.178C187.533 238.178 186.766 223.641 186.766 223.641C170.447 225.372 163.458 221.372 160.425 217.757C154.358 210.412 157.622 199.337 157.66 199.183C157.66 199.183 158.159 197.106 153.091 194.26C150.672 192.876 148.675 192.453 147.293 192.376C146.141 192.299 145.066 193.068 144.797 194.183C143.453 199.413 140.42 215.45 149.558 226.602C155.817 234.217 171.138 238.178 184.73 238.178Z" fill="#FDAD9B"/>
<g opacity="0.5">
<path d="M157.468 229.14C156.623 229.14 155.702 228.871 154.857 228.333C152.937 227.141 152.054 225.179 152.822 223.872C153.091 223.372 153.59 223.026 154.204 222.872C155.203 222.603 156.508 222.872 157.622 223.603C159.542 224.795 160.425 226.756 159.657 228.064C159.388 228.564 158.889 228.91 158.275 229.064C158.044 229.14 157.775 229.14 157.468 229.14ZM155.011 223.526C154.78 223.526 154.588 223.564 154.396 223.603C154.089 223.68 153.705 223.833 153.475 224.256C152.937 225.218 153.744 226.795 155.241 227.718C156.201 228.333 157.276 228.564 158.121 228.333C158.428 228.256 158.812 228.102 159.042 227.679C159.58 226.718 158.774 225.141 157.276 224.218C156.508 223.795 155.702 223.526 155.011 223.526Z" fill="#E08B65"/>
</g>
<path d="M181.62 176.109C181.62 176.109 178.395 175.494 177.166 173.609L181.889 174.647L181.62 176.109Z" fill="#66192D"/>
<path d="M188.455 157.688C188.455 157.688 189.031 159.957 188.455 162.803C187.879 165.649 184.961 158.649 184.961 158.649L188.455 157.688Z" fill="#66192D"/>
<path d="M188.801 163.61C188.071 158.111 183.809 154.15 179.24 154.727C174.67 155.342 171.599 160.264 172.29 165.764C173.019 171.263 177.281 175.224 181.851 174.647C186.42 174.032 189.53 169.109 188.801 163.61Z" fill="#FDAD9B"/>
<path d="M172.098 162.918L176.129 162.495C177.013 162.418 177.819 161.918 178.318 161.188C179.124 159.88 180.123 159.226 183.886 159.38C188.647 159.572 191.757 156.727 192.295 154.227C192.832 151.689 190.375 149.958 187.994 151.189C185.614 152.42 186.65 149.42 184.346 149.112C180.046 148.535 179.24 151.843 175.745 151.727C171.138 151.574 162.882 155.073 166.799 163.187L172.098 162.918Z" fill="#66192D"/>
<path d="M181.006 164.264C181.044 164.226 181.083 164.187 181.083 164.149C181.083 164.072 181.006 163.956 180.929 163.956C180.891 163.956 179.624 163.726 178.971 165.072C178.932 165.149 178.971 165.264 179.048 165.302C179.124 165.341 179.201 165.302 179.278 165.226C179.854 164.495 180.852 164.303 180.891 164.303C180.929 164.303 180.967 164.303 181.006 164.264Z" fill="#060633"/>
<path d="M180.276 166.418C180.391 166.802 180.699 167.071 180.967 166.994C181.236 166.917 181.39 166.533 181.275 166.148C181.159 165.764 180.852 165.495 180.583 165.572C180.315 165.648 180.161 166.033 180.276 166.418Z" fill="#060633"/>
<path d="M187.226 163.765C187.265 163.765 187.303 163.726 187.303 163.688C187.341 163.611 187.303 163.495 187.226 163.457C187.188 163.418 186.305 162.687 185.498 163.649C185.46 163.726 185.46 163.803 185.498 163.88C185.537 163.957 185.614 163.957 185.69 163.918C186.305 163.495 187.073 163.726 187.111 163.765C187.149 163.765 187.188 163.765 187.226 163.765Z" fill="#060633"/>
<path d="M185.69 165.494C185.652 165.879 185.844 166.264 186.113 166.302C186.42 166.34 186.689 166.033 186.727 165.648C186.765 165.264 186.574 164.879 186.305 164.841C185.998 164.802 185.729 165.11 185.69 165.494Z" fill="#060633"/>
<path d="M166.76 163.149C166.76 163.149 169.525 169.148 173.48 169.61C173.48 169.61 171.291 164.341 177.013 162.264C177.013 162.264 170.869 161.264 166.76 163.149Z" fill="#66192D"/>
<path d="M172.482 166.687C173.134 167.687 174.248 168.11 175.016 167.648C175.784 167.148 175.861 165.956 175.208 164.956C174.555 163.956 173.442 163.533 172.674 163.995C171.906 164.456 171.829 165.687 172.482 166.687Z" fill="#FDAD9B"/>
<path d="M186.42 169.34C186.42 169.34 183.847 170.032 181.006 169.763C181.006 169.763 181.428 172.378 184.27 171.878C185.921 171.532 186.42 169.34 186.42 169.34Z" fill="white"/>
<path d="M187.457 150.767C186.228 150.767 186.113 149.689 186.113 149.689L186.343 149.651C186.343 149.689 186.458 150.574 187.533 150.536V150.767C187.495 150.767 187.495 150.767 187.457 150.767Z" fill="#66192D"/>
<path d="M185.23 158.034L185.191 157.919C185.191 157.919 186.497 157.534 187.764 156.842C188.954 156.188 190.375 155.15 190.49 153.804C190.567 153.073 190.413 152.573 190.106 152.304C189.607 151.881 188.685 152.073 187.879 152.266C187.764 152.304 187.649 152.304 187.533 152.342L187.495 152.227C187.61 152.189 187.725 152.189 187.841 152.15C188.685 151.958 189.607 151.727 190.144 152.189C190.49 152.496 190.605 152.996 190.567 153.765C190.413 156.496 185.422 157.957 185.23 158.034Z" fill="white"/>
<path d="M175.246 152.727C174.785 152.727 174.248 152.688 173.749 152.611V152.496C178.702 153.15 181.044 150.381 181.083 150.343L181.159 150.419C181.159 150.458 179.24 152.727 175.246 152.727Z" fill="white"/>
<path d="M494.714 394.273C494.714 394.273 528.58 399.542 556.956 396.735C585.332 393.966 624.574 392.427 617.432 345.549C610.29 298.67 618.008 279.096 589.978 267.559C561.948 256.022 529.348 263.521 507.462 290.325C485.575 317.129 434.391 374.237 494.714 394.273Z" fill="#FF443C"/>
<path d="M555.727 325.128C555.535 325.128 555.382 324.974 555.343 324.782C555.305 324.59 555.459 324.398 555.689 324.359C575.694 321.744 587.52 302.477 587.636 302.285C587.751 302.093 587.981 302.054 588.173 302.17C588.365 302.285 588.404 302.516 588.288 302.708C588.25 302.747 585.255 307.707 579.764 312.899C574.696 317.706 566.44 323.744 555.766 325.128C555.727 325.128 555.727 325.128 555.727 325.128Z" fill="#66192D"/>
<path d="M571.816 319.052C571.777 319.052 571.701 319.052 571.662 319.014C571.47 318.937 571.393 318.706 571.47 318.514C573.544 314.322 573.428 310.592 573.006 308.207C572.507 305.631 571.509 303.977 571.509 303.977C571.393 303.785 571.432 303.554 571.624 303.439C571.816 303.323 572.046 303.362 572.161 303.554C572.2 303.631 576.347 310.399 572.2 318.821C572.085 318.975 571.969 319.052 571.816 319.052Z" fill="#66192D"/>
<path d="M470.638 384.698C470.638 384.698 470.408 389.466 467.183 390.774C463.919 392.043 454.55 393.081 457.967 396.235C459.926 398.042 469.41 397.081 472.098 397.158C474.785 397.196 477.243 398.427 479.278 396.696C481.505 394.773 479.508 384.928 479.508 384.928C479.508 384.928 477.166 386.082 475.093 385.967C472.097 385.813 470.638 384.698 470.638 384.698Z" fill="#66192D"/>
<path d="M442.148 381.967C442.148 381.967 441.879 386.736 438.615 388.005C435.351 389.236 425.944 390.159 429.361 393.35C431.319 395.158 440.804 394.35 443.453 394.427C446.102 394.504 448.598 395.773 450.633 394.043C452.86 392.158 451.017 382.275 451.017 382.275C451.017 382.275 448.675 383.39 446.602 383.275C443.607 383.083 442.148 381.967 442.148 381.967Z" fill="#66192D"/>
<path d="M444.336 385.928C438.807 385.313 434.775 380.429 435.159 374.891C437.309 343.549 440.228 327.782 450.787 314.745C457.583 306.361 467.49 298.401 479.393 294.055C489.645 290.325 498.285 288.71 509.497 289.017C527.774 289.517 536.106 292.978 536.106 292.978C547.318 322.59 525.585 324.513 509.727 323.936C509.189 323.898 508.69 323.898 508.153 323.898C498.515 323.667 481.274 324.628 474.017 333.627C468.258 340.742 463.804 351.01 459.964 378.198C459.234 383.429 454.473 387.12 449.251 386.505L444.336 385.928Z" fill="#FF8548"/>
<path d="M470.562 389.812C465.032 389.197 461.001 384.313 461.384 378.775C463.535 347.433 466.453 331.666 477.012 318.629C483.809 310.245 493.446 304.285 505.657 300.977C514.373 298.593 524.472 297.555 535.684 297.862C553.961 298.362 562.332 296.863 562.332 296.863C573.928 334.512 520.747 322.167 505.388 336.434C498.707 342.664 490.029 354.855 486.189 382.044C485.46 387.274 480.698 390.966 475.476 390.351L470.562 389.812Z" fill="#FF8548"/>
<path d="M506.655 243.677C505.196 245.523 491.143 261.598 490.951 279.326L504.083 276.673L513.26 254.099L506.655 243.677Z" fill="#FDAD9B"/>
<path d="M557.494 243.792C557.494 243.792 551.888 228.91 532.689 229.948C513.49 230.986 500.012 238.562 497.209 292.209C497.209 292.209 523.704 290.71 553.961 308.553C559.068 311.553 567.016 310.938 567.362 305.054C568.014 293.248 565.595 270.751 557.494 243.792Z" fill="#FFBA41"/>
<path d="M574.35 246.138L557.494 251.484C557.494 251.484 522.59 255.56 513.26 254.099C503.967 252.599 501.28 245.215 501.28 245.215C501.28 245.215 510.994 233.909 527.774 230.64C529.348 230.333 530.999 230.102 532.689 229.948C535.53 229.679 538.256 229.448 541.059 229.717C568.36 232.602 574.35 246.138 574.35 246.138Z" fill="#FFBA41"/>
<path d="M574.35 246.138C575.272 248.138 571.317 250.061 566.44 251.83C561.602 253.637 557.263 253.983 556.802 252.637C556.303 251.291 559.836 248.715 564.712 246.946C569.55 245.177 573.774 244.831 574.35 246.138Z" fill="#66192D"/>
<path d="M526.353 297.555C523.051 297.055 520.478 295.824 518.559 293.863C514.872 290.133 514.872 285.056 515.948 281.826L520.248 280.095C520.594 279.057 527.62 284.21 527.62 284.21C527.659 284.21 531.115 285.826 544.554 281.249C553.923 278.096 559.221 272.404 560.834 263.905C562.025 257.483 559.951 254.214 559.49 252.522C559.413 252.291 560.642 249.522 565.634 247.869C571.048 246.1 573.006 247.484 573.006 247.484C573.813 250.522 575.464 257.406 573.774 266.366C572.046 275.635 566.287 287.979 548.701 293.901C539.101 297.132 531.767 298.362 526.353 297.555Z" fill="#FDAD9B"/>
<path d="M523.397 299.055L488.148 298.093C487.418 298.055 486.765 297.593 486.573 296.901L479.854 274.788C479.508 273.673 480.353 272.558 481.543 272.596L515.41 273.519C516.946 273.558 518.29 274.596 518.75 276.058L525.086 296.863C525.432 297.978 524.548 299.093 523.397 299.055Z" fill="#552748"/>
<path d="M521.17 299.016L485.921 298.055C485.191 298.016 484.538 297.555 484.346 296.863L477.627 274.75C477.281 273.635 478.126 272.52 479.316 272.558L513.183 273.481C514.719 273.519 516.063 274.558 516.523 276.019L522.859 296.824C523.205 297.939 522.36 299.055 521.17 299.016Z" fill="#552748"/>
<path d="M496.864 284.979C496.902 284.133 497.862 283.826 498.707 283.864C499.552 283.903 500.896 284.826 500.857 286.018C500.819 287.287 499.821 287.402 498.976 287.402C498.131 287.325 496.826 286.018 496.864 284.979Z" fill="#DEEBE9"/>
<path d="M534.225 296.247L485.997 294.94L485.921 298.016L535.146 299.362C535.722 299.362 536.183 298.939 536.221 298.362C536.26 297.247 535.338 296.286 534.225 296.247Z" fill="#552748"/>
<path d="M519.058 284.71C519.058 284.633 517.483 278.096 516.408 276.058C515.371 274.058 514.028 273.596 513.989 273.596L514.066 273.366C514.143 273.366 515.525 273.827 516.6 275.942C517.675 278.019 519.173 284.364 519.25 284.633L519.058 284.71Z" fill="#6F4975"/>
<path d="M523.973 296.093C522.667 296.055 522.36 295.478 522.36 295.44L519.826 287.133L520.056 287.056L522.59 295.363C522.59 295.363 522.859 295.824 524.011 295.863L523.973 296.093Z" fill="#6F4975"/>
<g opacity="0.3">
<path d="M560.681 283.441C560.373 283.441 560.143 283.364 559.951 283.211C559.183 282.595 559.452 280.98 560.527 279.557C561.257 278.634 562.178 278.019 562.984 277.904C563.368 277.865 563.676 277.942 563.906 278.134C564.674 278.75 564.444 280.365 563.33 281.788C562.6 282.711 561.679 283.326 560.873 283.441C560.796 283.441 560.719 283.441 560.681 283.441ZM563.138 278.365C563.1 278.365 563.061 278.365 562.984 278.365C562.332 278.442 561.487 279.019 560.834 279.826C559.913 281.019 559.605 282.364 560.181 282.826C560.335 282.941 560.527 282.98 560.796 282.98C561.449 282.903 562.293 282.326 562.946 281.518C563.868 280.326 564.175 278.98 563.599 278.519C563.484 278.403 563.33 278.365 563.138 278.365Z" fill="#E08B65"/>
</g>
<path d="M536.145 227.333L533.265 222.218L532.42 220.719L527.467 211.989L529.118 221.411L530.116 227.064L530.423 228.833C530.654 230.064 529.963 230.448 529.31 231.717C529.041 232.217 527.275 235.294 530.155 235.87C533.726 236.601 539.37 233.063 541.059 229.717C541.021 229.717 537.066 228.987 536.145 227.333Z" fill="#FDAD9B"/>
<path d="M519.25 210.143C519.25 210.143 519.173 212.527 520.363 215.258C521.592 217.988 522.936 210.335 522.936 210.335L519.25 210.143Z" fill="#56335B"/>
<path d="M520.171 216.142C519.711 210.489 523.09 205.566 527.774 205.182C532.459 204.797 536.644 209.028 537.143 214.719C537.642 220.372 534.225 225.295 529.54 225.679C524.856 226.064 520.67 221.795 520.171 216.142Z" fill="#FDAD9B"/>
<path d="M536.72 211.796L532.612 212.258C531.69 212.373 530.807 212.066 530.155 211.412C529.041 210.297 527.927 209.835 524.203 210.835C519.48 212.066 515.717 209.912 514.68 207.528C513.605 205.105 515.64 202.836 518.328 203.528C521.016 204.221 519.288 201.452 521.553 200.644C525.7 199.106 527.236 202.259 530.731 201.375C535.3 200.221 544.323 201.913 542.173 210.912L536.72 211.796Z" fill="#66192D"/>
<path d="M528.158 215.104C528.119 215.104 528.081 215.027 528.043 214.989C528.004 214.912 528.081 214.796 528.158 214.758C528.196 214.758 529.425 214.257 530.347 215.45C530.423 215.527 530.385 215.643 530.308 215.681C530.231 215.758 530.155 215.72 530.078 215.643C529.348 215.027 528.311 215.066 528.273 215.066C528.196 215.104 528.158 215.104 528.158 215.104Z" fill="#060633"/>
<path d="M529.348 217.104C529.31 217.527 529.079 217.834 528.772 217.834C528.465 217.834 528.235 217.488 528.273 217.065C528.311 216.642 528.542 216.334 528.849 216.334C529.156 216.334 529.348 216.681 529.348 217.104Z" fill="#060633"/>
<path d="M521.784 215.95C521.746 215.95 521.707 215.912 521.669 215.873C521.63 215.796 521.63 215.681 521.669 215.642C521.707 215.604 522.398 214.68 523.435 215.45C523.512 215.489 523.512 215.604 523.473 215.681C523.435 215.758 523.358 215.758 523.281 215.758C522.552 215.489 521.861 215.873 521.822 215.912C521.861 215.95 521.822 215.95 521.784 215.95Z" fill="#060633"/>
<path d="M523.704 217.373C523.857 217.757 523.742 218.142 523.435 218.257C523.166 218.373 522.821 218.103 522.667 217.719C522.513 217.334 522.629 216.95 522.936 216.834C523.243 216.719 523.589 216.95 523.704 217.373Z" fill="#060633"/>
<path d="M542.135 210.874C542.135 210.874 540.675 217.488 536.836 218.796C536.836 218.796 539.024 213.527 531.69 212.181C531.652 212.219 537.642 209.874 542.135 210.874Z" fill="#66192D"/>
<path d="M537.297 215.412C536.567 216.142 535.453 216.181 534.801 215.527C534.148 214.873 534.225 213.758 534.954 213.027C535.684 212.296 536.797 212.258 537.45 212.912C538.103 213.566 538.026 214.681 537.297 215.412Z" fill="#FDAD9B"/>
<path d="M531.652 212.22C531.652 212.22 533.303 217.142 532.458 218.334C531.652 219.526 524.971 221.411 521.553 220.872C522.206 224.141 525.124 226.487 528.427 226.333C529.502 226.295 530.615 226.026 531.652 225.603C533.764 224.718 535.722 223.334 536.183 221.103C536.337 220.411 534.685 216.758 534.685 216.758C534.685 216.758 533.879 214.566 534.954 213.104C534.954 213.066 533.15 212.027 531.652 212.22Z" fill="#66192D"/>
<path d="M523.627 222.295C523.627 222.295 526.392 222.449 529.156 221.526C529.156 221.526 529.31 224.256 526.315 224.333C524.587 224.41 523.627 222.295 523.627 222.295Z" fill="white"/>
<path d="M518.635 202.99L518.597 202.759C519.71 202.567 519.595 201.644 519.595 201.605L519.826 201.567C519.826 201.605 519.941 202.759 518.635 202.99Z" fill="#66192D"/>
<path d="M522.552 209.758C522.321 209.758 517.023 209.374 516.216 206.72C515.986 205.951 516.024 205.413 516.293 205.028C516.754 204.451 517.714 204.451 518.597 204.451C518.712 204.451 518.866 204.451 518.981 204.451V204.567C518.866 204.567 518.75 204.567 518.597 204.567C517.752 204.567 516.792 204.528 516.37 205.067C516.101 205.413 516.101 205.913 516.331 206.643C516.754 207.989 518.405 208.72 519.71 209.105C521.17 209.528 522.513 209.604 522.552 209.604V209.758Z" fill="white"/>
<path d="M529.233 202.528C526.507 202.528 524.932 201.336 524.932 201.298L525.009 201.221C525.048 201.259 528.043 203.49 532.804 201.759L532.842 201.875C531.498 202.336 530.308 202.528 529.233 202.528Z" fill="white"/>
<path d="M462.767 361.162C462.767 361.047 462.767 349.087 467.221 336.242C469.832 328.705 473.441 322.321 477.934 317.322C483.54 311.053 490.605 306.861 498.861 304.939L498.899 305.131C490.682 307.054 483.694 311.207 478.088 317.437C473.633 322.436 470.024 328.782 467.451 336.281C463.036 349.087 462.997 361.008 462.997 361.124L462.767 361.162Z" fill="#020202"/>
<path d="M71.2274 378.66L67.6565 379.352L67.8868 334.204L70.6131 335.358L71.2274 378.66Z" fill="#66192D"/>
<path d="M81.71 381.16C81.71 381.16 62.8952 381.506 56.6364 381.544C55.9452 381.544 55.446 380.583 55.446 379.891C55.446 379.198 56.4444 378.391 57.1355 378.391C63.2791 378.429 81.71 378.66 81.71 378.66C82.4011 378.66 82.9771 379.237 82.9771 379.929C82.9771 380.583 82.4011 381.16 81.71 381.16Z" fill="#66192D"/>
<path d="M56.3676 383.39C56.598 382.006 57.7883 381.121 59.209 381.121C60.5913 381.121 62.0504 382.044 62.0504 383.429C62.0504 385.159 60.2841 386.39 58.9018 386.39C57.4427 386.428 56.0604 385.159 56.3676 383.39Z" fill="#66192D"/>
<path d="M76.4111 383.39C76.6415 382.006 77.8318 381.121 79.2525 381.121C80.6348 381.121 82.0939 382.044 82.0939 383.429C82.0939 385.159 80.3276 386.39 78.9453 386.39C77.5246 386.428 76.1039 385.159 76.4111 383.39Z" fill="#66192D"/>
<path d="M60.7449 335.666C60.7449 335.666 60.0537 338.665 67.0037 339.627C73.9536 340.588 76.9486 335.666 76.9486 335.666H60.7449Z" fill="#66192D"/>
<path d="M82.977 331.089C83.0538 322.667 82.6699 286.518 70.9203 283.364C57.6347 279.788 40.5478 273.327 35.5561 285.018C30.5644 296.747 47.3442 332.82 47.3442 332.82C47.3442 332.82 48.2657 336.012 51.6831 336.396C55.1004 336.742 96.9538 338.011 97.0306 336.396C97.0306 335.358 88.8903 332.82 82.977 331.089Z" fill="#FF8548"/>
<path d="M104.787 257.521L124.869 281.288C124.869 281.288 102.061 287.287 102.291 286.902C102.521 286.518 98.2593 260.983 98.2593 260.983L104.787 257.521Z" fill="#FDAD9B"/>
<path d="M124.139 385.851C124.139 385.851 124.024 390.082 126.789 391.428C129.553 392.774 137.77 394.312 134.545 396.85C132.702 398.311 124.408 396.85 122.066 396.735C119.723 396.619 117.458 397.504 115.769 395.85C113.925 394.004 116.344 385.467 116.344 385.467C116.344 385.467 118.303 386.62 120.146 386.697C122.757 386.736 124.139 385.851 124.139 385.851Z" fill="#552748"/>
<path d="M147.446 383.775C147.446 383.775 147.331 388.005 150.096 389.351C152.861 390.697 161.078 392.235 157.852 394.773C156.009 396.235 147.715 394.773 145.373 394.658C143.031 394.543 140.765 395.427 139.076 393.774C137.233 391.928 139.652 383.39 139.652 383.39C139.652 383.39 141.61 384.544 143.453 384.621C146.064 384.659 147.446 383.775 147.446 383.775Z" fill="#552748"/>
<path d="M152.784 378.852C150.71 351.202 150.211 332.589 141.495 320.59C131.934 307.477 106.323 298.209 96.4546 297.632C80.3276 296.67 72.7633 299.093 72.7633 299.093C60.6681 324.282 79.5981 327.628 93.6132 328.32C94.0739 328.359 94.5347 328.359 94.9955 328.397C103.481 328.936 118.572 331.089 124.254 339.55C128.785 346.241 131.895 355.625 133.239 379.814C133.508 384.467 137.386 388.043 142.032 387.928C142.032 387.928 153.552 388.774 152.784 378.852Z" fill="#66192D"/>
<path d="M129.937 380.275C130.206 352.548 131.089 338.434 122.757 326.128C117.42 318.245 109.395 312.284 98.912 308.438C91.4245 305.669 82.6315 304.016 72.7249 303.4C56.598 302.439 49.3792 300.516 49.3792 300.516C36.3241 332.743 84.0138 325.898 96.4546 339.627C101.869 345.626 108.55 357.009 109.894 381.198C110.163 385.852 114.041 389.428 118.687 389.313C118.687 389.351 129.822 390.389 129.937 380.275Z" fill="#66192D"/>
<path d="M129.86 353.048C129.86 352.894 129.016 336.435 126.289 330.705C122.795 323.436 112.697 315.86 102.253 312.668L102.291 312.476C112.774 315.668 122.911 323.321 126.405 330.628C129.169 336.396 129.976 352.894 130.014 353.048H129.86Z" fill="#020202"/>
<path d="M60.8217 249.33C60.8217 249.33 67.6565 237.601 83.4762 241.216C99.2576 244.831 105.708 260.983 106.86 299.785C106.86 299.785 92.2309 299.247 53.7949 312.015C49.2256 313.514 42.5829 312.322 44.8867 304.554C49.264 290.133 53.4494 261.329 60.8217 249.33Z" fill="#FF443C"/>
<path d="M43.466 252.753L59.7081 255.829C59.7081 255.829 88.1223 264.251 96.0706 264.328C104.019 264.405 107.321 258.56 107.321 258.56C107.321 258.56 100.909 247.638 87.4696 242.523C86.2025 242.023 84.8969 241.6 83.5146 241.254C81.1724 240.639 78.8301 240.101 76.4495 240.062C49.6096 239.716 43.466 252.753 43.466 252.753Z" fill="#FF443C"/>
<path d="M43.466 252.753C43.1205 254.022 46.5378 256.175 51.0687 257.521C55.638 258.867 59.593 258.944 59.9385 257.675C60.2841 256.406 56.8668 254.253 52.3359 252.907C47.7666 251.561 43.8116 251.484 43.466 252.753Z" fill="#66192D"/>
<path d="M83.8602 304.823C83.8602 304.823 92.9988 304.285 95.3411 306.246C97.6833 308.207 99.2192 312.514 97.5297 311.591C95.8018 310.669 93.9203 308.938 93.9203 308.938C93.9203 308.938 97.7601 312.899 96.4546 313.399C95.1491 313.899 91.8469 310.438 91.8469 310.438C91.8469 310.438 96.0322 315.514 94.6499 315.591C93.2676 315.668 90.119 311.784 90.119 311.784C90.119 311.784 93.8435 316.668 92.1924 316.706C90.5797 316.745 89.1591 312.668 87.8535 313.168C86.548 313.668 82.7851 316.552 80.942 313.053L83.8602 304.823Z" fill="#FDAD9B"/>
<path d="M50.1856 294.709C56.9051 305.746 65.5062 310.169 80.9036 312.976L83.8602 304.785C72.6481 302.747 66.9269 294.632 62.396 287.21C55.9836 276.711 57.1355 263.867 58.0955 258.214C58.1723 257.675 57.9803 257.137 57.5579 256.791C56.1372 255.676 52.4126 253.445 45.7699 253.33C45.1939 253.33 44.6563 253.714 44.5027 254.291C41.7381 264.79 41.6997 280.826 50.1856 294.709Z" fill="#FDAD9B"/>
<g opacity="0.3">
<path d="M53.5645 292.479C53.2958 292.479 53.027 292.44 52.7198 292.325C51.9135 292.017 51.2223 291.248 50.8383 290.325C50.1472 288.671 50.5695 286.941 51.7983 286.402C52.2974 286.21 52.835 286.21 53.3726 286.441C54.1789 286.749 54.8701 287.518 55.254 288.441C55.9452 290.094 55.5228 291.825 54.2941 292.363C54.0637 292.44 53.8333 292.479 53.5645 292.479ZM52.5278 286.787C52.3358 286.787 52.1822 286.825 51.9903 286.902C51.0303 287.325 50.7616 288.748 51.3375 290.133C51.6831 290.94 52.259 291.594 52.9502 291.863C53.3726 292.017 53.7565 292.056 54.1021 291.902C55.0621 291.479 55.3308 290.056 54.7549 288.671C54.4093 287.864 53.8333 287.21 53.1422 286.941C52.9502 286.825 52.7198 286.787 52.5278 286.787Z" fill="#E08B65"/>
</g>
<path d="M84.5129 235.716L84.4361 235.563C84.4361 235.563 86.2792 234.87 86.6632 233.486C86.8552 232.794 86.6247 232.025 85.972 231.217C85.6648 230.832 85.396 230.486 85.1273 230.179C83.361 228.025 82.7082 227.218 82.8618 225.256H83.0154C82.8618 227.141 83.4761 227.871 85.2424 230.063C85.5112 230.371 85.78 230.717 86.0872 231.102C86.7784 231.948 87.0087 232.755 86.8167 233.524C86.4327 234.947 84.5897 235.678 84.5129 235.716Z" fill="#66192D"/>
<path d="M82.9386 225.256C82.9386 225.256 82.6698 228.294 85.0121 231.179C87.3543 234.024 85.5113 236.562 82.7082 235.716C79.9052 234.87 79.3292 238.37 75.6815 236.947C72.0721 235.486 82.9386 225.256 82.9386 225.256Z" fill="#66192D"/>
<path d="M68.8851 240.293C70.3442 239.947 71.4962 238.908 71.9185 237.486L73.1856 233.025L73.5696 231.717L75.7583 224.064L76.1806 231.679L76.4494 236.255L76.5262 237.524C76.603 238.601 77.5246 240.139 78.5997 240.178C78.5997 240.178 80.2124 242.062 78.0237 243.062C75.4511 244.254 70.7282 242.6 68.8467 240.293H68.8851Z" fill="#FDAD9B"/>
<path d="M73.1856 232.909C73.1856 232.948 73.1856 232.986 73.224 233.025C73.7232 235.447 76.4494 236.217 76.4494 236.217L76.1806 231.64C75.3359 231.448 74.1839 231.294 73.5696 231.717C73.2624 231.948 73.1088 232.294 73.1856 232.909Z" fill="#66192D"/>
<path d="M83.3609 224.295C82.7466 219.488 79.0988 215.95 75.1823 216.45C71.2658 216.95 68.6163 221.257 69.2307 226.102C69.845 230.909 73.4928 234.447 77.4093 233.947C81.2875 233.448 83.9753 229.14 83.3609 224.295Z" fill="#FDAD9B"/>
<path d="M70.3442 227.333C71.2274 227.987 72.3793 227.948 72.8785 227.179C73.3776 226.448 73.032 225.295 72.1489 224.641C71.2658 223.987 70.1138 224.026 69.6147 224.795C69.1155 225.525 69.4227 226.641 70.3442 227.333Z" fill="#FDAD9B"/>
<path d="M76.987 225.218C77.0254 225.218 77.0638 225.141 77.0638 225.103C77.1022 225.026 77.0254 224.91 76.9486 224.91C76.9102 224.91 75.7582 224.487 74.9135 225.641C74.8751 225.718 74.8751 225.834 74.9519 225.872C75.0287 225.911 75.1055 225.911 75.1823 225.834C75.8735 225.256 76.8334 225.218 76.8718 225.218C76.9102 225.218 76.9486 225.218 76.987 225.218Z" fill="#060633"/>
<path d="M75.9119 227.141C75.9503 227.525 76.219 227.833 76.4878 227.795C76.7566 227.756 76.9486 227.448 76.9102 227.064C76.8718 226.679 76.603 226.372 76.3342 226.41C76.1038 226.41 75.9119 226.756 75.9119 227.141Z" fill="#060633"/>
<path d="M82.8235 225.334C82.8618 225.334 82.9386 225.295 82.9386 225.257C82.977 225.18 82.977 225.103 82.9002 225.026C82.8618 224.987 81.9403 224.179 80.75 224.949C80.6732 224.987 80.6348 225.103 80.7116 225.18C80.75 225.257 80.8652 225.257 80.942 225.218C81.7867 224.91 82.7082 225.257 82.7082 225.295C82.7466 225.295 82.7851 225.334 82.8235 225.334Z" fill="#060633"/>
<path d="M81.1339 226.718C81.0187 227.102 81.1339 227.448 81.4027 227.525C81.6715 227.602 81.9787 227.371 82.0939 226.987C82.2091 226.602 82.0938 226.256 81.8251 226.179C81.5563 226.102 81.2491 226.333 81.1339 226.718Z" fill="#060633"/>
<path d="M78.3693 217.68C78.3693 217.68 78.5997 220.718 74.8752 221.718C71.1506 222.718 68.77 224.641 69.6147 227.333C70.4595 229.987 77.2942 234.871 73.0705 237.639C68.8852 240.408 69.3075 236.178 64.5846 237.755C59.8617 239.331 58.1338 232.948 61.0137 228.756C63.8551 224.564 61.244 214.758 73.8384 213.604C86.4328 212.45 83.1306 223.026 83.1306 223.026C83.1306 223.026 78.7917 221.026 78.3693 217.68Z" fill="#66192D"/>
<path d="M71.8802 238.37L71.8417 238.293C72.7249 237.793 73.1857 237.216 73.3009 236.447C73.5696 234.409 70.8434 231.64 68.4244 229.217C67.7716 228.564 67.1956 227.948 66.6197 227.371C65.1222 225.756 64.7382 223.603 65.6213 221.834C66.6197 219.834 68.8467 218.757 71.4194 219.026C73.9152 219.295 75.5279 218.565 76.4494 217.911C77.4478 217.219 77.8318 216.45 77.8318 216.411L77.9086 216.45C77.9086 216.488 76.2575 219.603 71.4194 219.103C68.8851 218.834 66.6965 219.911 65.7366 221.834C64.8534 223.603 65.2374 225.641 66.7349 227.256C67.2724 227.833 67.8868 228.448 68.5395 229.102C70.9586 231.525 73.7232 234.294 73.4545 236.409C73.3009 237.216 72.7633 237.87 71.8802 238.37Z" fill="white"/>
<path d="M80.1356 228.064C80.174 228.025 80.2124 227.987 80.2508 227.948C80.0588 227.256 80.0204 226.525 80.0588 225.756C80.0204 225.718 79.9436 225.679 79.79 225.641C79.7516 226.487 79.9052 227.333 80.1356 228.064ZM79.8284 227.41C79.8668 227.679 79.9436 227.948 80.0204 228.217C80.366 229.486 81.0571 230.486 81.9403 230.909C82.2859 231.063 82.6698 231.14 83.0538 231.102C83.3226 231.063 83.553 230.986 83.7834 230.871C84.0138 230.756 84.2441 230.602 84.4361 230.371C84.5897 230.217 84.7817 230.025 84.9353 229.794C85.3961 229.179 85.7033 228.333 85.8952 227.41C86.3944 224.756 85.4345 221.949 83.8218 221.218C83.7066 221.18 83.5914 221.141 83.5146 221.103C83.169 220.988 82.785 220.988 82.4395 221.103C82.2859 221.141 82.1323 221.218 81.9787 221.295C81.7867 221.372 81.6331 221.487 81.4795 221.641C81.4027 221.718 81.3259 221.795 81.2107 221.872C80.558 222.526 80.0972 223.564 79.8668 224.756C79.8284 224.872 79.8284 224.949 79.8284 225.064C79.8284 225.064 79.8284 225.064 79.8284 225.102C79.79 225.295 79.79 225.487 79.7516 225.718C79.7132 226.256 79.7132 226.871 79.8284 227.41ZM85.6648 226.679C85.6648 226.91 85.6264 227.141 85.588 227.333C85.4345 228.179 85.1273 228.948 84.7433 229.525C84.5897 229.717 84.4361 229.909 84.2825 230.102C84.0905 230.294 83.8602 230.448 83.6298 230.563C83.1306 230.794 82.593 230.832 82.0939 230.64C82.0939 230.64 82.0555 230.64 82.0555 230.602C81.2107 230.217 80.558 229.179 80.2508 227.948C80.0588 227.256 80.0204 226.525 80.0588 225.756C80.0588 225.564 80.0972 225.333 80.1356 225.141C80.1356 225.025 80.174 224.91 80.174 224.795C80.366 223.641 80.8652 222.641 81.4795 222.026C81.6715 221.834 81.9019 221.68 82.1323 221.526C82.2859 221.449 82.4394 221.411 82.593 221.372C82.6698 221.334 82.7466 221.334 82.8234 221.334C83.0538 221.334 83.2458 221.334 83.4762 221.411C83.553 221.449 83.6298 221.449 83.7066 221.487C85.0505 222.141 85.8952 224.372 85.6648 226.679Z" fill="#6F4975"/>
<g opacity="0.3">
<path d="M71.4577 224.103C71.2273 226.679 72.4561 229.217 74.2608 229.833C76.0654 230.41 77.7165 228.833 77.9469 226.256C78.1773 223.68 76.9486 221.141 75.1439 220.526C73.3392 219.949 71.6881 221.526 71.4577 224.103Z" fill="white"/>
</g>
<g opacity="0.3">
<path d="M79.7901 224.949C79.5597 227.525 80.6348 230.14 82.2475 230.794C83.8602 231.448 85.3577 229.871 85.6265 227.295C85.8568 224.718 84.7817 222.103 83.169 221.449C81.5563 220.795 80.0588 222.372 79.7901 224.949Z" fill="white"/>
</g>
<path d="M71.3042 225.602C71.4194 226.371 71.6881 227.102 71.9953 227.717C72.5329 228.679 73.2624 229.448 74.1072 229.794C74.1456 229.833 74.2224 229.833 74.2992 229.871C74.6831 229.986 75.0671 230.025 75.4511 229.986C75.6815 229.948 75.8735 229.909 76.0654 229.833C76.219 229.756 76.411 229.679 76.5646 229.563C77.6014 228.91 78.2541 227.602 78.4077 225.987C78.4077 225.833 78.4461 225.679 78.4461 225.564C78.4461 225.372 78.4461 225.141 78.4461 224.949C78.3693 223.333 77.7549 221.795 76.795 220.834C76.3726 220.372 75.8735 220.065 75.3359 219.872C74.5296 219.603 73.7616 219.718 73.0321 220.18C72.1105 220.795 71.4577 221.91 71.2274 223.295C71.189 223.449 71.189 223.603 71.1506 223.756C71.1506 223.91 71.1122 224.064 71.1122 224.256C71.189 224.679 71.2274 225.179 71.3042 225.602ZM77.2174 228.563C76.987 228.871 76.7182 229.102 76.4494 229.294C76.3342 229.371 76.2191 229.41 76.1039 229.486C75.5663 229.717 74.9903 229.756 74.4144 229.563C74.3376 229.525 74.2992 229.525 74.2224 229.486C73.4544 229.179 72.8017 228.487 72.3025 227.641C71.8033 226.679 71.4962 225.525 71.5346 224.295C71.5346 224.103 71.5346 223.949 71.5729 223.756C71.6113 223.487 71.6498 223.256 71.6882 223.026C71.7266 222.872 71.7649 222.68 71.8033 222.526C71.8801 222.257 71.9953 221.987 72.1105 221.757C72.4177 221.18 72.8017 220.718 73.2624 220.411C73.5696 220.218 73.9152 220.065 74.2608 220.026C74.6064 219.988 74.9519 220.026 75.2975 220.141C75.7583 220.295 76.219 220.603 76.603 220.988C77.5246 221.91 78.1389 223.41 78.1773 224.987C78.1773 225.179 78.1773 225.41 78.1773 225.602C78.1773 225.718 78.1773 225.833 78.1389 225.948C78.0621 226.948 77.7165 227.871 77.2174 228.563C77.2174 228.525 77.2174 228.525 77.2174 228.563Z" fill="#6F4975"/>
<path d="M80.2507 225.834C80.1739 225.834 80.0971 225.834 80.0588 225.795C80.0204 225.757 79.1756 225.257 77.9085 225.68C77.7549 225.718 77.6013 225.641 77.5245 225.487C77.4861 225.333 77.5629 225.18 77.7165 225.103C79.2524 224.564 80.3276 225.218 80.366 225.257C80.5195 225.333 80.5579 225.526 80.4427 225.68C80.4043 225.757 80.3275 225.834 80.2507 225.834Z" fill="#6F4975"/>
<path d="M78.1773 231.564C77.2558 231.564 76.4494 231.14 76.411 231.14C76.2958 231.063 76.2575 230.948 76.2959 230.833C76.3727 230.717 76.4878 230.679 76.603 230.717C76.603 230.717 78.2541 231.564 79.4061 230.717C79.5213 230.64 79.6364 230.679 79.7132 230.756C79.79 230.871 79.7516 230.987 79.6748 231.063C79.1757 231.448 78.6765 231.564 78.1773 231.564Z" fill="#66192D"/>
<path d="M95.5331 399.811L95.0339 399.773C94.6499 399.734 94.3811 399.119 94.3811 398.35L98.1825 304.285L105.44 300.708L96.6466 397.927C96.6082 399.042 96.109 399.888 95.5331 399.811Z" fill="#552748"/>
<path d="M317.356 305.285C317.356 311.899 263.753 317.283 197.594 317.283C131.435 317.283 77.8318 311.899 77.8318 305.285C77.8318 298.67 131.435 293.286 197.594 293.286C263.753 293.286 317.356 298.67 317.356 305.285Z" fill="#FF8548"/>
<path d="M317.356 299.747H77.8703V305.285H317.356V299.747Z" fill="#FF8548"/>
<path d="M197.632 311.745C263.775 311.745 317.394 306.373 317.394 299.747C317.394 293.12 263.775 287.748 197.632 287.748C131.489 287.748 77.8702 293.12 77.8702 299.747C77.8702 306.373 131.489 311.745 197.632 311.745Z" fill="#FFBA41"/>
<path d="M297.043 306.785C296.851 306.785 296.698 306.669 296.659 306.477C296.621 306.285 296.774 306.092 296.966 306.054C297.082 306.054 308.716 304.208 313.055 302.516C313.247 302.439 313.477 302.554 313.554 302.747C313.631 302.939 313.516 303.17 313.324 303.247C308.87 304.939 297.542 306.746 297.082 306.823C297.082 306.785 297.082 306.785 297.043 306.785Z" fill="#42428E"/>
<path d="M103.52 298.209H132.587C133.201 298.209 133.739 297.824 133.931 297.247L139.959 279.173C140.266 278.25 139.575 277.327 138.615 277.327H110.662C109.395 277.327 108.243 278.134 107.859 279.327L102.176 296.363C101.869 297.247 102.56 298.209 103.52 298.209Z" fill="#66192D"/>
<path d="M105.363 298.209H134.43C135.044 298.209 135.582 297.824 135.774 297.247L141.802 279.173C142.109 278.25 141.418 277.327 140.458 277.327H112.505C111.238 277.327 110.086 278.134 109.702 279.327L104.019 296.363C103.712 297.247 104.403 298.209 105.363 298.209Z" fill="#66192D"/>
<path d="M125.714 287.171C125.714 286.479 124.907 286.21 124.216 286.21C123.525 286.21 122.411 286.979 122.411 287.941C122.411 288.979 123.218 289.094 123.909 289.094C124.638 289.094 125.714 288.018 125.714 287.171Z" fill="#DEEBE9"/>
<path d="M94.6499 295.632H134.43V298.17H93.8052C93.3444 298.17 92.9604 297.786 92.9604 297.324C92.9604 296.401 93.7283 295.632 94.6499 295.632Z" fill="#66192D"/>
<path d="M107.436 286.441L107.244 286.402C107.321 286.172 108.703 280.98 109.625 279.288C110.585 277.596 111.737 277.25 111.775 277.211L111.814 277.404C111.814 277.404 110.662 277.75 109.779 279.365C108.857 281.019 107.436 286.402 107.436 286.441Z" fill="#66192D"/>
<path d="M103.136 295.747V295.555C104.096 295.555 104.326 295.171 104.326 295.171L106.592 288.402L106.784 288.479L104.518 295.248C104.48 295.248 104.211 295.747 103.136 295.747Z" fill="#66192D"/>
<path d="M127.71 272.443C127.672 272.443 127.595 272.443 127.557 272.404C127.441 272.327 127.441 272.173 127.518 272.097C127.518 272.097 127.979 271.481 128.632 270.366C128.708 270.251 128.824 270.212 128.939 270.289C129.054 270.366 129.092 270.481 129.016 270.597C128.324 271.75 127.902 272.366 127.864 272.366C127.864 272.404 127.787 272.443 127.71 272.443ZM129.899 268.866C129.86 268.866 129.822 268.866 129.784 268.828C129.668 268.751 129.63 268.635 129.707 268.52C130.014 267.905 130.36 267.289 130.628 266.674C130.667 266.559 130.82 266.52 130.936 266.559C131.051 266.597 131.089 266.751 131.051 266.866C130.744 267.52 130.436 268.135 130.091 268.751C130.052 268.828 129.976 268.866 129.899 268.866ZM131.703 265.097C131.665 265.097 131.627 265.097 131.627 265.097C131.511 265.059 131.473 264.905 131.511 264.79C131.78 264.174 132.049 263.521 132.279 262.867C132.318 262.752 132.471 262.675 132.587 262.713C132.702 262.752 132.779 262.905 132.74 263.021C132.51 263.675 132.241 264.328 131.972 264.982C131.857 265.02 131.78 265.097 131.703 265.097ZM133.163 261.175C133.124 261.175 133.124 261.175 133.086 261.175C132.971 261.136 132.894 261.021 132.932 260.867C133.163 260.213 133.355 259.521 133.547 258.867C133.585 258.752 133.7 258.675 133.815 258.714C133.931 258.752 134.007 258.867 133.969 258.983C133.777 259.637 133.547 260.329 133.355 260.983C133.355 261.098 133.278 261.175 133.163 261.175ZM134.315 257.137H134.276C134.161 257.098 134.084 256.983 134.123 256.868C134.276 256.175 134.43 255.522 134.583 254.83C134.622 254.714 134.737 254.637 134.852 254.637C134.967 254.676 135.044 254.791 135.044 254.906C134.89 255.599 134.737 256.291 134.583 256.945C134.545 257.06 134.43 257.137 134.315 257.137ZM135.159 253.022C135.006 252.984 134.89 252.868 134.929 252.753C135.044 252.061 135.121 251.368 135.198 250.676C135.198 250.561 135.313 250.445 135.466 250.484C135.582 250.484 135.697 250.599 135.658 250.753C135.582 251.445 135.466 252.138 135.351 252.83C135.351 252.945 135.274 253.022 135.159 253.022ZM135.658 248.869C135.505 248.869 135.428 248.753 135.428 248.638C135.466 247.946 135.505 247.254 135.543 246.561C135.543 246.446 135.658 246.331 135.774 246.331C135.889 246.331 136.004 246.446 136.004 246.561C135.966 247.254 135.927 247.984 135.889 248.676C135.85 248.792 135.774 248.869 135.658 248.869ZM135.774 244.677C135.658 244.677 135.543 244.562 135.543 244.446C135.543 243.754 135.505 243.062 135.466 242.37C135.466 242.254 135.543 242.139 135.697 242.139C135.812 242.139 135.927 242.216 135.927 242.37C135.966 243.062 135.966 243.792 136.004 244.485C136.004 244.6 135.927 244.677 135.774 244.677ZM135.582 240.524C135.466 240.524 135.351 240.447 135.351 240.331C135.274 239.639 135.198 238.947 135.121 238.255C135.121 238.139 135.198 238.024 135.313 237.985C135.428 237.985 135.543 238.062 135.582 238.178C135.658 238.87 135.774 239.562 135.812 240.254C135.812 240.408 135.735 240.485 135.582 240.524ZM135.006 236.37C134.89 236.37 134.814 236.293 134.775 236.178C134.66 235.486 134.507 234.794 134.353 234.14C134.315 234.024 134.391 233.909 134.545 233.871C134.66 233.832 134.775 233.909 134.814 234.063C134.967 234.755 135.121 235.447 135.236 236.14C135.274 236.255 135.159 236.37 135.044 236.409C135.044 236.37 135.006 236.37 135.006 236.37ZM134.123 232.294C134.007 232.294 133.931 232.217 133.892 232.102C133.7 231.448 133.508 230.756 133.316 230.102C133.278 229.986 133.355 229.833 133.47 229.794C133.585 229.756 133.739 229.833 133.777 229.948C133.969 230.602 134.161 231.294 134.353 231.986C134.391 232.102 134.314 232.255 134.199 232.255C134.161 232.294 134.123 232.294 134.123 232.294ZM132.894 228.294C132.817 228.294 132.702 228.217 132.663 228.141C132.433 227.487 132.203 226.833 131.934 226.179C131.895 226.064 131.934 225.91 132.049 225.872C132.164 225.833 132.318 225.872 132.356 225.987C132.625 226.641 132.855 227.295 133.086 227.948C133.124 228.064 133.047 228.217 132.932 228.256L132.894 228.294ZM131.358 224.372C131.281 224.372 131.166 224.333 131.128 224.218C130.859 223.603 130.552 222.949 130.283 222.334C130.244 222.218 130.283 222.064 130.398 222.026C130.513 221.987 130.667 222.026 130.705 222.141C131.012 222.757 131.281 223.41 131.588 224.064C131.627 224.18 131.588 224.333 131.473 224.372C131.435 224.372 131.396 224.372 131.358 224.372ZM129.515 220.642C129.438 220.642 129.361 220.603 129.323 220.526C128.977 219.988 128.593 219.411 128.133 218.834C128.056 218.719 128.056 218.603 128.171 218.526C128.286 218.449 128.401 218.449 128.478 218.565C128.939 219.142 129.361 219.719 129.707 220.295C129.784 220.411 129.745 220.565 129.63 220.603C129.63 220.603 129.592 220.642 129.515 220.642ZM126.942 217.334C126.865 217.334 126.827 217.296 126.789 217.257C126.328 216.796 125.829 216.296 125.291 215.796C125.214 215.719 125.176 215.565 125.291 215.45C125.368 215.373 125.521 215.334 125.637 215.45C126.174 215.95 126.673 216.45 127.134 216.911C127.211 216.988 127.211 217.142 127.134 217.257C127.057 217.334 127.019 217.334 126.942 217.334ZM123.87 214.527C123.832 214.527 123.755 214.527 123.717 214.488C123.218 214.065 122.642 213.642 122.066 213.219C121.951 213.142 121.951 212.989 122.027 212.912C122.104 212.796 122.258 212.796 122.334 212.873C122.91 213.296 123.486 213.758 123.986 214.181C124.101 214.258 124.101 214.412 124.024 214.488C123.986 214.488 123.947 214.527 123.87 214.527ZM120.53 212.027C120.491 212.027 120.453 212.027 120.415 211.989C119.877 211.604 119.301 211.22 118.687 210.797C118.572 210.72 118.533 210.566 118.61 210.489C118.687 210.374 118.84 210.335 118.917 210.412C119.531 210.835 120.107 211.22 120.645 211.604C120.76 211.681 120.76 211.835 120.683 211.912C120.645 211.989 120.607 212.027 120.53 212.027ZM117.036 209.681C116.997 209.681 116.959 209.681 116.92 209.643C116.344 209.258 115.769 208.912 115.154 208.528C115.039 208.451 115.001 208.297 115.077 208.22C115.154 208.105 115.308 208.066 115.385 208.143C115.999 208.528 116.575 208.912 117.151 209.258C117.266 209.335 117.304 209.489 117.228 209.566C117.189 209.643 117.112 209.681 117.036 209.681ZM113.503 207.451C113.465 207.451 113.426 207.451 113.388 207.412C112.812 207.066 112.198 206.682 111.622 206.336C111.506 206.259 111.468 206.143 111.545 206.028C111.622 205.913 111.737 205.874 111.852 205.951C112.466 206.336 113.042 206.682 113.618 207.066C113.733 207.143 113.772 207.259 113.695 207.374C113.657 207.412 113.58 207.451 113.503 207.451ZM109.932 205.259C109.894 205.259 109.855 205.259 109.817 205.22L108.012 204.144C107.897 204.067 107.859 203.951 107.935 203.836C108.012 203.721 108.127 203.682 108.243 203.759L110.047 204.836C110.162 204.913 110.201 205.028 110.124 205.143C110.086 205.22 110.009 205.259 109.932 205.259ZM106.361 203.067C106.323 203.067 106.284 203.067 106.246 203.028C105.67 202.682 105.056 202.298 104.48 201.913C104.364 201.836 104.326 201.721 104.403 201.605C104.48 201.49 104.595 201.452 104.71 201.529C105.286 201.913 105.9 202.259 106.476 202.644C106.592 202.721 106.63 202.836 106.553 202.951C106.515 203.028 106.438 203.067 106.361 203.067ZM102.79 200.875C102.752 200.875 102.713 200.875 102.675 200.836C102.099 200.452 101.485 200.106 100.909 199.721C100.793 199.644 100.755 199.49 100.832 199.413C100.909 199.298 101.062 199.26 101.139 199.337C101.715 199.721 102.329 200.106 102.905 200.452C103.021 200.529 103.059 200.682 102.982 200.759C102.944 200.836 102.867 200.875 102.79 200.875ZM99.2959 198.606C99.2576 198.606 99.2192 198.606 99.1808 198.567C98.6048 198.183 98.0289 197.798 97.4529 197.414C97.3377 197.337 97.3377 197.183 97.3761 197.106C97.4529 196.991 97.6065 196.991 97.6833 197.029C98.2592 197.414 98.8352 197.798 99.4112 198.183C99.5264 198.26 99.5647 198.414 99.4879 198.49C99.4495 198.567 99.3727 198.606 99.2959 198.606ZM95.8402 196.222C95.8018 196.222 95.7634 196.222 95.725 196.183C95.149 195.76 94.5731 195.375 94.0355 194.952C93.9203 194.876 93.9203 194.722 93.9971 194.645C94.0739 194.529 94.2275 194.529 94.3043 194.606C94.8418 194.991 95.4178 195.414 95.9938 195.837C96.109 195.914 96.109 196.068 96.0322 196.145C95.9554 196.183 95.917 196.222 95.8402 196.222ZM92.4612 193.76C92.4228 193.76 92.346 193.76 92.3076 193.722C91.7317 193.299 91.1941 192.837 90.6565 192.414C90.5413 192.337 90.5413 192.184 90.6181 192.068C90.6949 191.953 90.8485 191.953 90.9637 192.03C91.5013 192.453 92.0389 192.876 92.6148 193.337C92.73 193.414 92.73 193.568 92.6532 193.645C92.6148 193.722 92.538 193.76 92.4612 193.76ZM89.2358 191.107C89.1974 191.107 89.1206 191.107 89.0822 191.068C88.5447 190.607 88.0071 190.145 87.5079 189.684C87.4311 189.607 87.3927 189.453 87.5079 189.338C87.5847 189.261 87.7383 189.222 87.8535 189.338C88.3527 189.799 88.8902 190.261 89.4278 190.722C89.543 190.799 89.543 190.953 89.4662 191.068C89.351 191.068 89.2742 191.107 89.2358 191.107ZM86.1256 188.261C86.0488 188.261 86.0104 188.223 85.972 188.184C85.4729 187.684 84.9737 187.184 84.5129 186.684C84.4361 186.607 84.4361 186.454 84.5129 186.338C84.5897 186.261 84.7433 186.261 84.8585 186.338C85.3193 186.838 85.8184 187.338 86.3176 187.838C86.3944 187.915 86.3944 188.069 86.3176 188.184C86.2792 188.223 86.2024 188.261 86.1256 188.261ZM83.2842 185.223C83.2074 185.223 83.169 185.184 83.0922 185.146C82.6314 184.608 82.1707 184.069 81.7483 183.531C81.6715 183.415 81.6715 183.3 81.7867 183.223C81.9019 183.146 82.0171 183.146 82.0939 183.262C82.5163 183.8 82.9386 184.338 83.3994 184.877C83.4762 184.992 83.4762 185.108 83.361 185.223C83.3994 185.184 83.361 185.223 83.2842 185.223ZM80.75 181.877C80.6732 181.877 80.5964 181.839 80.558 181.762C80.1356 181.185 79.7516 180.57 79.4061 179.993C79.3293 179.877 79.3676 179.724 79.4828 179.685C79.598 179.608 79.7516 179.647 79.79 179.762C80.1356 180.339 80.5196 180.916 80.942 181.493C81.0188 181.608 80.9803 181.762 80.8651 181.8C80.8267 181.877 80.7884 181.877 80.75 181.877ZM78.5613 178.339C78.4845 178.339 78.4077 178.301 78.3693 178.224C78.0237 177.608 77.7166 176.955 77.4478 176.339C77.4094 176.224 77.4478 176.07 77.563 176.032C77.6782 175.993 77.8318 176.032 77.8702 176.147C78.1389 176.762 78.4461 177.416 78.7917 178.031C78.8685 178.147 78.7917 178.301 78.6765 178.339C78.6381 178.301 78.5997 178.339 78.5613 178.339ZM76.8718 174.493C76.795 174.493 76.6798 174.417 76.6414 174.34C76.411 173.686 76.1807 172.994 75.9887 172.34C75.9503 172.225 76.0271 172.071 76.1423 172.071C76.2575 172.032 76.411 172.109 76.411 172.225C76.603 172.878 76.795 173.532 77.0638 174.186C77.1022 174.301 77.0638 174.455 76.9102 174.493C76.9486 174.493 76.9102 174.493 76.8718 174.493ZM90.3494 172.225C89.927 172.225 89.4662 172.225 89.0054 172.186C88.8902 172.186 88.7751 172.071 88.7751 171.955C88.7751 171.84 88.8902 171.725 89.0054 171.725C89.6966 171.763 90.3878 171.802 91.0789 171.763C91.1941 171.763 91.3093 171.84 91.3093 171.994C91.3093 172.109 91.2325 172.225 91.0789 172.225C90.8485 172.225 90.5797 172.225 90.3494 172.225ZM93.1523 171.994C93.0372 171.994 92.9604 171.917 92.922 171.802C92.8836 171.686 92.9988 171.571 93.114 171.532C93.8051 171.417 94.4579 171.263 95.1107 171.071C95.2258 171.032 95.3794 171.109 95.4178 171.225C95.4562 171.34 95.3794 171.494 95.2642 171.532C94.6115 171.725 93.9203 171.917 93.1908 172.032C93.1908 171.994 93.1907 171.994 93.1523 171.994ZM86.932 171.917H86.8936C86.2024 171.802 85.5113 171.648 84.8201 171.455C84.7049 171.417 84.6281 171.302 84.6665 171.186C84.7049 171.071 84.8201 170.994 84.9353 171.032C85.6265 171.225 86.2792 171.378 86.9704 171.494C87.0855 171.532 87.1623 171.648 87.1623 171.763C87.1239 171.84 87.0472 171.917 86.932 171.917ZM82.9002 170.84C82.8618 170.84 82.8618 170.84 82.8235 170.84C82.1707 170.609 81.5179 170.34 80.8651 170.071C80.7499 170.033 80.7116 169.879 80.75 169.763C80.7884 169.648 80.9419 169.609 81.0571 169.648C81.7099 169.917 82.3626 170.186 82.977 170.417C83.0922 170.456 83.169 170.609 83.1306 170.725C83.0922 170.802 82.977 170.84 82.9002 170.84ZM97.1457 170.763C97.0689 170.763 96.9921 170.725 96.9537 170.648C96.9153 170.532 96.9537 170.379 97.0689 170.34C97.4145 170.186 97.7984 169.994 98.144 169.763C98.3744 169.609 98.6432 169.456 98.8736 169.34C98.9888 169.263 99.1424 169.302 99.1808 169.417C99.2576 169.533 99.2192 169.686 99.104 169.725C98.8736 169.879 98.6048 170.033 98.3744 170.186C98.0289 170.379 97.6449 170.571 97.2609 170.763C97.2225 170.763 97.1841 170.763 97.1457 170.763ZM75.7583 170.494C75.6431 170.494 75.5663 170.417 75.5279 170.302C75.3743 169.609 75.2591 168.917 75.1823 168.225C75.1823 168.11 75.2591 167.994 75.3743 167.956C75.4895 167.956 75.6047 168.033 75.6431 168.148C75.7199 168.84 75.8351 169.533 75.9887 170.186C76.0271 170.302 75.9503 170.417 75.7967 170.456C75.7583 170.494 75.7583 170.494 75.7583 170.494ZM79.0605 169.186C79.0221 169.186 78.9837 169.186 78.9453 169.148C78.3309 168.84 77.7166 168.494 77.1022 168.148C76.987 168.071 76.9486 167.956 77.0254 167.84C77.1022 167.725 77.2174 167.687 77.3326 167.764C77.9469 168.11 78.5613 168.456 79.1372 168.763C79.2524 168.84 79.2909 168.956 79.2525 169.071C79.2141 169.148 79.1373 169.186 79.0605 169.186ZM100.678 168.533C100.602 168.533 100.525 168.494 100.486 168.456C100.41 168.34 100.41 168.225 100.525 168.148C101.062 167.725 101.6 167.264 102.061 166.764C102.137 166.687 102.291 166.687 102.406 166.764C102.483 166.841 102.483 166.994 102.406 167.11C101.907 167.61 101.369 168.071 100.832 168.494C100.793 168.533 100.717 168.533 100.678 168.533ZM75.4511 167.071C75.4127 167.071 75.3743 167.071 75.3359 167.033C74.76 166.648 74.184 166.264 73.608 165.841C73.4929 165.764 73.4928 165.61 73.5696 165.533C73.6464 165.418 73.8 165.418 73.8768 165.495C74.2608 165.764 74.6448 166.033 75.0287 166.302C74.9903 166.264 74.9903 166.225 74.9903 166.148C74.9519 165.572 74.952 164.956 74.952 164.341C74.952 164.226 74.952 164.149 74.952 164.033C74.952 163.918 75.0671 163.803 75.1823 163.803C75.2975 163.803 75.4127 163.918 75.4127 164.033C75.4127 164.149 75.4127 164.226 75.4127 164.341C75.4127 164.918 75.4127 165.533 75.4511 166.11C75.4511 166.225 75.3743 166.341 75.2207 166.341C75.1823 166.341 75.1439 166.341 75.1439 166.341C75.2975 166.456 75.4511 166.533 75.6047 166.648C75.7199 166.725 75.7583 166.879 75.6815 166.956C75.6047 167.033 75.5279 167.071 75.4511 167.071ZM103.673 165.61C103.635 165.61 103.558 165.61 103.52 165.572C103.404 165.495 103.404 165.341 103.481 165.264C103.904 164.726 104.326 164.187 104.71 163.61C104.787 163.495 104.94 163.456 105.017 163.533C105.132 163.61 105.171 163.764 105.094 163.841C104.71 164.418 104.288 164.995 103.865 165.533C103.788 165.572 103.712 165.61 103.673 165.61ZM72.0721 164.61C72.0337 164.61 71.9569 164.61 71.9185 164.572C71.381 164.149 70.8434 163.687 70.3058 163.226C70.229 163.149 70.1906 162.995 70.2674 162.88C70.3442 162.803 70.4978 162.764 70.613 162.841C71.1506 163.303 71.6497 163.764 72.1873 164.187C72.3025 164.264 72.3025 164.418 72.2257 164.495C72.2257 164.572 72.1489 164.61 72.0721 164.61ZM75.2591 162.187C75.2207 162.187 75.2207 162.187 75.2591 162.187C75.1055 162.187 75.0287 162.072 75.0287 161.918C75.0671 161.226 75.1439 160.534 75.2591 159.841C75.2591 159.726 75.3743 159.611 75.5279 159.649C75.6431 159.649 75.7583 159.765 75.7199 159.918C75.6431 160.611 75.5663 161.303 75.4895 161.995C75.4511 162.072 75.3743 162.187 75.2591 162.187ZM105.939 162.11C105.9 162.11 105.862 162.11 105.824 162.072C105.708 161.995 105.67 161.88 105.708 161.764C106.016 161.149 106.323 160.534 106.553 159.88C106.591 159.765 106.745 159.688 106.86 159.765C106.975 159.803 107.052 159.957 106.975 160.072C106.707 160.726 106.438 161.38 106.092 161.995C106.092 162.072 106.016 162.11 105.939 162.11ZM68.9619 161.841C68.8851 161.841 68.8468 161.803 68.8084 161.764C68.3092 161.303 67.81 160.764 67.3108 160.265C67.234 160.188 67.234 160.034 67.3108 159.918C67.3876 159.841 67.5412 159.841 67.6564 159.918C68.1556 160.418 68.6163 160.918 69.1155 161.38C69.1923 161.457 69.1923 161.611 69.1155 161.726C69.0771 161.803 69.0003 161.841 68.9619 161.841ZM66.0821 158.803C66.0053 158.803 65.9669 158.765 65.8901 158.726C65.4293 158.188 64.9686 157.649 64.5462 157.111C64.4694 156.996 64.4694 156.88 64.5846 156.803C64.6998 156.727 64.815 156.727 64.8918 156.842C65.3142 157.38 65.7749 157.919 66.2357 158.419C66.3125 158.534 66.3125 158.649 66.1973 158.765C66.1589 158.765 66.1205 158.803 66.0821 158.803ZM107.475 158.226C107.436 158.226 107.436 158.226 107.398 158.226C107.283 158.188 107.206 158.073 107.244 157.957C107.436 157.303 107.59 156.611 107.743 155.957C107.782 155.842 107.897 155.765 108.012 155.765C108.127 155.804 108.204 155.919 108.204 156.034C108.051 156.727 107.897 157.419 107.705 158.072C107.667 158.149 107.59 158.226 107.475 158.226ZM75.7967 158.034H75.7583C75.6431 157.996 75.5663 157.88 75.5663 157.765C75.6815 157.073 75.8351 156.38 76.0271 155.727C76.0655 155.611 76.1807 155.534 76.2959 155.573C76.4111 155.611 76.4878 155.727 76.4494 155.842C76.2958 156.534 76.1423 157.188 75.9887 157.88C76.0271 157.957 75.9119 158.034 75.7967 158.034ZM63.4327 155.573C63.3559 155.573 63.2791 155.534 63.2407 155.496C62.8183 154.919 62.3959 154.381 62.012 153.804C61.9352 153.688 61.9736 153.535 62.0888 153.496C62.204 153.419 62.3575 153.458 62.3959 153.573C62.7799 154.15 63.2023 154.727 63.6247 155.265C63.7015 155.381 63.663 155.496 63.5863 155.573C63.5095 155.534 63.4711 155.573 63.4327 155.573ZM108.281 154.111C108.127 154.111 108.051 153.996 108.051 153.842C108.127 153.15 108.166 152.458 108.204 151.766C108.204 151.65 108.319 151.535 108.435 151.535C108.55 151.535 108.665 151.65 108.665 151.766C108.627 152.458 108.588 153.188 108.511 153.881C108.511 154.035 108.396 154.111 108.281 154.111ZM76.8334 153.958C76.795 153.958 76.795 153.958 76.7566 153.958C76.6414 153.919 76.5646 153.804 76.603 153.65C76.795 152.996 77.0254 152.304 77.2558 151.65C77.2942 151.535 77.4478 151.458 77.563 151.496C77.6782 151.535 77.755 151.689 77.7166 151.804C77.4862 152.458 77.2558 153.112 77.0638 153.765C77.0254 153.919 76.9102 153.958 76.8334 153.958ZM61.052 152.112C60.9752 152.112 60.8984 152.073 60.86 151.996C60.4761 151.419 60.1305 150.804 59.7849 150.189C59.7081 150.074 59.7465 149.92 59.8617 149.881C59.9769 149.804 60.1305 149.843 60.1689 149.958C60.5145 150.535 60.86 151.15 61.244 151.727C61.3208 151.843 61.2824 151.996 61.1672 152.035C61.1288 152.112 61.0904 152.112 61.052 152.112ZM78.2157 150.035C78.1773 150.035 78.1773 150.035 78.1389 150.035C78.0237 149.997 77.947 149.843 78.0238 149.727C78.2925 149.074 78.5613 148.42 78.8301 147.805C78.8685 147.689 79.0221 147.651 79.1372 147.689C79.2524 147.728 79.2909 147.881 79.2525 147.997C78.9837 148.651 78.7149 149.304 78.4461 149.92C78.4077 149.958 78.2925 150.035 78.2157 150.035ZM108.435 149.958C108.319 149.958 108.204 149.843 108.204 149.727C108.166 149.035 108.127 148.343 108.051 147.651C108.051 147.535 108.127 147.42 108.243 147.382C108.358 147.382 108.473 147.458 108.511 147.574C108.588 148.266 108.627 148.997 108.665 149.689C108.703 149.843 108.588 149.92 108.435 149.958C108.473 149.958 108.473 149.958 108.435 149.958ZM58.9402 148.497C58.8634 148.497 58.7866 148.458 58.7482 148.381C58.441 147.766 58.0954 147.112 57.8266 146.497C57.7882 146.382 57.8266 146.228 57.9418 146.189C58.057 146.151 58.2106 146.189 58.249 146.305C58.5562 146.92 58.8634 147.574 59.1705 148.189C59.2473 148.304 59.1706 148.458 59.0554 148.497C59.017 148.458 58.9786 148.497 58.9402 148.497ZM231.883 148.151C231.191 148.151 230.462 148.112 229.771 148.035C229.656 148.035 229.54 147.92 229.579 147.766C229.579 147.651 229.694 147.535 229.848 147.574C230.539 147.651 231.23 147.651 231.921 147.689C232.036 147.689 232.151 147.805 232.151 147.92C232.113 148.035 231.998 148.151 231.883 148.151ZM233.956 148.074C233.841 148.074 233.726 147.997 233.726 147.843C233.726 147.728 233.803 147.612 233.918 147.574C234.609 147.497 235.3 147.42 235.953 147.305C236.068 147.266 236.183 147.382 236.222 147.497C236.26 147.612 236.145 147.728 236.03 147.766C235.377 147.881 234.686 147.997 233.956 148.074ZM227.697 147.766H227.659C226.968 147.651 226.277 147.497 225.585 147.305C225.47 147.266 225.393 147.151 225.432 147.035C225.47 146.92 225.585 146.843 225.701 146.882C226.353 147.074 227.045 147.228 227.736 147.343C227.851 147.382 227.928 147.497 227.928 147.612C227.928 147.689 227.813 147.766 227.697 147.766ZM238.065 147.305C237.949 147.305 237.873 147.228 237.834 147.151C237.796 147.035 237.873 146.882 237.988 146.882C238.641 146.689 239.293 146.497 239.946 146.228C240.061 146.189 240.215 146.228 240.253 146.382C240.292 146.497 240.253 146.651 240.1 146.689C239.447 146.92 238.756 147.151 238.103 147.343C238.103 147.305 238.103 147.305 238.065 147.305ZM223.666 146.689C223.627 146.689 223.627 146.689 223.589 146.689C222.936 146.459 222.283 146.189 221.63 145.92C221.515 145.882 221.477 145.728 221.515 145.613C221.554 145.497 221.707 145.459 221.822 145.497C222.475 145.766 223.128 146.036 223.742 146.266C223.858 146.305 223.934 146.459 223.896 146.574C223.858 146.651 223.781 146.689 223.666 146.689ZM79.9052 146.189C79.8668 146.189 79.8284 146.189 79.79 146.151C79.6748 146.112 79.6364 145.959 79.6748 145.843C79.982 145.228 80.2892 144.613 80.6348 143.959C80.7116 143.844 80.8268 143.805 80.942 143.844C81.0572 143.92 81.0955 144.036 81.0571 144.151C80.7499 144.766 80.4044 145.42 80.1356 145.997C80.0588 146.151 79.982 146.189 79.9052 146.189ZM241.981 145.882C241.904 145.882 241.828 145.843 241.789 145.766C241.751 145.651 241.789 145.497 241.904 145.459C242.519 145.151 243.133 144.843 243.747 144.497C243.863 144.42 244.016 144.459 244.055 144.574C244.131 144.69 244.093 144.843 243.978 144.882C243.363 145.228 242.749 145.574 242.096 145.882C242.058 145.843 242.02 145.882 241.981 145.882ZM108.012 145.766C107.897 145.766 107.82 145.689 107.782 145.574C107.667 144.882 107.513 144.228 107.321 143.536C107.283 143.421 107.359 143.267 107.475 143.267C107.59 143.228 107.743 143.305 107.743 143.42C107.935 144.113 108.089 144.805 108.204 145.497C108.243 145.613 108.127 145.728 108.012 145.766ZM219.826 145.074C219.787 145.074 219.749 145.074 219.711 145.036C219.096 144.728 218.482 144.382 217.868 144.036C217.752 143.959 217.714 143.844 217.791 143.728C217.868 143.613 217.983 143.574 218.098 143.651C218.712 143.997 219.327 144.343 219.903 144.651C220.018 144.728 220.056 144.843 220.018 144.959C220.018 144.997 219.903 145.074 219.826 145.074ZM57.1739 144.69C57.0971 144.69 56.9819 144.651 56.9435 144.536C56.6747 143.882 56.4059 143.228 56.1756 142.574C56.1372 142.459 56.1756 142.305 56.3292 142.267C56.4444 142.228 56.5979 142.267 56.6363 142.421C56.8667 143.074 57.1355 143.728 57.4043 144.343C57.4427 144.459 57.4043 144.613 57.2891 144.651C57.2507 144.69 57.2123 144.69 57.1739 144.69ZM152.361 143.805C151.632 143.805 150.941 143.767 150.249 143.728C150.134 143.728 150.019 143.613 150.019 143.459C150.019 143.344 150.134 143.228 150.288 143.228C150.941 143.267 151.67 143.305 152.361 143.305C152.477 143.305 152.592 143.421 152.592 143.536C152.592 143.69 152.477 143.805 152.361 143.805ZM154.435 143.767C154.32 143.767 154.204 143.651 154.204 143.536C154.204 143.421 154.281 143.305 154.435 143.305C155.088 143.267 155.817 143.228 156.508 143.151C156.623 143.151 156.739 143.228 156.777 143.344C156.777 143.459 156.7 143.574 156.585 143.613C155.817 143.651 155.126 143.728 154.435 143.767ZM245.591 143.767C245.514 143.767 245.437 143.728 245.399 143.651C245.322 143.536 245.36 143.421 245.437 143.344C246.205 142.767 246.666 142.382 246.666 142.382L246.819 142.536L247.05 142.574C247.05 142.767 246.205 143.382 245.706 143.728C245.667 143.728 245.629 143.767 245.591 143.767ZM148.176 143.459C147.446 143.344 146.755 143.19 146.064 143.036C145.949 142.997 145.872 142.882 145.911 142.767C145.949 142.651 146.064 142.574 146.179 142.613C146.832 142.767 147.523 142.921 148.214 143.036C148.33 143.074 148.445 143.19 148.406 143.305C148.406 143.382 148.291 143.459 148.176 143.459ZM158.582 143.344C158.467 143.344 158.351 143.267 158.351 143.151C158.351 143.036 158.428 142.921 158.543 142.882C159.196 142.767 159.887 142.69 160.617 142.536C160.732 142.498 160.847 142.613 160.886 142.728C160.924 142.844 160.809 142.959 160.694 142.997C160.002 143.113 159.311 143.228 158.582 143.344C158.62 143.344 158.62 143.344 158.582 143.344ZM216.216 142.921C216.178 142.921 216.14 142.921 216.101 142.882C215.525 142.498 214.949 142.113 214.373 141.69C214.258 141.613 214.258 141.459 214.335 141.382C214.412 141.267 214.565 141.267 214.642 141.344C215.218 141.767 215.794 142.151 216.332 142.536C216.447 142.613 216.485 142.767 216.408 142.844C216.37 142.921 216.293 142.921 216.216 142.921ZM162.729 142.574C162.613 142.574 162.537 142.498 162.498 142.382C162.46 142.267 162.537 142.151 162.69 142.113C163.343 141.959 164.034 141.805 164.725 141.651C164.841 141.613 164.956 141.69 164.994 141.805C165.033 141.921 164.956 142.036 164.841 142.075C164.149 142.228 163.458 142.382 162.805 142.536C162.729 142.574 162.729 142.574 162.729 142.574ZM81.8251 142.498C81.7867 142.498 81.7483 142.498 81.7099 142.459C81.5947 142.382 81.5563 142.267 81.6331 142.151C81.9787 141.536 82.3243 140.921 82.7082 140.344C82.785 140.229 82.9002 140.19 83.0154 140.267C83.1306 140.344 83.169 140.459 83.0922 140.575C82.7466 141.152 82.4011 141.767 82.0555 142.382C82.0171 142.421 81.9019 142.498 81.8251 142.498ZM144.144 142.382C144.106 142.382 144.106 142.382 144.067 142.382C143.453 142.151 142.8 141.844 142.148 141.498C142.032 141.421 141.994 141.305 142.032 141.19C142.109 141.075 142.224 141.036 142.34 141.075C142.954 141.421 143.607 141.69 144.221 141.921C144.336 141.959 144.413 142.113 144.336 142.228C144.336 142.344 144.259 142.382 144.144 142.382ZM106.937 141.728C106.822 141.728 106.745 141.651 106.707 141.575C106.476 140.921 106.208 140.267 105.939 139.652C105.9 139.536 105.939 139.383 106.054 139.344C106.169 139.306 106.323 139.344 106.361 139.459C106.63 140.075 106.899 140.767 107.129 141.421C107.167 141.536 107.091 141.69 106.975 141.728C106.975 141.728 106.975 141.728 106.937 141.728ZM166.799 141.613C166.684 141.613 166.607 141.536 166.568 141.421C166.53 141.305 166.607 141.152 166.722 141.152C167.375 140.998 168.066 140.805 168.757 140.613C168.872 140.575 169.026 140.652 169.026 140.767C169.064 140.882 168.987 141.036 168.872 141.036C168.181 141.228 167.528 141.382 166.837 141.575C166.837 141.613 166.799 141.613 166.799 141.613ZM55.7532 140.767C55.638 140.767 55.5612 140.69 55.5228 140.613C55.3308 139.921 55.1388 139.267 54.9468 138.575C54.9084 138.46 54.9852 138.306 55.1004 138.306C55.2156 138.267 55.3692 138.344 55.3692 138.46C55.5228 139.113 55.7148 139.806 55.9067 140.459C55.9451 140.575 55.8684 140.729 55.7532 140.767C55.7916 140.767 55.7916 140.729 55.7532 140.767ZM170.831 140.536C170.715 140.536 170.639 140.459 170.6 140.382C170.562 140.267 170.639 140.113 170.754 140.113C171.407 139.921 172.098 139.729 172.75 139.536C172.866 139.498 173.019 139.575 173.019 139.69C173.058 139.806 172.981 139.959 172.866 139.959C172.213 140.152 171.522 140.344 170.869 140.536H170.831ZM140.458 140.459C140.42 140.459 140.381 140.459 140.343 140.421C139.767 140.075 139.191 139.652 138.615 139.229C138.5 139.152 138.5 138.998 138.577 138.921C138.653 138.806 138.807 138.806 138.884 138.883C139.46 139.306 140.036 139.69 140.573 140.075C140.688 140.152 140.727 140.306 140.65 140.382C140.612 140.421 140.535 140.459 140.458 140.459ZM212.876 140.459C212.837 140.459 212.761 140.459 212.722 140.421C212.185 139.998 211.609 139.575 211.071 139.19C210.956 139.113 210.918 138.96 210.994 138.883C211.071 138.767 211.225 138.729 211.302 138.806C211.877 139.19 212.453 139.613 212.991 140.036C213.106 140.113 213.106 140.267 213.029 140.344C213.029 140.421 212.953 140.459 212.876 140.459ZM174.824 139.383C174.709 139.383 174.632 139.306 174.594 139.229C174.555 139.113 174.632 138.96 174.747 138.96C175.4 138.767 176.091 138.575 176.744 138.383C176.859 138.344 177.013 138.421 177.013 138.537C177.051 138.652 176.974 138.806 176.859 138.806C176.206 138.998 175.515 139.19 174.862 139.383C174.862 139.383 174.862 139.383 174.824 139.383ZM84.0522 138.921C84.0138 138.921 83.9753 138.921 83.9369 138.883C83.8217 138.806 83.8218 138.652 83.8602 138.575C84.2825 137.998 84.7049 137.421 85.1273 136.883C85.2041 136.767 85.3577 136.767 85.4345 136.844C85.5496 136.921 85.5496 137.075 85.4728 137.152C85.0505 137.69 84.6281 138.229 84.2441 138.806C84.2057 138.883 84.1289 138.921 84.0522 138.921ZM178.856 138.229C178.74 138.229 178.664 138.152 178.625 138.075C178.587 137.96 178.664 137.806 178.779 137.806C179.47 137.614 180.123 137.421 180.814 137.267C180.929 137.229 181.083 137.306 181.083 137.421C181.121 137.537 181.044 137.69 180.929 137.69C180.276 137.883 179.585 138.037 178.894 138.229C178.894 138.229 178.894 138.229 178.856 138.229ZM209.42 138.113C209.382 138.113 209.343 138.113 209.305 138.075C208.69 137.729 208.076 137.421 207.462 137.152C207.347 137.114 207.308 136.96 207.347 136.844C207.385 136.729 207.539 136.691 207.654 136.729C208.307 136.998 208.921 137.306 209.535 137.652C209.65 137.729 209.689 137.844 209.612 137.96C209.574 138.075 209.497 138.113 209.42 138.113ZM137.079 137.998C137.041 137.998 136.964 137.998 136.926 137.96C136.426 137.537 135.889 137.075 135.351 136.575C135.274 136.498 135.236 136.344 135.351 136.229C135.428 136.152 135.582 136.114 135.697 136.229C136.234 136.729 136.772 137.152 137.271 137.575C137.386 137.652 137.386 137.806 137.31 137.921C137.233 137.96 137.156 137.998 137.079 137.998ZM105.248 137.921C105.171 137.921 105.094 137.883 105.056 137.806C104.71 137.191 104.364 136.614 103.98 136.037C103.904 135.921 103.942 135.806 104.019 135.729C104.134 135.652 104.249 135.691 104.326 135.768C104.71 136.344 105.094 136.921 105.44 137.575C105.516 137.69 105.478 137.844 105.363 137.883C105.324 137.883 105.286 137.921 105.248 137.921ZM182.887 137.152C182.772 137.152 182.695 137.075 182.657 136.96C182.619 136.844 182.695 136.691 182.811 136.691C183.502 136.498 184.193 136.344 184.846 136.191C184.961 136.152 185.076 136.229 185.114 136.383C185.153 136.498 185.076 136.614 184.922 136.652C184.27 136.806 183.578 136.96 182.887 137.152C182.926 137.152 182.926 137.152 182.887 137.152ZM54.7548 136.691C54.6396 136.691 54.5628 136.614 54.5244 136.498C54.4093 135.806 54.2941 135.114 54.1789 134.422C54.1789 134.306 54.2557 134.191 54.3708 134.152C54.486 134.152 54.6013 134.229 54.6397 134.345C54.7165 135.037 54.8316 135.729 54.9468 136.383C54.9852 136.498 54.87 136.614 54.7548 136.652C54.7932 136.691 54.7548 136.691 54.7548 136.691ZM205.58 136.46C205.542 136.46 205.542 136.46 205.504 136.46C204.851 136.229 204.198 136.037 203.507 135.883C203.392 135.845 203.315 135.729 203.353 135.614C203.392 135.498 203.507 135.422 203.622 135.46C204.313 135.614 205.004 135.806 205.657 136.037C205.772 136.075 205.849 136.191 205.811 136.344C205.772 136.383 205.696 136.46 205.58 136.46ZM186.996 136.229C186.881 136.229 186.804 136.152 186.766 136.037C186.727 135.921 186.804 135.806 186.958 135.768C187.649 135.614 188.34 135.498 189.031 135.383C189.146 135.345 189.261 135.46 189.3 135.575C189.338 135.691 189.223 135.806 189.108 135.845C188.455 135.96 187.764 136.075 187.073 136.229C186.996 136.229 186.996 136.229 186.996 136.229ZM86.6248 135.652C86.5864 135.652 86.5096 135.614 86.4712 135.575C86.3944 135.498 86.356 135.345 86.4712 135.229C86.9704 134.691 87.4695 134.191 87.9687 133.729C88.0455 133.653 88.1991 133.653 88.3143 133.729C88.3911 133.806 88.3911 133.96 88.3143 134.076C87.8151 134.499 87.316 134.998 86.8552 135.537C86.7784 135.614 86.7016 135.652 86.6248 135.652ZM191.104 135.537C190.989 135.537 190.874 135.46 190.874 135.345C190.874 135.229 190.951 135.114 191.066 135.075C191.757 134.998 192.487 134.883 193.14 134.845C193.255 134.845 193.37 134.922 193.408 135.037C193.408 135.152 193.332 135.268 193.216 135.306C192.525 135.345 191.834 135.422 191.104 135.537ZM201.51 135.46C200.819 135.345 200.128 135.268 199.398 135.229C199.283 135.229 199.168 135.114 199.168 134.96C199.168 134.845 199.283 134.729 199.437 134.729C200.128 134.806 200.857 134.883 201.51 134.96C201.625 134.998 201.741 135.114 201.702 135.229C201.741 135.383 201.625 135.46 201.51 135.46ZM133.969 135.191C133.892 135.191 133.854 135.152 133.815 135.114C133.355 134.652 132.817 134.152 132.318 133.653C132.241 133.576 132.241 133.422 132.318 133.306C132.395 133.229 132.548 133.229 132.663 133.306C133.163 133.806 133.662 134.306 134.161 134.768C134.238 134.845 134.238 134.998 134.161 135.114C134.123 135.152 134.046 135.191 133.969 135.191ZM195.251 135.152C195.136 135.152 195.021 135.037 195.021 134.922C195.021 134.806 195.098 134.691 195.251 134.691C195.981 134.652 196.672 134.652 197.363 134.652C197.478 134.652 197.594 134.768 197.594 134.883C197.594 134.998 197.478 135.114 197.363 135.114C196.672 135.114 195.981 135.114 195.251 135.152C195.29 135.152 195.29 135.152 195.251 135.152ZM102.829 134.499C102.752 134.499 102.713 134.46 102.675 134.422C102.214 133.883 101.715 133.422 101.177 132.999C101.062 132.922 101.062 132.768 101.139 132.691C101.216 132.576 101.369 132.576 101.446 132.653C101.984 133.076 102.483 133.576 102.982 134.114C103.059 134.191 103.059 134.345 102.982 134.46C102.944 134.499 102.905 134.499 102.829 134.499ZM89.7734 132.883C89.6966 132.883 89.6198 132.845 89.5814 132.768C89.5046 132.653 89.543 132.499 89.6582 132.46C90.2725 132.037 90.8869 131.691 91.5013 131.384C91.6165 131.345 91.77 131.384 91.8084 131.499C91.8468 131.614 91.8085 131.768 91.6933 131.807C91.1173 132.076 90.503 132.422 89.927 132.845C89.8502 132.845 89.8118 132.883 89.7734 132.883ZM54.2173 132.537C54.1021 132.537 53.9869 132.46 53.9869 132.307C53.9485 131.653 53.9101 131.037 53.9101 130.384V130.191C53.9101 130.076 54.0253 129.961 54.1405 129.961C54.2557 129.961 54.3708 130.076 54.3708 130.191V130.384C54.3708 130.999 54.4093 131.653 54.4477 132.268C54.4861 132.422 54.3709 132.537 54.2173 132.537C54.2557 132.537 54.2557 132.537 54.2173 132.537ZM131.051 132.23C130.974 132.23 130.936 132.191 130.897 132.153C130.436 131.653 129.937 131.153 129.476 130.614C129.4 130.538 129.4 130.384 129.476 130.268C129.553 130.191 129.707 130.191 129.822 130.268C130.283 130.768 130.782 131.307 131.243 131.807C131.32 131.884 131.32 132.037 131.243 132.153C131.166 132.191 131.089 132.23 131.051 132.23ZM99.6031 131.922C99.5648 131.922 99.5263 131.922 99.4879 131.883C98.8736 131.576 98.2209 131.307 97.6065 131.153C97.4913 131.114 97.4145 130.999 97.4529 130.884C97.4913 130.768 97.6065 130.691 97.7217 130.73C98.4128 130.922 99.0656 131.153 99.7184 131.499C99.8336 131.576 99.8719 131.691 99.8335 131.807C99.7567 131.845 99.6799 131.922 99.6031 131.922ZM93.5363 131.114C93.4211 131.114 93.3443 131.037 93.3059 130.922C93.2675 130.807 93.3444 130.653 93.4595 130.653C94.1507 130.499 94.8419 130.384 95.533 130.384H95.5714C95.6866 130.384 95.8018 130.499 95.8018 130.614C95.8018 130.73 95.6866 130.845 95.5714 130.845H95.533C94.8803 130.845 94.2275 130.922 93.5363 131.076C93.5747 131.114 93.5363 131.114 93.5363 131.114ZM128.209 129.153C128.133 129.153 128.094 129.115 128.056 129.076C127.595 128.576 127.134 128.038 126.635 127.499C126.558 127.423 126.558 127.269 126.635 127.153C126.712 127.076 126.865 127.076 126.981 127.153C127.441 127.692 127.902 128.192 128.363 128.692C128.44 128.769 128.44 128.922 128.363 129.038C128.325 129.115 128.248 129.153 128.209 129.153ZM54.2557 128.345C54.1021 128.345 54.0253 128.23 54.0253 128.076C54.0637 127.384 54.1789 126.653 54.2557 125.961C54.2941 125.846 54.4093 125.73 54.5244 125.769C54.6396 125.807 54.7548 125.923 54.7164 126.038C54.6012 126.73 54.5245 127.423 54.4861 128.115C54.4861 128.269 54.3709 128.345 54.2557 128.345ZM125.406 126.038C125.329 126.038 125.291 126 125.214 125.961L123.832 124.384C123.755 124.308 123.755 124.154 123.832 124.038C123.909 123.961 124.062 123.961 124.178 124.038L125.56 125.615C125.637 125.692 125.637 125.846 125.56 125.961C125.521 126 125.445 126.038 125.406 126.038ZM54.9084 124.231H54.87C54.7548 124.192 54.678 124.077 54.7164 123.961C54.87 123.269 55.062 122.577 55.2924 121.923C55.3308 121.808 55.446 121.731 55.5996 121.769C55.7148 121.808 55.7916 121.923 55.7532 122.077C55.5228 122.731 55.3692 123.385 55.1772 124.077C55.1004 124.154 55.0236 124.231 54.9084 124.231ZM122.603 122.885C122.526 122.885 122.488 122.846 122.45 122.808C121.989 122.308 121.528 121.769 121.029 121.269C120.952 121.193 120.952 121.039 121.029 120.923C121.106 120.846 121.259 120.846 121.375 120.923C121.835 121.423 122.296 121.962 122.795 122.462C122.872 122.539 122.872 122.692 122.795 122.808C122.718 122.885 122.68 122.885 122.603 122.885ZM56.2139 120.231C56.1755 120.231 56.1372 120.231 56.1372 120.231C56.022 120.193 55.9452 120.039 56.022 119.923C56.2907 119.27 56.5979 118.616 56.9051 118.001C56.9819 117.885 57.0971 117.847 57.2123 117.885C57.3275 117.962 57.3659 118.078 57.3275 118.193C57.0203 118.808 56.7131 119.424 56.4443 120.077C56.3675 120.193 56.2907 120.231 56.2139 120.231ZM119.8 119.808C119.723 119.808 119.685 119.77 119.647 119.731C119.186 119.231 118.687 118.693 118.226 118.193C118.149 118.116 118.149 117.962 118.226 117.847C118.303 117.77 118.456 117.77 118.572 117.847C119.071 118.347 119.531 118.885 119.992 119.385C120.069 119.462 120.069 119.616 119.992 119.731C119.915 119.77 119.839 119.808 119.8 119.808ZM116.92 116.77C116.844 116.77 116.805 116.732 116.767 116.693C116.268 116.193 115.807 115.693 115.308 115.193C115.231 115.116 115.231 114.963 115.308 114.847C115.385 114.77 115.538 114.77 115.653 114.847C116.153 115.347 116.652 115.847 117.112 116.347C117.189 116.424 117.189 116.578 117.112 116.693C117.036 116.732 116.959 116.77 116.92 116.77ZM58.1338 116.539C58.0954 116.539 58.057 116.539 58.0186 116.501C57.9034 116.424 57.865 116.27 57.9418 116.193C58.3258 115.616 58.7098 115.001 59.1321 114.463C59.2089 114.347 59.3626 114.347 59.4393 114.424C59.5545 114.501 59.5545 114.655 59.4777 114.732C59.0554 115.27 58.6714 115.847 58.2874 116.424C58.2874 116.501 58.2106 116.539 58.1338 116.539ZM113.925 113.809C113.887 113.809 113.81 113.77 113.772 113.732C113.273 113.232 112.735 112.771 112.236 112.309C112.159 112.232 112.121 112.078 112.236 111.963C112.313 111.886 112.466 111.848 112.582 111.963C113.081 112.424 113.618 112.886 114.117 113.386C114.194 113.463 114.233 113.617 114.117 113.732C114.079 113.809 114.002 113.809 113.925 113.809ZM60.6297 113.194C60.5913 113.194 60.5145 113.194 60.4761 113.155C60.3609 113.078 60.3609 112.924 60.4377 112.809C60.8984 112.271 61.3592 111.771 61.8968 111.271C61.9736 111.194 62.1271 111.194 62.2423 111.271C62.3191 111.348 62.3191 111.501 62.2423 111.617C61.7432 112.117 61.2824 112.617 60.8216 113.117C60.7449 113.155 60.7065 113.194 60.6297 113.194ZM110.854 111.002C110.815 111.002 110.738 111.002 110.7 110.963C110.162 110.502 109.625 110.04 109.087 109.617C108.972 109.54 108.972 109.386 109.049 109.309C109.126 109.194 109.279 109.194 109.356 109.271C109.894 109.694 110.431 110.155 110.969 110.617C111.084 110.694 111.084 110.848 111.007 110.963C110.969 111.002 110.892 111.002 110.854 111.002ZM63.5863 110.232C63.5095 110.232 63.4711 110.194 63.3943 110.155C63.3175 110.04 63.3175 109.925 63.4327 109.809C63.9703 109.348 64.5078 108.925 65.0838 108.463C65.199 108.386 65.3142 108.386 65.391 108.502C65.4678 108.617 65.4678 108.733 65.3526 108.809C64.815 109.233 64.239 109.656 63.7399 110.117C63.7015 110.232 63.6247 110.232 63.5863 110.232ZM107.59 108.386C107.551 108.386 107.475 108.386 107.436 108.348C106.86 107.925 106.323 107.502 105.747 107.117C105.632 107.04 105.632 106.887 105.67 106.81C105.747 106.694 105.9 106.694 105.977 106.733C106.553 107.117 107.129 107.54 107.667 107.963C107.782 108.04 107.782 108.194 107.705 108.271C107.705 108.348 107.667 108.386 107.59 108.386ZM66.9269 107.694C66.8501 107.694 66.7733 107.656 66.7349 107.579C66.6581 107.464 66.6965 107.31 66.8117 107.271C67.3876 106.887 67.9636 106.502 68.5779 106.156C68.6931 106.079 68.8467 106.118 68.8851 106.233C68.9619 106.348 68.9235 106.502 68.8084 106.541C68.194 106.887 67.618 107.271 67.042 107.656C67.0036 107.694 66.9653 107.694 66.9269 107.694ZM104.134 106.041C104.096 106.041 104.057 106.041 104.019 106.002C103.405 105.618 102.829 105.271 102.214 104.925C102.099 104.848 102.061 104.733 102.137 104.618C102.214 104.502 102.329 104.464 102.445 104.541C103.059 104.887 103.635 105.233 104.249 105.618C104.364 105.694 104.403 105.81 104.326 105.925C104.288 106.002 104.211 106.041 104.134 106.041ZM70.4978 105.541C70.421 105.541 70.3442 105.502 70.3058 105.425C70.229 105.31 70.2675 105.156 70.3826 105.118C70.997 104.772 71.6498 104.464 72.2641 104.156C72.3793 104.118 72.5329 104.156 72.5713 104.272C72.6097 104.387 72.5713 104.541 72.4561 104.579C71.8418 104.887 71.2274 105.195 70.613 105.541C70.5746 105.541 70.5362 105.541 70.4978 105.541ZM100.486 104.002C100.448 104.002 100.409 104.002 100.371 103.964C99.7567 103.656 99.104 103.387 98.4896 103.118C98.3744 103.079 98.2977 102.926 98.3744 102.81C98.4128 102.695 98.5664 102.618 98.6816 102.695C99.3344 102.964 99.9487 103.233 100.601 103.579C100.717 103.618 100.755 103.772 100.717 103.887C100.64 103.925 100.563 104.002 100.486 104.002ZM74.2224 103.695C74.1456 103.695 74.0304 103.656 73.992 103.541C73.9536 103.426 73.992 103.272 74.1072 103.233C74.7599 102.964 75.4127 102.695 76.0654 102.464C76.1806 102.426 76.3342 102.464 76.3726 102.618C76.411 102.733 76.3726 102.887 76.219 102.926C75.5663 103.156 74.9135 103.426 74.2992 103.695C74.2992 103.695 74.2608 103.695 74.2224 103.695ZM96.6466 102.387C96.6082 102.387 96.6081 102.387 96.5697 102.387C95.917 102.156 95.2642 101.964 94.5731 101.772C94.4579 101.733 94.3811 101.618 94.4195 101.503C94.4579 101.387 94.5731 101.31 94.6882 101.349C95.341 101.541 96.0322 101.733 96.6849 101.964C96.8001 102.003 96.8769 102.156 96.8385 102.272C96.8001 102.349 96.7234 102.387 96.6466 102.387ZM78.1389 102.233C78.0237 102.233 77.9469 102.156 77.9085 102.08C77.8701 101.964 77.947 101.81 78.0621 101.772C78.7533 101.58 79.406 101.387 80.0972 101.195C80.2124 101.157 80.366 101.234 80.366 101.349C80.4044 101.464 80.3276 101.618 80.2124 101.618C79.5596 101.772 78.8685 101.964 78.2157 102.156C78.2157 102.233 78.1773 102.233 78.1389 102.233ZM92.6148 101.31H92.5764C91.8852 101.195 91.1941 101.08 90.5413 101.003C90.4262 101.003 90.311 100.887 90.3494 100.734C90.3494 100.618 90.4645 100.503 90.6181 100.541C91.3093 100.618 92.0004 100.734 92.6916 100.849C92.8068 100.887 92.8836 101.003 92.8836 101.118C92.8068 101.234 92.6916 101.31 92.6148 101.31ZM82.2091 101.272C82.0939 101.272 82.0171 101.195 81.9787 101.08C81.9403 100.964 82.0555 100.849 82.1707 100.81C82.8618 100.695 83.553 100.58 84.2441 100.503C84.3593 100.503 84.4745 100.58 84.5129 100.695C84.5129 100.811 84.4361 100.926 84.3209 100.964C83.6298 101.041 82.9386 101.118 82.2859 101.272C82.2475 101.272 82.2474 101.272 82.2091 101.272ZM88.4679 100.849C87.7767 100.811 87.0855 100.811 86.3944 100.849C86.2792 100.849 86.164 100.734 86.164 100.618C86.164 100.503 86.2408 100.387 86.3944 100.387C87.0855 100.349 87.8151 100.349 88.5063 100.387C88.6214 100.387 88.7366 100.503 88.7366 100.618C88.6982 100.734 88.5831 100.849 88.4679 100.849Z" fill="#553E93"/>
</svg>
