<svg width="121" height="192" viewBox="0 0 121 192" fill="none" xmlns="http://www.w3.org/2000/svg">
<path d="M36.432 176.196C36.432 176.196 36.24 180.234 33.5138 181.311C30.7492 182.388 22.8393 183.272 25.7575 185.926C27.4086 187.464 35.3953 186.657 37.6607 186.695C39.9262 186.734 41.9997 187.772 43.7276 186.31C45.609 184.695 43.9195 176.389 43.9195 176.389C43.9195 176.389 41.9612 177.35 40.1949 177.273C37.6607 177.119 36.432 176.196 36.432 176.196Z" fill="#66192D"/>
<path d="M12.3951 180.311C12.3951 180.311 12.1647 184.349 9.40005 185.388C6.63543 186.426 -1.27448 187.233 1.60534 189.887C3.25643 191.425 11.2431 190.733 13.5086 190.771C15.774 190.848 17.8475 191.887 19.5754 190.425C21.4569 188.81 19.8826 180.504 19.8826 180.504C19.8826 180.504 17.9243 181.465 16.1581 181.35C13.6238 181.273 12.3951 180.311 12.3951 180.311Z" fill="#66192D"/>
<path d="M14.2382 183.657C9.59207 183.119 6.17471 179.042 6.48189 174.351C8.28657 147.931 10.7439 134.625 19.6522 123.588C25.3734 116.512 33.7441 109.782 43.7658 106.128C52.4053 102.975 59.7008 101.629 69.1466 101.898C84.5824 102.321 91.6092 105.244 91.6092 105.244C101.055 130.202 82.7394 131.856 69.3386 131.356C68.8778 131.356 68.4555 131.318 67.9947 131.318C59.8544 131.125 45.3402 131.933 39.1966 139.509C34.3585 145.508 30.5955 154.199 27.3317 177.119C26.7173 181.503 22.724 184.618 18.3082 184.119L14.2382 183.657Z" fill="#FF443C"/>
<path d="M37.5071 179.004C32.861 178.465 29.4053 174.658 29.6741 170.428C31.1332 146.354 33.3986 134.24 42.1533 124.318C47.7593 117.935 55.8228 113.474 66.0749 111.051C73.3705 109.32 81.8947 108.628 91.3405 108.974C106.738 109.551 113.765 108.513 113.765 108.513C124.094 149.046 79.0149 127.51 66.2669 138.317C60.6993 143.047 53.5189 152.315 50.6007 173.197C50.0248 177.196 46.0698 180.004 41.6925 179.465L37.5071 179.004Z" fill="#FF443C"/>
<path d="M30.1347 162.429L29.9427 162.39C29.9427 162.313 31.1715 156.353 36.1631 150.084C39.0813 146.392 42.7675 143.354 47.0296 141.008C52.3669 138.086 58.6642 136.278 65.8061 135.625V135.817C49.7559 137.278 40.8861 144.431 36.3168 150.2C31.3251 156.43 30.1347 162.39 30.1347 162.429Z" fill="#020202"/>
<path d="M84.1984 34.7142L82.701 28.2919L82.2786 26.4076L79.7443 15.4089L78.5156 26.0615L77.7861 32.4837L77.5556 34.5219C77.4021 35.9064 76.5189 36.1371 75.4438 37.2523C74.983 37.7138 72.1416 40.4443 75.0215 42.021C78.6308 43.9438 85.8495 41.944 88.7294 38.8675C88.7294 38.8675 84.6592 36.7909 84.1984 34.7142Z" fill="#FDAD9B"/>
<path d="M70.5674 17.5241C71.8729 11.2556 77.0949 7.06389 82.2786 8.14068C87.4623 9.21746 90.6109 15.1398 89.3054 21.4082C87.9999 27.6767 82.7778 31.8684 77.5941 30.7916C72.4489 29.7148 69.3002 23.7925 70.5674 17.5241Z" fill="#FDAD9B"/>
<path d="M74.8679 15.0628C69.377 14.8706 66.9964 11.5248 67.15 8.60211C67.342 4.83335 69.953 1.71834 72.564 3.29507C75.1751 4.87179 74.292 1.37227 76.9414 1.21844C81.9331 0.91079 82.5858 4.48724 86.6176 4.94872C91.9164 5.56403 97.3304 14.8706 92.4155 21.0236C92.3771 21.0236 79.2068 15.2167 74.8679 15.0628Z" fill="#66192D"/>
<path d="M70.2986 10.948C70.2986 10.948 75.7126 16.9857 74.7143 20.1007C73.716 23.2157 73.8311 24.4463 77.0949 26.4076C80.3587 28.3689 77.1717 30.8686 81.7026 31.407C86.2335 31.9454 92.1852 26.9845 92.8379 18.1394C93.1835 13.217 90.6108 9.79431 90.6108 9.79431L70.2986 10.948Z" fill="#66192D"/>
<path d="M71.7577 19.7163C72.4873 18.8318 73.716 18.6395 74.5223 19.2933C75.3287 19.9471 75.3671 21.2161 74.6375 22.1006C73.908 22.9851 72.6792 23.1774 71.8728 22.5236C71.1049 21.8699 71.0282 20.6393 71.7577 19.7163Z" fill="#FDAD9B"/>
<path d="M91.2252 19.793C91.1868 19.793 91.11 19.7546 91.11 19.7161C90.6876 18.5624 89.4589 18.0625 89.4589 18.0625C89.3821 18.024 89.3437 17.9471 89.3821 17.8702C89.4205 17.7933 89.4973 17.7548 89.5741 17.7933C89.6125 17.8317 90.918 18.3701 91.3788 19.6392C91.4172 19.7161 91.3788 19.793 91.302 19.8315C91.2636 19.793 91.2636 19.793 91.2252 19.793Z" fill="#66192D"/>
<path d="M89.3822 17.3703C89.3054 17.3703 89.267 17.3319 89.2286 17.255C89.2286 17.178 89.2669 17.1011 89.3437 17.1011C89.3437 17.1011 90.8029 16.7935 90.8413 15.6013C90.8413 15.5244 90.918 15.4475 90.9948 15.4475C91.0716 15.4475 91.1485 15.5244 91.1485 15.6013C91.1101 16.9857 89.459 17.3319 89.3822 17.3703C89.4206 17.3703 89.4206 17.3703 89.3822 17.3703Z" fill="#66192D"/>
<path d="M72.9864 2.56463C72.8712 2.56463 72.756 2.52615 72.6024 2.48769C72.1416 2.29541 71.796 2.0262 71.4888 1.757C70.8745 1.25707 70.3754 0.834052 69.1466 1.14171C69.0698 1.18016 68.993 1.10328 68.9547 1.02636C68.9547 0.94945 68.9931 0.872537 69.0699 0.83408C70.4138 0.48797 71.0665 1.02634 71.6808 1.48782C71.988 1.71856 72.2953 1.98774 72.7176 2.14157C72.948 2.21848 73.14 2.21849 73.2936 2.10312C73.9847 1.71856 74.2535 0.218735 74.2535 0.218735C74.2535 0.141822 74.3303 0.103394 74.4071 0.103394C74.4839 0.103394 74.5607 0.180316 74.5223 0.25723C74.5223 0.334143 74.2151 1.91087 73.4471 2.37235C73.2936 2.52617 73.14 2.56463 72.9864 2.56463Z" fill="#66192D"/>
<path d="M86.6943 3.29517C84.5057 3.29517 82.8929 1.56464 82.8162 1.48773C82.7778 1.41081 82.7778 1.3339 82.8162 1.29544C82.8929 1.25699 82.9697 1.25699 83.0081 1.29544C83.0081 1.3339 84.7744 3.17982 86.9631 3.02599C87.0399 3.02599 87.1167 3.06446 87.1167 3.17983C87.1167 3.25674 87.0783 3.33367 86.9631 3.33367C86.9247 3.29521 86.8095 3.29517 86.6943 3.29517Z" fill="#66192D"/>
<path d="M73.1016 23.0235C72.7945 23.0235 72.6025 22.9466 72.6025 22.9466C72.5641 22.9466 72.564 22.9081 72.564 22.8696C72.564 22.8312 72.6024 22.8312 72.6408 22.8312C72.6792 22.8696 73.8312 23.3311 74.7911 21.7159C74.7911 21.6775 74.8679 21.6775 74.8679 21.6775C74.9063 21.7159 74.9063 21.7544 74.9063 21.7544C74.3303 22.8312 73.6008 23.0235 73.1016 23.0235Z" fill="#66192D"/>
<path d="M82.6242 35.4451C58.5105 35.4451 53.826 51.3661 53.826 51.3661C53.826 51.3661 61.4671 53.5582 61.4287 56.0578C61.352 64.5952 56.0532 88.7075 57.1667 103.475C57.1667 103.475 82.8546 146.277 116.529 110.474C116.491 110.474 130.275 35.4451 82.6242 35.4451Z" fill="#552748"/>
<path d="M88.691 179.811H92.9148V133.433L90.1502 136.509L88.691 179.811Z" fill="#66192D"/>
<path d="M78.055 182.349C78.055 182.349 97.1002 182.696 103.436 182.734C104.127 182.734 104.626 181.773 104.626 181.08C104.626 180.388 103.589 179.542 102.898 179.542C96.6777 179.581 78.0165 179.811 78.0165 179.811C77.3254 179.811 76.7495 180.388 76.7495 181.08C76.7879 181.773 77.3638 182.349 78.055 182.349Z" fill="#66192D"/>
<path d="M103.743 184.618C103.512 183.234 102.284 182.349 100.863 182.349C99.4424 182.349 97.9832 183.272 97.9832 184.695C97.9832 186.464 99.7496 187.695 101.17 187.695C102.591 187.695 104.012 186.387 103.743 184.618Z" fill="#66192D"/>
<path d="M83.4306 184.618C83.2002 183.234 81.9715 182.349 80.5508 182.349C79.1301 182.349 77.671 183.272 77.671 184.695C77.671 186.464 79.4373 187.695 80.858 187.695C82.2787 187.695 83.6994 186.387 83.4306 184.618Z" fill="#66192D"/>
<path d="M99.2888 136.278C99.2888 136.278 99.9799 139.316 92.9532 140.278C85.9265 141.239 82.8931 136.278 82.8931 136.278H99.2888Z" fill="#66192D"/>
<path d="M82.317 131.587C82.2402 123.088 83.5457 88.669 95.641 86.4C100.402 85.5155 117.182 83.3619 119.447 90.5533C123.287 102.859 112.843 133.394 112.843 133.394C112.843 133.394 111.883 136.624 108.466 137.009C105.01 137.355 63.003 138.586 62.5807 137.009C60.968 130.818 76.2886 133.317 82.317 131.587Z" fill="#FF8548"/>
<path d="M75.3286 55.827C75.1367 56.8269 70.145 56.6346 64.1934 55.4039C58.2418 54.1733 53.5957 52.3659 53.7877 51.366C53.9797 50.3661 58.9714 50.5584 64.923 51.789C70.913 53.0197 75.559 54.8271 75.3286 55.827Z" fill="#66192D"/>
<path d="M17.5403 84.3618C14.9677 83.0927 18.3083 74.0169 18.3083 74.0169C18.8842 73.2478 35.1265 80.7853 47.7593 71.5172C52.2518 68.21 55.3235 54.0579 55.3619 52.5966C55.3619 52.4812 58.6641 51.789 64.0782 52.8273C68.5323 53.6733 72.9864 56.4422 72.9864 56.4422C72.8712 59.1342 70.5674 70.0174 66.8428 76.8243C59.1249 90.9763 32.5922 94.822 17.5403 84.3618Z" fill="#F18C7E"/>
<g opacity="0.5">
<path d="M50.1399 82.8237C49.6023 82.8237 49.1031 82.6314 48.7575 82.2468C47.9512 81.3623 48.3352 79.7471 49.5639 78.6319C50.1399 78.0935 50.831 77.7474 51.5221 77.6705C52.2517 77.5551 52.8661 77.7858 53.25 78.2089C53.634 78.6703 53.7877 79.2856 53.5957 79.9779C53.4421 80.6316 53.0197 81.2854 52.4437 81.8238C51.7526 82.4776 50.8694 82.8237 50.1399 82.8237ZM51.9061 78.2089C51.8293 78.2089 51.7141 78.2089 51.6374 78.2089C51.0614 78.2858 50.4854 78.5934 49.9862 79.0164C48.9879 79.9394 48.6423 81.17 49.2183 81.8238C49.7943 82.4776 51.0998 82.2468 52.0981 81.3623C52.5973 80.9008 52.9429 80.3624 53.0965 79.7856C53.2117 79.2856 53.1348 78.8242 52.8661 78.5165C52.6357 78.3627 52.2901 78.2089 51.9061 78.2089Z" fill="#E08B65"/>
</g>
<path d="M15.0829 78.555C14.6606 79.2856 13.7006 79.5548 12.9711 79.1318L3.37168 73.5171C2.64213 73.0941 2.37335 72.1327 2.79572 71.402C3.21809 70.6713 4.17803 70.4022 4.90759 70.8252L14.507 76.4398C15.2749 76.8629 15.5437 77.8243 15.0829 78.555Z" fill="#F18C7E"/>
<path d="M17.0796 75.1322C16.6572 75.8629 15.6973 76.1321 14.9677 75.709L2.48854 68.4407C1.75898 68.0177 1.4902 67.0563 1.91257 66.3256C2.33495 65.5949 3.29488 65.3257 4.02444 65.7488L16.5036 73.0171C17.2716 73.4786 17.502 74.4015 17.0796 75.1322Z" fill="#F18C7E"/>
<path d="M24.2216 78.0934L23.7224 78.2857C22.7624 78.6703 21.6873 78.1703 21.3033 77.2089L17.6556 67.9024C17.2716 66.941 17.7708 65.8642 18.7307 65.4796L19.2299 65.2874C20.1898 64.9028 21.265 65.4027 21.649 66.3641L25.2967 75.6707C25.6807 76.6321 25.1815 77.7088 24.2216 78.0934Z" fill="#F18C7E"/>
<path d="M19.0763 71.748C18.6539 72.4786 17.6939 72.7478 16.9644 72.3248L6.78904 66.4025C6.05949 65.9795 5.79071 65.0181 6.21308 64.2874C6.63545 63.5567 7.59539 63.2875 8.32494 63.7106L18.5003 69.6328C19.2298 70.0559 19.4986 71.0173 19.0763 71.748Z" fill="#F18C7E"/>
<path d="M20.2281 84.6696C20.2281 84.6696 11.4351 84.708 7.55694 79.7855C6.21303 78.0934 9.78404 66.8257 12.2031 67.0179C14.6221 67.2102 23.6456 73.2095 23.6456 73.2095L20.2281 84.6696Z" fill="#F18C7E"/>
<path d="M13.1631 81.9006L13.1246 81.9776C12.7023 82.6698 11.8192 82.9389 11.0896 82.5159L3.33326 77.9781C2.6421 77.555 2.37336 76.6705 2.79573 75.9398L2.83417 75.8629C3.25654 75.1707 4.13961 74.9015 4.86916 75.3245L12.6255 79.8624C13.3551 80.2855 13.5854 81.2084 13.1631 81.9006Z" fill="#F18C7E"/>
</svg>
