<svg width="488" height="615" viewBox="0 0 488 615" fill="none" xmlns="http://www.w3.org/2000/svg">
<g opacity="0.05">
<path d="M675.546 248.835C666.662 212.535 647.349 178.165 620.311 152.292C597.136 130.28 568.939 114.447 538.424 105.951C529.54 103.634 520.27 102.476 510.227 102.476C465.421 101.703 380.461 129.794 335.655 107.782C280.42 80.3641 236.37 -8.74225 135.942 1.29828C106.973 4.00146 79.1621 18.2899 57.1454 38.3708C39.3775 54.5901 26.6309 76.2158 18.1332 98.6138C4.22786 134.914 -0.407228 173.531 1.13781 212.921C1.91033 235.319 5.0004 258.103 8.86299 280.115C16.9744 325.297 120.054 354.202 138.208 396.681C166.018 460.786 117.402 536.92 175.727 575.151C188.86 583.647 202.765 591.37 217.443 596.777C235.597 603.728 254.138 607.976 273.451 610.679C299.716 614.54 326.368 614.927 352.634 612.996C444.563 606.045 534.948 567.041 599.839 499.847C672.842 422.999 694.473 325.683 675.546 248.835Z" fill="url(#paint0_linear_25_550)"/>
<path d="M675.546 248.835C666.662 212.535 647.349 178.165 620.311 152.292C597.136 130.28 568.939 114.447 538.424 105.951C529.54 103.634 520.27 102.476 510.227 102.476C465.421 101.703 380.461 129.794 335.655 107.782C280.42 80.3641 236.37 -8.74225 135.942 1.29828C106.973 4.00146 79.1621 18.2899 57.1454 38.3708C39.3775 54.5901 26.6309 76.2158 18.1332 98.6138C4.22786 134.914 -0.407228 173.531 1.13781 212.921C1.91033 235.319 5.0004 258.103 8.86299 280.115C16.9744 325.297 120.054 354.202 138.208 396.681C166.018 460.786 117.402 536.92 175.727 575.151C188.86 583.647 202.765 591.37 217.443 596.777C235.597 603.728 254.138 607.976 273.451 610.679C299.716 614.54 326.368 614.927 352.634 612.996C444.563 606.045 534.948 567.041 599.839 499.847C672.842 422.999 694.473 325.683 675.546 248.835Z" fill="url(#paint1_linear_25_550)"/>
</g>
<defs>
<linearGradient id="paint0_linear_25_550" x1="551.45" y1="520.364" x2="68.5903" y2="38.2871" gradientUnits="userSpaceOnUse">
<stop offset="0.00666585" stop-color="#FF9C37"/>
<stop offset="0.9967" stop-color="#FF7300"/>
</linearGradient>
<linearGradient id="paint1_linear_25_550" x1="-22.2372" y1="678.663" x2="671.842" y2="-117.972" gradientUnits="userSpaceOnUse">
<stop stop-color="#FFDF00"/>
<stop offset="1" stop-color="#FFB800"/>
</linearGradient>
</defs>
</svg>
